<svg width="10" height="11" viewBox="0 0 10 11" fill="none" xmlns="http://www.w3.org/2000/svg">
<mask id="mask0_40_632" style="mask-type:luminance" maskUnits="userSpaceOnUse" x="0" y="0" width="10" height="11">
<path d="M0 0H10V10.1351H0V0Z" fill="white"/>
</mask>
<g mask="url(#mask0_40_632)">
<path d="M7.17695 6.77259C7.79667 6.03568 8.13662 5.11085 8.13662 4.13218C8.13662 3.0416 7.71643 2.01541 6.95524 1.24367C6.19405 0.472973 5.18159 0.0475082 4.10368 0.0475082C3.02682 0.0475082 2.01437 0.472973 1.25317 1.24367C-0.318827 2.83678 -0.318827 5.42863 1.25317 7.02069C2.01437 7.79244 3.02682 8.21791 4.10368 8.21791C5.06969 8.21791 5.9829 7.87373 6.71031 7.24662L9.41618 9.98839C9.48164 10.0538 9.5661 10.0866 9.65056 10.0866C9.73501 10.0866 9.81947 10.0538 9.88387 9.98839C10.0127 9.85747 10.0127 9.64633 9.88387 9.51541L7.17695 6.77259ZM1.71981 6.54772C0.405413 5.21643 0.405413 3.04899 1.71981 1.71769C3.03421 0.386402 5.17315 0.385346 6.48755 1.71769C7.12522 2.36275 7.47572 3.22002 7.47572 4.13218C7.47572 5.0454 7.12522 5.90266 6.48755 6.54772C5.17315 7.88007 3.03421 7.87901 1.71981 6.54772Z" fill="black"/>
</g>
</svg>
