<svg width="51" height="30" viewBox="0 0 51 30" fill="none" xmlns="http://www.w3.org/2000/svg">
<mask id="mask0_40_565" style="mask-type:luminance" maskUnits="userSpaceOnUse" x="0" y="0" width="51" height="30">
<path d="M50.1429 0L50.1429 30L0 30L0 0L50.1429 0Z" fill="white"/>
</mask>
<g mask="url(#mask0_40_565)">
<path d="M48.9286 4.60268L5.71651 4.60268V0.343749C5.71651 0.249999 5.68303 0.169642 5.61607 0.10491C5.54911 0.0379453 5.47098 0.0044632 5.37723 0.0044632L0.339283 0.0044632C0.245533 0.0044632 0.165176 0.0379453 0.0982132 0.10491C0.03125 0.169642 0 0.249999 0 0.343749V2.72768C0 2.82143 0.03125 2.90178 0.0982132 2.96652C0.165176 3.03348 0.245533 3.06696 0.339283 3.06696L3.07366 3.06696L3.07366 29.6562C3.07366 29.7478 3.10714 29.8281 3.17187 29.8951C3.23884 29.9598 3.31919 29.9933 3.41294 29.9933H5.37946C5.47321 29.9933 5.55357 29.9598 5.62053 29.8951C5.6875 29.8281 5.71875 29.7478 5.71875 29.6562V26.2254H8.73661V29.6562C8.73661 29.7478 8.77009 29.8281 8.83482 29.8951C8.90178 29.9598 8.98214 29.9933 9.07589 29.9933L37.6808 29.9933C37.7746 29.9933 37.8527 29.9598 37.9196 29.8951C37.9866 29.8281 38.0201 29.7478 38.0201 29.6562V26.2254H40.2009V29.6562C40.2009 29.7478 40.2344 29.8281 40.3013 29.8951C40.3661 29.9598 40.4464 29.9933 40.5402 29.9933H46.2612C46.3549 29.9933 46.4353 29.9598 46.5 29.8951C46.567 29.8281 46.6004 29.7478 46.6004 29.6562V26.2254H48.9286C49.0893 26.2254 49.2433 26.1942 49.3929 26.1339C49.5424 26.0714 49.6741 25.9844 49.7879 25.8705C49.9018 25.7567 49.9888 25.625 50.0513 25.4777C50.1138 25.3281 50.1429 25.1741 50.1429 25.0134L50.1429 5.81696C50.1429 5.65625 50.1138 5.5 50.0513 5.35268C49.9888 5.20312 49.9018 5.07366 49.7879 4.95982C49.6741 4.84598 49.5424 4.7567 49.3929 4.69643C49.2433 4.63393 49.0893 4.60268 48.9286 4.60268ZM3.75223 29.317L3.75223 2.72768C3.75223 2.63393 3.71875 2.55357 3.65178 2.48884C3.58705 2.42187 3.50669 2.38839 3.41294 2.38839L0.67857 2.38839V0.680802L5.03794 0.680802L5.04018 29.317H3.75223ZM41.8125 5.28125L39.8437 7.2433L13.7232 7.2433L11.7545 5.28125L41.8125 5.28125ZM11.529 25.5491L13.5982 23.4844L39.721 23.4844L41.7902 25.5491L11.529 25.5491ZM9.41518 26.2478H11.596V29.317H9.41518V26.2478ZM12.2746 26.2478H14.4576V29.317H12.2746V26.2478ZM15.1362 26.2478H17.317V29.317H15.1362V26.2478ZM17.9955 26.2478H20.1786L20.1786 29.317H17.9955V26.2478ZM20.8571 26.2478L23.0379 26.2478L23.0379 29.317L20.8571 29.317L20.8571 26.2478ZM23.7165 26.2478H25.8996L25.8996 29.317H23.7165L23.7165 26.2478ZM26.5781 26.2478H28.7589L28.7589 29.317H26.5781L26.5781 26.2478ZM29.4375 26.2478H31.6205L31.6205 29.317H29.4375L29.4375 26.2478ZM32.2991 26.2478H34.4799V29.317H32.2991L32.2991 26.2478ZM37.3415 29.317H35.1585V26.2478H37.3415V29.317ZM40.8795 26.2478H43.0603V29.317H40.8795V26.2478ZM45.9219 29.317H43.7411V26.2478H45.9219V29.317ZM49.4643 25.0134C49.4643 25.1607 49.4129 25.2879 49.308 25.3929C49.2031 25.4955 49.0759 25.5491 48.9286 25.5491H42.6696C42.6562 25.4821 42.625 25.4241 42.5759 25.3772L40.1004 22.9085C40.0357 22.8415 39.9554 22.808 39.8616 22.808L13.4576 22.808C13.3638 22.808 13.2835 22.8415 13.2165 22.9085L10.8661 25.2522C10.7835 25.3348 10.7522 25.433 10.7723 25.5491H5.71875L5.71875 5.28125L10.8125 5.28125C10.8281 5.3058 10.846 5.33036 10.8661 5.35268L13.3415 7.82143C13.4085 7.88616 13.4866 7.91964 13.5804 7.91964L39.9844 7.91964C40.0781 7.91964 40.1585 7.88616 40.2254 7.82143L42.5759 5.47545C42.6317 5.42187 42.6629 5.35491 42.6719 5.28125L48.9286 5.28125C49.0759 5.28125 49.2031 5.33259 49.308 5.4375C49.4129 5.54241 49.4643 5.66741 49.4643 5.81696L49.4643 25.0134Z" fill="#5CE1E6"/>
</g>
<path d="M12.7991 13.0625C12.933 11.529 13.4062 10.4777 14.2232 9.90626C14.3527 9.81474 14.3973 9.6942 14.3594 9.54242C14.3214 9.39063 14.2254 9.30358 14.0692 9.28349C13.8036 9.25001 13.5379 9.23215 13.2679 9.23215C12.8527 9.23215 12.442 9.27456 12.0357 9.35938C11.875 9.3884 11.7433 9.46653 11.6429 9.59376C10.8259 10.5804 10.8371 11.9286 11.6741 13.6384C11.9955 13.3415 12.3705 13.1496 12.7991 13.0625ZM12.1674 10.0268L12.1696 10.0223H12.1719C12.5179 9.9509 12.8683 9.91295 13.2232 9.90849C12.6808 10.5447 12.3304 11.4263 12.1741 12.5424C12.1071 12.5692 12.0424 12.5982 11.9754 12.6272C11.5737 11.5201 11.6384 10.663 12.1674 10.0268Z" fill="#5CE1E6"/>
<path d="M10.9107 15.279C10.9263 14.8438 11.0558 14.442 11.2969 14.0781C10.3058 12.9018 9.89509 11.8214 10.067 10.8415C10.0759 10.7924 10.0737 10.7411 10.0603 10.692C10.0469 10.6429 10.0223 10.6004 9.99107 10.5603C9.95759 10.5223 9.91741 10.4911 9.87053 10.471C9.82589 10.4487 9.77678 10.4375 9.72544 10.4375C9.64732 10.4375 9.57812 10.4621 9.51785 10.5112C8.97098 10.9286 8.50892 11.4241 8.13169 11.9978C8.03794 12.1317 8.00223 12.279 8.02232 12.442C8.14285 13.7143 9.10491 14.6607 10.9107 15.279ZM8.69866 12.3705C8.89285 12.0759 9.11384 11.8013 9.35937 11.5513C9.42857 12.3817 9.8058 13.2522 10.4866 14.1518C10.4576 14.2165 10.4308 14.2835 10.4085 14.3505C9.33705 13.8505 8.77455 13.2009 8.69642 12.3772V12.3728L8.69866 12.3705Z" fill="#5CE1E6"/>
<path d="M11.5335 16.9777C11.2366 16.6563 11.0446 16.2835 10.9553 15.8549C9.41963 15.7232 8.36383 15.25 7.79017 14.4353C7.72321 14.3371 7.62946 14.288 7.51115 14.288C7.4241 14.288 7.34821 14.3147 7.28124 14.3728C7.21651 14.4308 7.17856 14.5022 7.1674 14.5893C7.07589 15.2679 7.10044 15.9442 7.2433 16.6161C7.27008 16.7768 7.35044 16.9063 7.47767 17.0067C7.96651 17.4107 8.5424 17.6116 9.20981 17.6116C9.89062 17.6116 10.6652 17.3996 11.5335 16.9777ZM7.90847 16.4844V16.4799C7.83481 16.1339 7.79687 15.7857 7.79463 15.433C8.4308 15.9732 9.31472 16.3237 10.4353 16.4777C10.4598 16.5447 10.4888 16.6094 10.5201 16.6741C10.0379 16.846 9.59821 16.9353 9.20981 16.9353C8.70312 16.9353 8.27678 16.788 7.91071 16.4866L7.90847 16.4844Z" fill="#5CE1E6"/>
<path d="M14.5804 13.404C15.5871 12.5603 16.5223 12.1384 17.3862 12.1384C17.5335 12.1384 17.6808 12.1496 17.8259 12.1763C17.846 12.1786 17.8683 12.1808 17.8884 12.1808C18.0313 12.1786 18.1339 12.1138 18.1942 11.9866C18.2567 11.8594 18.2455 11.7411 18.1585 11.6272C17.7388 11.0826 17.2433 10.6228 16.6674 10.2455C16.5558 10.1696 16.4353 10.1317 16.3013 10.1317C16.2746 10.1317 16.25 10.1339 16.2232 10.1362C14.9464 10.2567 13.9978 11.2187 13.3772 13.0179C13.8147 13.0335 14.2143 13.1629 14.5804 13.404ZM16.2879 10.8103H16.2902L16.2924 10.8125C16.5893 11.0045 16.8638 11.2254 17.1161 11.471C16.2835 11.5379 15.4085 11.9152 14.5067 12.596C14.442 12.567 14.375 12.5402 14.308 12.5156C14.808 11.4487 15.4598 10.8884 16.2879 10.8103Z" fill="#5CE1E6"/>
<path d="M13.7567 17.6942C13.6228 19.2254 13.1473 20.279 12.3326 20.8504C12.2031 20.9397 12.1585 21.0603 12.1964 21.212C12.2321 21.3661 12.3304 21.4509 12.4866 21.471C12.7522 21.5067 13.0179 21.5245 13.2857 21.5245C13.7009 21.5223 14.1138 21.4799 14.5201 21.3951C14.6808 21.3683 14.8103 21.2879 14.9107 21.1607C15.7299 20.1741 15.7187 18.8259 14.8817 17.1183C14.5603 17.4129 14.1853 17.6049 13.7567 17.6942ZM14.3884 20.7299L14.3862 20.7321H14.3839C14.0357 20.8058 13.6875 20.8437 13.3326 20.846C13.875 20.212 14.2254 19.3303 14.3817 18.212C14.4464 18.1875 14.5134 18.1585 14.5781 18.1272C14.9799 19.2366 14.9174 20.0915 14.3884 20.7299Z" fill="#5CE1E6"/>
<path d="M15.6451 15.4754C15.6272 15.9129 15.4978 16.3125 15.2567 16.6763C16.25 17.8549 16.6607 18.933 16.4888 19.9129C16.4799 19.9643 16.4821 20.0134 16.4955 20.0625C16.5089 20.1116 16.5313 20.1562 16.5647 20.1942C16.5982 20.2344 16.6384 20.2634 16.683 20.2857C16.7299 20.3058 16.779 20.317 16.8304 20.317C16.9085 20.317 16.9777 20.2924 17.0379 20.2455C17.5848 19.8281 18.0469 19.3326 18.4241 18.7567C18.5179 18.6228 18.5536 18.4754 18.5335 18.3147C18.4129 17.0402 17.4487 16.096 15.6451 15.4754ZM17.8571 18.3839C17.6629 18.6808 17.442 18.9531 17.1942 19.2054C17.1272 18.3728 16.75 17.5022 16.067 16.6049C16.096 16.5379 16.1228 16.4732 16.1473 16.404C17.2188 16.904 17.779 17.5558 17.8594 18.3795V18.3817L17.8571 18.3839Z" fill="#5CE1E6"/>
<path d="M19.0759 13.7478C18.5893 13.346 18.0112 13.1451 17.346 13.1451C16.6652 13.1451 15.8884 13.3549 15.0223 13.779C15.3192 14.0982 15.5112 14.4732 15.6004 14.9018C17.1362 15.0335 18.192 15.5067 18.7656 16.3214C18.8326 16.4196 18.9263 16.4665 19.0446 16.4665C19.1317 16.4687 19.2076 16.4397 19.2746 16.3839C19.3393 16.3259 19.3772 16.2545 19.3884 16.1674C19.4799 15.4866 19.4531 14.8103 19.3125 14.1384C19.2835 13.9799 19.2054 13.8482 19.0759 13.7478ZM16.1205 14.2768C16.0937 14.212 16.067 14.1451 16.0357 14.0826C16.5179 13.9085 16.9554 13.8214 17.346 13.8214C17.8527 13.8214 18.279 13.9687 18.6451 14.2701L18.6473 14.2723V14.2745C18.7187 14.6205 18.7567 14.9687 18.7612 15.3214C18.125 14.7812 17.2411 14.433 16.1205 14.2768Z" fill="#5CE1E6"/>
<path d="M11.9754 17.3527C10.9687 18.1964 10.0335 18.6183 9.16964 18.6183C9.02232 18.6183 8.87499 18.6049 8.72991 18.5803C8.70758 18.5759 8.68749 18.5759 8.66517 18.5759C8.52455 18.5759 8.42187 18.6406 8.35937 18.7678C8.29687 18.8951 8.31026 19.0156 8.39732 19.1272C8.81473 19.6741 9.31249 20.1339 9.88839 20.5089C9.99776 20.5848 10.1205 20.6228 10.2545 20.6228C10.279 20.6228 10.3058 20.6228 10.3326 20.6183C11.6094 20.4978 12.558 19.5379 13.1786 17.7388C12.7411 17.721 12.3393 17.5915 11.9754 17.3527ZM10.2679 19.9464H10.2656L10.2612 19.9442C9.96651 19.75 9.69196 19.5312 9.43973 19.2835C10.2723 19.2165 11.1473 18.8393 12.0469 18.1607C12.1138 18.1875 12.1808 18.2143 12.2478 18.2388C11.7455 19.308 11.0937 19.8683 10.2679 19.9464Z" fill="#5CE1E6"/>
<path d="M11.3348 15.3772C11.3348 15.6339 11.3839 15.8817 11.4821 16.1205C11.5804 16.3571 11.721 16.567 11.904 16.7478C12.0848 16.9308 12.2946 17.0692 12.5335 17.1696C12.7723 17.2679 13.0201 17.317 13.2768 17.317C13.5357 17.317 13.7835 17.2679 14.0223 17.1696C14.2589 17.0692 14.4687 16.9308 14.6518 16.7478C14.8348 16.567 14.9754 16.3571 15.0737 16.1205C15.1719 15.8817 15.221 15.6339 15.221 15.3772C15.221 15.1205 15.1719 14.8728 15.0737 14.6362C14.9754 14.3996 14.8348 14.1897 14.6518 14.0067C14.4687 13.8259 14.2589 13.6853 14.0223 13.5871C13.7835 13.4888 13.5357 13.4397 13.2768 13.4397C13.0201 13.4397 12.7723 13.4888 12.5335 13.5871C12.2969 13.6853 12.087 13.8259 11.904 14.0089C11.721 14.1897 11.5804 14.3996 11.4821 14.6362C11.3839 14.8728 11.3348 15.1205 11.3348 15.3772ZM14.5424 15.3772C14.5424 15.5446 14.5112 15.7054 14.4464 15.8616C14.3817 16.0156 14.2902 16.1518 14.1719 16.2701C14.0536 16.3884 13.9174 16.4799 13.7612 16.5424C13.6071 16.6071 13.4442 16.6384 13.2768 16.6384C13.1094 16.6384 12.9487 16.6071 12.7924 16.5424C12.6384 16.4799 12.5022 16.3884 12.3839 16.2701C12.2634 16.1518 12.1741 16.0156 12.1094 15.8616C12.0446 15.7054 12.0134 15.5446 12.0134 15.3772C12.0134 15.2098 12.0446 15.0491 12.1094 14.8951C12.1741 14.7411 12.2634 14.6049 12.3839 14.4866C12.5022 14.3683 12.6384 14.2768 12.7924 14.2121C12.9487 14.1496 13.1094 14.1161 13.2768 14.1161C13.4442 14.1161 13.6071 14.1496 13.7612 14.2121C13.9152 14.2768 14.0536 14.3683 14.1719 14.4866C14.2902 14.6049 14.3817 14.7411 14.4464 14.8951C14.5089 15.0491 14.5424 15.2098 14.5424 15.3772Z" fill="#5CE1E6"/>
<path d="M26.9732 13.0625C27.1049 11.529 27.5804 10.4777 28.3973 9.90626C28.5245 9.81474 28.5714 9.6942 28.5335 9.54242C28.4955 9.39063 28.3996 9.30358 28.2433 9.28349C27.9777 9.25001 27.7121 9.23215 27.442 9.23215C27.0268 9.23215 26.6161 9.27456 26.2098 9.35938C26.0491 9.3884 25.9174 9.46653 25.817 9.59376C25 10.5804 25.0112 11.9286 25.8482 13.6384C26.1696 13.3415 26.5446 13.1496 26.9732 13.0625ZM26.3415 10.0268L26.3437 10.0223H26.346C26.692 9.9509 27.0424 9.91295 27.3973 9.90849C26.8549 10.5447 26.5045 11.4263 26.3482 12.5424C26.2812 12.5692 26.2165 12.5982 26.1495 12.6272C25.7478 11.5201 25.8125 10.663 26.3415 10.0268Z" fill="#5CE1E6"/>
<path d="M25.0848 15.279C25.1004 14.8438 25.2299 14.442 25.471 14.0781C24.4799 12.9018 24.0692 11.8214 24.2411 10.8415C24.2478 10.7924 24.2455 10.7411 24.2321 10.692C24.221 10.6429 24.1964 10.6004 24.1629 10.5603C24.1317 10.5223 24.0915 10.4911 24.0446 10.471C24 10.4487 23.9509 10.4375 23.8995 10.4375C23.8214 10.4375 23.7522 10.4621 23.6897 10.5112C23.1451 10.9286 22.683 11.4241 22.3058 11.9978C22.212 12.1317 22.1763 12.279 22.1942 12.442C22.317 13.7143 23.279 14.6607 25.0848 15.279ZM22.8728 12.3705C23.067 12.0759 23.2879 11.8013 23.5335 11.5513C23.6027 12.3817 23.9799 13.2522 24.6607 14.1518C24.6317 14.2165 24.6071 14.2835 24.5826 14.3505C23.5112 13.8505 22.9487 13.2009 22.8705 12.3772V12.3728L22.8728 12.3705Z" fill="#5CE1E6"/>
<path d="M25.7076 16.9777C25.4107 16.6563 25.2187 16.2835 25.1295 15.8549C23.5937 15.7232 22.5379 15.25 21.9643 14.4353C21.8973 14.3371 21.8036 14.288 21.6853 14.288C21.5982 14.288 21.5223 14.3147 21.4553 14.3728C21.3906 14.4308 21.3527 14.5022 21.3415 14.5893C21.25 15.2679 21.2745 15.9442 21.4174 16.6161C21.4442 16.7768 21.5245 16.9063 21.6518 17.0067C22.1406 17.4107 22.7165 17.6116 23.3839 17.6116C24.0647 17.6116 24.8393 17.3996 25.7076 16.9777ZM22.0826 16.4844V16.4799C22.0089 16.1339 21.971 15.7857 21.9687 15.433C22.6049 15.9732 23.4888 16.3237 24.6094 16.4777C24.6339 16.5447 24.6629 16.6094 24.6942 16.6741C24.212 16.846 23.7723 16.9353 23.3839 16.9353C22.875 16.9353 22.4509 16.788 22.0848 16.4866L22.0826 16.4844Z" fill="#5CE1E6"/>
<path d="M28.7545 13.404C29.7612 12.5603 30.6964 12.1384 31.558 12.1384C31.7076 12.1384 31.8549 12.1496 32 12.1763C32.0201 12.1786 32.0424 12.1808 32.0625 12.1808C32.2054 12.1786 32.308 12.1138 32.3683 11.9866C32.4308 11.8594 32.4196 11.7411 32.3326 11.6272C31.9129 11.0826 31.4174 10.6228 30.8415 10.2455C30.7299 10.1696 30.6094 10.1317 30.4754 10.1317C30.4487 10.1317 30.4241 10.1339 30.3973 10.1362C29.1205 10.2567 28.1696 11.2187 27.5513 13.0179C27.9866 13.0335 28.3884 13.1629 28.7545 13.404ZM30.4621 10.8103H30.4643L30.4665 10.8125C30.7634 11.0045 31.0379 11.2254 31.2902 11.471C30.4576 11.5379 29.5826 11.9152 28.6808 12.596C28.6161 12.567 28.5491 12.5402 28.4821 12.5156C28.9821 11.4487 29.6339 10.8884 30.4621 10.8103Z" fill="#5CE1E6"/>
<path d="M27.9308 17.6942C27.7969 19.2254 27.3214 20.279 26.5067 20.8504C26.3772 20.9397 26.3326 21.0603 26.3705 21.212C26.4062 21.3661 26.5045 21.4509 26.6585 21.471C26.9263 21.5067 27.192 21.5245 27.4598 21.5245C27.875 21.5223 28.2879 21.4799 28.6942 21.3951C28.8549 21.3683 28.9844 21.2879 29.0848 21.1607C29.904 20.1741 29.8929 18.8259 29.0558 17.1183C28.7344 17.4129 28.3594 17.6049 27.9308 17.6942ZM28.5625 20.7299L28.5603 20.7321H28.558C28.2098 20.8058 27.8616 20.8437 27.5067 20.846C28.0491 20.212 28.3996 19.3303 28.5558 18.212C28.6205 18.1875 28.6875 18.1585 28.7522 18.1272C29.154 19.2366 29.0915 20.0915 28.5625 20.7299Z" fill="#5CE1E6"/>
<path d="M29.8192 15.4754C29.8013 15.9129 29.6719 16.3125 29.4308 16.6763C30.4241 17.8549 30.8348 18.933 30.6629 19.9129C30.654 19.9643 30.6562 20.0134 30.6696 20.0625C30.683 20.1116 30.7054 20.1562 30.7388 20.1942C30.7723 20.2344 30.8125 20.2634 30.8571 20.2857C30.904 20.3058 30.9531 20.317 31.0045 20.317C31.0826 20.317 31.1518 20.2924 31.212 20.2455C31.7589 19.8281 32.221 19.3326 32.5982 18.7567C32.6897 18.6228 32.7277 18.4754 32.7076 18.3147C32.587 17.0402 31.6228 16.096 29.8192 15.4754ZM32.0312 18.3839C31.837 18.6808 31.6161 18.9531 31.3683 19.2054C31.3013 18.3728 30.9241 17.5022 30.2411 16.6049C30.2701 16.5379 30.2969 16.4732 30.3214 16.404C31.3929 16.904 31.9531 17.5558 32.0335 18.3795V18.3817L32.0312 18.3839Z" fill="#5CE1E6"/>
<path d="M33.25 13.7478C32.7634 13.346 32.1853 13.1451 31.5201 13.1451C30.8393 13.1451 30.0625 13.3549 29.1964 13.779C29.4933 14.0982 29.6853 14.4732 29.7745 14.9018C31.3103 15.0335 32.3661 15.5067 32.9397 16.3214C33.0067 16.4196 33.0982 16.4687 33.2187 16.4665C33.3058 16.4687 33.3817 16.4397 33.4487 16.3839C33.5134 16.3259 33.5513 16.2545 33.5625 16.1674C33.654 15.4866 33.6272 14.8103 33.4866 14.1384C33.4576 13.9799 33.3795 13.8482 33.25 13.7478ZM30.2946 14.2768C30.2679 14.2121 30.2411 14.1451 30.2098 14.0826C30.692 13.9085 31.1295 13.8214 31.5201 13.8214C32.0268 13.8214 32.4509 13.9687 32.8192 14.2701L32.8214 14.2723V14.2746C32.8929 14.6205 32.9308 14.9687 32.9353 15.3214C32.2969 14.7812 31.4152 14.433 30.2946 14.2768Z" fill="#5CE1E6"/>
<path d="M26.1496 17.3527C25.1429 18.1964 24.2076 18.6183 23.3437 18.6183C23.1964 18.6183 23.0491 18.6049 22.904 18.5803C22.8817 18.5759 22.8616 18.5759 22.8393 18.5759C22.6987 18.5759 22.596 18.6406 22.5335 18.7678C22.4732 18.8951 22.4844 19.0156 22.5714 19.1272C22.9888 19.6741 23.4866 20.1339 24.0625 20.5089C24.1719 20.5848 24.2946 20.6228 24.4286 20.6228C24.4531 20.6228 24.4799 20.6228 24.5067 20.6183C25.7835 20.4978 26.7321 19.5379 27.3527 17.7388C26.9152 17.721 26.5134 17.5915 26.1496 17.3527ZM24.442 19.9464H24.4397L24.4353 19.9442C24.1406 19.75 23.8661 19.5312 23.6138 19.2835C24.4464 19.2165 25.3214 18.8393 26.221 18.1607C26.2879 18.1875 26.3549 18.2143 26.4219 18.2388C25.9196 19.308 25.2679 19.8683 24.442 19.9464Z" fill="#5CE1E6"/>
<path d="M25.5089 15.3772C25.5089 15.6339 25.558 15.8817 25.6562 16.1205C25.7545 16.3571 25.8951 16.567 26.0781 16.7478C26.2589 16.9308 26.4687 17.0692 26.7076 17.1696C26.9464 17.2679 27.1942 17.317 27.4509 17.317C27.7098 17.317 27.9576 17.2679 28.1964 17.1696C28.433 17.0714 28.6429 16.9308 28.8259 16.7478C29.0089 16.567 29.1496 16.3571 29.2478 16.1205C29.346 15.8817 29.3951 15.6339 29.3951 15.3772C29.3951 15.1205 29.346 14.8728 29.2478 14.6362C29.1496 14.3996 29.0089 14.1897 28.8259 14.0067C28.6429 13.8259 28.433 13.6853 28.1964 13.5871C27.9576 13.4888 27.7098 13.4397 27.4509 13.4397C27.1942 13.4397 26.9464 13.4888 26.7076 13.5871C26.471 13.6853 26.2589 13.8259 26.0781 14.0089C25.8951 14.1897 25.7545 14.3996 25.6562 14.6362C25.558 14.8728 25.5089 15.1205 25.5089 15.3772ZM28.7165 15.3772C28.7165 15.5446 28.6853 15.7054 28.6205 15.8616C28.5558 16.0156 28.4643 16.1518 28.346 16.2701C28.2277 16.3884 28.0915 16.4799 27.9353 16.5424C27.7812 16.6071 27.6183 16.6384 27.4509 16.6384C27.2835 16.6384 27.1228 16.6071 26.9665 16.5424C26.8125 16.4799 26.6763 16.3884 26.558 16.2701C26.4375 16.1518 26.346 16.0156 26.2835 15.8616C26.2187 15.7054 26.1875 15.5446 26.1875 15.3772C26.1875 15.2098 26.2187 15.0491 26.2835 14.8951C26.346 14.7411 26.4375 14.6049 26.558 14.4866C26.6763 14.3683 26.8125 14.2768 26.9665 14.2121C27.1228 14.1496 27.2835 14.1161 27.4509 14.1161C27.6183 14.1161 27.7812 14.1496 27.9353 14.2121C28.0893 14.2768 28.2277 14.3683 28.346 14.4866C28.4643 14.6049 28.5558 14.7411 28.6205 14.8951C28.683 15.0491 28.7165 15.2098 28.7165 15.3772Z" fill="#5CE1E6"/>
<path d="M41.1473 13.0625C41.279 11.529 41.7545 10.4777 42.5714 9.90626C42.6987 9.81474 42.7455 9.69421 42.7076 9.54242C42.6696 9.39064 42.5737 9.30358 42.4174 9.28349C42.1518 9.25001 41.8839 9.23215 41.6161 9.23215C41.2009 9.23215 40.7902 9.27457 40.3839 9.35939C40.2232 9.38841 40.0915 9.46653 39.9911 9.59376C39.1741 10.5804 39.183 11.9286 40.0223 13.6384C40.3437 13.3415 40.7187 13.1496 41.1473 13.0625ZM40.5156 10.0268L40.5179 10.0223H40.5201C40.8661 9.9509 41.2165 9.91296 41.5692 9.90849C41.029 10.5447 40.6763 11.4264 40.5223 12.5424C40.4554 12.5692 40.3906 12.5982 40.3237 12.6272C39.9219 11.5201 39.9866 10.663 40.5156 10.0268Z" fill="#5CE1E6"/>
<path d="M39.2589 15.279C39.2746 14.8438 39.404 14.442 39.6451 14.0781C38.6518 12.9018 38.2433 11.8214 38.4129 10.8415C38.4219 10.7924 38.4196 10.7411 38.4062 10.692C38.3929 10.6429 38.3705 10.6005 38.3371 10.5603C38.3058 10.5223 38.2656 10.4911 38.2187 10.471C38.1719 10.4487 38.125 10.4375 38.0737 10.4375C37.9955 10.4375 37.9263 10.4621 37.8638 10.5112C37.317 10.9286 36.8571 11.4241 36.4799 11.9978C36.3862 12.1317 36.3504 12.279 36.3683 12.442C36.4911 13.7143 37.4531 14.6607 39.2589 15.279ZM37.0469 12.3705C37.2411 12.0759 37.4598 11.8013 37.7076 11.5513C37.7768 12.3817 38.1518 13.2522 38.8348 14.1518C38.8058 14.2165 38.779 14.2835 38.7545 14.3505C37.6853 13.8505 37.1228 13.2009 37.0446 12.3772V12.3728L37.0469 12.3705Z" fill="#5CE1E6"/>
<path d="M39.8817 16.9777C39.5848 16.6563 39.3929 16.2835 39.3036 15.8549C37.7679 15.7232 36.7121 15.25 36.1384 14.4353C36.0714 14.3371 35.9777 14.288 35.8594 14.288C35.7723 14.288 35.6942 14.3147 35.6295 14.3728C35.5647 14.4308 35.5268 14.5022 35.5156 14.5893C35.4241 15.2679 35.4487 15.9442 35.5915 16.6161C35.6183 16.7768 35.6987 16.9063 35.8259 17.0067C36.3147 17.4107 36.8906 17.6116 37.558 17.6116C38.2388 17.6116 39.0134 17.3996 39.8817 16.9777ZM36.2567 16.4844L36.2545 16.4799C36.183 16.1339 36.1451 15.7857 36.1406 15.433C36.779 15.9732 37.6629 16.3237 38.7835 16.4777C38.808 16.5447 38.8371 16.6094 38.8661 16.6741C38.3862 16.846 37.9464 16.9353 37.558 16.9353C37.0491 16.9353 36.625 16.788 36.2589 16.4866L36.2567 16.4844Z" fill="#5CE1E6"/>
<path d="M42.9286 13.404C43.9353 12.5603 44.8705 12.1384 45.7321 12.1384C45.8817 12.1384 46.029 12.1496 46.1741 12.1763C46.1942 12.1786 46.2165 12.1808 46.2366 12.1808C46.3795 12.1786 46.4821 12.1138 46.5424 11.9866C46.6049 11.8594 46.5937 11.7411 46.5067 11.6272C46.087 11.0826 45.5915 10.6228 45.0134 10.2455C44.904 10.1696 44.7835 10.1317 44.6495 10.1317C44.6228 10.1317 44.5982 10.1339 44.5714 10.1362C43.2924 10.2567 42.3437 11.2187 41.7232 13.0179C42.1607 13.0335 42.5625 13.1629 42.9286 13.404ZM44.6339 10.8103H44.6384L44.6406 10.8125C44.9375 11.0045 45.2098 11.2254 45.4643 11.471C44.6317 11.5379 43.7567 11.9152 42.8549 12.596C42.7902 12.567 42.7232 12.5402 42.6562 12.5156C43.1562 11.4487 43.808 10.8884 44.6339 10.8103Z" fill="#5CE1E6"/>
<path d="M42.1049 17.6942C41.971 19.2254 41.4955 20.279 40.6808 20.8504C40.5513 20.9397 40.5067 21.0603 40.5446 21.212C40.5804 21.3661 40.6786 21.4509 40.8326 21.471C41.0982 21.5067 41.3661 21.5245 41.6339 21.5245C42.0491 21.5223 42.462 21.4799 42.8683 21.3951C43.029 21.3683 43.1585 21.2879 43.2589 21.1607C44.0759 20.1741 44.067 18.8259 43.2299 17.1183C42.9085 17.4129 42.5335 17.6049 42.1049 17.6942ZM42.7366 20.7299L42.7344 20.7321H42.7299C42.3839 20.8058 42.0357 20.8437 41.6808 20.846C42.2232 20.212 42.5737 19.3303 42.7277 18.212C42.7946 18.1875 42.8616 18.1585 42.9263 18.1272C43.3281 19.2366 43.2656 20.0915 42.7366 20.7299Z" fill="#5CE1E6"/>
<path d="M43.9933 15.4754C43.9754 15.9129 43.846 16.3125 43.6049 16.6763C44.5982 17.8549 45.0089 18.933 44.8371 19.9129C44.8281 19.9643 44.8304 20.0134 44.8438 20.0625C44.8571 20.1116 44.8795 20.1562 44.9129 20.1942C44.9464 20.2344 44.9866 20.2634 45.0312 20.2857C45.0781 20.3058 45.1272 20.317 45.1786 20.317C45.2567 20.317 45.3259 20.2924 45.3862 20.2455C45.933 19.8281 46.3951 19.3326 46.7723 18.7567C46.8661 18.6228 46.9018 18.4754 46.8817 18.3147C46.7612 17.0402 45.7969 16.096 43.9933 15.4754ZM46.2054 18.3839C46.0112 18.6808 45.7902 18.9531 45.5424 19.2054C45.4754 18.3728 45.0982 17.5022 44.4152 16.6049C44.4442 16.5379 44.471 16.4732 44.4955 16.404C45.567 16.904 46.1272 17.5558 46.2076 18.3795V18.3817L46.2054 18.3839Z" fill="#5CE1E6"/>
<path d="M47.4241 13.7478C46.9375 13.346 46.3594 13.1451 45.6942 13.1451C45.0112 13.1451 44.2366 13.3549 43.3705 13.779C43.6674 14.0982 43.8594 14.4732 43.9464 14.9018C45.4844 15.0335 46.5402 15.5067 47.1138 16.3214C47.1808 16.4196 47.2723 16.4687 47.3929 16.4665C47.4799 16.4687 47.5558 16.4397 47.6205 16.3839C47.6875 16.3259 47.7254 16.2545 47.7366 16.1674C47.8259 15.4866 47.8013 14.8103 47.6607 14.1384C47.6317 13.9799 47.5536 13.8482 47.4241 13.7478ZM44.4688 14.2768C44.442 14.2121 44.4152 14.1451 44.3839 14.0826C44.8661 13.9085 45.3036 13.8214 45.6942 13.8214C46.2009 13.8214 46.625 13.9687 46.9933 14.2701L46.9955 14.2723V14.2746C47.067 14.6205 47.1049 14.9687 47.1094 15.3214C46.471 14.7812 45.5871 14.433 44.4688 14.2768Z" fill="#5CE1E6"/>
<path d="M40.3237 17.3527C39.317 18.1964 38.3817 18.6183 37.5179 18.6183C37.3705 18.6183 37.2232 18.6049 37.0759 18.5803C37.0558 18.5759 37.0357 18.5759 37.0134 18.5759C36.8728 18.5759 36.7701 18.6406 36.7076 18.7678C36.6451 18.8951 36.6585 19.0156 36.7455 19.1272C37.1629 19.6741 37.6607 20.1339 38.2366 20.5089C38.346 20.5848 38.4687 20.6228 38.6027 20.6228C38.6272 20.6228 38.654 20.6228 38.6808 20.6205C39.9576 20.4978 40.9062 19.5379 41.5268 17.7388C41.0893 17.721 40.6875 17.5915 40.3237 17.3527ZM38.6161 19.9464H38.6138L38.6094 19.9442C38.3147 19.75 38.0402 19.5312 37.7879 19.2835C38.6205 19.2165 39.4955 18.8393 40.3951 18.1607C40.4621 18.1875 40.529 18.2143 40.596 18.2388C40.0937 19.308 39.442 19.8683 38.6161 19.9464Z" fill="#5CE1E6"/>
<path d="M39.6808 15.3772C39.6808 15.6339 39.7321 15.8817 39.8304 16.1205C39.9286 16.3571 40.0692 16.567 40.25 16.7478C40.433 16.9308 40.6429 17.0692 40.8817 17.1696C41.1205 17.2679 41.3683 17.317 41.625 17.317C41.8839 17.317 42.1317 17.2679 42.3683 17.1696C42.6071 17.0714 42.817 16.9308 43 16.7478C43.183 16.567 43.3237 16.3571 43.4219 16.1205C43.5201 15.8817 43.5692 15.6339 43.5692 15.3772C43.5692 15.1205 43.5201 14.8728 43.4219 14.6362C43.3237 14.3996 43.183 14.1897 43 14.0067C42.817 13.8259 42.6071 13.6853 42.3705 13.5871C42.1317 13.4888 41.8839 13.4397 41.625 13.4397C41.3683 13.4397 41.1205 13.4888 40.8817 13.5871C40.6451 13.6853 40.433 13.8259 40.2522 14.0089C40.0692 14.1897 39.9286 14.3996 39.8304 14.6362C39.7321 14.8728 39.683 15.1205 39.6808 15.3772ZM42.8906 15.3772C42.8906 15.5446 42.8594 15.7054 42.7946 15.8616C42.7299 16.0156 42.6384 16.1518 42.5201 16.2701C42.4018 16.3884 42.2656 16.4799 42.1094 16.5424C41.9554 16.6071 41.7924 16.6384 41.625 16.6384C41.4576 16.6384 41.2969 16.6071 41.1406 16.5424C40.9866 16.4799 40.8504 16.3884 40.7321 16.2701C40.6116 16.1518 40.5201 16.0156 40.4576 15.8616C40.3929 15.7054 40.3616 15.5446 40.3616 15.3772C40.3616 15.2098 40.3929 15.0491 40.4576 14.8951C40.5201 14.7411 40.6116 14.6049 40.7321 14.4866C40.8504 14.3683 40.9866 14.2768 41.1406 14.2121C41.2969 14.1496 41.4576 14.1161 41.625 14.1161C41.7924 14.1161 41.9554 14.1496 42.1094 14.2121C42.2634 14.2768 42.4018 14.3683 42.5201 14.4866C42.6384 14.6049 42.7299 14.7411 42.7946 14.8951C42.8571 15.0491 42.8906 15.2098 42.8906 15.3772Z" fill="#5CE1E6"/>
</svg>
