<svg width="51" height="30" viewBox="0 0 51 30" fill="none" xmlns="http://www.w3.org/2000/svg">
<g id="GPU">
<g id="Clip path group">
<mask id="mask0_70_257" style="mask-type:luminance" maskUnits="userSpaceOnUse" x="0" y="0" width="51" height="30">
<g id="5400019dc4">
<path id="Vector" d="M50.1428 0L50.1428 30L-3.05176e-05 30L-3.05176e-05 0L50.1428 0Z" fill="white"/>
</g>
</mask>
<g mask="url(#mask0_70_257)">
<g id="Group">
<path id="Vector_2" d="M48.9285 4.60267L5.71648 4.60267V0.343741C5.71648 0.249991 5.683 0.169634 5.61604 0.104902C5.54908 0.0379377 5.47095 0.00445557 5.3772 0.00445557L0.339252 0.00445557C0.245502 0.00445557 0.165146 0.0379377 0.0981827 0.104902C0.0312195 0.169634 -3.05176e-05 0.249991 -3.05176e-05 0.343741V2.72767C-3.05176e-05 2.82142 0.0312195 2.90178 0.0981827 2.96651C0.165146 3.03347 0.245502 3.06696 0.339252 3.06696L3.07363 3.06696L3.07363 29.6562C3.07363 29.7478 3.10711 29.8281 3.17184 29.8951C3.23881 29.9598 3.31916 29.9933 3.41291 29.9933H5.37943C5.47318 29.9933 5.55354 29.9598 5.6205 29.8951C5.68747 29.8281 5.71872 29.7478 5.71872 29.6562V26.2254H8.73658V29.6562C8.73658 29.7478 8.77006 29.8281 8.83479 29.8951C8.90175 29.9598 8.98211 29.9933 9.07586 29.9933L37.6808 29.9933C37.7745 29.9933 37.8526 29.9598 37.9196 29.8951C37.9866 29.8281 38.0201 29.7478 38.0201 29.6562V26.2254H40.2009V29.6562C40.2009 29.7478 40.2343 29.8281 40.3013 29.8951C40.366 29.9598 40.4464 29.9933 40.5401 29.9933H46.2611C46.3549 29.9933 46.4352 29.9598 46.5 29.8951C46.5669 29.8281 46.6004 29.7478 46.6004 29.6562V26.2254H48.9285C49.0893 26.2254 49.2433 26.1942 49.3928 26.1339C49.5424 26.0714 49.6741 25.9844 49.7879 25.8705C49.9018 25.7567 49.9888 25.625 50.0513 25.4777C50.1138 25.3281 50.1428 25.1741 50.1428 25.0134L50.1428 5.81696C50.1428 5.65624 50.1138 5.49999 50.0513 5.35267C49.9888 5.20312 49.9018 5.07365 49.7879 4.95981C49.6741 4.84597 49.5424 4.75669 49.3928 4.69642C49.2433 4.63392 49.0893 4.60267 48.9285 4.60267ZM3.7522 29.317L3.7522 2.72767C3.7522 2.63392 3.71872 2.55356 3.65175 2.48883C3.58702 2.42187 3.50666 2.38838 3.41291 2.38838L0.678539 2.38838V0.680795L5.03791 0.680795L5.04015 29.317H3.7522ZM41.8125 5.28124L39.8437 7.2433L13.7232 7.2433L11.7544 5.28124L41.8125 5.28124ZM11.529 25.5491L13.5982 23.4844L39.7209 23.4844L41.7901 25.5491L11.529 25.5491ZM9.41515 26.2478H11.596V29.317H9.41515V26.2478ZM12.2745 26.2478H14.4576V29.317H12.2745V26.2478ZM15.1361 26.2478H17.3169V29.317H15.1361V26.2478ZM17.9955 26.2478H20.1785L20.1785 29.317H17.9955V26.2478ZM20.8571 26.2478L23.0379 26.2478L23.0379 29.317L20.8571 29.317L20.8571 26.2478ZM23.7165 26.2478H25.8995L25.8995 29.317H23.7165L23.7165 26.2478ZM26.5781 26.2478H28.7589L28.7589 29.317H26.5781L26.5781 26.2478ZM29.4375 26.2478H31.6205L31.6205 29.317H29.4375L29.4375 26.2478ZM32.2991 26.2478H34.4799V29.317H32.2991L32.2991 26.2478ZM37.3415 29.317H35.1584V26.2478H37.3415V29.317ZM40.8794 26.2478H43.0602V29.317H40.8794V26.2478ZM45.9218 29.317H43.741V26.2478H45.9218V29.317ZM49.4643 25.0134C49.4643 25.1607 49.4129 25.2879 49.308 25.3928C49.2031 25.4955 49.0759 25.5491 48.9285 25.5491H42.6696C42.6562 25.4821 42.625 25.4241 42.5759 25.3772L40.1004 22.9085C40.0357 22.8415 39.9553 22.808 39.8616 22.808L13.4576 22.808C13.3638 22.808 13.2835 22.8415 13.2165 22.9085L10.866 25.2522C10.7835 25.3348 10.7522 25.433 10.7723 25.5491H5.71872L5.71872 5.28124L10.8125 5.28124C10.8281 5.3058 10.846 5.33035 10.866 5.35267L13.3415 7.82142C13.4085 7.88615 13.4866 7.91963 13.5803 7.91963L39.9843 7.91963C40.0781 7.91963 40.1584 7.88615 40.2254 7.82142L42.5759 5.47544C42.6317 5.42187 42.6629 5.3549 42.6718 5.28124L48.9285 5.28124C49.0759 5.28124 49.2031 5.33258 49.308 5.43749C49.4129 5.5424 49.4643 5.6674 49.4643 5.81696L49.4643 25.0134Z" fill="#010F20"/>
</g>
</g>
</g>
<path id="Vector_3" d="M12.7991 13.0625C12.933 11.529 13.4063 10.4777 14.2232 9.90625C14.3527 9.81474 14.3973 9.6942 14.3594 9.54242C14.3214 9.39063 14.2255 9.30358 14.0692 9.28349C13.8036 9.25 13.538 9.23215 13.2679 9.23215C12.8527 9.23215 12.442 9.27456 12.0357 9.35938C11.875 9.3884 11.7433 9.46652 11.6429 9.59375C10.8259 10.5804 10.8371 11.9286 11.6741 13.6384C11.9955 13.3415 12.3705 13.1496 12.7991 13.0625ZM12.1674 10.0268L12.1697 10.0223H12.1719C12.5179 9.9509 12.8683 9.91295 13.2232 9.90849C12.6808 10.5446 12.3304 11.4263 12.1741 12.5424C12.1072 12.5692 12.0424 12.5982 11.9755 12.6272C11.5737 11.5201 11.6384 10.663 12.1674 10.0268Z" fill="#010F20"/>
<path id="Vector_4" d="M10.9107 15.279C10.9263 14.8438 11.0558 14.442 11.2969 14.0781C10.3058 12.9018 9.89509 11.8214 10.067 10.8415C10.0759 10.7924 10.0737 10.7411 10.0603 10.692C10.0469 10.6429 10.0223 10.6004 9.99107 10.5603C9.95759 10.5223 9.91741 10.4911 9.87054 10.471C9.82589 10.4487 9.77679 10.4375 9.72545 10.4375C9.64732 10.4375 9.57813 10.4621 9.51786 10.5112C8.97098 10.9286 8.50893 11.4241 8.1317 11.9978C8.03795 12.1317 8.00223 12.279 8.02232 12.442C8.14286 13.7143 9.10491 14.6607 10.9107 15.279ZM8.69866 12.3705C8.89286 12.0759 9.11384 11.8013 9.35938 11.5513C9.42857 12.3817 9.8058 13.2522 10.4866 14.1518C10.4576 14.2165 10.4308 14.2835 10.4085 14.3504C9.33705 13.8504 8.77455 13.2009 8.69643 12.3772V12.3728L8.69866 12.3705Z" fill="#010F20"/>
<path id="Vector_5" d="M11.5334 16.9777C11.2366 16.6563 11.0446 16.2835 10.9553 15.8549C9.41961 15.7232 8.3638 15.25 7.79014 14.4353C7.72318 14.3371 7.62943 14.288 7.51113 14.288C7.42407 14.288 7.34818 14.3147 7.28122 14.3728C7.21648 14.4308 7.17854 14.5022 7.16738 14.5893C7.07586 15.2679 7.10041 15.9442 7.24327 16.6161C7.27005 16.7768 7.35041 16.9063 7.47764 17.0067C7.96648 17.4107 8.54238 17.6116 9.20979 17.6116C9.89059 17.6116 10.6651 17.3996 11.5334 16.9777ZM7.90845 16.4844V16.4799C7.83479 16.1339 7.79684 15.7857 7.79461 15.4331C8.43077 15.9732 9.3147 16.3237 10.4352 16.4777C10.4598 16.5447 10.4888 16.6094 10.5201 16.6741C10.0379 16.846 9.59818 16.9353 9.20979 16.9353C8.70309 16.9353 8.27675 16.788 7.91068 16.4866L7.90845 16.4844Z" fill="#010F20"/>
<path id="Vector_6" d="M14.5803 13.404C15.587 12.5603 16.5223 12.1384 17.3861 12.1384C17.5334 12.1384 17.6808 12.1496 17.8259 12.1763C17.8459 12.1786 17.8683 12.1808 17.8884 12.1808C18.0312 12.1786 18.1339 12.1138 18.1942 11.9866C18.2567 11.8594 18.2455 11.7411 18.1584 11.6272C17.7388 11.0826 17.2433 10.6228 16.6674 10.2455C16.5558 10.1696 16.4352 10.1317 16.3013 10.1317C16.2745 10.1317 16.25 10.1339 16.2232 10.1362C14.9464 10.2567 13.9977 11.2188 13.3772 13.0179C13.8147 13.0335 14.2143 13.1629 14.5803 13.404ZM16.2879 10.8103H16.2901L16.2924 10.8125C16.5893 11.0045 16.8638 11.2254 17.116 11.471C16.2834 11.5379 15.4084 11.9152 14.5067 12.596C14.4419 12.567 14.375 12.5402 14.308 12.5156C14.808 11.4487 15.4598 10.8884 16.2879 10.8103Z" fill="#010F20"/>
<path id="Vector_7" d="M13.7566 17.6942C13.6227 19.2254 13.1473 20.279 12.3325 20.8504C12.2031 20.9397 12.1584 21.0603 12.1964 21.212C12.2321 21.3661 12.3303 21.4509 12.4866 21.471C12.7522 21.5067 13.0178 21.5245 13.2857 21.5245C13.7008 21.5223 14.1138 21.4799 14.52 21.3951C14.6807 21.3683 14.8102 21.2879 14.9107 21.1607C15.7299 20.1741 15.7187 18.8259 14.8816 17.1183C14.5602 17.4129 14.1852 17.6049 13.7566 17.6942ZM14.3883 20.7299L14.3861 20.7321H14.3839C14.0357 20.8058 13.6874 20.8437 13.3325 20.846C13.8749 20.212 14.2254 19.3303 14.3816 18.212C14.4464 18.1875 14.5133 18.1585 14.5781 18.1272C14.9799 19.2366 14.9174 20.0915 14.3883 20.7299Z" fill="#010F20"/>
<path id="Vector_8" d="M15.645 15.4754C15.6272 15.9129 15.4977 16.3125 15.2566 16.6763C16.2499 17.8549 16.6606 18.933 16.4888 19.9129C16.4798 19.9643 16.4821 20.0134 16.4955 20.0625C16.5089 20.1116 16.5312 20.1563 16.5647 20.1942C16.5981 20.2344 16.6383 20.2634 16.683 20.2857C16.7298 20.3058 16.7789 20.317 16.8303 20.317C16.9084 20.317 16.9776 20.2924 17.0379 20.2455C17.5847 19.8281 18.0468 19.3326 18.424 18.7567C18.5178 18.6228 18.5535 18.4754 18.5334 18.3147C18.4129 17.0402 17.4486 16.096 15.645 15.4754ZM17.8571 18.3839C17.6629 18.6808 17.4419 18.9531 17.1941 19.2054C17.1272 18.3728 16.7499 17.5022 16.0669 16.6049C16.0959 16.5379 16.1227 16.4732 16.1472 16.404C17.2187 16.904 17.7789 17.5558 17.8593 18.3795V18.3817L17.8571 18.3839Z" fill="#010F20"/>
<path id="Vector_9" d="M19.0759 13.7478C18.5893 13.346 18.0112 13.1451 17.346 13.1451C16.6652 13.1451 15.8884 13.3549 15.0223 13.779C15.3192 14.0982 15.5112 14.4732 15.6005 14.9018C17.1362 15.0335 18.192 15.5067 18.7656 16.3214C18.8326 16.4196 18.9264 16.4665 19.0447 16.4665C19.1317 16.4687 19.2076 16.4397 19.2746 16.3839C19.3393 16.3259 19.3773 16.2545 19.3884 16.1674C19.4799 15.4866 19.4531 14.8103 19.3125 14.1384C19.2835 13.9799 19.2054 13.8482 19.0759 13.7478ZM16.1206 14.2768C16.0938 14.212 16.067 14.1451 16.0357 14.0826C16.5179 13.9085 16.9554 13.8214 17.346 13.8214C17.8527 13.8214 18.279 13.9687 18.6451 14.2701L18.6473 14.2723V14.2745C18.7188 14.6205 18.7567 14.9687 18.7612 15.3214C18.125 14.7812 17.2411 14.433 16.1206 14.2768Z" fill="#010F20"/>
<path id="Vector_10" d="M11.9755 17.3527C10.9688 18.1964 10.0335 18.6183 9.16966 18.6183C9.02234 18.6183 8.87502 18.6049 8.72993 18.5803C8.70761 18.5759 8.68752 18.5759 8.6652 18.5759C8.52457 18.5759 8.42189 18.6406 8.35939 18.7678C8.29689 18.8951 8.31029 19.0156 8.39734 19.1272C8.81475 19.6741 9.31252 20.1339 9.88841 20.5089C9.99779 20.5848 10.1206 20.6228 10.2545 20.6228C10.279 20.6228 10.3058 20.6228 10.3326 20.6183C11.6094 20.4978 12.5581 19.5379 13.1786 17.7388C12.7411 17.721 12.3393 17.5915 11.9755 17.3527ZM10.2679 19.9464H10.2656L10.2612 19.9442C9.96654 19.75 9.69198 19.5312 9.43975 19.2835C10.2723 19.2165 11.1473 18.8393 12.0469 18.1607C12.1139 18.1875 12.1808 18.2143 12.2478 18.2388C11.7456 19.308 11.0938 19.8683 10.2679 19.9464Z" fill="#010F20"/>
<path id="Vector_11" d="M11.3348 15.3772C11.3348 15.6339 11.3839 15.8817 11.4821 16.1205C11.5803 16.3571 11.7209 16.567 11.904 16.7478C12.0848 16.9308 12.2946 17.0692 12.5334 17.1696C12.7723 17.2679 13.0201 17.317 13.2768 17.317C13.5357 17.317 13.7834 17.2679 14.0223 17.1696C14.2589 17.0692 14.4687 16.9308 14.6518 16.7478C14.8348 16.567 14.9754 16.3571 15.0736 16.1205C15.1718 15.8817 15.2209 15.6339 15.2209 15.3772C15.2209 15.1205 15.1718 14.8728 15.0736 14.6362C14.9754 14.3995 14.8348 14.1897 14.6518 14.0067C14.4687 13.8259 14.2589 13.6853 14.0223 13.587C13.7834 13.4888 13.5357 13.4397 13.2768 13.4397C13.0201 13.4397 12.7723 13.4888 12.5334 13.587C12.2968 13.6853 12.087 13.8259 11.904 14.0089C11.7209 14.1897 11.5803 14.3995 11.4821 14.6362C11.3839 14.8728 11.3348 15.1205 11.3348 15.3772ZM14.5424 15.3772C14.5424 15.5446 14.5111 15.7054 14.4464 15.8616C14.3817 16.0156 14.2901 16.1518 14.1718 16.2701C14.0535 16.3884 13.9174 16.4799 13.7611 16.5424C13.6071 16.6071 13.4442 16.6384 13.2768 16.6384C13.1093 16.6384 12.9486 16.6071 12.7924 16.5424C12.6384 16.4799 12.5022 16.3884 12.3839 16.2701C12.2634 16.1518 12.1741 16.0156 12.1093 15.8616C12.0446 15.7054 12.0134 15.5446 12.0134 15.3772C12.0134 15.2098 12.0446 15.0491 12.1093 14.8951C12.1741 14.7411 12.2634 14.6049 12.3839 14.4866C12.5022 14.3683 12.6384 14.2768 12.7924 14.212C12.9486 14.1495 13.1093 14.1161 13.2768 14.1161C13.4442 14.1161 13.6071 14.1495 13.7611 14.212C13.9151 14.2768 14.0535 14.3683 14.1718 14.4866C14.2901 14.6049 14.3817 14.7411 14.4464 14.8951C14.5089 15.0491 14.5424 15.2098 14.5424 15.3772Z" fill="#010F20"/>
<path id="Vector_12" d="M26.9732 13.0625C27.1049 11.529 27.5804 10.4777 28.3973 9.90625C28.5246 9.81474 28.5714 9.6942 28.5335 9.54242C28.4955 9.39063 28.3996 9.30358 28.2433 9.28349C27.9777 9.25 27.7121 9.23215 27.442 9.23215C27.0268 9.23215 26.6161 9.27456 26.2098 9.35938C26.0491 9.3884 25.9174 9.46652 25.817 9.59375C25 10.5804 25.0112 11.9286 25.8482 13.6384C26.1696 13.3415 26.5446 13.1496 26.9732 13.0625ZM26.3415 10.0268L26.3438 10.0223H26.346C26.692 9.9509 27.0424 9.91295 27.3973 9.90849C26.8549 10.5446 26.5045 11.4263 26.3482 12.5424C26.2812 12.5692 26.2165 12.5982 26.1496 12.6272C25.7478 11.5201 25.8125 10.663 26.3415 10.0268Z" fill="#010F20"/>
<path id="Vector_13" d="M25.0848 15.279C25.1004 14.8438 25.2299 14.442 25.4709 14.0781C24.4799 12.9018 24.0692 11.8214 24.241 10.8415C24.2477 10.7924 24.2455 10.7411 24.2321 10.692C24.2209 10.6429 24.1964 10.6004 24.1629 10.5603C24.1317 10.5223 24.0915 10.4911 24.0446 10.471C24 10.4487 23.9509 10.4375 23.8995 10.4375C23.8214 10.4375 23.7522 10.4621 23.6897 10.5112C23.1451 10.9286 22.683 11.4241 22.3058 11.9978C22.212 12.1317 22.1763 12.279 22.1942 12.442C22.3169 13.7143 23.279 14.6607 25.0848 15.279ZM22.8727 12.3705C23.0669 12.0759 23.2879 11.8013 23.5334 11.5513C23.6026 12.3817 23.9799 13.2522 24.6607 14.1518C24.6317 14.2165 24.6071 14.2835 24.5826 14.3504C23.5111 13.8504 22.9486 13.2009 22.8705 12.3772V12.3728L22.8727 12.3705Z" fill="#010F20"/>
<path id="Vector_14" d="M25.7075 16.9777C25.4106 16.6563 25.2187 16.2835 25.1294 15.8549C23.5937 15.7232 22.5379 15.25 21.9642 14.4353C21.8973 14.3371 21.8035 14.288 21.6852 14.288C21.5981 14.288 21.5223 14.3147 21.4553 14.3728C21.3906 14.4308 21.3526 14.5022 21.3414 14.5893C21.2499 15.2679 21.2745 15.9442 21.4173 16.6161C21.4441 16.7768 21.5245 16.9063 21.6517 17.0067C22.1406 17.4107 22.7164 17.6116 23.3839 17.6116C24.0647 17.6116 24.8392 17.3996 25.7075 16.9777ZM22.0825 16.4844V16.4799C22.0089 16.1339 21.9709 15.7857 21.9687 15.4331C22.6048 15.9732 23.4888 16.3237 24.6093 16.4777C24.6339 16.5447 24.6629 16.6094 24.6941 16.6741C24.212 16.846 23.7723 16.9353 23.3839 16.9353C22.8749 16.9353 22.4508 16.788 22.0848 16.4866L22.0825 16.4844Z" fill="#010F20"/>
<path id="Vector_15" d="M28.7544 13.404C29.7611 12.5603 30.6964 12.1384 31.558 12.1384C31.7075 12.1384 31.8548 12.1496 31.9999 12.1763C32.02 12.1786 32.0423 12.1808 32.0624 12.1808C32.2053 12.1786 32.308 12.1138 32.3682 11.9866C32.4307 11.8594 32.4196 11.7411 32.3325 11.6272C31.9129 11.0826 31.4173 10.6228 30.8414 10.2455C30.7298 10.1696 30.6093 10.1317 30.4754 10.1317C30.4486 10.1317 30.424 10.1339 30.3973 10.1362C29.1205 10.2567 28.1696 11.2188 27.5513 13.0179C27.9865 13.0335 28.3883 13.1629 28.7544 13.404ZM30.462 10.8103H30.4642L30.4664 10.8125C30.7633 11.0045 31.0379 11.2254 31.2901 11.471C30.4575 11.5379 29.5825 11.9152 28.6807 12.596C28.616 12.567 28.549 12.5402 28.4821 12.5156C28.9821 11.4487 29.6339 10.8884 30.462 10.8103Z" fill="#010F20"/>
<path id="Vector_16" d="M27.9307 17.6942C27.7968 19.2254 27.3213 20.279 26.5066 20.8504C26.3771 20.9397 26.3325 21.0603 26.3704 21.212C26.4062 21.3661 26.5044 21.4509 26.6584 21.471C26.9262 21.5067 27.1919 21.5245 27.4597 21.5245C27.8749 21.5223 28.2879 21.4799 28.6941 21.3951C28.8548 21.3683 28.9843 21.2879 29.0847 21.1607C29.9039 20.1741 29.8928 18.8259 29.0557 17.1183C28.7343 17.4129 28.3593 17.6049 27.9307 17.6942ZM28.5624 20.7299L28.5602 20.7321H28.5579C28.2097 20.8058 27.8615 20.8437 27.5066 20.846C28.049 20.212 28.3995 19.3303 28.5557 18.212C28.6204 18.1875 28.6874 18.1585 28.7521 18.1272C29.1539 19.2366 29.0914 20.0915 28.5624 20.7299Z" fill="#010F20"/>
<path id="Vector_17" d="M29.8191 15.4754C29.8013 15.9129 29.6718 16.3125 29.4307 16.6763C30.424 17.8549 30.8348 18.933 30.6629 19.9129C30.654 19.9643 30.6562 20.0134 30.6696 20.0625C30.683 20.1116 30.7053 20.1563 30.7388 20.1942C30.7723 20.2344 30.8124 20.2634 30.8571 20.2857C30.904 20.3058 30.9531 20.317 31.0044 20.317C31.0825 20.317 31.1517 20.2924 31.212 20.2455C31.7589 19.8281 32.2209 19.3326 32.5982 18.7567C32.6897 18.6228 32.7276 18.4754 32.7075 18.3147C32.587 17.0402 31.6227 16.096 29.8191 15.4754ZM32.0312 18.3839C31.837 18.6808 31.616 18.9531 31.3682 19.2054C31.3013 18.3728 30.924 17.5022 30.241 16.6049C30.27 16.5379 30.2968 16.4732 30.3214 16.404C31.3928 16.904 31.9531 17.5558 32.0334 18.3795V18.3817L32.0312 18.3839Z" fill="#010F20"/>
<path id="Vector_18" d="M33.25 13.7478C32.7634 13.346 32.1853 13.1451 31.5201 13.1451C30.8393 13.1451 30.0625 13.3549 29.1964 13.779C29.4933 14.0982 29.6853 14.4732 29.7745 14.9018C31.3103 15.0335 32.3661 15.5067 32.9397 16.3214C33.0067 16.4196 33.0982 16.4687 33.2187 16.4665C33.3058 16.4687 33.3817 16.4397 33.4486 16.3839C33.5134 16.3259 33.5513 16.2545 33.5625 16.1674C33.654 15.4866 33.6272 14.8103 33.4866 14.1384C33.4576 13.9799 33.3795 13.8482 33.25 13.7478ZM30.2946 14.2768C30.2678 14.212 30.2411 14.1451 30.2098 14.0826C30.692 13.9085 31.1295 13.8214 31.5201 13.8214C32.0268 13.8214 32.4509 13.9687 32.8192 14.2701L32.8214 14.2723V14.2745C32.8928 14.6205 32.9308 14.9687 32.9353 15.3214C32.2969 14.7812 31.4152 14.433 30.2946 14.2768Z" fill="#010F20"/>
<path id="Vector_19" d="M26.1495 17.3527C25.1428 18.1964 24.2076 18.6183 23.3437 18.6183C23.1964 18.6183 23.0491 18.6049 22.904 18.5803C22.8817 18.5759 22.8616 18.5759 22.8393 18.5759C22.6986 18.5759 22.596 18.6406 22.5335 18.7678C22.4732 18.8951 22.4844 19.0156 22.5714 19.1272C22.9888 19.6741 23.4866 20.1339 24.0625 20.5089C24.1719 20.5848 24.2946 20.6228 24.4286 20.6228C24.4531 20.6228 24.4799 20.6228 24.5067 20.6183C25.7835 20.4978 26.7321 19.5379 27.3527 17.7388C26.9152 17.721 26.5134 17.5915 26.1495 17.3527ZM24.4419 19.9464H24.4397L24.4353 19.9442C24.1406 19.75 23.8661 19.5312 23.6138 19.2835C24.4464 19.2165 25.3214 18.8393 26.221 18.1607C26.2879 18.1875 26.3549 18.2143 26.4219 18.2388C25.9196 19.308 25.2678 19.8683 24.4419 19.9464Z" fill="#010F20"/>
<path id="Vector_20" d="M25.5089 15.3772C25.5089 15.6339 25.558 15.8817 25.6562 16.1205C25.7544 16.3571 25.895 16.567 26.0781 16.7478C26.2589 16.9308 26.4687 17.0692 26.7075 17.1696C26.9464 17.2679 27.1941 17.317 27.4508 17.317C27.7098 17.317 27.9575 17.2679 28.1964 17.1696C28.433 17.0714 28.6428 16.9308 28.8258 16.7478C29.0089 16.567 29.1495 16.3571 29.2477 16.1205C29.3459 15.8817 29.395 15.6339 29.395 15.3772C29.395 15.1205 29.3459 14.8728 29.2477 14.6362C29.1495 14.3995 29.0089 14.1897 28.8258 14.0067C28.6428 13.8259 28.433 13.6853 28.1964 13.587C27.9575 13.4888 27.7098 13.4397 27.4508 13.4397C27.1941 13.4397 26.9464 13.4888 26.7075 13.587C26.4709 13.6853 26.2589 13.8259 26.0781 14.0089C25.895 14.1897 25.7544 14.3995 25.6562 14.6362C25.558 14.8728 25.5089 15.1205 25.5089 15.3772ZM28.7164 15.3772C28.7164 15.5446 28.6852 15.7054 28.6205 15.8616C28.5557 16.0156 28.4642 16.1518 28.3459 16.2701C28.2276 16.3884 28.0914 16.4799 27.9352 16.5424C27.7812 16.6071 27.6182 16.6384 27.4508 16.6384C27.2834 16.6384 27.1227 16.6071 26.9664 16.5424C26.8124 16.4799 26.6763 16.3884 26.558 16.2701C26.4374 16.1518 26.3459 16.0156 26.2834 15.8616C26.2187 15.7054 26.1874 15.5446 26.1874 15.3772C26.1874 15.2098 26.2187 15.0491 26.2834 14.8951C26.3459 14.7411 26.4374 14.6049 26.558 14.4866C26.6763 14.3683 26.8124 14.2768 26.9664 14.212C27.1227 14.1495 27.2834 14.1161 27.4508 14.1161C27.6182 14.1161 27.7812 14.1495 27.9352 14.212C28.0892 14.2768 28.2276 14.3683 28.3459 14.4866C28.4642 14.6049 28.5557 14.7411 28.6205 14.8951C28.683 15.0491 28.7164 15.2098 28.7164 15.3772Z" fill="#010F20"/>
<path id="Vector_21" d="M41.1473 13.0625C41.279 11.529 41.7544 10.4777 42.5714 9.90625C42.6986 9.81474 42.7455 9.6942 42.7076 9.54242C42.6696 9.39063 42.5736 9.30358 42.4174 9.28349C42.1518 9.25 41.8839 9.23215 41.616 9.23215C41.2009 9.23215 40.7901 9.27456 40.3839 9.35938C40.2232 9.3884 40.0915 9.46652 39.991 9.59375C39.1741 10.5804 39.183 11.9286 40.0223 13.6384C40.3437 13.3415 40.7187 13.1496 41.1473 13.0625ZM40.5156 10.0268L40.5178 10.0223H40.5201C40.866 9.9509 41.2165 9.91295 41.5692 9.90849C41.029 10.5446 40.6763 11.4263 40.5223 12.5424C40.4553 12.5692 40.3906 12.5982 40.3236 12.6272C39.9218 11.5201 39.9866 10.663 40.5156 10.0268Z" fill="#010F20"/>
<path id="Vector_22" d="M39.2589 15.279C39.2745 14.8438 39.4039 14.442 39.645 14.0781C38.6517 12.9018 38.2432 11.8214 38.4129 10.8415C38.4218 10.7924 38.4196 10.7411 38.4062 10.692C38.3928 10.6429 38.3705 10.6004 38.337 10.5603C38.3057 10.5223 38.2656 10.4911 38.2187 10.471C38.1718 10.4487 38.1249 10.4375 38.0736 10.4375C37.9955 10.4375 37.9263 10.4621 37.8638 10.5112C37.3169 10.9286 36.8571 11.4241 36.4798 11.9978C36.3861 12.1317 36.3504 12.279 36.3682 12.442C36.491 13.7143 37.4531 14.6607 39.2589 15.279ZM37.0468 12.3705C37.241 12.0759 37.4598 11.8013 37.7075 11.5513C37.7767 12.3817 38.1517 13.2522 38.8348 14.1518C38.8057 14.2165 38.7789 14.2835 38.7544 14.3504C37.6852 13.8504 37.1227 13.2009 37.0446 12.3772V12.3728L37.0468 12.3705Z" fill="#010F20"/>
<path id="Vector_23" d="M39.8817 16.9777C39.5848 16.6563 39.3929 16.2835 39.3036 15.8549C37.7679 15.7232 36.7121 15.25 36.1384 14.4353C36.0714 14.3371 35.9777 14.288 35.8594 14.288C35.7723 14.288 35.6942 14.3147 35.6295 14.3728C35.5647 14.4308 35.5268 14.5022 35.5156 14.5893C35.4241 15.2679 35.4487 15.9442 35.5915 16.6161C35.6183 16.7768 35.6987 16.9063 35.8259 17.0067C36.3147 17.4107 36.8906 17.6116 37.5581 17.6116C38.2389 17.6116 39.0134 17.3996 39.8817 16.9777ZM36.2567 16.4844L36.2545 16.4799C36.1831 16.1339 36.1451 15.7857 36.1406 15.4331C36.779 15.9732 37.663 16.3237 38.7835 16.4777C38.8081 16.5447 38.8371 16.6094 38.8661 16.6741C38.3862 16.846 37.9464 16.9353 37.5581 16.9353C37.0491 16.9353 36.625 16.788 36.2589 16.4866L36.2567 16.4844Z" fill="#010F20"/>
<path id="Vector_24" d="M42.9286 13.404C43.9353 12.5603 44.8706 12.1384 45.7322 12.1384C45.8817 12.1384 46.029 12.1496 46.1741 12.1763C46.1942 12.1786 46.2165 12.1808 46.2366 12.1808C46.3795 12.1786 46.4822 12.1138 46.5424 11.9866C46.6049 11.8594 46.5938 11.7411 46.5067 11.6272C46.0871 11.0826 45.5915 10.6228 45.0134 10.2455C44.904 10.1696 44.7835 10.1317 44.6496 10.1317C44.6228 10.1317 44.5982 10.1339 44.5714 10.1362C43.2924 10.2567 42.3438 11.2188 41.7232 13.0179C42.1607 13.0335 42.5625 13.1629 42.9286 13.404ZM44.6339 10.8103H44.6384L44.6406 10.8125C44.9375 11.0045 45.2098 11.2254 45.4643 11.471C44.6317 11.5379 43.7567 11.9152 42.8549 12.596C42.7902 12.567 42.7232 12.5402 42.6563 12.5156C43.1563 11.4487 43.8081 10.8884 44.6339 10.8103Z" fill="#010F20"/>
<path id="Vector_25" d="M42.1049 17.6942C41.971 19.2254 41.4955 20.279 40.6808 20.8504C40.5513 20.9397 40.5067 21.0603 40.5446 21.212C40.5803 21.3661 40.6786 21.4509 40.8326 21.471C41.0982 21.5067 41.3661 21.5245 41.6339 21.5245C42.0491 21.5223 42.462 21.4799 42.8683 21.3951C43.029 21.3683 43.1585 21.2879 43.2589 21.1607C44.0759 20.1741 44.067 18.8259 43.2299 17.1183C42.9085 17.4129 42.5335 17.6049 42.1049 17.6942ZM42.7366 20.7299L42.7344 20.7321H42.7299C42.3839 20.8058 42.0357 20.8437 41.6808 20.846C42.2232 20.212 42.5736 19.3303 42.7277 18.212C42.7946 18.1875 42.8616 18.1585 42.9263 18.1272C43.3281 19.2366 43.2656 20.0915 42.7366 20.7299Z" fill="#010F20"/>
<path id="Vector_26" d="M43.9933 15.4754C43.9754 15.9129 43.846 16.3125 43.6049 16.6763C44.5982 17.8549 45.0089 18.933 44.837 19.9129C44.8281 19.9643 44.8303 20.0134 44.8437 20.0625C44.8571 20.1116 44.8794 20.1563 44.9129 20.1942C44.9464 20.2344 44.9866 20.2634 45.0312 20.2857C45.0781 20.3058 45.1272 20.317 45.1785 20.317C45.2567 20.317 45.3259 20.2924 45.3861 20.2455C45.933 19.8281 46.3951 19.3326 46.7723 18.7567C46.866 18.6228 46.9018 18.4754 46.8817 18.3147C46.7611 17.0402 45.7969 16.096 43.9933 15.4754ZM46.2053 18.3839C46.0111 18.6808 45.7902 18.9531 45.5424 19.2054C45.4754 18.3728 45.0982 17.5022 44.4152 16.6049C44.4442 16.5379 44.471 16.4732 44.4955 16.404C45.5669 16.904 46.1272 17.5558 46.2076 18.3795V18.3817L46.2053 18.3839Z" fill="#010F20"/>
<path id="Vector_27" d="M47.4241 13.7478C46.9374 13.346 46.3593 13.1451 45.6941 13.1451C45.0111 13.1451 44.2366 13.3549 43.3705 13.779C43.6674 14.0982 43.8593 14.4732 43.9464 14.9018C45.4843 15.0335 46.5401 15.5067 47.1138 16.3214C47.1807 16.4196 47.2723 16.4687 47.3928 16.4665C47.4799 16.4687 47.5557 16.4397 47.6205 16.3839C47.6874 16.3259 47.7254 16.2545 47.7366 16.1674C47.8258 15.4866 47.8013 14.8103 47.6607 14.1384C47.6316 13.9799 47.5535 13.8482 47.4241 13.7478ZM44.4687 14.2768C44.4419 14.212 44.4151 14.1451 44.3839 14.0826C44.866 13.9085 45.3035 13.8214 45.6941 13.8214C46.2008 13.8214 46.6249 13.9687 46.9932 14.2701L46.9955 14.2723V14.2745C47.0669 14.6205 47.1049 14.9687 47.1093 15.3214C46.4709 14.7812 45.587 14.433 44.4687 14.2768Z" fill="#010F20"/>
<path id="Vector_28" d="M40.3236 17.3527C39.3169 18.1964 38.3816 18.6183 37.5178 18.6183C37.3705 18.6183 37.2232 18.6049 37.0758 18.5803C37.0558 18.5759 37.0357 18.5759 37.0133 18.5759C36.8727 18.5759 36.77 18.6406 36.7075 18.7678C36.645 18.8951 36.6584 19.0156 36.7455 19.1272C37.1629 19.6741 37.6607 20.1339 38.2366 20.5089C38.3459 20.5848 38.4687 20.6228 38.6026 20.6228C38.6272 20.6228 38.654 20.6228 38.6808 20.6205C39.9575 20.4978 40.9062 19.5379 41.5267 17.7388C41.0892 17.721 40.6874 17.5915 40.3236 17.3527ZM38.616 19.9464H38.6138L38.6093 19.9442C38.3147 19.75 38.0401 19.5312 37.7879 19.2835C38.6205 19.2165 39.4955 18.8393 40.395 18.1607C40.462 18.1875 40.529 18.2143 40.5959 18.2388C40.0937 19.308 39.4419 19.8683 38.616 19.9464Z" fill="#010F20"/>
<path id="Vector_29" d="M39.6808 15.3772C39.6808 15.6339 39.7322 15.8817 39.8304 16.1205C39.9286 16.3571 40.0692 16.567 40.25 16.7478C40.4331 16.9308 40.6429 17.0692 40.8817 17.1696C41.1206 17.2679 41.3683 17.317 41.625 17.317C41.8839 17.317 42.1317 17.2679 42.3683 17.1696C42.6072 17.0714 42.817 16.9308 43 16.7478C43.1831 16.567 43.3237 16.3571 43.4219 16.1205C43.5201 15.8817 43.5692 15.6339 43.5692 15.3772C43.5692 15.1205 43.5201 14.8728 43.4219 14.6362C43.3237 14.3995 43.1831 14.1897 43 14.0067C42.817 13.8259 42.6072 13.6853 42.3706 13.587C42.1317 13.4888 41.8839 13.4397 41.625 13.4397C41.3683 13.4397 41.1206 13.4888 40.8817 13.587C40.6451 13.6853 40.4331 13.8259 40.2522 14.0089C40.0692 14.1897 39.9286 14.3995 39.8304 14.6362C39.7322 14.8728 39.6831 15.1205 39.6808 15.3772ZM42.8906 15.3772C42.8906 15.5446 42.8594 15.7054 42.7947 15.8616C42.7299 16.0156 42.6384 16.1518 42.5201 16.2701C42.4018 16.3884 42.2656 16.4799 42.1094 16.5424C41.9554 16.6071 41.7924 16.6384 41.625 16.6384C41.4576 16.6384 41.2969 16.6071 41.1406 16.5424C40.9866 16.4799 40.8505 16.3884 40.7322 16.2701C40.6116 16.1518 40.5201 16.0156 40.4576 15.8616C40.3929 15.7054 40.3616 15.5446 40.3616 15.3772C40.3616 15.2098 40.3929 15.0491 40.4576 14.8951C40.5201 14.7411 40.6116 14.6049 40.7322 14.4866C40.8505 14.3683 40.9866 14.2768 41.1406 14.212C41.2969 14.1495 41.4576 14.1161 41.625 14.1161C41.7924 14.1161 41.9554 14.1495 42.1094 14.212C42.2634 14.2768 42.4018 14.3683 42.5201 14.4866C42.6384 14.6049 42.7299 14.7411 42.7947 14.8951C42.8572 15.0491 42.8906 15.2098 42.8906 15.3772Z" fill="#010F20"/>
</g>
</svg>
