<svg xmlns="http://www.w3.org/2000/svg" width="75" height="23" viewBox="0 0 75 23" fill="none">
    <g clip-path="url(#clip0_40_452)">
        <path
            d="M69.0257 4.09838e-05H5.97429C5.74444 4.09838e-05 5.51739 4.09839e-05 5.28814 0.00119098C5.09627 0.00234098 4.9059 0.00568152 4.71219 0.00849348C4.29133 0.0130373 3.87146 0.0470049 3.45626 0.110102C3.04161 0.174571 2.63996 0.296117 2.26487 0.470627C1.89025 0.646611 1.54796 0.875287 1.25036 1.14836C0.951227 1.42066 0.701872 1.73541 0.511886 2.0805C0.321386 2.42489 0.189292 2.79393 0.120163 3.17492C0.0503789 3.5554 0.0128318 3.94026 0.00784748 4.32607C0.00203134 4.50236 0.00141676 4.67924 -0.00164795 4.85558V18.1462C0.00141689 18.3247 0.00203108 18.4977 0.00784748 18.6763C0.0128309 19.062 0.050381 19.4469 0.120163 19.8273C0.189099 20.2085 0.321197 20.5778 0.511886 20.9223C0.701777 21.2663 0.951172 21.5798 1.25036 21.8506C1.5468 22.1248 1.88931 22.3537 2.26487 22.5283C2.63995 22.7033 3.04157 22.8256 3.45626 22.891C3.87156 22.9536 4.29137 22.9876 4.71219 22.9927C4.9059 22.9966 5.09627 22.9988 5.28814 22.9988C5.51739 23 5.74444 23 5.97429 23H69.0257C69.2511 23 69.48 23 69.705 22.9988C69.8961 22.9988 70.092 22.9966 70.2831 22.9927C70.7031 22.9878 71.1218 22.9539 71.5363 22.891C71.9524 22.8251 72.3557 22.7029 72.7324 22.5283C73.1074 22.3536 73.4499 22.1247 73.746 21.8506C74.0443 21.5787 74.2941 21.2655 74.4866 20.9223C74.676 20.5776 74.8067 20.2083 74.8744 19.8273C74.9447 19.4469 74.9833 19.0621 74.991 18.6763C74.9936 18.4977 74.9936 18.3247 74.9936 18.1462C74.9983 17.9373 74.9983 17.7295 74.9983 17.5172V5.48314C74.9983 5.27256 74.9983 5.06368 74.9936 4.85536C74.9936 4.67903 74.9936 4.50214 74.991 4.32581C74.9833 3.93999 74.9447 3.55523 74.8744 3.1747C74.8067 2.79396 74.6756 2.42495 74.4866 2.08029C74.0996 1.38863 73.4863 0.825594 72.7324 0.470414C72.3557 0.296334 71.9524 0.174822 71.5363 0.109889C71.1223 0.0465159 70.7031 0.0125355 70.2831 0.00825071C70.092 0.00544471 69.8961 0.00207521 69.705 0.000954169C69.48 -0.000195831 69.2511 4.09838e-05 69.0257 4.09838e-05Z"
            fill="#010101" />
        <path
            d="M15.9994 11.1149C16.0054 10.6579 16.1286 10.2097 16.3575 9.81214C16.5864 9.41459 16.9136 9.08057 17.3086 8.8412C17.0577 8.4879 16.7266 8.19712 16.3417 7.99203C15.9568 7.78691 15.5287 7.6731 15.0913 7.6596C14.1584 7.56308 13.254 8.20985 12.7786 8.20985C12.294 8.20985 11.5621 7.66918 10.7739 7.68516C10.2641 7.70138 9.7672 7.84752 9.33173 8.10933C8.89621 8.37111 8.53698 8.73966 8.28893 9.17901C7.2145 11.0127 8.01593 13.7074 9.04514 15.1897C9.56011 15.9155 10.1619 16.7262 10.9494 16.6974C11.72 16.6659 12.0078 16.2131 12.9379 16.2131C13.8595 16.2131 14.1295 16.6974 14.9329 16.6791C15.7598 16.6659 16.2808 15.9501 16.7777 15.2175C17.1477 14.7003 17.4324 14.1288 17.6212 13.524C17.1409 13.3237 16.7309 12.9884 16.4425 12.56C16.1541 12.1317 16 11.6291 15.9994 11.1149Z"
            fill="#F0EEEE" />
        <path
            d="M14.4814 6.68487C14.9323 6.15136 15.1544 5.46566 15.1006 4.77332C14.4118 4.84466 13.7756 5.16913 13.3186 5.68216C13.0952 5.93277 12.9241 6.22436 12.8151 6.54023C12.7061 6.85605 12.6612 7.18998 12.6832 7.52292C13.0278 7.52642 13.3686 7.45282 13.6801 7.30766C13.9916 7.16246 14.2656 6.94954 14.4814 6.68487Z"
            fill="#F0EEEE" />
        <path
            d="M27.1547 14.8593H24.5251L23.8936 16.6973H22.7797L25.2705 9.89697H26.4277L28.9185 16.6973H27.7857L27.1547 14.8593ZM24.7974 14.0111H26.8819L25.8543 11.0281H25.8255L24.7974 14.0111Z"
            fill="#F0EEEE" />
        <path
            d="M34.2981 14.2183C34.2981 15.759 33.4616 16.7489 32.1991 16.7489C31.8793 16.7654 31.5612 16.6928 31.2813 16.5394C31.0014 16.386 30.771 16.158 30.6165 15.8815H30.5926V18.3372H29.5602V11.7392H30.5595V12.5638H30.5785C30.7402 12.2887 30.9744 12.0619 31.2565 11.9075C31.5385 11.7532 31.8577 11.6771 32.1801 11.6873C33.4566 11.6874 34.2981 12.6818 34.2981 14.2183ZM33.237 14.2183C33.237 13.2145 32.7107 12.5546 31.9077 12.5546C31.1189 12.5546 30.5883 13.2284 30.5883 14.2183C30.5883 15.2173 31.1189 15.8863 31.9077 15.8863C32.7107 15.8863 33.237 15.2312 33.237 14.2183Z"
            fill="#F0EEEE" />
        <path
            d="M39.834 14.2183C39.834 15.759 38.9974 16.7489 37.7349 16.7489C37.4151 16.7654 37.0971 16.6928 36.8172 16.5394C36.5373 16.386 36.3069 16.158 36.1524 15.8814H36.1285V18.3372H35.096V11.7392H36.0954V12.5638H36.1143C36.276 12.2887 36.5103 12.0619 36.7923 11.9075C37.0743 11.7532 37.3935 11.6771 37.7159 11.6873C38.9925 11.6873 39.834 12.6818 39.834 14.2183ZM38.7728 14.2183C38.7728 13.2145 38.2465 12.5546 37.4436 12.5546C36.6547 12.5546 36.1242 13.2284 36.1242 14.2183C36.1242 15.2173 36.6547 15.8863 37.4436 15.8863C38.2465 15.8863 38.7728 15.2312 38.7728 14.2183Z"
            fill="#F0EEEE" />
        <path
            d="M43.4914 14.8027C43.5677 15.477 44.2324 15.9198 45.1406 15.9198C46.011 15.9198 46.6367 15.477 46.6367 14.8689C46.6367 14.3411 46.2591 14.0251 45.3651 13.8085L44.4711 13.5962C43.2043 13.2946 42.6161 12.7106 42.6161 11.7629C42.6161 10.5896 43.6534 9.78369 45.1264 9.78369C46.5844 9.78369 47.5834 10.5896 47.6173 11.7629H46.575C46.5124 11.0843 45.9437 10.6746 45.1118 10.6746C44.28 10.6746 43.7108 11.0891 43.7108 11.6924C43.7108 12.1731 44.0743 12.456 44.9636 12.6726L45.7238 12.8565C47.1394 13.1865 47.7274 13.747 47.7274 14.7417C47.7274 16.0139 46.6993 16.8107 45.0638 16.8107C43.5343 16.8107 42.5011 16.0326 42.4344 14.8026L43.4914 14.8027Z"
            fill="#F0EEEE" />
        <path
            d="M49.9543 10.5668V11.7401H50.9109V12.546H49.9543V15.2793C49.9543 15.7039 50.1459 15.9018 50.5663 15.9018C50.6799 15.8998 50.7934 15.892 50.9061 15.8782V16.6793C50.7171 16.7142 50.5247 16.7299 50.3327 16.7264C49.3144 16.7264 48.9171 16.3494 48.9171 15.3878V12.546H48.1856V11.7401H48.9171V10.5668H49.9543Z"
            fill="#F0EEEE" />
        <path
            d="M51.4671 14.2191C51.4671 12.6591 52.3993 11.6788 53.8526 11.6788C55.311 11.6788 56.2388 12.6591 56.2388 14.2191C56.2388 15.7833 55.3157 16.7593 53.8526 16.7593C52.3898 16.7593 51.4671 15.7833 51.4671 14.2191ZM55.1867 14.2191C55.1867 13.149 54.6891 12.5174 53.8526 12.5174C53.016 12.5174 52.5188 13.1538 52.5188 14.2191C52.5188 15.2935 53.016 15.9202 53.8526 15.9202C54.6891 15.9202 55.1867 15.2935 55.1867 14.2191Z"
            fill="#F0EEEE" />
        <path
            d="M57.09 11.7389H58.0748V12.5828H58.0984C58.1653 12.3192 58.3217 12.0863 58.542 11.9232C58.7627 11.7601 59.0331 11.6767 59.3083 11.687C59.4274 11.6866 59.5461 11.6994 59.6623 11.725V12.6769C59.5119 12.6317 59.3554 12.6109 59.1981 12.6154C59.0481 12.6094 58.8986 12.6355 58.7601 12.6918C58.6213 12.7482 58.4966 12.8334 58.3941 12.9418C58.2921 13.0502 58.2146 13.1791 58.1679 13.3196C58.1211 13.4602 58.1053 13.6091 58.1224 13.7561V16.6969H57.09V11.7389Z"
            fill="#F0EEEE" />
        <path
            d="M64.4228 15.2417C64.284 16.1417 63.3947 16.7594 62.2573 16.7594C60.7941 16.7594 59.8856 15.7931 59.8856 14.2427C59.8856 12.6875 60.7988 11.679 62.2136 11.679C63.6056 11.679 64.4803 12.6212 64.4803 14.1245V14.4732H60.9278V14.5347C60.9116 14.7172 60.9347 14.901 60.996 15.074C61.0573 15.2469 61.155 15.405 61.2831 15.5379C61.4108 15.6707 61.566 15.7752 61.7383 15.8443C61.9101 15.9135 62.0953 15.9458 62.2808 15.9391C62.5251 15.9616 62.7698 15.9059 62.979 15.7802C63.1886 15.6546 63.351 15.4657 63.4427 15.2417H64.4228ZM60.933 13.7619H63.4474C63.4568 13.5979 63.4316 13.4337 63.3733 13.2797C63.315 13.1257 63.2254 12.9852 63.1097 12.8671C62.9936 12.7489 62.8543 12.6556 62.7 12.5931C62.5461 12.5306 62.3803 12.5001 62.2136 12.5036C62.0456 12.5026 61.8788 12.5345 61.7233 12.5973C61.5677 12.6601 61.4263 12.7527 61.3071 12.8697C61.1884 12.9867 61.0937 13.1258 61.0294 13.2789C60.9651 13.4321 60.9326 13.5962 60.933 13.7619Z"
            fill="#F0EEEE" />
        <path
            d="M23.4724 8.04654V4.77905H24.8049C25.4277 4.77905 25.8021 5.09138 25.8021 5.59406C25.8022 5.75919 25.7444 5.9193 25.6386 6.04729C25.5327 6.17524 25.3852 6.26319 25.221 6.29624V6.33475C25.4247 6.34425 25.6165 6.4316 25.756 6.57829C25.8953 6.72494 25.9712 6.91942 25.9675 7.12032C25.9675 7.6955 25.5427 8.04659 24.8347 8.04659L23.4724 8.04654ZM23.9873 6.1625H24.5982C25.0534 6.1625 25.2899 5.99729 25.2899 5.68708C25.2899 5.38574 25.0669 5.20928 24.6855 5.20928H23.9873V6.1625ZM24.7316 7.61632C25.1955 7.61632 25.4413 7.43048 25.4413 7.08421C25.4413 6.74223 25.1863 6.56334 24.7018 6.56334H23.9873V7.61632H24.7316Z"
            fill="#F0EEEE" />
        <path
            d="M26.496 7.3498C26.496 6.90594 26.8313 6.65004 27.4265 6.61367L28.1041 6.57517V6.36233C28.1041 6.10188 27.9294 5.95485 27.5919 5.95485C27.3163 5.95485 27.1254 6.05456 27.0705 6.22889H26.5926C26.643 5.80535 27.0472 5.53369 27.6147 5.53369C28.2419 5.53369 28.5956 5.84147 28.5956 6.36233V8.04717H28.1204V7.70063H28.0813C28.002 7.82492 27.8907 7.92629 27.7587 7.99431C27.6267 8.06233 27.4787 8.09457 27.3299 8.0878C27.2249 8.09858 27.1187 8.0875 27.0183 8.05539C26.9179 8.02323 26.8254 7.97071 26.7468 7.90116C26.6683 7.83165 26.6054 7.74663 26.5622 7.65169C26.519 7.55671 26.4964 7.45389 26.496 7.3498ZM28.1041 7.13909V6.93294L27.4932 6.97145C27.1487 6.99419 26.9924 7.1097 26.9924 7.3271C26.9924 7.549 27.1878 7.67814 27.4563 7.67814C27.535 7.68602 27.6145 7.67819 27.69 7.65514C27.7656 7.6321 27.8357 7.59428 27.8961 7.54398C27.9566 7.49372 28.0061 7.43192 28.0419 7.36236C28.0776 7.29281 28.0987 7.21691 28.1041 7.13909Z"
            fill="#F0EEEE" />
        <path
            d="M29.3044 4.8522C29.3006 4.78916 29.3161 4.72647 29.3489 4.6722C29.3816 4.61794 29.4302 4.57467 29.4882 4.54787C29.5462 4.52113 29.6111 4.51218 29.6743 4.52215C29.7375 4.53216 29.7963 4.56065 29.8429 4.60393C29.8896 4.6472 29.922 4.7033 29.9359 4.76493C29.9498 4.82656 29.9447 4.89087 29.9211 4.94961C29.8975 5.0083 29.8566 5.05864 29.8036 5.09417C29.7506 5.12969 29.688 5.14869 29.624 5.14873C29.583 5.15082 29.5421 5.14468 29.5036 5.13075C29.4651 5.11683 29.4299 5.09536 29.4 5.06763C29.3702 5.03995 29.3463 5.0066 29.3299 4.96954C29.3135 4.93253 29.3048 4.89262 29.3044 4.8522ZM29.3777 5.58138H29.8698V8.04728H29.3777V5.58138Z"
            fill="#F0EEEE" />
        <path
            d="M31.5639 7.17299L31.017 8.04708H30.475L31.3045 6.81973L30.468 5.58118H31.0447L31.5823 6.45075H31.6214L32.1542 5.58118H32.7032L31.8786 6.79941L32.7124 8.04708H32.1455L31.6008 7.17299H31.5639Z"
            fill="#F0EEEE" />
        <path
            d="M33.1483 7.3498C33.1483 6.90594 33.4836 6.65004 34.0787 6.61367L34.7564 6.57517V6.36233C34.7564 6.10188 34.5817 5.95485 34.2442 5.95485C33.9686 5.95485 33.7776 6.05456 33.7228 6.22889H33.2448C33.2953 5.80535 33.6995 5.53369 34.267 5.53369C34.8942 5.53369 35.2479 5.84147 35.2479 6.36233V8.04717H34.7727V7.70063H34.7336C34.6543 7.82492 34.5429 7.92629 34.4109 7.99431C34.2789 8.06233 34.131 8.09457 33.9822 8.0878C33.8772 8.09858 33.771 8.0875 33.6706 8.05539C33.5702 8.02323 33.4777 7.97071 33.3991 7.90116C33.3206 7.83165 33.2577 7.74663 33.2145 7.65169C33.1712 7.55671 33.1487 7.45389 33.1483 7.3498ZM34.7564 7.13909V6.93294L34.1455 6.97145C33.801 6.99419 33.6447 7.1097 33.6447 7.3271C33.6447 7.549 33.84 7.67814 34.1086 7.67814C34.1873 7.68602 34.2668 7.67819 34.3423 7.65514C34.4179 7.6321 34.488 7.59428 34.5484 7.54398C34.6089 7.49372 34.6584 7.43192 34.6941 7.36236C34.7298 7.29281 34.751 7.21691 34.7564 7.13909Z"
            fill="#F0EEEE" />
        <path
            d="M36.021 5.58134H36.4963V5.95944H36.5332C36.5864 5.82821 36.6804 5.71691 36.8018 5.64165C36.9231 5.56639 37.0656 5.53095 37.2086 5.54045C37.2826 5.53947 37.3564 5.54629 37.4289 5.56077V6.041C37.3383 6.02192 37.2459 6.01208 37.1533 6.01161C37.0719 6.00441 36.9898 6.01404 36.9124 6.03998C36.835 6.06587 36.7639 6.10749 36.7038 6.16209C36.6436 6.21665 36.5958 6.28305 36.5632 6.35699C36.5306 6.43089 36.5141 6.51071 36.5147 6.5913V8.04724H36.021V5.58134Z"
            fill="#F0EEEE" />
        <path
            d="M39.3313 5.58223H39.8069V5.97395H39.8438C39.9064 5.83327 40.0119 5.71533 40.1457 5.63658C40.2796 5.55782 40.435 5.52221 40.5903 5.53465C40.712 5.52562 40.8343 5.54372 40.9479 5.58759C41.0616 5.63142 41.1637 5.69995 41.2469 5.78804C41.3301 5.87612 41.3921 5.98149 41.4283 6.09641C41.4645 6.21132 41.474 6.33275 41.4562 6.4518V8.04813H40.9625V6.574C40.9625 6.17771 40.7878 5.98064 40.4227 5.98064C40.34 5.97685 40.2575 5.99073 40.1808 6.02131C40.1041 6.0519 40.035 6.09845 39.9783 6.15778C39.9216 6.21716 39.8785 6.2879 39.8521 6.36516C39.8257 6.44247 39.8166 6.52446 39.8253 6.60556V8.04813H39.3313L39.3313 5.58223Z"
            fill="#F0EEEE" />
        <path
            d="M42.0771 7.3498C42.0771 6.90594 42.4124 6.65004 43.0077 6.61367L43.6853 6.57517V6.36233C43.6853 6.10188 43.5104 5.95485 43.1731 5.95485C42.8976 5.95485 42.7065 6.05456 42.6517 6.22889H42.1737C42.2241 5.80535 42.6284 5.53369 43.1958 5.53369C43.8228 5.53369 44.1768 5.84147 44.1768 6.36233V8.04717H43.7016V7.70063H43.6626C43.5833 7.82492 43.4718 7.92629 43.3398 7.99431C43.2078 8.06233 43.06 8.09457 42.9108 8.0878C42.806 8.09858 42.6999 8.0875 42.5994 8.05539C42.499 8.02323 42.4065 7.97071 42.328 7.90116C42.2494 7.83165 42.1865 7.74663 42.1433 7.65169C42.1001 7.55671 42.0776 7.45389 42.0771 7.3498ZM43.6853 7.13909V6.93294L43.0741 6.97145C42.7298 6.99419 42.5736 7.1097 42.5736 7.3271C42.5736 7.549 42.7689 7.67814 43.0373 7.67814C43.1161 7.68602 43.1954 7.67819 43.2713 7.65514C43.3467 7.6321 43.417 7.59428 43.4774 7.54398C43.5379 7.49372 43.5871 7.43196 43.6231 7.36236C43.6587 7.29281 43.6797 7.21691 43.6853 7.13909Z"
            fill="#F0EEEE" />
    </g>
    <defs>
        <clipPath id="clip0_40_452">
            <rect width="75" height="23" fill="white" />
        </clipPath>
    </defs>
</svg>