<svg width="64" height="64" viewBox="0 0 64 64" fill="none" xmlns="http://www.w3.org/2000/svg">
<rect width="64" height="64" rx="16" fill="#010F20"/>
<path d="M20.6682 16C22.3137 16 23.9299 16.2475 25.5026 16.7281C27.0897 17.2159 28.2765 17.6891 29.0555 18.1551L30.1621 18.8831L27.3373 24.4455C27.1188 24.3144 26.8131 24.1251 26.4053 23.8922C26.0122 23.6446 25.2769 23.3243 24.192 22.9311C23.1 22.5453 22.0807 22.3487 21.1342 22.3487C19.9693 22.3487 19.0665 22.6035 18.4258 23.1059C17.7997 23.5937 17.4939 24.2562 17.4939 25.0862C17.4939 25.5157 17.6395 25.9162 17.9307 26.2802C18.2365 26.6297 18.7534 27.0083 19.4742 27.416C20.1877 27.8237 20.8211 28.1586 21.3672 28.4061C21.9059 28.6391 22.7505 29.0104 23.9008 29.5128C25.8593 30.3501 27.5411 31.4931 28.939 32.9492C30.3369 34.3908 31.0358 36.0216 31.0358 37.8418C31.0358 39.611 30.7155 41.1545 30.0748 42.4722C29.4486 43.7755 28.5895 44.7948 27.4829 45.5301C26.3908 46.2727 25.1822 46.8115 23.8426 47.1609C22.5175 47.525 21.0759 47.7143 19.5033 47.7143C18.1637 47.7143 16.8532 47.5759 15.5718 47.3066C14.2904 47.0372 13.2129 46.695 12.3392 46.2873C11.4801 45.8796 10.7084 45.4864 10.0094 45.0933C9.31051 44.6855 8.80086 44.3506 8.49508 44.074L8 43.6663L11.4947 37.8127C11.7859 38.0675 12.1936 38.3878 12.7178 38.7737C13.242 39.145 14.1594 39.6474 15.4845 40.2881C16.8022 40.9288 17.9671 41.2491 18.9791 41.2491C21.9278 41.2491 23.4057 40.2517 23.4057 38.2495C23.4057 37.8418 23.2965 37.4632 23.0854 37.1137C22.867 36.7497 22.5029 36.3857 21.9787 36.0362C21.4545 35.6722 20.9886 35.3809 20.5809 35.1625C20.1732 34.9514 19.5033 34.631 18.5714 34.2015C17.6395 33.7574 16.9479 33.4297 16.5037 33.2113C14.6399 32.3013 13.1983 31.1582 12.1936 29.7749C11.1816 28.3989 10.6793 26.9209 10.6793 25.3483C10.6793 22.5962 11.684 20.3538 13.708 18.621C15.7466 16.8737 18.0618 16 20.6682 16Z" fill="white"/>
<path d="M45.7041 16C47.3495 16 48.9658 16.2475 50.5384 16.7281C52.1256 17.2159 53.3123 17.6891 54.0914 18.1551L55.198 18.8831L52.3732 24.4455C52.1547 24.3144 51.8489 24.1251 51.4412 23.8922C51.0481 23.6446 50.3127 23.3243 49.2279 22.9311C48.1358 22.5453 47.1166 22.3487 46.1701 22.3487C45.0052 22.3487 44.1024 22.6035 43.4617 23.1059C42.8356 23.5937 42.5298 24.2562 42.5298 25.0862C42.5298 25.5157 42.6754 25.9162 42.9666 26.2802C43.2724 26.6297 43.7893 27.0083 44.5101 27.416C45.2236 27.8237 45.857 28.1586 46.4031 28.4061C46.9418 28.6391 47.7864 29.0104 48.9367 29.5128C50.8952 30.3501 52.577 31.4931 53.9749 32.9492C55.3728 34.3908 56.0717 36.0216 56.0717 37.8418C56.0717 39.611 55.7513 41.1545 55.1107 42.4722C54.4845 43.7755 53.6254 44.7948 52.5188 45.5301C51.4267 46.2727 50.2181 46.8115 48.8785 47.1609C47.5534 47.525 46.1118 47.7143 44.5392 47.7143C43.1996 47.7143 41.8891 47.5759 40.6077 47.3066C39.3263 47.0372 38.2488 46.695 37.3751 46.2873C36.516 45.8796 35.7443 45.4864 35.0453 45.0933C34.3464 44.6855 33.8368 44.3506 33.531 44.074L33.0359 43.6663L36.5306 37.8127C36.8218 38.0675 37.2295 38.3878 37.7537 38.7737C38.2779 39.145 39.1953 39.6474 40.5203 40.2881C41.8381 40.9288 43.003 41.2491 44.015 41.2491C46.9637 41.2491 48.4416 40.2517 48.4416 38.2495C48.4416 37.8418 48.3324 37.4632 48.1213 37.1137C47.9029 36.7497 47.5388 36.3857 47.0146 36.0362C46.4904 35.6722 46.0245 35.3809 45.6168 35.1625C45.209 34.9514 44.5392 34.631 43.6073 34.2015C42.6754 33.7574 41.9837 33.4297 41.5396 33.2113C39.6758 32.3013 38.2342 31.1582 37.2295 29.7749C36.2175 28.3989 35.7151 26.9209 35.7151 25.3483C35.7151 22.5962 36.7199 20.3538 38.7439 18.621C40.7824 16.8737 43.0977 16 45.7041 16Z" fill="white"/>
</svg>
