<svg width="52" height="45" viewBox="0 0 52 45" fill="none" xmlns="http://www.w3.org/2000/svg">
<path d="M3.86089 13.084C3.30089 13.084 2.79689 12.988 2.34889 12.796C1.90089 12.596 1.54889 12.316 1.29289 11.956C1.03689 11.596 0.908891 11.176 0.908891 10.696H2.37289C2.40489 11.056 2.54489 11.352 2.79289 11.584C3.04889 11.816 3.40489 11.932 3.86089 11.932C4.33289 11.932 4.70089 11.82 4.96489 11.596C5.22889 11.364 5.36089 11.068 5.36089 10.708C5.36089 10.428 5.27689 10.2 5.10889 10.024C4.94889 9.848 4.74489 9.712 4.49689 9.616C4.25689 9.52 3.92089 9.416 3.48889 9.304C2.94489 9.16 2.50089 9.016 2.15689 8.872C1.82089 8.72 1.53289 8.488 1.29289 8.176C1.05289 7.864 0.932891 7.448 0.932891 6.928C0.932891 6.448 1.05289 6.028 1.29289 5.668C1.53289 5.308 1.86889 5.032 2.30089 4.84C2.73289 4.648 3.23289 4.552 3.80089 4.552C4.60889 4.552 5.26889 4.756 5.78089 5.164C6.30089 5.564 6.58889 6.116 6.64489 6.82H5.13289C5.10889 6.516 4.96489 6.256 4.70089 6.04C4.43689 5.824 4.08889 5.716 3.65689 5.716C3.26489 5.716 2.94489 5.816 2.69689 6.016C2.44889 6.216 2.32489 6.504 2.32489 6.88C2.32489 7.136 2.40089 7.348 2.55289 7.516C2.71289 7.676 2.91289 7.804 3.15289 7.9C3.39289 7.996 3.72089 8.1 4.13689 8.212C4.68889 8.364 5.13689 8.516 5.48089 8.668C5.83289 8.82 6.12889 9.056 6.36889 9.376C6.61689 9.688 6.74089 10.108 6.74089 10.636C6.74089 11.06 6.62489 11.46 6.39289 11.836C6.16889 12.212 5.83689 12.516 5.39689 12.748C4.96489 12.972 4.45289 13.084 3.86089 13.084ZM9.72308 4.66V13H8.35508V4.66H9.72308ZM12.8871 11.896H15.7071V13H11.5191V4.66H12.8871V11.896ZM18.2192 11.896H21.0392V13H16.8512V4.66H18.2192V11.896ZM23.5512 4.66V13H22.1832V4.66H23.5512ZM24.8913 8.812C24.8913 7.996 25.0793 7.264 25.4553 6.616C25.8393 5.968 26.3553 5.464 27.0033 5.104C27.6593 4.736 28.3753 4.552 29.1513 4.552C30.0393 4.552 30.8273 4.772 31.5153 5.212C32.2113 5.644 32.7153 6.26 33.0273 7.06H31.3833C31.1673 6.62 30.8673 6.292 30.4833 6.076C30.0993 5.86 29.6553 5.752 29.1513 5.752C28.5993 5.752 28.1073 5.876 27.6753 6.124C27.2433 6.372 26.9033 6.728 26.6553 7.192C26.4153 7.656 26.2953 8.196 26.2953 8.812C26.2953 9.428 26.4153 9.968 26.6553 10.432C26.9033 10.896 27.2433 11.256 27.6753 11.512C28.1073 11.76 28.5993 11.884 29.1513 11.884C29.6553 11.884 30.0993 11.776 30.4833 11.56C30.8673 11.344 31.1673 11.016 31.3833 10.576H33.0273C32.7153 11.376 32.2113 11.992 31.5153 12.424C30.8273 12.856 30.0393 13.072 29.1513 13.072C28.3673 13.072 27.6513 12.892 27.0033 12.532C26.3553 12.164 25.8393 11.656 25.4553 11.008C25.0793 10.36 24.8913 9.628 24.8913 8.812ZM38.4325 13.084C37.6565 13.084 36.9405 12.904 36.2845 12.544C35.6365 12.176 35.1205 11.668 34.7365 11.02C34.3605 10.364 34.1725 9.628 34.1725 8.812C34.1725 7.996 34.3605 7.264 34.7365 6.616C35.1205 5.968 35.6365 5.464 36.2845 5.104C36.9405 4.736 37.6565 4.552 38.4325 4.552C39.2165 4.552 39.9325 4.736 40.5805 5.104C41.2365 5.464 41.7525 5.968 42.1285 6.616C42.5045 7.264 42.6925 7.996 42.6925 8.812C42.6925 9.628 42.5045 10.364 42.1285 11.02C41.7525 11.668 41.2365 12.176 40.5805 12.544C39.9325 12.904 39.2165 13.084 38.4325 13.084ZM38.4325 11.896C38.9845 11.896 39.4765 11.772 39.9085 11.524C40.3405 11.268 40.6765 10.908 40.9165 10.444C41.1645 9.972 41.2885 9.428 41.2885 8.812C41.2885 8.196 41.1645 7.656 40.9165 7.192C40.6765 6.728 40.3405 6.372 39.9085 6.124C39.4765 5.876 38.9845 5.752 38.4325 5.752C37.8805 5.752 37.3885 5.876 36.9565 6.124C36.5245 6.372 36.1845 6.728 35.9365 7.192C35.6965 7.656 35.5765 8.196 35.5765 8.812C35.5765 9.428 35.6965 9.972 35.9365 10.444C36.1845 10.908 36.5245 11.268 36.9565 11.524C37.3885 11.772 37.8805 11.896 38.4325 11.896ZM50.8907 13H49.5227L45.4067 6.772V13H44.0387V4.648H45.4067L49.5227 10.864V4.648H50.8907V13Z" fill="#C1C5D6"/>
<mask id="mask0_657_2" style="mask-type:luminance" maskUnits="userSpaceOnUse" x="0" y="15" width="51" height="30">
<path d="M50.1428 15L50.1428 45L-3.05176e-05 45L-3.05176e-05 15L50.1428 15Z" fill="white"/>
</mask>
<g mask="url(#mask0_657_2)">
<path d="M48.9285 19.6026L5.71648 19.6026V15.3437C5.71648 15.2499 5.683 15.1696 5.61604 15.1048C5.54908 15.0379 5.47095 15.0044 5.3772 15.0044H0.339252C0.245502 15.0044 0.165146 15.0379 0.0981827 15.1048C0.0312195 15.1696 -3.05176e-05 15.2499 -3.05176e-05 15.3437V17.7276C-3.05176e-05 17.8214 0.0312195 17.9017 0.0981827 17.9664C0.165146 18.0334 0.245502 18.0669 0.339252 18.0669L3.07363 18.0669L3.07363 44.6562C3.07363 44.7477 3.10711 44.8281 3.17184 44.895C3.23881 44.9598 3.31916 44.9932 3.41291 44.9932H5.37943C5.47318 44.9932 5.55354 44.9598 5.6205 44.895C5.68747 44.8281 5.71872 44.7477 5.71872 44.6562V41.2254H8.73658V44.6562C8.73658 44.7477 8.77006 44.8281 8.83479 44.895C8.90175 44.9598 8.98211 44.9932 9.07586 44.9932L37.6808 44.9932C37.7745 44.9932 37.8526 44.9598 37.9196 44.895C37.9866 44.8281 38.0201 44.7477 38.0201 44.6562V41.2254H40.2009V44.6562C40.2009 44.7477 40.2343 44.8281 40.3013 44.895C40.366 44.9598 40.4464 44.9932 40.5401 44.9932H46.2611C46.3549 44.9932 46.4352 44.9598 46.5 44.895C46.5669 44.8281 46.6004 44.7477 46.6004 44.6562V41.2254H48.9285C49.0893 41.2254 49.2433 41.1941 49.3928 41.1339C49.5424 41.0714 49.6741 40.9843 49.7879 40.8705C49.9018 40.7566 49.9888 40.6249 50.0513 40.4776C50.1138 40.3281 50.1428 40.174 50.1428 40.0133L50.1428 20.8169C50.1428 20.6562 50.1138 20.4999 50.0513 20.3526C49.9888 20.2031 49.9018 20.0736 49.7879 19.9598C49.6741 19.8459 49.5424 19.7566 49.3928 19.6964C49.2433 19.6339 49.0893 19.6026 48.9285 19.6026ZM3.7522 44.3169L3.7522 17.7276C3.7522 17.6339 3.71872 17.5535 3.65175 17.4888C3.58702 17.4218 3.50666 17.3883 3.41291 17.3883H0.678539V15.6807H5.03791L5.04015 44.3169H3.7522ZM41.8125 20.2812L39.8437 22.2432L13.7232 22.2432L11.7544 20.2812L41.8125 20.2812ZM11.529 40.549L13.5982 38.4843L39.7209 38.4843L41.7901 40.549L11.529 40.549ZM9.41515 41.2477H11.596V44.3169H9.41515V41.2477ZM12.2745 41.2477H14.4576V44.3169H12.2745V41.2477ZM15.1361 41.2477H17.3169V44.3169H15.1361V41.2477ZM17.9955 41.2477H20.1785L20.1785 44.3169H17.9955V41.2477ZM20.8571 41.2477L23.0379 41.2477L23.0379 44.3169L20.8571 44.3169L20.8571 41.2477ZM23.7165 41.2477H25.8995L25.8995 44.3169H23.7165L23.7165 41.2477ZM26.5781 41.2477H28.7589L28.7589 44.3169H26.5781L26.5781 41.2477ZM29.4375 41.2477H31.6205L31.6205 44.3169H29.4375L29.4375 41.2477ZM32.2991 41.2477H34.4799V44.3169H32.2991L32.2991 41.2477ZM37.3415 44.3169H35.1584V41.2477H37.3415V44.3169ZM40.8794 41.2477H43.0602V44.3169H40.8794V41.2477ZM45.9218 44.3169H43.741V41.2477H45.9218V44.3169ZM49.4643 40.0133C49.4643 40.1606 49.4129 40.2879 49.308 40.3928C49.2031 40.4955 49.0759 40.549 48.9285 40.549H42.6696C42.6562 40.4821 42.625 40.424 42.5759 40.3772L40.1004 37.9084C40.0357 37.8414 39.9553 37.808 39.8616 37.808L13.4576 37.808C13.3638 37.808 13.2835 37.8414 13.2165 37.9084L10.866 40.2522C10.7835 40.3348 10.7522 40.433 10.7723 40.549H5.71872L5.71872 20.2812H10.8125C10.8281 20.3057 10.846 20.3303 10.866 20.3526L13.3415 22.8214C13.4085 22.8861 13.4866 22.9196 13.5803 22.9196L39.9843 22.9196C40.0781 22.9196 40.1584 22.8861 40.2254 22.8214L42.5759 20.4754C42.6317 20.4218 42.6629 20.3548 42.6718 20.2812H48.9285C49.0759 20.2812 49.2031 20.3325 49.308 20.4374C49.4129 20.5423 49.4643 20.6673 49.4643 20.8169L49.4643 40.0133Z" fill="#5CE1E6"/>
</g>
<path d="M12.799 28.0625C12.9329 26.5291 13.4061 25.4777 14.2231 24.9063C14.3526 24.8148 14.3972 24.6942 14.3593 24.5424C14.3213 24.3907 14.2253 24.3036 14.0691 24.2835C13.8035 24.25 13.5378 24.2322 13.2677 24.2322C12.8526 24.2322 12.4419 24.2746 12.0356 24.3594C11.8749 24.3884 11.7432 24.4666 11.6427 24.5938C10.8258 25.5804 10.8369 26.9286 11.674 28.6384C11.9954 28.3416 12.3704 28.1496 12.799 28.0625ZM12.1673 25.0268L12.1695 25.0224H12.1718C12.5177 24.9509 12.8682 24.913 13.2231 24.9085C12.6807 25.5447 12.3302 26.4264 12.174 27.5424C12.107 27.5692 12.0423 27.5982 11.9753 27.6273C11.5736 26.5201 11.6383 25.663 12.1673 25.0268Z" fill="#5CE1E6"/>
<path d="M10.9107 30.279C10.9263 29.8438 11.0558 29.442 11.2969 29.0781C10.3058 27.9018 9.89509 26.8214 10.067 25.8415C10.0759 25.7924 10.0737 25.7411 10.0603 25.692C10.0469 25.6429 10.0223 25.6004 9.99107 25.5603C9.95759 25.5223 9.91741 25.4911 9.87054 25.471C9.82589 25.4487 9.77679 25.4375 9.72545 25.4375C9.64732 25.4375 9.57813 25.4621 9.51786 25.5112C8.97098 25.9286 8.50893 26.4241 8.1317 26.9978C8.03795 27.1317 8.00223 27.279 8.02232 27.442C8.14286 28.7143 9.10491 29.6607 10.9107 30.279ZM8.69866 27.3705C8.89286 27.0759 9.11384 26.8013 9.35938 26.5513C9.42857 27.3817 9.8058 28.2522 10.4866 29.1518C10.4576 29.2165 10.4308 29.2835 10.4085 29.3504C9.33705 28.8504 8.77455 28.2009 8.69643 27.3772V27.3728L8.69866 27.3705Z" fill="#5CE1E6"/>
<path d="M11.5334 31.9776C11.2366 31.6561 11.0446 31.2834 10.9553 30.8548C9.41961 30.7231 8.3638 30.2499 7.79014 29.4352C7.72318 29.3369 7.62943 29.2878 7.51113 29.2878C7.42407 29.2878 7.34818 29.3146 7.28122 29.3727C7.21648 29.4307 7.17854 29.5021 7.16738 29.5892C7.07586 30.2678 7.10041 30.9441 7.24327 31.616C7.27005 31.7767 7.35041 31.9061 7.47764 32.0066C7.96648 32.4106 8.54238 32.6115 9.20979 32.6115C9.89059 32.6115 10.6651 32.3994 11.5334 31.9776ZM7.90845 31.4843V31.4798C7.83479 31.1338 7.79684 30.7856 7.79461 30.4329C8.43077 30.9731 9.3147 31.3236 10.4352 31.4776C10.4598 31.5445 10.4888 31.6093 10.5201 31.674C10.0379 31.8459 9.59818 31.9352 9.20979 31.9352C8.70309 31.9352 8.27675 31.7878 7.91068 31.4865L7.90845 31.4843Z" fill="#5CE1E6"/>
<path d="M14.5804 28.4039C15.5871 27.5602 16.5224 27.1383 17.3862 27.1383C17.5336 27.1383 17.6809 27.1494 17.826 27.1762C17.8461 27.1785 17.8684 27.1807 17.8885 27.1807C18.0313 27.1785 18.134 27.1137 18.1943 26.9865C18.2568 26.8593 18.2456 26.741 18.1586 26.6271C17.7389 26.0825 17.2434 25.6227 16.6675 25.2454C16.5559 25.1695 16.4354 25.1316 16.3014 25.1316C16.2746 25.1316 16.2501 25.1338 16.2233 25.1361C14.9465 25.2566 13.9979 26.2186 13.3773 28.0178C13.8148 28.0334 14.2144 28.1628 14.5804 28.4039ZM16.288 25.8102H16.2903L16.2925 25.8124C16.5894 26.0044 16.8639 26.2253 17.1162 26.4709C16.2836 26.5378 15.4086 26.9151 14.5068 27.5959C14.4421 27.5669 14.3751 27.5401 14.3081 27.5155C14.8081 26.4486 15.4599 25.8883 16.288 25.8102Z" fill="#5CE1E6"/>
<path d="M13.7566 32.6943C13.6227 34.2256 13.1473 35.2791 12.3325 35.8506C12.2031 35.9398 12.1584 36.0604 12.1964 36.2122C12.2321 36.3662 12.3303 36.451 12.4866 36.4711C12.7522 36.5068 13.0178 36.5247 13.2857 36.5247C13.7008 36.5224 14.1138 36.48 14.52 36.3952C14.6807 36.3684 14.8102 36.2881 14.9107 36.1608C15.7299 35.1742 15.7187 33.826 14.8816 32.1184C14.5602 32.4131 14.1852 32.605 13.7566 32.6943ZM14.3883 35.73L14.3861 35.7322H14.3839C14.0357 35.8059 13.6874 35.8439 13.3325 35.8461C13.8749 35.2122 14.2254 34.3305 14.3816 33.2122C14.4464 33.1876 14.5133 33.1586 14.5781 33.1273C14.9799 34.2367 14.9174 35.0916 14.3883 35.73Z" fill="#5CE1E6"/>
<path d="M15.645 30.4753C15.6272 30.9128 15.4977 31.3124 15.2566 31.6762C16.2499 32.8548 16.6606 33.9329 16.4888 34.9128C16.4798 34.9642 16.4821 35.0133 16.4955 35.0624C16.5089 35.1115 16.5312 35.1561 16.5647 35.1941C16.5981 35.2343 16.6383 35.2633 16.683 35.2856C16.7298 35.3057 16.7789 35.3169 16.8303 35.3169C16.9084 35.3169 16.9776 35.2923 17.0379 35.2454C17.5847 34.828 18.0468 34.3325 18.424 33.7566C18.5178 33.6227 18.5535 33.4753 18.5334 33.3146C18.4129 32.0401 17.4486 31.0959 15.645 30.4753ZM17.8571 33.3838C17.6629 33.6807 17.4419 33.953 17.1941 34.2053C17.1272 33.3727 16.7499 32.5021 16.0669 31.6048C16.0959 31.5378 16.1227 31.4731 16.1472 31.4039C17.2187 31.9039 17.7789 32.5557 17.8593 33.3794V33.3816L17.8571 33.3838Z" fill="#5CE1E6"/>
<path d="M19.0758 28.7477C18.5892 28.3459 18.0111 28.145 17.3459 28.145C16.6651 28.145 15.8883 28.3548 15.0222 28.7789C15.3191 29.0981 15.5111 29.4731 15.6003 29.9017C17.1361 30.0334 18.1919 30.5066 18.7655 31.3214C18.8325 31.4196 18.9262 31.4664 19.0445 31.4664C19.1316 31.4687 19.2075 31.4397 19.2745 31.3839C19.3392 31.3258 19.3771 31.2544 19.3883 31.1673C19.4798 30.4865 19.453 29.8102 19.3124 29.1383C19.2834 28.9798 19.2053 28.8481 19.0758 28.7477ZM16.1204 29.2767C16.0936 29.212 16.0669 29.145 16.0356 29.0825C16.5178 28.9084 16.9553 28.8214 17.3459 28.8214C17.8526 28.8214 18.2789 28.9687 18.645 29.27L18.6472 29.2723V29.2745C18.7186 29.6205 18.7566 29.9687 18.7611 30.3214C18.1249 29.7812 17.241 29.433 16.1204 29.2767Z" fill="#5CE1E6"/>
<path d="M11.9753 32.3528C10.9686 33.1965 10.0334 33.6184 9.16954 33.6184C9.02222 33.6184 8.8749 33.605 8.72981 33.5805C8.70748 33.576 8.6874 33.576 8.66507 33.576C8.52445 33.576 8.42177 33.6407 8.35927 33.768C8.29677 33.8952 8.31016 34.0157 8.39722 34.1273C8.81463 34.6742 9.3124 35.134 9.88829 35.509C9.99766 35.5849 10.1204 35.6229 10.2544 35.6229C10.2789 35.6229 10.3057 35.6229 10.3325 35.6184C11.6093 35.4979 12.5579 34.5381 13.1785 32.7389C12.741 32.7211 12.3392 32.5916 11.9753 32.3528ZM10.2678 34.9465H10.2655L10.2611 34.9443C9.96641 34.7501 9.69186 34.5314 9.43963 34.2836C10.2722 34.2166 11.1472 33.8394 12.0468 33.1608C12.1137 33.1876 12.1807 33.2144 12.2477 33.2389C11.7454 34.3081 11.0936 34.8684 10.2678 34.9465Z" fill="#5CE1E6"/>
<path d="M11.3348 30.3772C11.3348 30.6339 11.3839 30.8817 11.4821 31.1205C11.5803 31.3571 11.7209 31.5669 11.904 31.7477C12.0848 31.9308 12.2946 32.0692 12.5334 32.1696C12.7723 32.2678 13.0201 32.3169 13.2768 32.3169C13.5357 32.3169 13.7834 32.2678 14.0223 32.1696C14.2589 32.0692 14.4687 31.9308 14.6518 31.7477C14.8348 31.5669 14.9754 31.3571 15.0736 31.1205C15.1718 30.8817 15.2209 30.6339 15.2209 30.3772C15.2209 30.1205 15.1718 29.8727 15.0736 29.6361C14.9754 29.3995 14.8348 29.1897 14.6518 29.0067C14.4687 28.8259 14.2589 28.6852 14.0223 28.587C13.7834 28.4888 13.5357 28.4397 13.2768 28.4397C13.0201 28.4397 12.7723 28.4888 12.5334 28.587C12.2968 28.6852 12.087 28.8259 11.904 29.0089C11.7209 29.1897 11.5803 29.3995 11.4821 29.6361C11.3839 29.8727 11.3348 30.1205 11.3348 30.3772ZM14.5424 30.3772C14.5424 30.5446 14.5111 30.7053 14.4464 30.8616C14.3817 31.0156 14.2901 31.1518 14.1718 31.2701C14.0535 31.3884 13.9174 31.4799 13.7611 31.5424C13.6071 31.6071 13.4442 31.6384 13.2768 31.6384C13.1093 31.6384 12.9486 31.6071 12.7924 31.5424C12.6384 31.4799 12.5022 31.3884 12.3839 31.2701C12.2634 31.1518 12.1741 31.0156 12.1093 30.8616C12.0446 30.7053 12.0134 30.5446 12.0134 30.3772C12.0134 30.2098 12.0446 30.0491 12.1093 29.8951C12.1741 29.741 12.2634 29.6049 12.3839 29.4866C12.5022 29.3683 12.6384 29.2768 12.7924 29.212C12.9486 29.1495 13.1093 29.116 13.2768 29.116C13.4442 29.116 13.6071 29.1495 13.7611 29.212C13.9151 29.2768 14.0535 29.3683 14.1718 29.4866C14.2901 29.6049 14.3817 29.741 14.4464 29.8951C14.5089 30.0491 14.5424 30.2098 14.5424 30.3772Z" fill="#5CE1E6"/>
<path d="M26.9731 28.0625C27.1048 26.5291 27.5802 25.4777 28.3972 24.9063C28.5244 24.8148 28.5713 24.6942 28.5334 24.5424C28.4954 24.3907 28.3994 24.3036 28.2432 24.2835C27.9776 24.25 27.7119 24.2322 27.4418 24.2322C27.0267 24.2322 26.6159 24.2746 26.2097 24.3594C26.049 24.3884 25.9173 24.4666 25.8168 24.5938C24.9999 25.5804 25.011 26.9286 25.8481 28.6384C26.1695 28.3416 26.5445 28.1496 26.9731 28.0625ZM26.3414 25.0268L26.3436 25.0224H26.3459C26.6918 24.9509 27.0423 24.913 27.3972 24.9085C26.8548 25.5447 26.5043 26.4264 26.3481 27.5424C26.2811 27.5692 26.2164 27.5982 26.1494 27.6273C25.7476 26.5201 25.8124 25.663 26.3414 25.0268Z" fill="#5CE1E6"/>
<path d="M25.0848 30.279C25.1004 29.8438 25.2299 29.442 25.4709 29.0781C24.4799 27.9018 24.0692 26.8214 24.241 25.8415C24.2477 25.7924 24.2455 25.7411 24.2321 25.692C24.2209 25.6429 24.1964 25.6004 24.1629 25.5603C24.1317 25.5223 24.0915 25.4911 24.0446 25.471C24 25.4487 23.9509 25.4375 23.8995 25.4375C23.8214 25.4375 23.7522 25.4621 23.6897 25.5112C23.1451 25.9286 22.683 26.4241 22.3058 26.9978C22.212 27.1317 22.1763 27.279 22.1942 27.442C22.3169 28.7143 23.279 29.6607 25.0848 30.279ZM22.8727 27.3705C23.0669 27.0759 23.2879 26.8013 23.5334 26.5513C23.6026 27.3817 23.9799 28.2522 24.6607 29.1518C24.6317 29.2165 24.6071 29.2835 24.5826 29.3504C23.5111 28.8504 22.9486 28.2009 22.8705 27.3772V27.3728L22.8727 27.3705Z" fill="#5CE1E6"/>
<path d="M25.7075 31.9776C25.4106 31.6561 25.2187 31.2834 25.1294 30.8548C23.5937 30.7231 22.5379 30.2499 21.9642 29.4352C21.8973 29.3369 21.8035 29.2878 21.6852 29.2878C21.5981 29.2878 21.5223 29.3146 21.4553 29.3727C21.3906 29.4307 21.3526 29.5021 21.3414 29.5892C21.2499 30.2678 21.2745 30.9441 21.4173 31.616C21.4441 31.7767 21.5245 31.9061 21.6517 32.0066C22.1406 32.4106 22.7164 32.6115 23.3839 32.6115C24.0647 32.6115 24.8392 32.3994 25.7075 31.9776ZM22.0825 31.4843V31.4798C22.0089 31.1338 21.9709 30.7856 21.9687 30.4329C22.6048 30.9731 23.4888 31.3236 24.6093 31.4776C24.6339 31.5445 24.6629 31.6093 24.6941 31.674C24.212 31.8459 23.7723 31.9352 23.3839 31.9352C22.8749 31.9352 22.4508 31.7878 22.0848 31.4865L22.0825 31.4843Z" fill="#5CE1E6"/>
<path d="M28.7545 28.4039C29.7612 27.5602 30.6965 27.1383 31.5581 27.1383C31.7076 27.1383 31.855 27.1494 32.0001 27.1762C32.0201 27.1785 32.0425 27.1807 32.0626 27.1807C32.2054 27.1785 32.3081 27.1137 32.3684 26.9865C32.4309 26.8593 32.4197 26.741 32.3326 26.6271C31.913 26.0825 31.4175 25.6227 30.8416 25.2454C30.73 25.1695 30.6094 25.1316 30.4755 25.1316C30.4487 25.1316 30.4242 25.1338 30.3974 25.1361C29.1206 25.2566 28.1697 26.2186 27.5514 28.0178C27.9867 28.0334 28.3884 28.1628 28.7545 28.4039ZM30.4621 25.8102H30.4643L30.4666 25.8124C30.7634 26.0044 31.038 26.2253 31.2902 26.4709C30.4576 26.5378 29.5826 26.9151 28.6809 27.5959C28.6161 27.5669 28.5492 27.5401 28.4822 27.5155C28.9822 26.4486 29.634 25.8883 30.4621 25.8102Z" fill="#5CE1E6"/>
<path d="M27.9307 32.6943C27.7968 34.2256 27.3213 35.2791 26.5066 35.8506C26.3771 35.9398 26.3325 36.0604 26.3704 36.2122C26.4062 36.3662 26.5044 36.451 26.6584 36.4711C26.9262 36.5068 27.1919 36.5247 27.4597 36.5247C27.8749 36.5224 28.2879 36.48 28.6941 36.3952C28.8548 36.3684 28.9843 36.2881 29.0847 36.1608C29.9039 35.1742 29.8928 33.826 29.0557 32.1184C28.7343 32.4131 28.3593 32.605 27.9307 32.6943ZM28.5624 35.73L28.5602 35.7322H28.5579C28.2097 35.8059 27.8615 35.8439 27.5066 35.8461C28.049 35.2122 28.3995 34.3305 28.5557 33.2122C28.6204 33.1876 28.6874 33.1586 28.7521 33.1273C29.1539 34.2367 29.0914 35.0916 28.5624 35.73Z" fill="#5CE1E6"/>
<path d="M29.8193 30.4753C29.8014 30.9128 29.6719 31.3124 29.4309 31.6762C30.4242 32.8548 30.8349 33.9329 30.663 34.9128C30.6541 34.9642 30.6563 35.0133 30.6697 35.0624C30.6831 35.1115 30.7054 35.1561 30.7389 35.1941C30.7724 35.2343 30.8126 35.2633 30.8572 35.2856C30.9041 35.3057 30.9532 35.3169 31.0045 35.3169C31.0827 35.3169 31.1518 35.2923 31.2121 35.2454C31.759 34.828 32.221 34.3325 32.5983 33.7566C32.6898 33.6227 32.7277 33.4753 32.7077 33.3146C32.5871 32.0401 31.6228 31.0959 29.8193 30.4753ZM32.0313 33.3838C31.8371 33.6807 31.6161 33.953 31.3684 34.2053C31.3014 33.3727 30.9242 32.5021 30.2411 31.6048C30.2702 31.5378 30.2969 31.4731 30.3215 31.4039C31.3929 31.9039 31.9532 32.5557 32.0335 33.3794V33.3816L32.0313 33.3838Z" fill="#5CE1E6"/>
<path d="M33.2499 28.7477C32.7633 28.3459 32.1851 28.145 31.52 28.145C30.8391 28.145 30.0624 28.3548 29.1963 28.7789C29.4932 29.0981 29.6851 29.4731 29.7744 29.9017C31.3101 30.0334 32.3659 30.5066 32.9396 31.3214C33.0066 31.4196 33.0981 31.4687 33.2186 31.4664C33.3057 31.4687 33.3816 31.4397 33.4485 31.3839C33.5133 31.3258 33.5512 31.2544 33.5624 31.1673C33.6539 30.4865 33.6271 29.8102 33.4865 29.1383C33.4575 28.9798 33.3793 28.8481 33.2499 28.7477ZM30.2945 29.2767C30.2677 29.212 30.2409 29.145 30.2097 29.0825C30.6918 28.9084 31.1293 28.8214 31.52 28.8214C32.0266 28.8214 32.4508 28.9687 32.8191 29.27L32.8213 29.2723V29.2745C32.8927 29.6205 32.9307 29.9687 32.9351 30.3214C32.2967 29.7812 31.415 29.433 30.2945 29.2767Z" fill="#5CE1E6"/>
<path d="M26.1494 32.3528C25.1427 33.1965 24.2074 33.6184 23.3436 33.6184C23.1963 33.6184 23.049 33.605 22.9039 33.5805C22.8816 33.576 22.8615 33.576 22.8391 33.576C22.6985 33.576 22.5958 33.6407 22.5333 33.768C22.4731 33.8952 22.4842 34.0157 22.5713 34.1273C22.9887 34.6742 23.4865 35.134 24.0624 35.509C24.1717 35.5849 24.2945 35.6229 24.4284 35.6229C24.453 35.6229 24.4798 35.6229 24.5066 35.6184C25.7833 35.4979 26.732 34.5381 27.3525 32.7389C26.915 32.7211 26.5133 32.5916 26.1494 32.3528ZM24.4418 34.9465H24.4396L24.4351 34.9443C24.1405 34.7501 23.8659 34.5314 23.6137 34.2836C24.4463 34.2166 25.3213 33.8394 26.2208 33.1608C26.2878 33.1876 26.3548 33.2144 26.4217 33.2389C25.9195 34.3081 25.2677 34.8684 24.4418 34.9465Z" fill="#5CE1E6"/>
<path d="M25.5089 30.3772C25.5089 30.6339 25.558 30.8817 25.6562 31.1205C25.7544 31.3571 25.895 31.5669 26.0781 31.7477C26.2589 31.9308 26.4687 32.0692 26.7075 32.1696C26.9464 32.2678 27.1941 32.3169 27.4508 32.3169C27.7098 32.3169 27.9575 32.2678 28.1964 32.1696C28.433 32.0714 28.6428 31.9308 28.8258 31.7477C29.0089 31.5669 29.1495 31.3571 29.2477 31.1205C29.3459 30.8817 29.395 30.6339 29.395 30.3772C29.395 30.1205 29.3459 29.8727 29.2477 29.6361C29.1495 29.3995 29.0089 29.1897 28.8258 29.0067C28.6428 28.8259 28.433 28.6852 28.1964 28.587C27.9575 28.4888 27.7098 28.4397 27.4508 28.4397C27.1941 28.4397 26.9464 28.4888 26.7075 28.587C26.4709 28.6852 26.2589 28.8259 26.0781 29.0089C25.895 29.1897 25.7544 29.3995 25.6562 29.6361C25.558 29.8727 25.5089 30.1205 25.5089 30.3772ZM28.7164 30.3772C28.7164 30.5446 28.6852 30.7053 28.6205 30.8616C28.5557 31.0156 28.4642 31.1518 28.3459 31.2701C28.2276 31.3884 28.0914 31.4799 27.9352 31.5424C27.7812 31.6071 27.6182 31.6384 27.4508 31.6384C27.2834 31.6384 27.1227 31.6071 26.9664 31.5424C26.8124 31.4799 26.6763 31.3884 26.558 31.2701C26.4374 31.1518 26.3459 31.0156 26.2834 30.8616C26.2187 30.7053 26.1874 30.5446 26.1874 30.3772C26.1874 30.2098 26.2187 30.0491 26.2834 29.8951C26.3459 29.741 26.4374 29.6049 26.558 29.4866C26.6763 29.3683 26.8124 29.2768 26.9664 29.212C27.1227 29.1495 27.2834 29.116 27.4508 29.116C27.6182 29.116 27.7812 29.1495 27.9352 29.212C28.0892 29.2768 28.2276 29.3683 28.3459 29.4866C28.4642 29.6049 28.5557 29.741 28.6205 29.8951C28.683 30.0491 28.7164 30.2098 28.7164 30.3772Z" fill="#5CE1E6"/>
<path d="M41.1474 28.0625C41.2791 26.5291 41.7546 25.4777 42.5715 24.9063C42.6987 24.8148 42.7456 24.6942 42.7077 24.5424C42.6697 24.3907 42.5737 24.3036 42.4175 24.2835C42.1519 24.25 41.884 24.2322 41.6162 24.2322C41.201 24.2322 40.7903 24.2746 40.384 24.3594C40.2233 24.3884 40.0916 24.4666 39.9912 24.5938C39.1742 25.5804 39.1831 26.9286 40.0224 28.6384C40.3438 28.3416 40.7188 28.1496 41.1474 28.0625ZM40.5157 25.0268L40.5179 25.0224H40.5202C40.8662 24.9509 41.2166 24.913 41.5693 24.9085C41.0291 25.5447 40.6764 26.4264 40.5224 27.5424C40.4554 27.5692 40.3907 27.5982 40.3237 27.6273C39.922 26.5201 39.9867 25.663 40.5157 25.0268Z" fill="#5CE1E6"/>
<path d="M39.2589 30.279C39.2745 29.8438 39.4039 29.442 39.645 29.0781C38.6517 27.9018 38.2432 26.8214 38.4129 25.8415C38.4218 25.7924 38.4196 25.7411 38.4062 25.692C38.3928 25.6429 38.3705 25.6004 38.337 25.5603C38.3057 25.5223 38.2656 25.4911 38.2187 25.471C38.1718 25.4487 38.1249 25.4375 38.0736 25.4375C37.9955 25.4375 37.9263 25.4621 37.8638 25.5112C37.3169 25.9286 36.8571 26.4241 36.4798 26.9978C36.3861 27.1317 36.3504 27.279 36.3682 27.442C36.491 28.7143 37.4531 29.6607 39.2589 30.279ZM37.0468 27.3705C37.241 27.0759 37.4598 26.8013 37.7075 26.5513C37.7767 27.3817 38.1517 28.2522 38.8348 29.1518C38.8057 29.2165 38.7789 29.2835 38.7544 29.3504C37.6852 28.8504 37.1227 28.2009 37.0446 27.3772V27.3728L37.0468 27.3705Z" fill="#5CE1E6"/>
<path d="M39.8816 31.9776C39.5847 31.6561 39.3928 31.2834 39.3035 30.8548C37.7678 30.7231 36.7119 30.2499 36.1383 29.4352C36.0713 29.3369 35.9776 29.2878 35.8593 29.2878C35.7722 29.2878 35.6941 29.3146 35.6294 29.3727C35.5646 29.4307 35.5267 29.5021 35.5155 29.5892C35.424 30.2678 35.4486 30.9441 35.5914 31.616C35.6182 31.7767 35.6986 31.9061 35.8258 32.0066C36.3146 32.4106 36.8905 32.6115 37.5579 32.6115C38.2387 32.6115 39.0133 32.3994 39.8816 31.9776ZM36.2566 31.4843L36.2544 31.4798C36.1829 31.1338 36.145 30.7856 36.1405 30.4329C36.7789 30.9731 37.6628 31.3236 38.7834 31.4776C38.8079 31.5445 38.8369 31.6093 38.866 31.674C38.3861 31.8459 37.9463 31.9352 37.5579 31.9352C37.049 31.9352 36.6249 31.7878 36.2588 31.4865L36.2566 31.4843Z" fill="#5CE1E6"/>
<path d="M42.9286 28.4039C43.9353 27.5602 44.8706 27.1383 45.7322 27.1383C45.8817 27.1383 46.029 27.1494 46.1741 27.1762C46.1942 27.1785 46.2165 27.1807 46.2366 27.1807C46.3795 27.1785 46.4822 27.1137 46.5424 26.9865C46.6049 26.8593 46.5938 26.741 46.5067 26.6271C46.0871 26.0825 45.5915 25.6227 45.0134 25.2454C44.904 25.1695 44.7835 25.1316 44.6496 25.1316C44.6228 25.1316 44.5982 25.1338 44.5714 25.1361C43.2924 25.2566 42.3438 26.2186 41.7232 28.0178C42.1607 28.0334 42.5625 28.1628 42.9286 28.4039ZM44.6339 25.8102H44.6384L44.6406 25.8124C44.9375 26.0044 45.2098 26.2253 45.4643 26.4709C44.6317 26.5378 43.7567 26.9151 42.8549 27.5959C42.7902 27.5669 42.7232 27.5401 42.6563 27.5155C43.1563 26.4486 43.8081 25.8883 44.6339 25.8102Z" fill="#5CE1E6"/>
<path d="M42.1049 32.6943C41.971 34.2256 41.4955 35.2791 40.6808 35.8506C40.5513 35.9398 40.5067 36.0604 40.5446 36.2122C40.5803 36.3662 40.6786 36.451 40.8326 36.4711C41.0982 36.5068 41.3661 36.5247 41.6339 36.5247C42.0491 36.5224 42.462 36.48 42.8683 36.3952C43.029 36.3684 43.1585 36.2881 43.2589 36.1608C44.0759 35.1742 44.067 33.826 43.2299 32.1184C42.9085 32.4131 42.5335 32.605 42.1049 32.6943ZM42.7366 35.73L42.7344 35.7322H42.7299C42.3839 35.8059 42.0357 35.8439 41.6808 35.8461C42.2232 35.2122 42.5736 34.3305 42.7277 33.2122C42.7946 33.1876 42.8616 33.1586 42.9263 33.1273C43.3281 34.2367 43.2656 35.0916 42.7366 35.73Z" fill="#5CE1E6"/>
<path d="M43.9932 30.4753C43.9753 30.9128 43.8458 31.3124 43.6048 31.6762C44.5981 32.8548 45.0088 33.9329 44.8369 34.9128C44.828 34.9642 44.8302 35.0133 44.8436 35.0624C44.857 35.1115 44.8793 35.1561 44.9128 35.1941C44.9463 35.2343 44.9865 35.2633 45.0311 35.2856C45.078 35.3057 45.1271 35.3169 45.1784 35.3169C45.2566 35.3169 45.3257 35.2923 45.386 35.2454C45.9329 34.828 46.3949 34.3325 46.7722 33.7566C46.8659 33.6227 46.9016 33.4753 46.8816 33.3146C46.761 32.0401 45.7967 31.0959 43.9932 30.4753ZM46.2052 33.3838C46.011 33.6807 45.79 33.953 45.5423 34.2053C45.4753 33.3727 45.0981 32.5021 44.415 31.6048C44.4441 31.5378 44.4708 31.4731 44.4954 31.4039C45.5668 31.9039 46.1271 32.5557 46.2074 33.3794V33.3816L46.2052 33.3838Z" fill="#5CE1E6"/>
<path d="M47.4242 28.7477C46.9376 28.3459 46.3594 28.145 45.6943 28.145C45.0112 28.145 44.2367 28.3548 43.3706 28.7789C43.6675 29.0981 43.8594 29.4731 43.9465 29.9017C45.4844 30.0334 46.5402 30.5066 47.1139 31.3214C47.1809 31.4196 47.2724 31.4687 47.3929 31.4664C47.48 31.4687 47.5559 31.4397 47.6206 31.3839C47.6876 31.3258 47.7255 31.2544 47.7367 31.1673C47.826 30.4865 47.8014 29.8102 47.6608 29.1383C47.6318 28.9798 47.5536 28.8481 47.4242 28.7477ZM44.4688 29.2767C44.442 29.212 44.4152 29.145 44.384 29.0825C44.8661 28.9084 45.3036 28.8214 45.6943 28.8214C46.201 28.8214 46.6251 28.9687 46.9934 29.27L46.9956 29.2723V29.2745C47.067 29.6205 47.105 29.9687 47.1094 30.3214C46.4711 29.7812 45.5871 29.433 44.4688 29.2767Z" fill="#5CE1E6"/>
<path d="M40.3237 32.3528C39.317 33.1965 38.3818 33.6184 37.5179 33.6184C37.3706 33.6184 37.2233 33.605 37.076 33.5805C37.0559 33.576 37.0358 33.576 37.0135 33.576C36.8728 33.576 36.7702 33.6407 36.7077 33.768C36.6452 33.8952 36.6586 34.0157 36.7456 34.1273C37.163 34.6742 37.6608 35.134 38.2367 35.509C38.3461 35.5849 38.4688 35.6229 38.6027 35.6229C38.6273 35.6229 38.6541 35.6229 38.6809 35.6206C39.9577 35.4979 40.9063 34.5381 41.5269 32.7389C41.0894 32.7211 40.6876 32.5916 40.3237 32.3528ZM38.6161 34.9465H38.6139L38.6094 34.9443C38.3148 34.7501 38.0402 34.5314 37.788 34.2836C38.6206 34.2166 39.4956 33.8394 40.3952 33.1608C40.4621 33.1876 40.5291 33.2144 40.5961 33.2389C40.0938 34.3081 39.442 34.8684 38.6161 34.9465Z" fill="#5CE1E6"/>
<path d="M39.6807 30.3772C39.6807 30.6339 39.732 30.8817 39.8303 31.1205C39.9285 31.3571 40.0691 31.5669 40.2499 31.7477C40.4329 31.9308 40.6428 32.0692 40.8816 32.1696C41.1204 32.2678 41.3682 32.3169 41.6249 32.3169C41.8838 32.3169 42.1316 32.2678 42.3682 32.1696C42.607 32.0714 42.8169 31.9308 42.9999 31.7477C43.1829 31.5669 43.3236 31.3571 43.4218 31.1205C43.52 30.8817 43.5691 30.6339 43.5691 30.3772C43.5691 30.1205 43.52 29.8727 43.4218 29.6361C43.3236 29.3995 43.1829 29.1897 42.9999 29.0067C42.8169 28.8259 42.607 28.6852 42.3704 28.587C42.1316 28.4888 41.8838 28.4397 41.6249 28.4397C41.3682 28.4397 41.1204 28.4888 40.8816 28.587C40.645 28.6852 40.4329 28.8259 40.2521 29.0089C40.0691 29.1897 39.9285 29.3995 39.8303 29.6361C39.732 29.8727 39.6829 30.1205 39.6807 30.3772ZM42.8905 30.3772C42.8905 30.5446 42.8593 30.7053 42.7945 30.8616C42.7298 31.0156 42.6383 31.1518 42.52 31.2701C42.4017 31.3884 42.2655 31.4799 42.1093 31.5424C41.9553 31.6071 41.7923 31.6384 41.6249 31.6384C41.4575 31.6384 41.2968 31.6071 41.1405 31.5424C40.9865 31.4799 40.8503 31.3884 40.732 31.2701C40.6115 31.1518 40.52 31.0156 40.4575 30.8616C40.3928 30.7053 40.3615 30.5446 40.3615 30.3772C40.3615 30.2098 40.3928 30.0491 40.4575 29.8951C40.52 29.741 40.6115 29.6049 40.732 29.4866C40.8503 29.3683 40.9865 29.2768 41.1405 29.212C41.2968 29.1495 41.4575 29.116 41.6249 29.116C41.7923 29.116 41.9553 29.1495 42.1093 29.212C42.2633 29.2768 42.4017 29.3683 42.52 29.4866C42.6383 29.6049 42.7298 29.741 42.7945 29.8951C42.857 30.0491 42.8905 30.2098 42.8905 30.3772Z" fill="#5CE1E6"/>
</svg>
