<svg xmlns="http://www.w3.org/2000/svg" width="75" height="23" viewBox="0 0 75 23" fill="none">
    <g clip-path="url(#clip0_40_429)">
        <path
            d="M72.2222 22.718H2.77778C1.25 22.718 0 21.4715 0 19.9482V3.32926C0 1.80587 1.25 0.559448 2.77778 0.559448H72.2222C73.75 0.559448 75 1.80587 75 3.32926V19.9482C75 21.4715 73.75 22.718 72.2222 22.718Z"
            fill="black" />
        <path
            d="M5.67325 5.12201C5.51564 5.28556 5.42325 5.53881 5.42325 5.86063V17.5308C5.42325 17.8579 5.51564 18.1112 5.67325 18.2694L5.71131 18.3063L12.445 11.7748V11.6957V11.6166L5.71131 5.08508L5.67325 5.12201Z"
            fill="url(#paint0_linear_40_429)" />
        <path
            d="M14.6897 13.9542L12.4451 11.7753V11.6962V11.617L14.6897 9.43811L14.7385 9.46448L17.3961 10.9311C18.1571 11.348 18.1571 12.0338 17.3961 12.4559L14.7385 13.9226L14.6897 13.9542Z"
            fill="url(#paint1_linear_40_429)" />
        <path
            d="M14.7387 13.9221L12.4452 11.6957L5.67349 18.2694C5.92352 18.5279 6.33653 18.5596 6.80392 18.301L14.7387 13.9221Z"
            fill="url(#paint2_linear_40_429)" />
        <path
            d="M14.7386 9.46974L6.7984 5.09077C6.33096 4.83225 5.91794 4.86391 5.66794 5.12243L12.4451 11.6961L14.7386 9.46974Z"
            fill="url(#paint3_linear_40_429)" />
        <path opacity="0.2"
            d="M14.6898 13.8744L6.79852 18.2269C6.35829 18.4696 5.96153 18.4538 5.71153 18.2322L5.67349 18.2691L5.71153 18.3061C5.96699 18.5277 6.35829 18.5435 6.79852 18.3008L14.7387 13.9218L14.6898 13.8744Z"
            fill="black" />
        <path opacity="0.12"
            d="M4.47288 14.4633C4.34863 14.3344 4.27579 14.1347 4.27579 13.881V13.9434C4.27579 14.2012 4.34863 14.4009 4.47288 14.5257L4.50288 14.4965L4.47288 14.4633Z"
            fill="black" />
        <path opacity="0.12"
            d="M17.3959 12.3815L14.684 13.8746L14.7329 13.9221L17.3905 12.4554C17.7709 12.2444 17.9612 11.97 17.9612 11.6957C17.9339 11.9436 17.7438 12.1916 17.3959 12.3815Z"
            fill="black" />
        <path opacity="0.25"
            d="M6.79811 5.16532L17.396 11.011C17.7383 11.2009 17.934 11.4436 17.9666 11.6968C17.9666 11.4225 17.7764 11.1429 17.396 10.9371L6.79811 5.09147C6.03726 4.67467 5.41769 5.02288 5.41769 5.867V5.94615C5.41769 5.09674 6.04272 4.74854 6.79811 5.16532Z"
            fill="#F0EEEE" />
        <path
            d="M37.0327 12.7154C35.7556 12.7154 34.7121 13.6597 34.7121 14.9576C34.7121 16.2502 35.7556 17.1998 37.0327 17.1998C38.3099 17.1998 39.3534 16.2502 39.3534 14.9576C39.3534 13.6597 38.3099 12.7154 37.0327 12.7154ZM37.0327 16.3188C36.3317 16.3188 35.7284 15.7595 35.7284 14.9576C35.7284 14.1504 36.3317 13.5965 37.0327 13.5965C37.7338 13.5965 38.3371 14.1504 38.3371 14.9576C38.3371 15.7595 37.7284 16.3188 37.0327 16.3188ZM31.9675 12.7154C30.6904 12.7154 29.6469 13.6597 29.6469 14.9576C29.6469 16.2502 30.6904 17.1998 31.9675 17.1998C33.2447 17.1998 34.2882 16.2502 34.2882 14.9576C34.2882 13.6597 33.2447 12.7154 31.9675 12.7154ZM31.9675 16.3188C31.2664 16.3188 30.6632 15.7595 30.6632 14.9576C30.6632 14.1504 31.2664 13.5965 31.9675 13.5965C32.6686 13.5965 33.2719 14.1504 33.2719 14.9576C33.2719 15.7595 32.6686 16.3188 31.9675 16.3188ZM25.9458 13.4065V14.3562H28.2936C28.223 14.889 28.0382 15.2847 27.761 15.5538C27.4186 15.8861 26.886 16.2502 25.9512 16.2502C24.5056 16.2502 23.3751 15.1211 23.3751 13.7178C23.3751 12.3144 24.5056 11.1854 25.9512 11.1854C26.7284 11.1854 27.299 11.4809 27.7175 11.866L28.4077 11.1959C27.8208 10.6525 27.0436 10.2357 25.9458 10.2357C23.9675 10.2357 22.3045 11.7974 22.3045 13.7231C22.3045 15.6435 23.9675 17.2104 25.9458 17.2104C27.0164 17.2104 27.8208 16.8727 28.4512 16.2344C29.098 15.6066 29.299 14.7202 29.299 14.0079C29.299 13.7864 29.2827 13.5806 29.2447 13.4118H25.9458V13.4065ZM50.5708 14.1452C50.3806 13.6439 49.7936 12.7154 48.5925 12.7154C47.4023 12.7154 46.4132 13.6228 46.4132 14.9576C46.4132 16.2133 47.3914 17.1998 48.7067 17.1998C49.7664 17.1998 50.3806 16.5721 50.6306 16.208L49.8425 15.6963C49.5817 16.0708 49.223 16.3188 48.7067 16.3188C48.1904 16.3188 47.8208 16.0866 47.5871 15.6382L50.6795 14.3984L50.5708 14.1452ZM47.4186 14.8943C47.3914 14.0291 48.1088 13.5859 48.6251 13.5859C49.0273 13.5859 49.3697 13.7811 49.4838 14.0607L47.4186 14.8943ZM44.9077 17.068H45.924V10.4732H44.9077V17.068ZM43.2447 13.2166H43.2067C42.9784 12.9528 42.5436 12.7154 41.9893 12.7154C40.8317 12.7154 39.7719 13.702 39.7719 14.9682C39.7719 16.2238 40.8317 17.2051 41.9893 17.2051C42.5382 17.2051 42.9784 16.9677 43.2067 16.6934H43.2393V17.0152C43.2393 17.8751 42.7664 18.3341 42.0056 18.3341C41.386 18.3341 41.0001 17.9016 40.8425 17.5375L39.9567 17.8963C40.2121 18.4924 40.886 19.2205 42.0056 19.2205C43.1958 19.2205 44.2012 18.5399 44.2012 16.8833V12.8526H43.2393V13.2166H43.2447ZM42.0762 16.3188C41.3751 16.3188 40.7882 15.749 40.7882 14.9682C40.7882 14.1768 41.3751 13.6017 42.0762 13.6017C42.7664 13.6017 43.3099 14.1821 43.3099 14.9682C43.3154 15.749 42.7719 16.3188 42.0762 16.3188ZM55.3317 10.4732H52.9023V17.068H53.9186V14.5672H55.3371C56.4621 14.5672 57.5654 13.7758 57.5654 12.5202C57.5654 11.2645 56.4512 10.4732 55.3317 10.4732ZM55.3534 13.6492H53.9132V11.3859H55.3534C56.1143 11.3859 56.5436 11.9979 56.5436 12.5149C56.5436 13.032 56.1143 13.6492 55.3534 13.6492ZM61.625 12.7049C60.8915 12.7049 60.1307 13.0214 59.8154 13.7125L60.7176 14.0766C60.908 13.7125 61.2665 13.5912 61.6415 13.5912C62.1631 13.5912 62.7011 13.8971 62.7068 14.4406V14.5092C62.5216 14.4089 62.1307 14.2559 61.6466 14.2559C60.6739 14.2559 59.6904 14.7729 59.6904 15.7384C59.6904 16.6195 60.4841 17.1893 61.375 17.1893C62.0546 17.1893 62.4347 16.8938 62.6688 16.5456H62.7012V17.0574H63.6796V14.5303C63.6847 13.3591 62.783 12.7049 61.625 12.7049ZM61.5 16.3188C61.1688 16.3188 60.7068 16.1552 60.7068 15.7595C60.7068 15.2531 61.283 15.0579 61.783 15.0579C62.2284 15.0579 62.4404 15.1528 62.7068 15.2795C62.6307 15.8861 62.0869 16.3188 61.5 16.3188ZM67.25 12.8473L66.0869 15.7068H66.0546L64.8477 12.8473H63.7557L65.5654 16.8464L64.533 19.0675H65.5926L68.3807 12.8473H67.25ZM58.1199 17.068H59.1358V10.4732H58.1199V17.068Z"
            fill="#F0EEEE" />
        <path
            d="M22.4676 8.09883V4.93335H23.4676C23.9676 4.93335 24.3698 5.08107 24.6687 5.37124C24.9676 5.66672 25.1198 6.04655 25.1198 6.51609C25.1198 6.98563 24.9676 7.36552 24.6687 7.66099C24.3643 7.95112 23.9622 8.09883 23.4622 8.09883H22.4676ZM22.8861 7.70845H23.4622C23.8372 7.70845 24.1361 7.60293 24.3589 7.39189C24.5817 7.18085 24.6904 6.89071 24.6904 6.51082C24.6904 6.13626 24.5817 5.84606 24.3589 5.63502C24.1361 5.424 23.8426 5.31849 23.4622 5.31849H22.8861V7.70845Z"
            fill="#F0EEEE" stroke="#F0EEEE" stroke-width="0.190217" stroke-miterlimit="10" />
        <path d="M25.7069 8.09883V4.93335H26.1254V8.09883H25.7069Z" fill="#F0EEEE" stroke="#F0EEEE"
            stroke-width="0.190217" stroke-miterlimit="10" />
        <path
            d="M27.7881 8.16731C27.549 8.16731 27.3207 8.09348 27.0925 7.94045C26.8642 7.78747 26.7175 7.58171 26.6468 7.30739L27.0273 7.15963C27.0707 7.33375 27.1631 7.48146 27.3044 7.59753C27.4457 7.71886 27.6034 7.77693 27.7827 7.77693C27.962 7.77693 28.1197 7.72941 28.2501 7.63977C28.3805 7.54479 28.4457 7.42345 28.4457 7.25987C28.4457 7.0858 28.3805 6.94859 28.2501 6.85367C28.1197 6.7587 27.9186 6.669 27.636 6.58457C27.348 6.49487 27.1305 6.38408 26.9784 6.24165C26.8316 6.09922 26.7555 5.92509 26.7555 5.7035C26.7555 5.47665 26.848 5.28144 27.0327 5.11262C27.2175 4.94379 27.462 4.85938 27.7555 4.85938C28.0327 4.85938 28.2555 4.92796 28.4294 5.05986C28.6034 5.19175 28.7175 5.33948 28.7664 5.49775L28.386 5.65077C28.3588 5.55051 28.2936 5.45555 28.1849 5.37113C28.0762 5.28672 27.9403 5.24451 27.7664 5.24451C27.6034 5.24451 27.4675 5.28672 27.3534 5.37641C27.2392 5.4661 27.1849 5.57162 27.1849 5.7035C27.1849 5.81957 27.2392 5.91982 27.3425 6.00424C27.4457 6.0834 27.6034 6.15722 27.8044 6.22055C27.9675 6.27329 28.098 6.3208 28.2066 6.36826C28.3153 6.41577 28.424 6.47905 28.5327 6.55821C28.6414 6.63736 28.7284 6.73228 28.7827 6.84834C28.837 6.96446 28.8697 7.10162 28.8697 7.2546C28.8697 7.40764 28.837 7.54479 28.7718 7.66613C28.7067 7.78747 28.6197 7.88244 28.511 7.951C28.4023 8.0196 28.2881 8.07766 28.1631 8.11458C28.049 8.15149 27.9186 8.16731 27.7881 8.16731Z"
            fill="#F0EEEE" stroke="#F0EEEE" stroke-width="0.190217" stroke-miterlimit="10" />
        <path
            d="M29.8973 8.09883H29.4789V4.93335H30.5875C30.8647 4.93335 31.1039 5.02304 31.3049 5.20242C31.506 5.38179 31.6093 5.60338 31.6093 5.8777C31.6093 6.1468 31.506 6.37366 31.3049 6.55306C31.1039 6.7324 30.8647 6.8221 30.5875 6.8221H29.8973V8.09883ZM29.8973 6.42639H30.5985C30.7723 6.42639 30.9136 6.36839 31.0223 6.25232C31.131 6.13626 31.1799 6.00964 31.1799 5.87243C31.1799 5.73527 31.1256 5.60866 31.0223 5.49259C30.9136 5.37652 30.7723 5.31849 30.5985 5.31849H29.8973V6.42639Z"
            fill="#F0EEEE" stroke="#F0EEEE" stroke-width="0.190217" stroke-miterlimit="10" />
        <path
            d="M34.8043 7.68746C34.4836 8.00929 34.0869 8.16754 33.6086 8.16754C33.1303 8.16754 32.7336 8.00929 32.413 7.68746C32.0923 7.36563 31.9347 6.97519 31.9347 6.5162C31.9347 6.05721 32.0923 5.6615 32.413 5.34497C32.7336 5.02314 33.1303 4.86487 33.6086 4.86487C34.0814 4.86487 34.4782 5.02314 34.8043 5.34497C35.1249 5.66677 35.288 6.05721 35.288 6.5162C35.288 6.98046 35.1249 7.3709 34.8043 7.68746ZM32.7227 7.42363C32.9619 7.66104 33.2608 7.77711 33.6086 7.77711C33.9564 7.77711 34.2553 7.66104 34.4945 7.42363C34.7336 7.18623 34.8586 6.88549 34.8586 6.5162C34.8586 6.14691 34.739 5.84617 34.4945 5.60876C34.2553 5.37135 33.9564 5.25528 33.6086 5.25528C33.2608 5.25528 32.9619 5.37135 32.7227 5.60876C32.4836 5.84617 32.3586 6.14691 32.3586 6.5162C32.3586 6.88549 32.4836 7.18623 32.7227 7.42363Z"
            fill="#F0EEEE" stroke="#F0EEEE" stroke-width="0.190217" stroke-miterlimit="10" />
        <path
            d="M35.8753 8.09883V4.93335H36.3862L37.9732 7.39716H37.9895L37.9732 6.78519V4.93335H38.3916V8.09883H37.9569L36.2993 5.51897H36.283L36.2993 6.13098V8.09883H35.8753Z"
            fill="#F0EEEE" stroke="#F0EEEE" stroke-width="0.190217" stroke-miterlimit="10" />
        <path
            d="M39.1357 8.09881V4.93333H39.5542V8.09881H39.1357ZM39.527 4.68536H39.1629L39.4021 4.12085H39.8586L39.527 4.68536Z"
            fill="#F0EEEE" stroke="#F0EEEE" stroke-width="0.190217" stroke-miterlimit="10" />
        <path
            d="M41.1092 8.09883L39.9625 4.93335H40.4244L41.3157 7.50268H41.332L42.2668 4.93335H42.7288L41.544 8.09883H41.1092Z"
            fill="#F0EEEE" stroke="#F0EEEE" stroke-width="0.190217" stroke-miterlimit="10" />
        <path
            d="M45.109 5.32376H43.6253V6.32615H44.9622V6.70604H43.6253V7.70845H45.109V8.09883H43.2068V4.93335H45.109V5.32376Z"
            fill="#F0EEEE" stroke="#F0EEEE" stroke-width="0.190217" stroke-miterlimit="10" />
        <path d="M45.7614 8.09883V4.93335H46.1799V7.70845H47.5929V8.09883H45.7614Z" fill="#F0EEEE"
            stroke="#F0EEEE" stroke-width="0.190217" stroke-miterlimit="10" />
        <path
            d="M49.2121 8.09883V4.93335H49.723L51.3099 7.39716H51.3262L51.3099 6.78519V4.93335H51.7284V8.09883H51.2936L49.636 5.51897H49.6197L49.636 6.13098V8.09883H49.2121Z"
            fill="#F0EEEE" stroke="#F0EEEE" stroke-width="0.190217" stroke-miterlimit="10" />
        <path
            d="M55.1418 7.68746C54.8211 8.00929 54.4244 8.16754 53.9461 8.16754C53.4678 8.16754 53.0711 8.00929 52.7504 7.68746C52.4298 7.36563 52.2722 6.97519 52.2722 6.5162C52.2722 6.05721 52.4298 5.6615 52.7504 5.34497C53.0711 5.02314 53.4678 4.86487 53.9461 4.86487C54.4189 4.86487 54.8156 5.02314 55.1418 5.34497C55.4624 5.66677 55.6255 6.05721 55.6255 6.5162C55.62 6.98046 55.4624 7.3709 55.1418 7.68746ZM53.0602 7.42363C53.2993 7.66104 53.5982 7.77711 53.9461 7.77711C54.2939 7.77711 54.5928 7.66104 54.8319 7.42363C55.0711 7.18623 55.1961 6.88549 55.1961 6.5162C55.1961 6.14691 55.0765 5.84617 54.8319 5.60876C54.5928 5.37135 54.2939 5.25528 53.9461 5.25528C53.5982 5.25528 53.2993 5.37135 53.0602 5.60876C52.8211 5.84617 52.6961 6.14691 52.6961 6.5162C52.6961 6.88549 52.8211 7.18623 53.0602 7.42363Z"
            fill="#F0EEEE" stroke="#F0EEEE" stroke-width="0.190217" stroke-miterlimit="10" />
    </g>
    <defs>
        <linearGradient id="paint0_linear_40_429" x1="11.847" y1="5.73912" x2="2.99677" y2="14.856"
            gradientUnits="userSpaceOnUse">
            <stop stop-color="#00A0FF" />
            <stop offset="0.00657445" stop-color="#00A1FF" />
            <stop offset="0.2601" stop-color="#00BEFF" />
            <stop offset="0.5122" stop-color="#00D2FF" />
            <stop offset="0.7604" stop-color="#00DFFF" />
            <stop offset="1" stop-color="#00E3FF" />
        </linearGradient>
        <linearGradient id="paint1_linear_40_429" x1="18.3877" y1="11.6969" x2="5.2372" y2="11.6969"
            gradientUnits="userSpaceOnUse">
            <stop stop-color="#FFE000" />
            <stop offset="0.4087" stop-color="#FFBD00" />
            <stop offset="0.7754" stop-color="#FFA500" />
            <stop offset="1" stop-color="#FF9C00" />
        </linearGradient>
        <linearGradient id="paint2_linear_40_429" x1="13.4925" y1="12.907" x2="1.49088" y2="25.2702"
            gradientUnits="userSpaceOnUse">
            <stop stop-color="#FF3A44" />
            <stop offset="1" stop-color="#C31162" />
        </linearGradient>
        <linearGradient id="paint3_linear_40_429" x1="3.96538" y1="1.23741" x2="9.32464"
            y2="6.75806" gradientUnits="userSpaceOnUse">
            <stop stop-color="#32A071" />
            <stop offset="0.0685" stop-color="#2DA771" />
            <stop offset="0.4762" stop-color="#15CF74" />
            <stop offset="0.8009" stop-color="#06E775" />
            <stop offset="1" stop-color="#00F076" />
        </linearGradient>
        <clipPath id="clip0_40_429">
            <rect width="75" height="23" fill="white" />
        </clipPath>
    </defs>
</svg>