<svg xmlns="http://www.w3.org/2000/svg" width="75" height="59" viewBox="0 0 75 59" fill="none">
    <mask id="mask0_40_422" style="mask-type:luminance" maskUnits="userSpaceOnUse" x="0" y="0"
        width="72" height="43">
        <path d="M0 0H71.2V42.8313H0V0Z" fill="white" />
    </mask>
    <g mask="url(#mask0_40_422)">
        <path
            d="M69.4733 6.57663H8.11488V0.495541C8.11488 0.362272 8.06852 0.246387 7.97292 0.153678C7.88021 0.0580729 7.76722 0.0117188 7.63395 0.0117188H0.480923C0.347655 0.0117188 0.231769 0.0580729 0.139061 0.153678C0.0463522 0.246387 -0.00289917 0.362272 -0.00289917 0.495541V3.89678C-0.00289917 4.03005 0.0463522 4.14593 0.139061 4.23864C0.231769 4.33425 0.347655 4.3806 0.480923 4.3806H4.36309V42.3389C4.36309 42.4721 4.40944 42.588 4.50505 42.6807C4.59775 42.7763 4.71074 42.8227 4.84401 42.8227H7.63975C7.77302 42.8227 7.886 42.7763 7.97871 42.6807C8.07432 42.588 8.12067 42.4721 8.12067 42.3389V37.4427H12.4055V42.3389C12.4055 42.4721 12.4519 42.588 12.5446 42.6807C12.6402 42.7763 12.7532 42.8227 12.8865 42.8227H53.5014C53.6347 42.8227 53.7477 42.7763 53.8433 42.6807C53.936 42.588 53.9852 42.4721 53.9852 42.3389V37.4427H57.0823V42.3389C57.0823 42.4721 57.1286 42.588 57.2242 42.6807C57.3169 42.7763 57.4299 42.8227 57.5632 42.8227H65.6868C65.82 42.8227 65.933 42.7763 66.0286 42.6807C66.1213 42.588 66.1706 42.4721 66.1706 42.3389V37.4427H69.4733C69.7022 37.4427 69.9224 37.3993 70.1339 37.3124C70.3454 37.2225 70.5337 37.098 70.693 36.9357C70.8553 36.7735 70.9798 36.5852 71.0697 36.3737C71.1566 36.1622 71.2 35.942 71.2 35.7131V8.30622C71.2 8.07735 71.1566 7.85716 71.0697 7.64567C70.9798 7.43418 70.8553 7.24587 70.693 7.08363C70.5337 6.92139 70.3454 6.79681 70.1339 6.707C69.9224 6.62009 69.7022 6.57663 69.4733 6.57663ZM5.32783 41.8551V3.89678C5.32783 3.76351 5.27858 3.65052 5.18587 3.55492C5.09027 3.46221 4.97728 3.41585 4.84401 3.41585H0.961847V0.976465H7.15013L7.15593 41.8551H5.32783ZM59.371 7.54138L56.5753 10.3429H19.4832L16.6904 7.54138H59.371ZM16.3688 36.478L19.3065 33.5316H56.4015L59.3391 36.478H16.3688ZM13.3674 37.4746H16.4673V41.8551H13.3674V37.4746ZM17.4292 37.4746H20.5262V41.8551H17.4292V37.4746ZM21.491 37.4746H24.588V41.8551H21.491V37.4746ZM25.5527 37.4746H28.6498V41.8551H25.5527V37.4746ZM29.6145 37.4746H32.7116V41.8551H29.6145V37.4746ZM33.6763 37.4746H36.7734V41.8551H33.6763V37.4746ZM37.7381 37.4746H40.8351V41.8551H37.7381V37.4746ZM41.7999 37.4746H44.8969V41.8551H41.7999V37.4746ZM45.8617 37.4746H48.9587V41.8551H45.8617V37.4746ZM53.0205 41.8551H49.9235V37.4746H53.0205V41.8551ZM58.047 37.4746H61.1441V41.8551H58.047V37.4746ZM65.2058 41.8551H62.1088V37.4746H65.2058V41.8551ZM70.2382 35.7131C70.2382 35.8145 70.2179 35.9101 70.1773 36.0057C70.1397 36.0984 70.0846 36.1825 70.0122 36.252C69.9427 36.3244 69.8587 36.3795 69.7659 36.42C69.6732 36.4577 69.5747 36.478 69.4733 36.478H60.5878C60.5675 36.3824 60.5241 36.2984 60.4574 36.2317L56.9403 32.7059C56.8476 32.6132 56.7346 32.5639 56.6014 32.5639H19.1095C18.9762 32.5639 18.8604 32.6132 18.7676 32.7059L15.4273 36.055C15.3114 36.1709 15.265 36.3128 15.294 36.478H8.12067V7.54138H15.3519C15.3722 7.57904 15.3983 7.6138 15.4273 7.64278L18.9444 11.1686C19.0371 11.2613 19.1501 11.3106 19.2833 11.3106H56.7752C56.9085 11.3106 57.0214 11.2613 57.117 11.1686L60.4574 7.8195C60.5328 7.74418 60.5791 7.65147 60.5907 7.54138H69.4733C69.5747 7.54138 69.6732 7.56166 69.7659 7.59932C69.8587 7.63988 69.9427 7.69492 70.0122 7.76735C70.0846 7.83688 70.1397 7.9209 70.1802 8.01361C70.2179 8.10921 70.2382 8.20482 70.2382 8.30622V35.7131Z"
            fill="#5CE1E6" />
    </g>
    <path
        d="M18.1737 18.6518C18.362 16.4645 19.0371 14.9608 20.1959 14.1439C20.3784 14.0164 20.4422 13.8426 20.39 13.6282C20.335 13.4109 20.1988 13.2863 19.9757 13.2573C19.5991 13.2081 19.2196 13.1849 18.8401 13.182C18.2491 13.1849 17.6667 13.2457 17.0873 13.3645C16.8613 13.4051 16.6759 13.5181 16.531 13.7006C15.3722 15.1086 15.3867 17.0323 16.5745 19.4746C17.0323 19.0516 17.5653 18.7764 18.1737 18.6518ZM17.2756 14.3177L17.2785 14.3119H17.2843C17.7739 14.2076 18.2722 14.1554 18.7734 14.1497C18.0057 15.0565 17.5074 16.3167 17.2872 17.9101C17.1916 17.9478 17.0989 17.9884 17.0062 18.0318C16.4325 16.45 16.5253 15.2274 17.2756 14.3177Z"
        fill="#5CE1E6" />
    <path
        d="M15.491 21.8154C15.5142 21.1925 15.6996 20.6218 16.0415 20.1032C14.6306 18.42 14.0483 16.8816 14.2916 15.4823C14.3061 15.4099 14.3003 15.3403 14.2829 15.2679C14.2626 15.1984 14.2308 15.1346 14.1844 15.0796C14.1381 15.0245 14.0801 14.9811 14.0164 14.9521C13.9497 14.9202 13.8802 14.9058 13.8078 14.9058C13.6977 14.9058 13.5992 14.9405 13.5123 15.0101C12.7358 15.604 12.0811 16.3138 11.5451 17.1337C11.4119 17.322 11.3597 17.5335 11.3887 17.7652C11.5625 19.5817 12.93 20.9318 15.491 21.8154ZM12.3505 17.6638C12.6258 17.2438 12.9386 16.8526 13.2892 16.4934C13.3877 17.6812 13.9208 18.9241 14.8913 20.2075C14.8508 20.3002 14.8131 20.3958 14.7783 20.4914C13.2573 19.7758 12.4606 18.8488 12.3476 17.6725V17.6667L12.3505 17.6638Z"
        fill="#5CE1E6" />
    <path
        d="M16.3746 24.2403C15.9546 23.7826 15.6822 23.2495 15.5547 22.6382C13.3732 22.4499 11.8754 21.7749 11.0613 20.6102C10.9657 20.4711 10.8324 20.4016 10.6644 20.4016C10.5398 20.4016 10.4326 20.4422 10.3399 20.5233C10.2443 20.6044 10.1921 20.7058 10.1748 20.8304C10.0473 21.8009 10.0821 22.7657 10.282 23.7246C10.3225 23.9535 10.4355 24.1418 10.618 24.2838C11.3104 24.8574 12.1303 25.1442 13.0748 25.1442C14.0424 25.1442 15.1434 24.8429 16.3746 24.2403ZM11.2293 23.5363L11.2264 23.5305C11.125 23.038 11.0729 22.5397 11.0671 22.0356C11.971 22.8062 13.2255 23.3074 14.816 23.5276C14.8536 23.6232 14.8942 23.7159 14.9377 23.8086C14.251 24.0549 13.6282 24.1795 13.0777 24.1795C12.3563 24.1795 11.7537 23.9709 11.2322 23.5392L11.2293 23.5363Z"
        fill="#5CE1E6" />
    <path
        d="M20.703 19.1384C22.1313 17.9332 23.461 17.3306 24.6836 17.3306C24.8951 17.3306 25.1037 17.348 25.3123 17.3857C25.3413 17.3915 25.3702 17.3944 25.3992 17.3944C25.602 17.3915 25.7469 17.2988 25.8367 17.1162C25.9236 16.9337 25.9062 16.7628 25.7816 16.6035C25.1877 15.8241 24.4837 15.1665 23.6638 14.6305C23.5074 14.5233 23.3365 14.4683 23.1452 14.4683C23.1105 14.4683 23.0728 14.4712 23.0352 14.4741C21.2216 14.6479 19.8744 16.0182 18.9937 18.588C19.6136 18.6112 20.1844 18.7966 20.703 19.1384ZM23.125 15.4359H23.1308L23.1337 15.4388C23.5537 15.714 23.9449 16.0269 24.3012 16.3804C23.1192 16.476 21.8792 17.0148 20.5987 17.9854C20.506 17.9448 20.4104 17.9072 20.3147 17.8724C21.0274 16.3485 21.9516 15.5489 23.125 15.4359Z"
        fill="#5CE1E6" />
    <path
        d="M19.5325 25.263C19.3442 27.4503 18.6691 28.951 17.5103 29.768C17.3278 29.8984 17.264 30.0693 17.3162 30.2866C17.3683 30.5039 17.5074 30.6285 17.7276 30.6545C18.1042 30.7067 18.4837 30.7299 18.8661 30.7299C19.4543 30.7299 20.0395 30.669 20.616 30.5473C20.8449 30.5068 21.0303 30.3967 21.1723 30.2142C22.334 28.8062 22.3195 26.8796 21.1317 24.4402C20.674 24.8632 20.1409 25.1355 19.5325 25.263ZM20.4306 29.5971L20.4277 29.6L20.4219 29.6029C19.9294 29.7043 19.434 29.7593 18.9299 29.7651C19.7005 28.8583 20.1988 27.5981 20.419 26.0046C20.5146 25.967 20.6073 25.9264 20.7 25.883C21.2708 27.4648 21.181 28.6874 20.4306 29.5971Z"
        fill="#5CE1E6" />
    <path
        d="M22.2153 22.0994C22.1892 22.7194 22.0067 23.293 21.6648 23.8116C23.0728 25.4919 23.6581 27.0332 23.4118 28.4325C23.4002 28.5049 23.4031 28.5745 23.4234 28.644C23.4408 28.7164 23.4755 28.7773 23.5219 28.8352C23.5682 28.8903 23.6233 28.9337 23.6899 28.9627C23.7566 28.9945 23.8232 29.009 23.8956 29.009C24.0086 29.009 24.1071 28.9743 24.194 28.9047C24.9705 28.3108 25.6252 27.601 26.1583 26.7811C26.2916 26.5899 26.3437 26.3813 26.3176 26.1496C26.1438 24.3331 24.7764 22.9801 22.2153 22.0994ZM25.3558 26.251C25.0805 26.671 24.7677 27.0622 24.4142 27.4214C24.3186 26.2336 23.7826 24.9907 22.815 23.7073C22.8555 23.6146 22.8932 23.519 22.928 23.4234C24.449 24.1361 25.2457 25.066 25.3587 26.2423V26.2452L25.3558 26.251Z"
        fill="#5CE1E6" />
    <path
        d="M27.0882 19.631C26.3929 19.0573 25.5759 18.7705 24.6285 18.7705C23.6609 18.7705 22.56 19.0718 21.3287 19.6744C21.7517 20.1322 22.024 20.6652 22.1486 21.2765C24.333 21.4648 25.8309 22.1399 26.6449 23.3045C26.7406 23.4436 26.8709 23.5131 27.0419 23.5131C27.1635 23.5131 27.2736 23.4726 27.3663 23.3914C27.459 23.3103 27.5141 23.2089 27.5286 23.0843C27.6589 22.1138 27.6213 21.1491 27.4214 20.1901C27.3808 19.9612 27.2707 19.7729 27.0882 19.631ZM22.8903 20.3871C22.8526 20.2915 22.812 20.1988 22.7686 20.1061C23.4523 19.8598 24.0752 19.7353 24.6285 19.7353C25.3499 19.7353 25.9525 19.9438 26.474 20.3755L26.4769 20.3784V20.3842C26.5812 20.8767 26.6334 21.375 26.6392 21.8762C25.7352 21.1056 24.4808 20.6073 22.8903 20.3871Z"
        fill="#5CE1E6" />
    <path
        d="M17.0033 24.7762C15.5721 25.9815 14.2453 26.5841 13.0198 26.5841C12.8112 26.5841 12.5997 26.5638 12.394 26.529C12.365 26.5232 12.3331 26.5203 12.3042 26.5203C12.1043 26.5232 11.9594 26.6159 11.8696 26.7984C11.7827 26.9781 11.8001 27.149 11.9217 27.3112C12.5157 28.0877 13.2226 28.7453 14.0396 29.2813C14.196 29.3914 14.3698 29.4464 14.561 29.4464C14.5958 29.4464 14.6335 29.4435 14.6711 29.4406C16.4847 29.2668 17.8319 27.8965 18.7126 25.3267C18.0926 25.3035 17.5219 25.1181 17.0033 24.7762ZM14.5784 28.4788H14.5755L14.5697 28.4759C14.1496 28.2007 13.7614 27.8849 13.4022 27.5343C14.5842 27.4358 15.8271 26.8998 17.1076 25.9293C17.2003 25.9699 17.293 26.0075 17.3886 26.0423C16.6788 27.5662 15.7518 28.3658 14.5784 28.4788Z"
        fill="#5CE1E6" />
    <path
        d="M16.0936 21.9574C16.0936 22.3254 16.1632 22.6759 16.3022 23.0149C16.4442 23.3539 16.6412 23.6552 16.9019 23.913C17.1598 24.1737 17.4582 24.3737 17.7971 24.5127C18.1332 24.6547 18.4867 24.7242 18.8517 24.7242C19.2196 24.7242 19.5702 24.6547 19.9092 24.5127C20.2481 24.3737 20.5465 24.1737 20.8044 23.913C21.0622 23.6552 21.2621 23.3539 21.4012 23.0149C21.5431 22.6759 21.6127 22.3254 21.6127 21.9574C21.6127 21.5895 21.5431 21.2361 21.4012 20.8971C21.2621 20.5581 21.0622 20.2597 20.8044 20.0019C20.5465 19.7411 20.2481 19.5412 19.9092 19.4022C19.5702 19.2602 19.2196 19.1907 18.8517 19.1907C18.4867 19.1907 18.1361 19.2602 17.7971 19.4022C17.4582 19.5412 17.1598 19.7411 16.9019 20.0019C16.6441 20.2597 16.4442 20.561 16.3022 20.9C16.1632 21.2389 16.0936 21.5895 16.0936 21.9574ZM20.6479 21.9574C20.6479 22.195 20.6045 22.4268 20.5118 22.647C20.4219 22.8671 20.2916 23.0612 20.1235 23.2293C19.9555 23.4002 19.7614 23.5306 19.5412 23.6204C19.321 23.7131 19.0922 23.7595 18.8517 23.7595C18.6141 23.7595 18.3853 23.7131 18.1651 23.6204C17.9449 23.5306 17.7508 23.4002 17.5828 23.2293C17.4147 23.0612 17.2844 22.8671 17.1945 22.647C17.1018 22.4268 17.0555 22.195 17.0555 21.9574C17.0555 21.717 17.1018 21.4881 17.1945 21.2679C17.2844 21.0477 17.4147 20.8536 17.5828 20.6827C17.7508 20.5147 17.9449 20.3843 18.1651 20.2945C18.3853 20.2018 18.6141 20.1554 18.8517 20.1554C19.0922 20.1554 19.321 20.2018 19.5383 20.2945C19.7585 20.3843 19.9526 20.5147 20.1206 20.6856C20.2916 20.8536 20.4191 21.0477 20.5118 21.2679C20.6016 21.4881 20.6479 21.7199 20.6479 21.9574Z"
        fill="#5CE1E6" />
    <path
        d="M38.3002 18.6518C38.4885 16.4645 39.1635 14.9608 40.3224 14.1439C40.5049 14.0164 40.5686 13.8426 40.5165 13.6282C40.4615 13.4109 40.3253 13.2863 40.1022 13.2573C39.7256 13.2081 39.3461 13.1849 38.9665 13.182C38.3755 13.1849 37.7932 13.2457 37.2138 13.3645C36.9878 13.4051 36.8024 13.5181 36.6575 13.7006C35.4987 15.1086 35.5131 17.0323 36.701 19.4746C37.1587 19.0516 37.6918 18.7764 38.3002 18.6518ZM37.4021 14.3177L37.405 14.3119H37.4079C37.9004 14.2076 38.3987 14.1554 38.8999 14.1497C38.1322 15.0565 37.6338 16.3167 37.4137 17.9101C37.3181 17.9478 37.2225 17.9884 37.1326 18.0318C36.559 16.45 36.6517 15.2274 37.4021 14.3177Z"
        fill="#5CE1E6" />
    <path
        d="M35.6174 21.8154C35.6406 21.1925 35.826 20.6218 36.1679 20.1032C34.757 18.42 34.1746 16.8816 34.418 15.4823C34.4325 15.4099 34.4267 15.3403 34.4093 15.2679C34.389 15.1984 34.3571 15.1346 34.3108 15.0796C34.2644 15.0245 34.2065 14.9811 34.1428 14.9521C34.0761 14.9202 34.0066 14.9058 33.9342 14.9058C33.8241 14.9058 33.7256 14.9405 33.6387 15.0101C32.8622 15.604 32.2075 16.3109 31.6715 17.1337C31.5382 17.322 31.4861 17.5335 31.5151 17.7652C31.6889 19.5817 33.0534 20.9318 35.6174 21.8154ZM32.4769 17.6638C32.7521 17.2438 33.065 16.8526 33.4156 16.4934C33.5141 17.6812 34.0472 18.9241 35.0177 20.2075C34.9771 20.3002 34.9395 20.3958 34.9047 20.4914C33.3837 19.7758 32.587 18.8488 32.474 17.6725V17.6667L32.4769 17.6638Z"
        fill="#5CE1E6" />
    <path
        d="M36.501 24.2403C36.0809 23.7826 35.8086 23.2495 35.6811 22.6382C33.4996 22.4499 32.0018 21.7749 31.1877 20.6102C31.0921 20.4711 30.9588 20.4016 30.7908 20.4016C30.6662 20.4016 30.559 20.4422 30.4663 20.5233C30.3707 20.6044 30.3185 20.7058 30.3011 20.8304C30.1737 21.8009 30.2084 22.7657 30.4083 23.7246C30.4489 23.9535 30.5619 24.1418 30.7444 24.2838C31.4368 24.8574 32.2567 25.1442 33.2012 25.1442C34.1688 25.1442 35.2697 24.8429 36.501 24.2403ZM31.3557 23.5363L31.3528 23.5305C31.2514 23.038 31.1964 22.5397 31.1935 22.0356C32.0974 22.8062 33.3518 23.3074 34.9424 23.5276C34.98 23.6232 35.0206 23.7159 35.0611 23.8086C34.3774 24.0549 33.7545 24.1795 33.2012 24.1795C32.4827 24.1795 31.8772 23.9709 31.3586 23.5392L31.3557 23.5363Z"
        fill="#5CE1E6" />
    <path
        d="M40.8293 19.1384C42.2576 17.9332 43.5845 17.3306 44.81 17.3306C45.0215 17.3306 45.2301 17.348 45.4387 17.3857C45.4677 17.3915 45.4966 17.3944 45.5256 17.3944C45.7284 17.3915 45.8733 17.2988 45.9631 17.1162C46.05 16.9337 46.0326 16.7628 45.908 16.6035C45.3141 15.8241 44.6101 15.1665 43.7902 14.6305C43.6338 14.5233 43.4628 14.4683 43.2716 14.4683C43.2369 14.4683 43.1992 14.4712 43.1615 14.4741C41.3479 14.6479 40.0008 16.0182 39.12 18.588C39.74 18.6112 40.3107 18.7966 40.8293 19.1384ZM43.2513 15.4359H43.2571L43.26 15.4388C43.6801 15.714 44.0712 16.0269 44.4276 16.3804C43.2455 16.476 42.0056 17.0148 40.725 17.9854C40.6323 17.9448 40.5367 17.9072 40.4411 17.8724C41.1538 16.3485 42.078 15.5489 43.2513 15.4359Z"
        fill="#5CE1E6" />
    <path
        d="M39.659 25.263C39.4706 27.4503 38.7956 28.951 37.6368 29.768C37.4542 29.8984 37.3905 30.0693 37.4426 30.2866C37.4948 30.5039 37.6339 30.6285 37.854 30.6545C38.2307 30.7067 38.6102 30.7299 38.9926 30.7299C39.5807 30.7299 40.166 30.669 40.7425 30.5473C40.9714 30.5068 41.1568 30.3967 41.2987 30.2142C42.4605 28.8062 42.446 26.8796 41.2582 24.4402C40.8004 24.8632 40.2674 25.1355 39.659 25.263ZM40.5571 29.5971L40.5542 29.6L40.5484 29.6029C40.0559 29.7043 39.5605 29.7593 39.0564 29.7651C39.827 28.8583 40.3253 27.5981 40.5455 26.0046C40.6411 25.967 40.7338 25.9264 40.8265 25.883C41.3972 27.4648 41.3074 28.6874 40.5571 29.5971Z"
        fill="#5CE1E6" />
    <path
        d="M42.3417 22.0994C42.3156 22.7194 42.1331 23.293 41.7912 23.8116C43.1992 25.4919 43.7844 27.0332 43.5382 28.4325C43.5266 28.5049 43.5295 28.5745 43.5498 28.644C43.5671 28.7164 43.599 28.7773 43.6483 28.8352C43.6946 28.8903 43.7497 28.9337 43.8163 28.9627C43.88 28.9945 43.9496 29.009 44.022 29.009C44.1321 29.009 44.2335 28.9743 44.3204 28.9047C45.0939 28.3108 45.7516 27.601 46.2847 26.7811C46.4179 26.5899 46.4701 26.3813 46.4411 26.1496C46.2702 24.3331 44.9027 22.9801 42.3417 22.0994ZM45.4822 26.251C45.2069 26.671 44.8911 27.0622 44.5406 27.4214C44.445 26.2336 43.909 24.9907 42.9414 23.7073C42.9819 23.6146 43.0196 23.519 43.0544 23.4234C44.5753 24.1361 45.3721 25.066 45.4822 26.2423L45.485 26.2452L45.4822 26.251Z"
        fill="#5CE1E6" />
    <path
        d="M47.2147 19.631C46.5194 19.0573 45.7024 18.7705 44.755 18.7705C43.7874 18.7705 42.6865 19.0718 41.4552 19.6744C41.8782 20.1322 42.1505 20.6652 42.2751 21.2765C44.4566 21.4648 45.9573 22.1399 46.7714 23.3045C46.867 23.4436 46.9974 23.5131 47.1683 23.5131C47.29 23.5131 47.4001 23.4726 47.4928 23.3914C47.5855 23.3103 47.6406 23.2089 47.655 23.0843C47.7854 22.1138 47.7478 21.1491 47.5478 20.1901C47.5073 19.9612 47.3972 19.7729 47.2147 19.631ZM43.0167 20.3871C42.9791 20.2915 42.9385 20.1988 42.895 20.1061C43.5788 19.8598 44.2017 19.7353 44.755 19.7353C45.4764 19.7353 46.079 19.9438 46.6005 20.3755L46.6034 20.3784V20.3842C46.7077 20.8767 46.7598 21.375 46.7656 21.8762C45.8617 21.1056 44.6044 20.6073 43.0167 20.3871Z"
        fill="#5CE1E6" />
    <path
        d="M37.1297 24.7762C35.6985 25.9815 34.3717 26.5841 33.1462 26.5841C32.9376 26.5841 32.729 26.5638 32.5204 26.529C32.4914 26.5232 32.4624 26.5203 32.4306 26.5203C32.2307 26.5232 32.0858 26.6159 31.996 26.7984C31.9091 26.9781 31.9265 27.149 32.0482 27.3112C32.6421 28.0877 33.349 28.7453 34.166 29.2813C34.3224 29.3914 34.4962 29.4464 34.6874 29.4464C34.7222 29.4464 34.7599 29.4435 34.7975 29.4406C36.6111 29.2668 37.9583 27.8965 38.839 25.3267C38.2191 25.3035 37.6483 25.1181 37.1297 24.7762ZM34.7048 28.4788H34.7019L34.6961 28.4759C34.276 28.2007 33.8878 27.8849 33.5286 27.5343C34.7106 27.4358 35.9535 26.8998 37.234 25.9293C37.3267 25.9699 37.4194 26.0075 37.515 26.0423C36.8052 27.5662 35.8782 28.3658 34.7048 28.4788Z"
        fill="#5CE1E6" />
    <path
        d="M36.22 21.9574C36.22 22.3254 36.2896 22.6759 36.4286 23.0149C36.5677 23.3539 36.7676 23.6552 37.0283 23.913C37.2862 24.1737 37.5846 24.3737 37.9235 24.5127C38.2596 24.6547 38.6131 24.7242 38.9781 24.7242C39.346 24.7242 39.6966 24.6547 40.0356 24.5127C40.3745 24.3737 40.6729 24.1737 40.9308 23.913C41.1886 23.6552 41.3885 23.3539 41.5276 23.0149C41.6695 22.6759 41.7391 22.3254 41.7391 21.9574C41.7391 21.5895 41.6695 21.2361 41.5276 20.8971C41.3885 20.5581 41.1886 20.2597 40.9308 20.0019C40.6729 19.7411 40.3745 19.5412 40.0356 19.4022C39.6966 19.2602 39.346 19.1907 38.9781 19.1907C38.6131 19.1907 38.2625 19.2602 37.9235 19.4022C37.5846 19.5412 37.2862 19.7411 37.0283 20.0019C36.7705 20.2597 36.5706 20.561 36.4286 20.9C36.2896 21.2389 36.22 21.5895 36.22 21.9574ZM40.7743 21.9574C40.7743 22.195 40.7309 22.4268 40.6382 22.647C40.5484 22.8671 40.418 23.0612 40.2499 23.2293C40.0819 23.4002 39.8849 23.5306 39.6676 23.6204C39.4474 23.7131 39.2157 23.7595 38.9781 23.7595C38.7405 23.7595 38.5117 23.7131 38.2915 23.6204C38.0713 23.5306 37.8772 23.4002 37.7092 23.2293C37.5411 23.0612 37.4108 22.8671 37.318 22.647C37.2282 22.4268 37.1819 22.195 37.1819 21.9574C37.1819 21.717 37.2282 21.4881 37.318 21.2679C37.4108 21.0477 37.5411 20.8536 37.7092 20.6827C37.8772 20.5147 38.0713 20.3843 38.2915 20.2945C38.5117 20.2018 38.7405 20.1554 38.9781 20.1554C39.2157 20.1554 39.4474 20.2018 39.6647 20.2945C39.8849 20.3843 40.079 20.5147 40.2471 20.6856C40.418 20.8536 40.5455 21.0477 40.6382 21.2679C40.728 21.4881 40.7743 21.7199 40.7743 21.9574Z"
        fill="#5CE1E6" />
    <path
        d="M58.4266 18.6518C58.6149 16.4645 59.2899 14.9608 60.4488 14.1439C60.6313 14.0164 60.695 13.8426 60.64 13.6282C60.5878 13.4109 60.4517 13.2863 60.2286 13.2573C59.852 13.2081 59.4724 13.1849 59.0929 13.182C58.5019 13.1849 57.9196 13.2457 57.3401 13.3645C57.1142 13.4051 56.9287 13.5181 56.7839 13.7006C55.625 15.1086 55.6395 17.0323 56.8273 19.4746C57.2851 19.0516 57.8182 18.7764 58.4266 18.6518ZM57.5285 14.3177L57.5313 14.3119H57.5342C58.0268 14.2076 58.5251 14.1554 59.0263 14.1497C58.2585 15.0565 57.7602 16.3167 57.54 17.9101C57.4444 17.9478 57.3488 17.9884 57.259 18.0318C56.6854 16.45 56.7781 15.2274 57.5285 14.3177Z"
        fill="#5CE1E6" />
    <path
        d="M55.7438 21.8154C55.767 21.1925 55.9524 20.6218 56.2943 20.1032C54.8834 18.42 54.301 16.8816 54.5444 15.4823C54.556 15.4099 54.5531 15.3403 54.5357 15.2679C54.5154 15.1984 54.4835 15.1346 54.4372 15.0796C54.3908 15.0245 54.3329 14.9811 54.2692 14.9521C54.2025 14.9202 54.133 14.9058 54.0606 14.9058C53.9505 14.9058 53.852 14.9405 53.7651 15.0101C52.9886 15.604 52.3339 16.3109 51.7979 17.1337C51.6646 17.322 51.6125 17.5335 51.6415 17.7652C51.8124 19.5817 53.1798 20.9318 55.7438 21.8154ZM52.6033 17.6638C52.8785 17.2438 53.1914 16.8526 53.542 16.4934C53.6376 17.6812 54.1736 18.9241 55.1441 20.2075C55.1006 20.3002 55.063 20.3958 55.0311 20.4914C53.5101 19.7758 52.7105 18.8488 52.6004 17.6725V17.6667L52.6033 17.6638Z"
        fill="#5CE1E6" />
    <path
        d="M56.6275 24.2403C56.2074 23.7826 55.9351 23.2495 55.8076 22.6382C53.626 22.4499 52.1282 21.7749 51.3141 20.6102C51.2185 20.4711 51.0853 20.4016 50.9172 20.4016C50.7926 20.4016 50.6854 20.4422 50.5898 20.5233C50.4971 20.6044 50.445 20.7058 50.4276 20.8304C50.3001 21.8009 50.3349 22.7657 50.5348 23.7246C50.5754 23.9535 50.6883 24.1418 50.8709 24.2838C51.5633 24.8574 52.3832 25.1442 53.3276 25.1442C54.2953 25.1442 55.3962 24.8429 56.6275 24.2403ZM51.4793 23.5363V23.5305C51.3779 23.038 51.3228 22.5397 51.317 22.0356C52.2238 22.8062 53.4783 23.3074 55.0688 23.5276C55.1065 23.6232 55.1441 23.7159 55.1876 23.8086C54.5039 24.0549 53.881 24.1795 53.3276 24.1795C52.6063 24.1795 52.0036 23.9709 51.4851 23.5392L51.4793 23.5363Z"
        fill="#5CE1E6" />
    <path
        d="M60.9558 19.1384C62.3841 17.9332 63.711 17.3306 64.9365 17.3306C65.148 17.3306 65.3566 17.348 65.5651 17.3857C65.5941 17.3915 65.6231 17.3944 65.6521 17.3944C65.8549 17.3915 65.9997 17.2988 66.0866 17.1162C66.1764 16.9337 66.1591 16.7628 66.0345 16.6035C65.4406 15.8241 64.7366 15.1694 63.9167 14.6305C63.7602 14.5233 63.5893 14.4683 63.3981 14.4683C63.3633 14.4683 63.3257 14.4712 63.288 14.4741C61.4744 14.6479 60.1272 16.0182 59.2465 18.588C59.8665 18.6112 60.4372 18.7966 60.9558 19.1384ZM63.3778 15.4359H63.3836L63.3865 15.4388C63.8066 15.714 64.1948 16.0269 64.554 16.3804C63.372 16.476 62.1291 17.0148 60.8515 17.9854C60.7588 17.9448 60.6632 17.9072 60.5676 17.8724C61.2803 16.3485 62.2045 15.5489 63.3778 15.4359Z"
        fill="#5CE1E6" />
    <path
        d="M59.7853 25.263C59.597 27.4503 58.922 28.951 57.7631 29.768C57.5806 29.8984 57.5169 30.0693 57.569 30.2866C57.6212 30.5039 57.7602 30.6285 57.9804 30.6545C58.357 30.7067 58.7366 30.7299 59.1161 30.7299C59.7071 30.7299 60.2923 30.669 60.8689 30.5473C61.0977 30.5068 61.2831 30.3967 61.4251 30.2142C62.5869 28.8062 62.5724 26.8796 61.3845 24.4402C60.9268 24.8632 60.3937 25.1355 59.7853 25.263ZM60.6834 29.5971L60.6805 29.6L60.6747 29.6029C60.1822 29.7043 59.6868 29.7593 59.1827 29.7651C59.9534 28.8583 60.4517 27.5981 60.6719 26.0046C60.7675 25.967 60.8602 25.9264 60.9529 25.883C61.5236 27.4648 61.4338 28.6874 60.6834 29.5971Z"
        fill="#5CE1E6" />
    <path
        d="M62.4681 22.0994C62.442 22.7194 62.2595 23.293 61.9176 23.8116C63.3256 25.4919 63.9079 27.0332 63.6646 28.4325C63.653 28.5049 63.6559 28.5745 63.6762 28.644C63.6935 28.7164 63.7254 28.7773 63.7747 28.8352C63.821 28.8903 63.8761 28.9337 63.9427 28.9627C64.0064 28.9945 64.076 29.009 64.1484 29.009C64.2585 29.009 64.3599 28.9743 64.4439 28.9047C65.2203 28.3108 65.878 27.601 66.4111 26.7811C66.5443 26.5899 66.5965 26.3813 66.5704 26.1496C66.3966 24.3331 65.0291 22.9801 62.4681 22.0994ZM65.6086 26.251C65.3333 26.671 65.0204 27.0622 64.667 27.4214C64.5714 26.2336 64.0354 24.9907 63.0678 23.7073C63.1083 23.6146 63.146 23.519 63.1808 23.4234C64.7018 24.1361 65.4985 25.066 65.6115 26.2423V26.2452L65.6086 26.251Z"
        fill="#5CE1E6" />
    <path
        d="M67.3411 19.631C66.6457 19.0573 65.8258 18.7705 64.8814 18.7705C63.9137 18.7705 62.8128 19.0718 61.5815 19.6744C62.0045 20.1322 62.2769 20.6652 62.4014 21.2765C64.583 21.4648 66.0837 22.1399 66.8978 23.3045C66.9934 23.4436 67.1238 23.5131 67.2947 23.5131C67.4164 23.5131 67.5265 23.4726 67.6192 23.3914C67.7119 23.3103 67.7669 23.2089 67.7814 23.0843C67.9118 22.1138 67.8741 21.1491 67.6742 20.1901C67.6337 19.9612 67.5236 19.7729 67.3411 19.631ZM63.1431 20.3871C63.1054 20.2915 63.0649 20.1988 63.0214 20.1061C63.7051 19.8598 64.328 19.7353 64.8814 19.7353C65.6028 19.7353 66.2054 19.9438 66.7269 20.3755L66.7298 20.3784V20.3842C66.8312 20.8767 66.8862 21.375 66.892 21.8762C65.9881 21.1056 64.7307 20.6073 63.1431 20.3871Z"
        fill="#5CE1E6" />
    <path
        d="M57.2561 24.7762C55.8249 25.9815 54.498 26.5841 53.2725 26.5841C53.061 26.5841 52.8525 26.5638 52.6468 26.529C52.6178 26.5232 52.5859 26.5203 52.5569 26.5203C52.3541 26.5232 52.2093 26.6159 52.1224 26.7984C52.0355 26.9781 52.0528 27.149 52.1745 27.3112C52.7684 28.0877 53.4753 28.7453 54.2923 29.2813C54.4488 29.3914 54.6226 29.4464 54.8109 29.4464C54.8486 29.4464 54.8862 29.4435 54.9239 29.4406C56.7375 29.2668 58.0847 27.8965 58.9654 25.3267C58.3425 25.3035 57.7747 25.1181 57.2561 24.7762ZM54.8312 28.4788H54.8283L54.8225 28.4759C54.4024 28.2007 54.0142 27.8849 53.655 27.5343C54.837 27.4358 56.0799 26.8998 57.3575 25.9293C57.4531 25.9699 57.5458 26.0075 57.6414 26.0423C56.9316 27.5662 56.0045 28.3658 54.8312 28.4788Z"
        fill="#5CE1E6" />
    <path
        d="M56.3464 21.9574C56.3464 22.3254 56.4159 22.6759 56.555 23.0149C56.6941 23.3539 56.894 23.6552 57.1547 23.913C57.4126 24.1737 57.711 24.3737 58.0499 24.5127C58.386 24.6547 58.7394 24.7242 59.1045 24.7242C59.4724 24.7242 59.823 24.6547 60.1619 24.5127C60.498 24.3737 60.7964 24.1737 61.0571 23.913C61.315 23.6552 61.5149 23.3539 61.654 23.0149C61.7959 22.6759 61.8654 22.3254 61.8654 21.9574C61.8654 21.5895 61.7959 21.2361 61.654 20.8971C61.5149 20.5581 61.315 20.2597 61.0571 20.0019C60.7993 19.7411 60.5009 19.5412 60.1619 19.4022C59.823 19.2602 59.4724 19.1907 59.1045 19.1907C58.7394 19.1907 58.386 19.2602 58.0499 19.4022C57.711 19.5412 57.4126 19.7411 57.1547 20.0019C56.8969 20.2597 56.697 20.561 56.555 20.9C56.4159 21.2389 56.3464 21.5895 56.3464 21.9574ZM60.9007 21.9574C60.9007 22.195 60.8543 22.4268 60.7645 22.647C60.6747 22.8671 60.5444 23.0612 60.3763 23.2293C60.2054 23.4002 60.0113 23.5306 59.7911 23.6204C59.5738 23.7131 59.342 23.7595 59.1045 23.7595C58.8669 23.7595 58.638 23.7131 58.4179 23.6204C58.1977 23.5306 58.0036 23.4002 57.8355 23.2293C57.6675 23.0612 57.5371 22.8671 57.4444 22.647C57.3546 22.4268 57.3083 22.195 57.3083 21.9574C57.3083 21.717 57.3546 21.4881 57.4444 21.2679C57.5371 21.0477 57.6675 20.8536 57.8355 20.6827C58.0036 20.5147 58.1977 20.3843 58.4179 20.2945C58.638 20.2018 58.8669 20.1554 59.1045 20.1554C59.342 20.1554 59.5709 20.2018 59.7911 20.2945C60.0113 20.3843 60.2054 20.5147 60.3734 20.6856C60.5444 20.8536 60.6718 21.0477 60.7645 21.2679C60.8543 21.4881 60.9007 21.7199 60.9007 21.9574Z"
        fill="#5CE1E6" />
    <path
        d="M8.453 58.0965C7.76348 58.0965 7.14639 57.9777 6.59883 57.7373C6.04837 57.4997 5.6167 57.1579 5.30091 56.7175C4.99092 56.2713 4.83737 55.7527 4.83737 55.1646H6.6336C6.67126 55.605 6.84509 55.97 7.15508 56.2539C7.46218 56.5408 7.89675 56.6827 8.453 56.6827C9.03243 56.6827 9.48438 56.5437 9.80886 56.2655C10.1333 55.9816 10.2956 55.6166 10.2956 55.1762C10.2956 54.8372 10.1942 54.5591 9.99427 54.3418C9.79148 54.1275 9.54232 53.9594 9.24102 53.8435C8.94551 53.7219 8.53412 53.5944 8.00104 53.4611C7.3347 53.2844 6.79584 53.1077 6.37865 52.928C5.96146 52.7426 5.60222 52.4587 5.30091 52.0705C5.00541 51.6852 4.86055 51.1753 4.86055 50.5408C4.86055 49.9556 5.00541 49.4399 5.30091 48.9995C5.60222 48.5534 6.01361 48.2115 6.54089 47.9797C7.07396 47.7422 7.68815 47.6205 8.38347 47.6205C9.37139 47.6205 10.1826 47.8725 10.8171 48.3737C11.4486 48.8691 11.8021 49.5442 11.8716 50.4017H10.0175C9.98558 50.0309 9.80886 49.7151 9.48438 49.4515C9.1599 49.1907 8.73402 49.0575 8.20964 49.0575C7.72292 49.0575 7.32891 49.182 7.02761 49.4283C6.7263 49.6688 6.57565 50.0193 6.57565 50.4829C6.57565 50.7928 6.66836 51.0507 6.85378 51.2593C7.04499 51.4621 7.28835 51.6185 7.58386 51.7344C7.88516 51.8503 8.29076 51.9778 8.80065 52.1168C9.47279 52.3023 10.0203 52.4877 10.4462 52.6731C10.8779 52.8585 11.24 53.1482 11.5356 53.5422C11.8369 53.9304 11.9875 54.4461 11.9875 55.0951C11.9875 55.6137 11.8484 56.1033 11.5703 56.5668C11.2922 57.0246 10.8808 57.3954 10.3419 57.6793C9.80886 57.9575 9.17728 58.0965 8.453 58.0965Z"
        fill="white" />
    <path d="M15.6551 47.7595V57.9922H13.9748V47.7595H15.6551Z" fill="white" />
    <path d="M19.5425 56.6363H23.0074V57.9922H17.8621V47.7595H19.5425V56.6363Z" fill="white" />
    <path d="M26.0805 56.6363H29.5454V57.9922H24.4001V47.7595H26.0805V56.6363Z" fill="white" />
    <path d="M32.6184 47.7595V57.9922H30.938V47.7595H32.6184Z" fill="white" />
    <path
        d="M34.2692 52.8469C34.2692 51.8503 34.501 50.9551 34.9645 50.1584C35.4338 49.3646 36.0683 48.7417 36.865 48.2926C37.6675 47.8465 38.5454 47.6205 39.4956 47.6205C40.585 47.6205 41.5526 47.8928 42.4044 48.4317C43.2532 48.9648 43.8703 49.7238 44.2585 50.703H42.2421C41.9698 50.1642 41.599 49.7615 41.1296 49.4978C40.6574 49.2284 40.1127 49.0922 39.4956 49.0922C38.8235 49.0922 38.2209 49.2487 37.6878 49.5558C37.1547 49.8571 36.7376 50.2945 36.4363 50.8653C36.1407 51.4389 35.9959 52.0995 35.9959 52.8469C35.9959 53.606 36.1407 54.2694 36.4363 54.8401C36.7376 55.4138 37.1547 55.8541 37.6878 56.1612C38.2209 56.4712 38.8235 56.6248 39.4956 56.6248C40.1127 56.6248 40.6574 56.4944 41.1296 56.2308C41.599 55.9613 41.9698 55.5557 42.2421 55.014H44.2585C43.8703 55.9961 43.2532 56.7523 42.4044 57.2853C41.5526 57.8184 40.585 58.0849 39.4956 58.0849C38.5367 58.0849 37.6588 57.8619 36.865 57.4128C36.0683 56.9666 35.4338 56.3438 34.9645 55.547C34.501 54.7532 34.2692 53.8522 34.2692 52.8469Z"
        fill="white" />
    <path
        d="M50.8781 58.0965C49.9279 58.0965 49.05 57.8734 48.2475 57.4244C47.4508 56.9782 46.8164 56.3553 46.347 55.5586C45.8835 54.7561 45.6517 53.8522 45.6517 52.8469C45.6517 51.8503 45.8835 50.9551 46.347 50.1584C46.8164 49.3646 47.4508 48.7417 48.2475 48.2926C49.05 47.8465 49.9279 47.6205 50.8781 47.6205C51.8429 47.6205 52.7236 47.8465 53.5203 48.2926C54.3228 48.7417 54.9515 49.3646 55.4093 50.1584C55.8728 50.9551 56.1046 51.8503 56.1046 52.8469C56.1046 53.8522 55.8728 54.7561 55.4093 55.5586C54.9515 56.3553 54.3228 56.9782 53.5203 57.4244C52.7236 57.8734 51.8429 58.0965 50.8781 58.0965ZM50.8781 56.6364C51.5561 56.6364 52.1587 56.4828 52.6859 56.1728C53.219 55.8657 53.6362 55.4254 53.9375 54.8517C54.2388 54.2723 54.3895 53.606 54.3895 52.8469C54.3895 52.0995 54.2388 51.4389 53.9375 50.8653C53.6362 50.2945 53.219 49.8571 52.6859 49.5558C52.1587 49.2487 51.5561 49.0922 50.8781 49.0922C50.206 49.0922 49.6034 49.2487 49.0703 49.5558C48.5373 49.8571 48.1201 50.2945 47.8188 50.8653C47.5233 51.4389 47.3784 52.0995 47.3784 52.8469C47.3784 53.606 47.5233 54.2723 47.8188 54.8517C48.1201 55.4254 48.5373 55.8657 49.0703 56.1728C49.6034 56.4828 50.206 56.6364 50.8781 56.6364Z"
        fill="white" />
    <path
        d="M66.1657 57.9923H64.4854L59.4328 50.3439V57.9923H57.7524V47.7365H59.4328L64.4854 55.3733V47.7365H66.1657V57.9923Z"
        fill="white" />
    <path
        d="M74.1888 12.0817C74.1802 12.0817 74.1773 12.0817 74.1773 12.0817C74.1454 12.157 74.0903 12.2208 74.015 12.2671C73.9455 12.3135 73.8586 12.3367 73.7601 12.3367C73.6268 12.3367 73.5196 12.2961 73.4356 12.2208C73.3574 12.1426 73.3197 12.0383 73.3197 11.9079V11.4791C73.3197 11.4617 73.3255 11.4559 73.3429 11.4559H74.9537C74.9769 11.4559 74.9885 11.4617 74.9885 11.4791V11.8963C74.9885 12.0267 74.9479 12.131 74.8726 12.2092C74.7943 12.2845 74.69 12.3251 74.5597 12.3251C74.467 12.3251 74.3887 12.3019 74.3279 12.2555C74.2642 12.215 74.2178 12.157 74.1888 12.0817ZM74.9189 11.5371C74.9189 11.5284 74.9131 11.5255 74.9073 11.5255H74.2236C74.2149 11.5255 74.212 11.5284 74.212 11.5371V11.8963C74.212 12.0035 74.241 12.0875 74.3047 12.1512C74.3656 12.2208 74.4496 12.2555 74.5597 12.2555C74.6669 12.2555 74.7509 12.2208 74.8146 12.1512C74.8842 12.0875 74.9189 12.0035 74.9189 11.8963V11.5371ZM73.3892 11.8963C73.3892 12.0122 73.424 12.0991 73.4935 12.1628C73.5631 12.2237 73.6558 12.2555 73.7717 12.2555C73.8875 12.2555 73.9802 12.2237 74.0498 12.1628C74.1193 12.0991 74.1541 12.0122 74.1541 11.8963V11.5371C74.1541 11.5284 74.1483 11.5255 74.1425 11.5255H73.4008C73.3921 11.5255 73.3892 11.5284 73.3892 11.5371V11.8963Z"
        fill="white" />
    <path
        d="M73.3197 13.6457C73.3197 13.6283 73.3255 13.6225 73.3429 13.6225H74.1077C74.1135 13.6225 74.1193 13.6167 74.1193 13.6109L74.9537 13.2053C74.9537 13.2053 74.9566 13.2053 74.9653 13.2053C74.9798 13.2053 74.9885 13.2111 74.9885 13.2285V13.2517C74.9885 13.2662 74.9798 13.2749 74.9653 13.2749L74.2004 13.6457C74.1917 13.6457 74.1888 13.6457 74.1888 13.6457C74.1888 13.6515 74.1917 13.6573 74.2004 13.6573L74.9653 14.0281C74.9798 14.0339 74.9885 14.0455 74.9885 14.0629V14.0861C74.9885 14.0918 74.9827 14.0976 74.9769 14.0976C74.9682 14.1034 74.9595 14.1034 74.9537 14.0976L74.1193 13.692C74.1193 13.692 74.1135 13.692 74.1077 13.692H73.3429C73.3255 13.692 73.3197 13.6833 73.3197 13.6689V13.6457Z"
        fill="white" />
    <path
        d="M73.3197 16.9311C73.3197 16.9137 73.3255 16.9021 73.3429 16.8963L73.6789 16.8036C73.6789 16.8036 73.6789 16.7978 73.6789 16.792V16.1547C73.6789 16.146 73.6789 16.1431 73.6789 16.1431L73.3429 16.0504C73.3255 16.0504 73.3197 16.0417 73.3197 16.0272V16.004C73.3197 15.9953 73.3197 15.9866 73.3197 15.9808C73.3255 15.9808 73.3342 15.9837 73.3429 15.9924L74.9653 16.4328C74.9798 16.4328 74.9885 16.4386 74.9885 16.456V16.4907C74.9885 16.5052 74.9798 16.5139 74.9653 16.5139L73.3429 16.9774C73.3255 16.9774 73.3197 16.9688 73.3197 16.9543V16.9311ZM73.7601 16.1663C73.7514 16.1663 73.7485 16.1663 73.7485 16.1663C73.7485 16.172 73.7485 16.1778 73.7485 16.1778V16.7804C73.7485 16.7862 73.7514 16.792 73.7601 16.792L74.861 16.4791C74.861 16.4791 74.861 16.4733 74.861 16.4676L73.7601 16.1663Z"
        fill="white" />
    <path
        d="M74.9537 18.7322C74.9769 18.7322 74.9885 18.738 74.9885 18.7554V18.7786C74.9885 18.793 74.9769 18.8017 74.9537 18.8017H73.3429C73.3255 18.8017 73.3197 18.793 73.3197 18.7786V18.7438C73.3197 18.7264 73.3226 18.7206 73.3313 18.7206L74.8146 17.9789C74.8146 17.9703 74.8146 17.9674 74.8146 17.9674C74.8146 17.9674 74.8088 17.9674 74.803 17.9674H73.3429C73.3255 17.9674 73.3197 17.9587 73.3197 17.9442V17.921C73.3197 17.9036 73.3255 17.8978 73.3429 17.8978H74.9537C74.9769 17.8978 74.9885 17.9036 74.9885 17.921V17.9442C74.9885 17.9587 74.9798 17.9703 74.9653 17.9789L73.4935 18.7206C73.4848 18.7206 73.4819 18.7206 73.4819 18.7206C73.4877 18.7264 73.4935 18.7322 73.4935 18.7322H74.9537Z"
        fill="white" />
    <path
        d="M74.9885 20.6651C74.9885 20.6796 74.9769 20.6883 74.9537 20.6883H74.9421C74.9247 20.6883 74.9189 20.6796 74.9189 20.6651V20.2595C74.9189 20.2508 74.9131 20.2479 74.9073 20.2479H73.3429C73.3255 20.2479 73.3197 20.2393 73.3197 20.2248V20.2016C73.3197 20.1842 73.3255 20.1784 73.3429 20.1784H74.9073C74.9131 20.1784 74.9189 20.1726 74.9189 20.1668V19.7844C74.9189 19.767 74.9247 19.7612 74.9421 19.7612H74.9537C74.9769 19.7612 74.9885 19.767 74.9885 19.7844V20.6651Z"
        fill="white" />
    <path
        d="M74.9421 22.5132C74.9247 22.5132 74.9189 22.5045 74.9189 22.49V21.7368C74.9189 21.7281 74.9131 21.7252 74.9073 21.7252H74.1888C74.1888 21.7252 74.1888 21.7281 74.1888 21.7368V22.2582C74.1888 22.2727 74.1802 22.2814 74.1657 22.2814H74.1425C74.1251 22.2814 74.1193 22.2727 74.1193 22.2582V21.7368C74.1193 21.7281 74.1135 21.7252 74.1077 21.7252H73.4008C73.3921 21.7252 73.3892 21.7281 73.3892 21.7368V22.49C73.3892 22.5045 73.3805 22.5132 73.3661 22.5132H73.3429C73.3255 22.5132 73.3197 22.5045 73.3197 22.49V21.6788C73.3197 21.6614 73.3255 21.6556 73.3429 21.6556H74.9537C74.9769 21.6556 74.9885 21.6614 74.9885 21.6788V22.49C74.9885 22.5045 74.9769 22.5132 74.9537 22.5132H74.9421Z"
        fill="white" />
    <path
        d="M74.9885 24.2779C74.9885 24.2924 74.9769 24.3011 74.9537 24.3011H74.9421C74.9247 24.3011 74.9189 24.2924 74.9189 24.2779V23.8723C74.9189 23.8636 74.9131 23.8607 74.9073 23.8607H73.3429C73.3255 23.8607 73.3197 23.8521 73.3197 23.8376V23.8144C73.3197 23.797 73.3255 23.7912 73.3429 23.7912H74.9073C74.9131 23.7912 74.9189 23.7854 74.9189 23.7796V23.3972C74.9189 23.3798 74.9247 23.374 74.9421 23.374H74.9537C74.9769 23.374 74.9885 23.3798 74.9885 23.3972V24.2779Z"
        fill="white" />
    <path
        d="M74.9421 26.1261C74.9247 26.1261 74.9189 26.1174 74.9189 26.1029V25.3497C74.9189 25.341 74.9131 25.3381 74.9073 25.3381H74.1888C74.1888 25.3381 74.1888 25.341 74.1888 25.3497V25.8712C74.1888 25.8856 74.1802 25.8943 74.1657 25.8943H74.1425C74.1251 25.8943 74.1193 25.8856 74.1193 25.8712V25.3497C74.1193 25.341 74.1135 25.3381 74.1077 25.3381H73.4008C73.3921 25.3381 73.3892 25.341 73.3892 25.3497V26.1029C73.3892 26.1174 73.3805 26.1261 73.3661 26.1261H73.3429C73.3255 26.1261 73.3197 26.1174 73.3197 26.1029V25.2917C73.3197 25.2743 73.3255 25.2686 73.3429 25.2686H74.9537C74.9769 25.2686 74.9885 25.2743 74.9885 25.2917V26.1029C74.9885 26.1174 74.9769 26.1261 74.9537 26.1261H74.9421Z"
        fill="white" />
    <path
        d="M73.2965 27.5084C73.2965 27.3751 73.3341 27.2679 73.4124 27.1839C73.4964 27.1057 73.6007 27.068 73.7253 27.068H74.5712C74.7016 27.068 74.8059 27.1057 74.8841 27.1839C74.9594 27.2679 75 27.3751 75 27.5084C75 27.6387 74.9594 27.743 74.8841 27.8212C74.8059 27.9053 74.7016 27.9487 74.5712 27.9487H74.5017C74.4843 27.9487 74.4785 27.94 74.4785 27.9255V27.9024C74.4785 27.885 74.4843 27.8792 74.5017 27.8792H74.5828C74.69 27.8792 74.774 27.8444 74.8378 27.7749C74.8986 27.7054 74.9305 27.6156 74.9305 27.5084C74.9305 27.3983 74.8957 27.3114 74.8262 27.2418C74.7624 27.1723 74.6784 27.1375 74.5712 27.1375H73.7253C73.6152 27.1375 73.5282 27.1723 73.4587 27.2418C73.395 27.3114 73.366 27.3983 73.366 27.5084C73.366 27.6156 73.395 27.7054 73.4587 27.7749C73.5282 27.8444 73.6152 27.8792 73.7253 27.8792H74.0497C74.0555 27.8792 74.0613 27.8734 74.0613 27.8676V27.5547C74.0613 27.5373 74.0671 27.5315 74.0845 27.5315H74.0961C74.1106 27.5315 74.1193 27.5373 74.1193 27.5547V27.9255C74.1193 27.94 74.1106 27.9487 74.0961 27.9487H73.7253C73.592 27.9487 73.4877 27.9053 73.4124 27.8212C73.3341 27.743 73.2965 27.6387 73.2965 27.5084Z"
        fill="white" />
    <path
        d="M73.2965 29.4266C73.2965 29.2933 73.337 29.1861 73.424 29.1021C73.5167 29.0152 73.6325 28.9746 73.7716 28.9746H74.9536C74.9768 28.9746 74.9884 28.9804 74.9884 28.9978V29.021C74.9884 29.0354 74.9768 29.0441 74.9536 29.0441H73.7716C73.647 29.0441 73.5456 29.0789 73.4703 29.1484C73.4008 29.218 73.366 29.3107 73.366 29.4266C73.366 29.5424 73.4008 29.6352 73.4703 29.7047C73.5456 29.7742 73.647 29.809 73.7716 29.809H74.9536C74.9768 29.809 74.9884 29.8148 74.9884 29.8322V29.8553C74.9884 29.8698 74.9768 29.8785 74.9536 29.8785H73.7716C73.6789 29.8785 73.5978 29.8582 73.5282 29.8206C73.4587 29.78 73.4008 29.7279 73.3544 29.6583C73.3168 29.5888 73.2965 29.5106 73.2965 29.4266Z"
        fill="white" />
    <path
        d="M74.9421 31.822C74.9247 31.822 74.9189 31.8133 74.9189 31.7989V31.0456C74.9189 31.0369 74.9131 31.034 74.9073 31.034H74.1888C74.1888 31.034 74.1888 31.0369 74.1888 31.0456V31.5671C74.1888 31.5816 74.1802 31.5903 74.1657 31.5903H74.1425C74.1251 31.5903 74.1193 31.5816 74.1193 31.5671V31.0456C74.1193 31.0369 74.1135 31.034 74.1077 31.034H73.4008C73.3921 31.034 73.3892 31.0369 73.3892 31.0456V31.7989C73.3892 31.8133 73.3805 31.822 73.3661 31.822H73.3429C73.3255 31.822 73.3197 31.8133 73.3197 31.7989V30.9877C73.3197 30.9703 73.3255 30.9645 73.3429 30.9645H74.9537C74.9769 30.9645 74.9885 30.9703 74.9885 30.9877V31.7989C74.9885 31.8133 74.9769 31.822 74.9537 31.822H74.9421Z"
        fill="white" />
    <path
        d="M74.9653 33.7143C74.9798 33.7143 74.9885 33.7201 74.9885 33.7375V33.7723C74.9885 33.7868 74.9769 33.7955 74.9537 33.7955H73.3429C73.3255 33.7955 73.3197 33.7868 73.3197 33.7723V33.7375C73.3197 33.7201 73.3255 33.7143 73.3429 33.7143H74.8146C74.8204 33.7143 74.8262 33.7143 74.8262 33.7143C74.8262 33.7143 74.8204 33.7085 74.8146 33.7028L74.1193 33.3435C74.1019 33.3348 74.0961 33.3232 74.0961 33.3087V33.2972C74.0961 33.2798 74.1019 33.274 74.1193 33.274L74.8146 32.9031C74.8146 32.8944 74.8146 32.8916 74.8146 32.8916H73.3429C73.3255 32.8916 73.3197 32.8829 73.3197 32.8684V32.8452C73.3197 32.8278 73.3255 32.822 73.3429 32.822H74.9537C74.9769 32.822 74.9885 32.8278 74.9885 32.8452V32.8684C74.9885 32.8829 74.9798 32.8916 74.9653 32.8916L74.2236 33.2972C74.2149 33.2972 74.212 33.2972 74.212 33.2972C74.212 33.3029 74.2149 33.3087 74.2236 33.3087L74.9653 33.7143Z"
        fill="white" />
    <path
        d="M73.2965 35.285C73.2965 35.1923 73.3168 35.1111 73.3544 35.0416C73.3921 34.9779 73.4471 34.9286 73.5167 34.891C73.5862 34.8504 73.6615 34.833 73.7484 34.833H74.548C74.6321 34.833 74.7103 34.8504 74.7798 34.891C74.8493 34.9286 74.9015 34.9779 74.9421 35.0416C74.9797 35.1111 75 35.1923 75 35.285C75 35.369 74.9797 35.4472 74.9421 35.5167C74.9015 35.5863 74.8493 35.6384 74.7798 35.679C74.7103 35.7166 74.6321 35.7369 74.548 35.7369H73.7484C73.6615 35.7369 73.5862 35.7166 73.5167 35.679C73.4471 35.6384 73.3921 35.5863 73.3544 35.5167C73.3168 35.4472 73.2965 35.369 73.2965 35.285ZM73.366 35.285C73.366 35.3922 73.4008 35.482 73.4703 35.5515C73.5398 35.6268 73.6325 35.6674 73.7484 35.6674H74.548C74.6639 35.6674 74.7566 35.6268 74.8262 35.5515C74.8957 35.482 74.9305 35.3922 74.9305 35.285C74.9305 35.1691 74.8957 35.0764 74.8262 35.0068C74.7566 34.9373 74.6639 34.9025 74.548 34.9025H73.7484C73.6325 34.9025 73.5398 34.9373 73.4703 35.0068C73.4008 35.0764 73.366 35.1691 73.366 35.285Z"
        fill="white" />
    <path
        d="M74.9537 37.6137C74.9769 37.6137 74.9885 37.6195 74.9885 37.6368V37.66C74.9885 37.6745 74.9769 37.6832 74.9537 37.6832H73.3429C73.3255 37.6832 73.3197 37.6745 73.3197 37.66V37.6253C73.3197 37.6079 73.3226 37.6021 73.3313 37.6021L74.8146 36.8604C74.8146 36.8517 74.8146 36.8488 74.8146 36.8488C74.8146 36.8488 74.8088 36.8488 74.803 36.8488H73.3429C73.3255 36.8488 73.3197 36.8401 73.3197 36.8257V36.8025C73.3197 36.7851 73.3255 36.7793 73.3429 36.7793H74.9537C74.9769 36.7793 74.9885 36.7851 74.9885 36.8025V36.8257C74.9885 36.8401 74.9798 36.8517 74.9653 36.8604L73.4935 37.6021C73.4848 37.6021 73.4819 37.6021 73.4819 37.6021C73.4877 37.6079 73.4935 37.6137 73.4935 37.6137H74.9537Z"
        fill="white" />
</svg>