<svg width="390" height="150" viewBox="0 0 390 150" fill="none" xmlns="http://www.w3.org/2000/svg">
<rect width="390" height="150" fill="#010F20"/>
<path d="M101.327 76.4363C98.4545 76.4363 95.6798 76.0503 93.0067 75.2825C90.3295 74.5025 88.1804 73.491 86.5554 72.2438L89.4154 65.9225C90.9632 67.06 92.8035 67.9781 94.9404 68.6688C97.0854 69.3635 99.2304 69.7088 101.375 69.7088C103.756 69.7088 105.519 69.3594 106.657 68.6525C107.794 67.9375 108.363 66.995 108.363 65.825C108.363 64.9597 108.026 64.2447 107.355 63.68C106.681 63.1072 105.816 62.6481 104.755 62.2988C103.703 61.9535 102.285 61.5756 100.498 61.1613C97.7354 60.5113 95.4685 59.8572 93.7054 59.195C91.9504 58.5369 90.4392 57.4847 89.1717 56.0425C87.9123 54.5922 87.2867 52.6585 87.2867 50.2413C87.2867 48.1288 87.8554 46.2235 88.9929 44.5213C90.1304 42.811 91.8448 41.4582 94.1442 40.4588C96.4395 39.4513 99.2467 38.9475 102.562 38.9475C104.877 38.9475 107.136 39.2238 109.338 39.7763C111.548 40.3288 113.482 41.121 115.139 42.1488L112.555 48.5188C109.208 46.6257 105.86 45.675 102.513 45.675C100.161 45.675 98.422 46.0569 97.2967 46.8125C96.1795 47.5722 95.6229 48.5757 95.6229 49.8188C95.6229 51.066 96.2648 51.9922 97.5567 52.5975C98.8567 53.1947 100.831 53.7919 103.488 54.385C106.25 55.035 108.509 55.6931 110.264 56.3513C112.027 57.0013 113.539 58.0372 114.798 59.455C116.065 60.8769 116.699 62.7944 116.699 65.2075C116.699 67.2794 116.118 69.1685 114.96 70.8788C113.811 72.581 112.076 73.9338 109.76 74.9413C107.441 75.9366 104.629 76.4363 101.327 76.4363Z" fill="white"/>
<path d="M127.885 39.565H136.27V75.8188H127.885V39.565Z" fill="white"/>
<path d="M150.305 39.565H158.69V68.9775H176.858V75.8188H150.305V39.565Z" fill="white"/>
<path d="M187.015 39.565H195.4V68.9775H213.567V75.8188H187.015V39.565Z" fill="white"/>
<path d="M223.724 39.565H232.109V75.8188H223.724V39.565Z" fill="white"/>
<path d="M263.483 76.4363C259.786 76.4363 256.447 75.636 253.457 74.0313C250.475 72.4306 248.131 70.2044 246.42 67.3525C244.706 64.5047 243.853 61.2872 243.853 57.7C243.853 54.1047 244.706 50.8832 246.42 48.0313C248.131 45.1835 250.475 42.9572 253.457 41.3525C256.447 39.7519 259.802 38.9475 263.532 38.9475C266.672 38.9475 269.512 39.5 272.047 40.605C274.59 41.71 276.727 43.2985 278.449 45.3663L273.07 50.3388C270.608 47.5113 267.57 46.0975 263.954 46.0975C261.712 46.0975 259.705 46.5932 257.942 47.5763C256.187 48.5513 254.813 49.9244 253.83 51.6875C252.843 53.4425 252.352 55.4494 252.352 57.7C252.352 59.9425 252.843 61.9494 253.83 63.7125C254.813 65.4675 256.187 66.8406 257.942 67.8238C259.705 68.7988 261.712 69.2863 263.954 69.2863C267.57 69.2863 270.608 67.8563 273.07 64.9963L278.449 69.9688C276.727 72.0732 274.586 73.6738 272.03 74.7788C269.471 75.8838 266.623 76.4363 263.483 76.4363Z" fill="white"/>
<path d="M307.082 76.4363C303.32 76.4363 299.932 75.6319 296.91 74.015C293.887 72.39 291.519 70.1556 289.808 67.3038C288.094 64.456 287.241 61.2547 287.241 57.7C287.241 54.1372 288.094 50.9319 289.808 48.08C291.519 45.2322 293.887 43.0019 296.91 41.385C299.932 39.76 303.32 38.9475 307.082 38.9475C310.84 38.9475 314.22 39.76 317.222 41.385C320.232 43.0019 322.601 45.2322 324.323 48.08C326.054 50.9319 326.923 54.1372 326.923 57.7C326.923 61.2547 326.054 64.456 324.323 67.3038C322.601 70.1556 320.232 72.39 317.222 74.015C314.22 75.6319 310.84 76.4363 307.082 76.4363ZM307.082 69.2863C309.227 69.2863 311.161 68.7988 312.883 67.8238C314.606 66.8406 315.959 65.4675 316.946 63.7125C317.929 61.9494 318.425 59.9425 318.425 57.7C318.425 55.4494 317.929 53.4425 316.946 51.6875C315.959 49.9244 314.606 48.5513 312.883 47.5763C311.161 46.5932 309.227 46.0975 307.082 46.0975C304.937 46.0975 303.003 46.5932 301.281 47.5763C299.558 48.5513 298.201 49.9244 297.218 51.6875C296.231 53.4425 295.74 55.4494 295.74 57.7C295.74 59.9425 296.231 61.9494 297.218 63.7125C298.201 65.4675 299.558 66.8406 301.281 67.8238C303.003 68.7988 304.937 69.2863 307.082 69.2863Z" fill="white"/>
<path d="M371.914 39.565V75.8188H365.024L346.938 53.8163V75.8188H338.667V39.565H345.606L363.627 61.5838V39.565H371.914Z" fill="white"/>
<path d="M121.402 97.8778H115.568V94.449H131.428V97.8778H125.61V112.649H121.402V97.8778Z" fill="white"/>
<path d="M154.158 109.269V112.649H140.069V94.449H153.816V97.829H144.245V101.778H152.695V105.06H144.245V109.269H154.158Z" fill="white"/>
<path d="M172.594 112.958C170.741 112.958 169.059 112.56 167.556 111.755C166.061 110.943 164.879 109.822 164.014 108.392C163.157 106.962 162.73 105.349 162.73 103.549C162.73 101.753 163.157 100.137 164.014 98.7065C164.879 97.2765 166.061 96.1634 167.556 95.359C169.059 94.5465 170.745 94.1403 172.61 94.1403C174.19 94.1403 175.616 94.4165 176.884 94.969C178.159 95.5215 179.232 96.3178 180.101 97.3578L177.404 99.8603C176.169 98.4425 174.641 97.7315 172.821 97.7315C171.692 97.7315 170.684 97.9834 169.799 98.479C168.921 98.9665 168.231 99.6571 167.735 100.543C167.248 101.42 167.004 102.424 167.004 103.549C167.004 104.678 167.248 105.686 167.735 106.572C168.231 107.449 168.921 108.14 169.799 108.635C170.684 109.123 171.692 109.367 172.821 109.367C174.641 109.367 176.169 108.652 177.404 107.222L180.101 109.708C179.232 110.772 178.155 111.577 176.868 112.129C175.588 112.682 174.162 112.958 172.594 112.958Z" fill="white"/>
<path d="M205.999 94.449V112.649H201.791V105.19H193.519V112.649H189.311V94.449H193.519V101.632H201.791V94.449H205.999Z" fill="white"/>
<path d="M236.384 112.958C234.942 112.958 233.549 112.763 232.208 112.373C230.863 111.983 229.787 111.479 228.974 110.862L230.404 107.677C231.184 108.253 232.111 108.712 233.183 109.058C234.256 109.407 235.328 109.578 236.401 109.578C237.603 109.578 238.485 109.407 239.049 109.058C239.622 108.7 239.911 108.225 239.911 107.628C239.911 107.197 239.74 106.84 239.407 106.555C239.07 106.263 238.635 106.031 238.107 105.857C237.575 105.686 236.86 105.495 235.962 105.288C234.572 104.963 233.435 104.638 232.549 104.313C231.672 103.98 230.912 103.447 230.274 102.72C229.645 101.997 229.332 101.026 229.332 99.8115C229.332 98.7512 229.616 97.7925 230.193 96.9353C230.766 96.0821 231.627 95.4037 232.777 94.904C233.935 94.3962 235.344 94.1403 237.002 94.1403C238.16 94.1403 239.293 94.2825 240.398 94.5628C241.511 94.835 242.486 95.229 243.323 95.749L242.023 98.9503C240.341 97.9996 238.663 97.5203 236.986 97.5203C235.803 97.5203 234.93 97.7112 234.369 98.089C233.805 98.4709 233.524 98.9746 233.524 99.6003C233.524 100.218 233.849 100.681 234.499 100.982C235.149 101.286 236.141 101.591 237.473 101.892C238.858 102.217 239.992 102.55 240.869 102.883C241.755 103.208 242.515 103.728 243.144 104.443C243.782 105.15 244.103 106.108 244.103 107.319C244.103 108.359 243.811 109.31 243.226 110.163C242.649 111.02 241.779 111.702 240.609 112.21C239.447 112.706 238.042 112.958 236.384 112.958Z" fill="#5B43D6"/>
<path d="M257.132 97.8778H251.298V94.449H267.158V97.8778H261.34V112.649H257.132V97.8778Z" fill="#5B43D6"/>
<path d="M284.606 112.958C282.721 112.958 281.019 112.552 279.504 111.739C277.984 110.927 276.794 109.805 275.929 108.375C275.072 106.945 274.645 105.337 274.645 103.549C274.645 101.762 275.072 100.153 275.929 98.7228C276.794 97.2928 277.984 96.1715 279.504 95.359C281.019 94.5465 282.721 94.1403 284.606 94.1403C286.499 94.1403 288.202 94.5465 289.709 95.359C291.212 96.1715 292.398 97.2928 293.268 98.7228C294.133 100.153 294.568 101.762 294.568 103.549C294.568 105.337 294.133 106.945 293.268 108.375C292.398 109.805 291.212 110.927 289.709 111.739C288.202 112.552 286.499 112.958 284.606 112.958ZM284.606 109.367C285.679 109.367 286.646 109.123 287.515 108.635C288.38 108.14 289.063 107.449 289.563 106.572C290.058 105.686 290.31 104.678 290.31 103.549C290.31 102.424 290.058 101.42 289.563 100.543C289.063 99.6571 288.38 98.9665 287.515 98.479C286.646 97.9834 285.679 97.7315 284.606 97.7315C283.534 97.7315 282.563 97.9834 281.698 98.479C280.828 98.9665 280.146 99.6571 279.65 100.543C279.163 101.42 278.919 102.424 278.919 103.549C278.919 104.678 279.163 105.686 279.65 106.572C280.146 107.449 280.828 108.14 281.698 108.635C282.563 109.123 283.534 109.367 284.606 109.367Z" fill="#5B43D6"/>
<path d="M315.697 112.649L312.187 107.579H308.32V112.649H304.111V94.449H311.992C313.593 94.449 314.99 94.7212 316.185 95.2615C317.375 95.7937 318.289 96.5575 318.931 97.5528C319.569 98.54 319.89 99.7059 319.89 101.047C319.89 102.403 319.565 103.573 318.915 104.557C318.265 105.532 317.343 106.279 316.152 106.799L320.231 112.649H315.697ZM315.632 101.047C315.632 100.031 315.299 99.2509 314.641 98.7065C313.979 98.154 313.016 97.8778 311.749 97.8778H308.32V104.232H311.749C313.016 104.232 313.979 103.955 314.641 103.403C315.299 102.842 315.632 102.054 315.632 101.047Z" fill="#5B43D6"/>
<path d="M343.679 109.269V112.649H329.59V94.449H343.337V97.829H333.766V101.778H342.216V105.06H333.766V109.269H343.679Z" fill="#5B43D6"/>
<mask id="mask0_70_207" style="mask-type:luminance" maskUnits="userSpaceOnUse" x="19" y="29" width="55" height="92">
<path d="M19 29H73.6V120.26H19V29Z" fill="white"/>
</mask>
<g mask="url(#mask0_70_207)">
<path d="M27.3769 31.21V109.856H19.6256C19.455 109.856 19.3087 109.917 19.1909 110.039C19.0691 110.161 19.0081 110.303 19.0081 110.473V119.643C19.0081 119.813 19.0691 119.959 19.1909 120.081C19.3087 120.203 19.455 120.26 19.6256 120.26H23.9644C24.135 120.26 24.2812 120.203 24.3991 120.081C24.5209 119.959 24.5819 119.813 24.5819 119.643V114.666H72.9744C73.1409 114.666 73.2872 114.605 73.4091 114.487C73.5269 114.365 73.5878 114.219 73.5878 114.048V110.469C73.5878 110.299 73.5269 110.153 73.4091 110.031C73.2872 109.909 73.1409 109.852 72.9744 109.852H66.7303V104.359H72.9744C73.1409 104.359 73.2872 104.298 73.4091 104.181C73.5269 104.059 73.5878 103.913 73.5878 103.742V51.6809C73.5878 51.5103 73.5269 51.3681 73.4091 51.2463C73.2872 51.1244 73.1409 51.0634 72.9744 51.0634H66.7303V47.0944H72.9744C73.1409 47.0944 73.2872 47.0334 73.4091 46.9116C73.5269 46.7938 73.5878 46.6475 73.5878 46.4769V36.0647C73.5878 35.8941 73.5269 35.7478 73.4091 35.63C73.2872 35.5081 73.1409 35.4472 72.9744 35.4472H66.7303V31.21C66.7303 30.9175 66.6734 30.6372 66.5637 30.365C66.45 30.0928 66.2916 29.8531 66.0844 29.6459C65.8772 29.4388 65.6375 29.2803 65.3694 29.1666C65.0972 29.0528 64.8169 29 64.5244 29H29.5869C29.2944 29 29.01 29.0528 28.7419 29.1666C28.4697 29.2803 28.2341 29.4388 28.0269 29.6459C27.8197 29.8531 27.6572 30.0928 27.5475 30.365C27.4337 30.6372 27.3769 30.9175 27.3769 31.21ZM72.3569 113.431H23.9644C23.7937 113.431 23.6475 113.492 23.5297 113.614C23.4078 113.732 23.3469 113.878 23.3469 114.048V119.025H20.2391V111.091L72.3569 111.087V113.431ZM28.6119 44.1613L32.1828 47.7444V95.2838L28.6119 98.8669V44.1613ZM65.4994 99.2772L61.7416 95.5113V47.9678L65.4994 44.2019V99.2772ZM66.7709 103.124V99.1553H72.3569V103.124H66.7709ZM66.7709 97.9203V93.9472H72.3569V97.9203H66.7709ZM66.7709 92.7122V88.7431H72.3569V92.7122H66.7709ZM66.7709 87.5081V83.535H72.3569V87.5081H66.7709ZM66.7709 82.3V78.3309H72.3569V82.3H66.7709ZM66.7709 77.0959V73.1228H72.3569V77.0959H66.7709ZM66.7709 71.8878V67.9188H72.3569V71.8878H66.7709ZM66.7709 66.6838V62.7106H72.3569V66.6838H66.7709ZM66.7709 61.4756V57.5066H72.3569V61.4756H66.7709ZM72.3569 52.2984V56.2716H66.7709V52.2984H72.3569ZM66.7709 45.8594V41.8903H72.3569V45.8594H66.7709ZM72.3569 36.6822V40.6513H66.7709V36.6822H72.3569ZM64.5244 30.235C64.7925 30.235 65.0241 30.3284 65.215 30.5194C65.4019 30.7103 65.4994 30.9419 65.4994 31.21V42.6013C65.3775 42.6256 65.2719 42.6825 65.1866 42.7719L60.6934 47.2772C60.5716 47.395 60.5106 47.5413 60.5106 47.7119V95.7672C60.5106 95.9378 60.5716 96.0841 60.6934 96.2059L64.9591 100.484C65.1094 100.634 65.2881 100.691 65.4994 100.654V109.852H28.6119V100.581C28.6566 100.553 28.7012 100.52 28.7419 100.484L33.235 95.9784C33.3528 95.8566 33.4137 95.7144 33.4137 95.5438V47.4884C33.4137 47.3178 33.3528 47.1716 33.235 47.0497L28.9653 42.7719C28.8678 42.6703 28.7459 42.6134 28.6119 42.5972V31.21C28.6119 30.9419 28.7053 30.7103 28.8962 30.5194C29.0872 30.3284 29.3147 30.235 29.5869 30.235H64.5244Z" fill="#5CE1E6"/>
</g>
<path d="M42.7737 96.9656C39.9828 96.7219 38.0694 95.8606 37.0294 94.3738C36.8628 94.1381 36.6434 94.0569 36.3672 94.1259C36.0909 94.195 35.9325 94.3697 35.8959 94.6541C35.835 95.1375 35.8025 95.6209 35.8025 96.1125C35.8025 96.8681 35.8797 97.6156 36.0341 98.355C36.0869 98.6475 36.2291 98.8872 36.4606 99.07C38.2562 100.557 40.71 100.537 43.8219 99.0131C43.2816 98.4281 42.9322 97.7456 42.7737 96.9656ZM37.2487 98.1153L37.2406 98.1113V98.1072C37.1106 97.4775 37.0416 96.8397 37.0334 96.1938C38.1912 97.1809 39.7959 97.8187 41.8272 98.1031C41.8759 98.225 41.9287 98.3428 41.9816 98.4647C39.9666 99.1959 38.4066 99.0781 37.2487 98.1153Z" fill="#5CE1E6"/>
<path d="M46.8078 100.403C46.0156 100.374 45.2843 100.138 44.6222 99.6997C42.4812 101.503 40.515 102.251 38.7315 101.938C38.6422 101.922 38.5487 101.926 38.4593 101.95C38.37 101.975 38.2928 102.019 38.2197 102.076C38.1506 102.137 38.0937 102.21 38.0572 102.296C38.0165 102.377 37.9962 102.466 37.9962 102.56C37.9962 102.702 38.0409 102.828 38.1303 102.938C38.89 103.933 39.7918 104.774 40.8359 105.46C41.0797 105.631 41.3478 105.696 41.6443 105.659C43.96 105.44 45.6825 103.689 46.8078 100.403ZM41.5143 104.428C40.9781 104.075 40.4784 103.673 40.0234 103.226C41.5347 103.1 43.119 102.413 44.7562 101.174C44.874 101.227 44.9959 101.276 45.1178 101.317C44.2078 103.267 43.0256 104.29 41.5265 104.433H41.5184L41.5143 104.428Z" fill="#5CE1E6"/>
<path d="M49.8993 99.2691C49.3143 99.8094 48.6359 100.159 47.8559 100.321C47.6162 103.116 46.755 105.038 45.2722 106.082C45.0934 106.204 45.004 106.374 45.004 106.59C45.004 106.748 45.0528 106.886 45.1584 107.008C45.264 107.126 45.394 107.195 45.5525 107.215C46.7875 107.382 48.0184 107.337 49.2412 107.077C49.5337 107.028 49.7693 106.882 49.9522 106.651C50.6875 105.761 51.0531 104.713 51.0531 103.498C51.0531 102.259 50.6672 100.849 49.8993 99.2691ZM49.0015 105.867H48.9934C48.3637 106.001 47.73 106.07 47.0881 106.074C48.0712 104.916 48.709 103.307 48.9893 101.268C49.1112 101.223 49.229 101.17 49.3468 101.113C49.6597 101.991 49.8222 102.791 49.8222 103.498C49.8222 104.42 49.554 105.196 49.0056 105.863L49.0015 105.867Z" fill="#5CE1E6"/>
<path d="M43.3953 93.7237C41.8597 91.8916 41.0919 90.1894 41.0919 88.6172C41.0919 88.3491 41.1122 88.0809 41.1609 87.8169C41.165 87.7803 41.1691 87.7397 41.1691 87.7031C41.165 87.4431 41.0472 87.2562 40.8156 87.1466C40.5841 87.0328 40.3688 87.0531 40.1616 87.2116C39.1703 87.9753 38.3334 88.8772 37.6469 89.9253C37.5088 90.1284 37.4397 90.3478 37.4397 90.5916C37.4397 90.6403 37.4438 90.685 37.4478 90.7337C37.6672 93.0575 39.4181 94.7841 42.6925 95.9134C42.7209 95.1172 42.9566 94.39 43.3953 93.7237ZM38.6747 90.6159V90.6119L38.6788 90.6078C39.0281 90.0675 39.4303 89.5678 39.8772 89.1087C39.9991 90.6241 40.6856 92.2166 41.9247 93.8578C41.8719 93.9756 41.8231 94.0975 41.7784 94.2194C39.8366 93.3094 38.8169 92.1231 38.6747 90.6159Z" fill="#5CE1E6"/>
<path d="M51.2035 95.2228C53.9903 95.4666 55.9078 96.3319 56.9478 97.8147C57.1103 98.0503 57.3297 98.1316 57.606 98.0625C57.8863 97.9975 58.0406 97.8187 58.0772 97.5344C58.1422 97.0509 58.1747 96.5675 58.1747 96.08C58.1706 95.3244 58.0935 94.5728 57.9391 93.8334C57.8903 93.5409 57.7441 93.3053 57.5125 93.1225C55.7169 91.6316 53.2631 91.6519 50.1553 93.1753C50.6916 93.7603 51.041 94.4428 51.2035 95.2228ZM56.7285 94.0731L56.7325 94.0772V94.0812C56.8666 94.715 56.9356 95.3487 56.9397 95.9947C55.786 95.0075 54.1813 94.3697 52.146 94.0853C52.1013 93.9675 52.0485 93.8456 51.9916 93.7278C54.0106 92.9966 55.5666 93.1103 56.7285 94.0731Z" fill="#5CE1E6"/>
<path d="M47.1653 91.7859C47.9615 91.8184 48.6887 92.0541 49.3509 92.4928C51.4959 90.685 53.4581 89.9375 55.2415 90.2503C55.335 90.2666 55.4243 90.2625 55.5137 90.2381C55.6031 90.2137 55.6843 90.1731 55.7534 90.1122C55.8265 90.0512 55.8793 89.9781 55.92 89.8969C55.9565 89.8116 55.9768 89.7222 55.9768 89.6287C55.9768 89.4866 55.9322 89.3606 55.8468 89.2509C55.0872 88.2556 54.1853 87.4147 53.1372 86.7281C52.8934 86.5575 52.6253 86.4925 52.3328 86.5291C50.0131 86.7484 48.2947 88.5034 47.1653 91.7859ZM52.4587 87.76C52.999 88.1134 53.4947 88.5156 53.9537 88.9666C52.4384 89.0884 50.854 89.775 49.2209 91.0181C49.099 90.9653 48.9812 90.9166 48.8553 90.8719C49.7653 88.9219 50.9515 87.9022 52.4506 87.7559H52.4547L52.4587 87.76Z" fill="#5CE1E6"/>
<path d="M44.0209 85.5419C43.2897 86.4275 42.9241 87.4797 42.9241 88.6903C42.9241 89.9294 43.3059 91.3431 44.0778 92.9194C44.6588 92.3791 45.3413 92.0297 46.1213 91.8672C46.3609 89.0722 47.2222 87.1506 48.705 86.1066C48.8838 85.9847 48.9691 85.8141 48.9691 85.5987C48.9731 85.4403 48.9203 85.3022 48.8188 85.1803C48.7131 85.0625 48.5831 84.9934 48.4247 84.9731C47.1856 84.8066 45.9547 84.8553 44.7319 85.1112C44.4434 85.1641 44.2038 85.3062 44.0209 85.5419ZM44.9838 90.9206C44.8659 90.9694 44.7441 91.0181 44.6303 91.075C44.3134 90.1975 44.155 89.4012 44.155 88.6903C44.155 87.7681 44.4231 86.9922 44.9716 86.3259L44.9756 86.3219H44.9797C45.6094 86.1919 46.2431 86.1228 46.885 86.1147C45.9019 87.2725 45.2681 88.8812 44.9838 90.9206Z" fill="#5CE1E6"/>
<path d="M50.5818 98.4647C52.1175 100.297 52.8853 101.999 52.8853 103.571C52.8853 103.839 52.8609 104.108 52.8162 104.372C52.8081 104.412 52.8081 104.449 52.8081 104.489C52.8081 104.745 52.9259 104.932 53.1575 105.046C53.389 105.16 53.6084 105.135 53.8115 104.977C54.8068 104.217 55.6437 103.311 56.3262 102.263C56.4643 102.064 56.5334 101.841 56.5334 101.597C56.5334 101.552 56.5334 101.503 56.5253 101.455C56.3059 99.1309 54.559 97.4044 51.2847 96.275C51.2522 97.0713 51.0165 97.8025 50.5818 98.4647ZM55.3025 101.573V101.577L55.2984 101.585C54.945 102.121 54.5468 102.621 54.0959 103.08C53.974 101.564 53.2875 99.9719 52.0525 98.3347C52.1012 98.2128 52.15 98.0909 52.1947 97.9691C54.1406 98.8831 55.1603 100.069 55.3025 101.573Z" fill="#5CE1E6"/>
<path d="M46.9866 99.6306C47.4538 99.6306 47.9047 99.5413 48.3394 99.3625C48.77 99.1838 49.1519 98.9278 49.481 98.5947C49.8141 98.2656 50.066 97.8838 50.2488 97.4491C50.4275 97.0144 50.5169 96.5634 50.5169 96.0963C50.5169 95.625 50.4275 95.1741 50.2488 94.7394C50.066 94.3088 49.8141 93.9269 49.481 93.5938C49.1519 93.2606 48.77 93.0047 48.3394 92.8259C47.9047 92.6472 47.4538 92.5578 46.9866 92.5578C46.5194 92.5578 46.0685 92.6472 45.6378 92.8259C45.2072 93.0047 44.8253 93.2606 44.4922 93.5938C44.1631 93.9269 43.9072 94.3088 43.7285 94.7394C43.5497 95.1741 43.4603 95.625 43.4603 96.0963C43.4603 96.5634 43.5497 97.0144 43.7285 97.4491C43.9072 97.8797 44.1631 98.2616 44.4963 98.5947C44.8253 98.9278 45.2072 99.1838 45.6378 99.3625C46.0685 99.5413 46.5194 99.6306 46.9866 99.6306ZM46.9866 93.7928C47.2913 93.7928 47.5838 93.8497 47.8681 93.9675C48.1485 94.0853 48.3963 94.2519 48.6116 94.4672C48.8269 94.6825 48.9935 94.9303 49.1072 95.2147C49.225 95.495 49.2819 95.7916 49.2819 96.0963C49.2819 96.4009 49.225 96.6934 49.1072 96.9778C48.9935 97.2581 48.8269 97.5059 48.6116 97.7213C48.3963 97.9406 48.1485 98.1031 47.8681 98.2209C47.5838 98.3388 47.2913 98.3956 46.9866 98.3956C46.6819 98.3956 46.3894 98.3388 46.1091 98.2209C45.8288 98.1031 45.581 97.9406 45.3656 97.7213C45.1503 97.5059 44.9838 97.2581 44.866 96.9778C44.7522 96.6934 44.6913 96.4009 44.6913 96.0963C44.6913 95.7916 44.7522 95.495 44.866 95.2147C44.9838 94.9344 45.1503 94.6825 45.3656 94.4672C45.581 94.2519 45.8288 94.0853 46.1091 93.9675C46.3894 93.8538 46.6819 93.7928 46.9866 93.7928Z" fill="#5CE1E6"/>
<path d="M42.7737 71.1688C39.9828 70.9291 38.0694 70.0638 37.0294 68.5769C36.8628 68.3453 36.6434 68.26 36.3672 68.3291C36.0909 68.3981 35.9325 68.5728 35.8959 68.8572C35.835 69.3406 35.8025 69.8241 35.8025 70.3156C35.8025 71.0713 35.8797 71.8188 36.0341 72.5581C36.0869 72.8506 36.2291 73.0903 36.4606 73.2731C38.2562 74.76 40.71 74.7397 43.8219 73.2163C43.2816 72.6313 42.9322 71.9488 42.7737 71.1688ZM37.2487 72.3184L37.2406 72.3144V72.3103C37.1106 71.6806 37.0416 71.0428 37.0334 70.3969C38.1912 71.3841 39.7959 72.0219 41.8272 72.3063C41.8759 72.4281 41.9287 72.5459 41.9816 72.6678C39.9666 73.3991 38.4066 73.2813 37.2487 72.3184Z" fill="#5CE1E6"/>
<path d="M46.8078 74.6056C46.0156 74.5772 45.2843 74.3416 44.6222 73.9028C42.4812 75.7066 40.515 76.4541 38.7315 76.1412C38.6422 76.1291 38.5487 76.1331 38.4593 76.1575C38.37 76.1778 38.2928 76.2225 38.2197 76.2834C38.1506 76.3403 38.0937 76.4134 38.0572 76.4987C38.0165 76.58 37.9962 76.6694 37.9962 76.7628C37.9962 76.905 38.0409 77.0309 38.1303 77.1447C38.89 78.1359 39.7918 78.9769 40.8359 79.6634C41.0797 79.8341 41.3478 79.8991 41.6443 79.8666C43.96 79.6431 45.6825 77.8922 46.8078 74.6056ZM41.5143 78.6316C40.9781 78.2781 40.4784 77.8759 40.0234 77.4291C41.5347 77.3031 43.119 76.6166 44.7562 75.3775C44.874 75.4303 44.9959 75.475 45.1178 75.5197C44.2078 77.4697 43.0256 78.4934 41.5265 78.6356H41.5184L41.5143 78.6316Z" fill="#5CE1E6"/>
<path d="M49.8993 73.4722C49.3143 74.0125 48.6359 74.3619 47.8559 74.5244C47.6162 77.3194 46.755 79.2409 45.2722 80.285C45.0934 80.4069 45.004 80.5775 45.004 80.7928C45.004 80.9512 45.0528 81.0894 45.1584 81.2112C45.264 81.3291 45.394 81.3981 45.5525 81.4184C46.7875 81.585 48.0184 81.5403 49.2412 81.2803C49.5337 81.2316 49.7693 81.0853 49.9522 80.8537C50.6875 79.9641 51.0531 78.9159 51.0531 77.7012C51.0531 76.4622 50.6672 75.0525 49.8993 73.4722ZM49.0015 80.0697H48.9934C48.3637 80.2037 47.73 80.2728 47.0881 80.2769C48.0712 79.1191 48.709 77.5103 48.9893 75.4709C49.1112 75.4262 49.229 75.3734 49.3468 75.3166C49.6597 76.1941 49.8222 76.9944 49.8222 77.7012C49.8222 78.6275 49.554 79.3994 49.0056 80.0656L49.0015 80.0697Z" fill="#5CE1E6"/>
<path d="M43.3953 67.9269C41.8597 66.0947 41.0919 64.3925 41.0919 62.8244C41.0919 62.5522 41.1122 62.2841 41.1609 62.02C41.165 61.9834 41.1691 61.9428 41.1691 61.9063C41.165 61.6463 41.0472 61.4594 40.8156 61.3497C40.5841 61.2359 40.3688 61.2563 40.1616 61.4147C39.1703 62.1784 38.3334 63.0803 37.6469 64.1284C37.5088 64.3316 37.4397 64.5509 37.4397 64.7947C37.4397 64.8434 37.4438 64.8881 37.4478 64.9369C37.6672 67.2606 39.4181 68.9913 42.6925 70.1166C42.7209 69.3244 42.9566 68.5931 43.3953 67.9269ZM38.6747 64.8191V64.815L38.6788 64.8109C39.0281 64.2706 39.4303 63.7709 39.8772 63.3119C39.9991 64.8272 40.6856 66.4197 41.9247 68.0609C41.8719 68.1788 41.8231 68.3006 41.7784 68.4225C39.8366 67.5125 38.8169 66.3263 38.6747 64.8191Z" fill="#5CE1E6"/>
<path d="M51.2035 69.4259C53.9903 69.6697 55.9078 70.535 56.9478 72.0178C57.1103 72.2534 57.3297 72.3347 57.606 72.2656C57.8863 72.2006 58.0406 72.0219 58.0772 71.7416C58.1422 71.2541 58.1747 70.7706 58.1747 70.2831C58.1706 69.5275 58.0935 68.7759 57.9391 68.0366C57.8903 67.7441 57.7441 67.5084 57.5125 67.3256C55.7169 65.8347 53.2631 65.855 50.1553 67.3784C50.6916 67.9634 51.041 68.6459 51.2035 69.4259ZM56.7285 68.2762L56.7325 68.2803V68.2844C56.8666 68.9181 56.9356 69.5519 56.9397 70.1978C55.786 69.2106 54.1813 68.5728 52.146 68.2884C52.1013 68.1706 52.0485 68.0487 51.9916 67.9309C54.0106 67.1997 55.5666 67.3134 56.7285 68.2762Z" fill="#5CE1E6"/>
<path d="M47.1653 65.9891C47.9615 66.0216 48.6887 66.2572 49.3509 66.6959C51.4959 64.8881 53.4581 64.1406 55.2415 64.4534C55.335 64.4697 55.4243 64.4656 55.5137 64.4413C55.6031 64.4169 55.6843 64.3763 55.7534 64.3153C55.8265 64.2544 55.8793 64.1813 55.92 64.1C55.9565 64.0147 55.9768 63.9253 55.9768 63.8319C55.9768 63.6897 55.9322 63.5638 55.8468 63.4541C55.0872 62.4588 54.1853 61.6178 53.1372 60.9313C52.8934 60.7647 52.6253 60.6956 52.3328 60.7322C50.0131 60.9516 48.2947 62.7066 47.1653 65.9891ZM52.4587 61.9631C52.999 62.3166 53.4947 62.7188 53.9537 63.1697C52.4384 63.2916 50.854 63.9781 49.2209 65.2213C49.099 65.1684 48.9812 65.1197 48.8553 65.075C49.7653 63.125 50.9515 62.1053 52.4506 61.9591H52.4547L52.4587 61.9631Z" fill="#5CE1E6"/>
<path d="M44.0209 59.745C43.2897 60.6306 42.9241 61.6828 42.9241 62.8934C42.9241 64.1325 43.3059 65.5463 44.0778 67.1225C44.6588 66.5822 45.3413 66.2328 46.1213 66.0703C46.3609 63.2753 47.2222 61.3538 48.705 60.3097C48.8838 60.1878 48.9731 60.0213 48.9691 59.8019C48.9731 59.6434 48.9203 59.5053 48.8188 59.3834C48.7131 59.2656 48.5831 59.1966 48.4247 59.1763C47.1856 59.0097 45.9547 59.0584 44.7319 59.3144C44.4434 59.3672 44.2038 59.5094 44.0209 59.745ZM44.9838 65.1238C44.8659 65.1725 44.7441 65.2213 44.6303 65.2781C44.3134 64.4006 44.155 63.6044 44.155 62.8934C44.155 61.9713 44.4231 61.1994 44.9716 60.5291L44.9756 60.525H44.9797C45.6094 60.395 46.2431 60.3259 46.885 60.3178C45.9019 61.4797 45.2681 63.0844 44.9838 65.1238Z" fill="#5CE1E6"/>
<path d="M50.5818 72.6678C52.1175 74.5 52.8853 76.2022 52.8853 77.7744C52.8853 78.0425 52.8609 78.3106 52.8162 78.5747C52.8081 78.6153 52.8081 78.6519 52.8081 78.6925C52.8081 78.9484 52.9259 79.1353 53.1575 79.2491C53.389 79.3587 53.6084 79.3384 53.8115 79.18C54.8068 78.4203 55.6437 77.5144 56.3262 76.4662C56.4643 76.2672 56.5334 76.0437 56.5334 75.8C56.5334 75.7553 56.5334 75.7066 56.5253 75.6578C56.3059 73.3341 54.559 71.6075 51.2847 70.4781C51.2522 71.2744 51.0165 72.0056 50.5818 72.6678ZM55.3025 75.7756V75.7797L55.2984 75.7878C54.945 76.3241 54.5468 76.8237 54.0959 77.2828C53.974 75.7675 53.2875 74.175 52.0525 72.5378C52.1012 72.4159 52.15 72.2941 52.1947 72.1722C54.1406 73.0862 55.1603 74.2725 55.3025 75.7756Z" fill="#5CE1E6"/>
<path d="M46.9866 73.8338C47.4538 73.8338 47.9047 73.7444 48.3394 73.5656C48.77 73.3869 49.1519 73.1309 49.481 72.7978C49.8141 72.4688 50.066 72.0869 50.2488 71.6522C50.4275 71.2175 50.5169 70.7666 50.5169 70.2994C50.5169 69.8281 50.4275 69.3772 50.2488 68.9425C50.07 68.5119 49.8141 68.13 49.481 67.7969C49.1519 67.4638 48.77 67.2078 48.3394 67.0291C47.9047 66.8503 47.4538 66.7609 46.9866 66.7609C46.5194 66.7609 46.0685 66.8503 45.6378 67.0291C45.2072 67.2078 44.8253 67.4638 44.4922 67.7969C44.1631 68.13 43.9072 68.5119 43.7285 68.9425C43.5497 69.3772 43.4603 69.8281 43.4603 70.2994C43.4603 70.7666 43.5497 71.2175 43.7285 71.6522C43.9072 72.0828 44.1631 72.4688 44.4963 72.7978C44.8253 73.1309 45.2072 73.3869 45.6378 73.5656C46.0685 73.7444 46.5194 73.8338 46.9866 73.8338ZM46.9866 67.9959C47.2913 67.9959 47.5838 68.0528 47.8681 68.1706C48.1485 68.2884 48.3963 68.455 48.6116 68.6703C48.8269 68.8856 48.9935 69.1334 49.1072 69.4178C49.225 69.6981 49.2819 69.9947 49.2819 70.2994C49.2819 70.6041 49.225 70.8966 49.1072 71.1809C48.9935 71.4613 48.8269 71.7091 48.6116 71.9244C48.3963 72.1438 48.1485 72.3103 47.8681 72.4241C47.5838 72.5419 47.2913 72.5988 46.9866 72.5988C46.6819 72.5988 46.3894 72.5419 46.1091 72.4241C45.8288 72.3103 45.581 72.1438 45.3656 71.9244C45.1503 71.7091 44.9838 71.4613 44.866 71.1809C44.7522 70.8966 44.6913 70.6041 44.6913 70.2994C44.6913 69.9947 44.7522 69.6981 44.866 69.4178C44.9838 69.1375 45.1503 68.8856 45.3656 68.6703C45.581 68.455 45.8288 68.2884 46.1091 68.1706C46.3894 68.0569 46.6819 67.9959 46.9866 67.9959Z" fill="#5CE1E6"/>
<path d="M42.7737 45.3719C39.9828 45.1322 38.0694 44.2669 37.0294 42.78C36.8628 42.5484 36.6434 42.4631 36.3672 42.5322C36.0909 42.6012 35.9325 42.7759 35.8959 43.0603C35.835 43.5437 35.8025 44.0312 35.8025 44.5187C35.8025 45.2744 35.8797 46.0219 36.0341 46.7612C36.0869 47.0537 36.2291 47.2934 36.4606 47.4762C38.2562 48.9631 40.71 48.9469 43.8219 47.4194C43.2816 46.8344 42.9322 46.1519 42.7737 45.3719ZM37.2487 46.5216L37.2406 46.5175V46.5134C37.1106 45.8837 37.0416 45.2459 37.0334 44.6041C38.1912 45.5872 39.7959 46.2291 41.8272 46.5094C41.8759 46.6312 41.9287 46.7491 41.9816 46.8709C39.9666 47.6022 38.4066 47.4844 37.2487 46.5216Z" fill="#5CE1E6"/>
<path d="M46.8078 48.8087C46.0156 48.7803 45.2843 48.5447 44.6222 48.1059C42.4812 49.9137 40.515 50.6572 38.7315 50.3484C38.6422 50.3322 38.5487 50.3362 38.4593 50.3606C38.37 50.385 38.2928 50.4256 38.2197 50.4866C38.1506 50.5434 38.0937 50.6166 38.0572 50.7019C38.0165 50.7872 37.9962 50.8725 37.9962 50.9659C37.9962 51.1081 38.0409 51.2341 38.1303 51.3478C38.89 52.3431 39.7918 53.18 40.8359 53.8666C41.0797 54.0372 41.3478 54.1022 41.6443 54.0697C43.96 53.8462 45.6825 52.0953 46.8078 48.8087ZM41.5143 52.8347C40.9781 52.4812 40.4784 52.0831 40.0234 51.6322C41.5347 51.5062 43.119 50.8237 44.7562 49.5806C44.874 49.6334 44.9959 49.6822 45.1178 49.7269C44.2078 51.6728 43.0256 52.6966 41.5265 52.8387H41.5184L41.5143 52.8347Z" fill="#5CE1E6"/>
<path d="M49.8993 47.6753C49.3143 48.2156 48.6359 48.565 47.8559 48.7275C47.6162 51.5225 46.755 53.4441 45.2722 54.4881C45.0934 54.61 45.004 54.7806 45.004 54.9959C45.004 55.1544 45.0528 55.2966 45.1584 55.4144C45.264 55.5322 45.394 55.6012 45.5525 55.6216C46.7875 55.7881 48.0184 55.7434 49.2412 55.4834C49.5337 55.4347 49.7693 55.2884 49.9522 55.0569C50.6875 54.1672 51.0531 53.1191 51.0531 51.9044C51.0531 50.6653 50.6672 49.2556 49.8993 47.6753ZM49.0015 54.2728L48.9934 54.2769C48.3637 54.4069 47.73 54.4759 47.0881 54.4841C48.0712 53.3222 48.709 51.7134 48.9893 49.6741C49.1112 49.6294 49.229 49.5766 49.3468 49.5237C49.6597 50.3972 49.8222 51.1975 49.8222 51.9044C49.8222 52.8306 49.554 53.6025 49.0056 54.2687L49.0015 54.2728Z" fill="#5CE1E6"/>
<path d="M43.3953 42.13C41.8597 40.2978 41.0919 38.5956 41.0919 37.0275C41.0919 36.7553 41.1122 36.4872 41.1609 36.2231C41.165 36.1866 41.1691 36.1459 41.1691 36.1094C41.165 35.8494 41.0472 35.6625 40.8156 35.5528C40.5841 35.4391 40.3688 35.4594 40.1616 35.6178C39.1703 36.3816 38.3334 37.2834 37.6469 38.3356C37.5088 38.5347 37.4397 38.7541 37.4397 38.9978C37.4397 39.0466 37.4438 39.0913 37.4478 39.14C37.6672 41.4678 39.4181 43.1944 42.6925 44.3238C42.7209 43.5275 42.9566 42.7963 43.3953 42.13ZM38.6747 39.0263V39.0181L38.6788 39.0141C39.0281 38.4738 39.4303 37.9781 39.8772 37.515C39.9991 39.0303 40.6856 40.6228 41.9247 42.2641C41.8719 42.3819 41.8231 42.5038 41.7784 42.6256C39.8366 41.7156 38.8169 40.5294 38.6747 39.0263Z" fill="#5CE1E6"/>
<path d="M51.2035 43.6291C53.9903 43.8728 55.9078 44.7381 56.9478 46.2209C57.1103 46.4566 57.3297 46.5378 57.606 46.4687C57.8863 46.4037 58.0406 46.225 58.0772 45.9447C58.1422 45.4612 58.1747 44.9737 58.1747 44.4862C58.1706 43.7306 58.0935 42.9791 57.9391 42.2397C57.8903 41.9472 57.7441 41.7116 57.5125 41.5287C55.7169 40.0419 53.2631 40.0581 50.1553 41.5816C50.6916 42.1666 51.041 42.8491 51.2035 43.6291ZM56.7285 42.4794L56.7325 42.4834V42.4916C56.8666 43.1212 56.9356 43.755 56.9397 44.4009C55.786 43.4137 54.1813 42.7759 52.146 42.4956C52.1013 42.3737 52.0485 42.2519 51.9916 42.1341C54.0106 41.4028 55.5666 41.5166 56.7285 42.4794Z" fill="#5CE1E6"/>
<path d="M47.1653 40.1922C47.9615 40.2247 48.6887 40.4603 49.3509 40.8991C51.4959 39.0912 53.4581 38.3437 55.2415 38.6566C55.335 38.6728 55.4243 38.6687 55.5137 38.6444C55.6031 38.62 55.6843 38.5794 55.7534 38.5184C55.8265 38.4575 55.8793 38.3844 55.92 38.3031C55.9565 38.2178 55.9768 38.1284 55.9768 38.035C55.9768 37.8928 55.9322 37.7669 55.8468 37.6572C55.0872 36.6619 54.1853 35.8209 53.1372 35.1344C52.8934 34.9637 52.6253 34.8987 52.3328 34.9353C50.0131 35.1547 48.2947 36.9097 47.1653 40.1922ZM52.4587 36.1662C52.999 36.5197 53.4947 36.9219 53.9537 37.3728C52.4384 37.4947 50.854 38.1812 49.2209 39.4244C49.099 39.3716 48.9812 39.3228 48.8553 39.2781C49.7653 37.3281 50.9515 36.3084 52.4506 36.1622H52.4547L52.4587 36.1662Z" fill="#5CE1E6"/>
<path d="M44.0209 33.9481C43.2897 34.8337 42.9241 35.8859 42.9241 37.0966C42.9241 38.3397 43.3059 39.7494 44.0778 41.3256C44.6588 40.7853 45.3413 40.4359 46.1213 40.2775C46.3609 37.4784 47.2222 35.5569 48.705 34.5128C48.8838 34.3909 48.9731 34.2244 48.9691 34.005C48.9731 33.8466 48.9203 33.7084 48.8188 33.5906C48.7131 33.4687 48.5831 33.3997 48.4247 33.3794C47.1856 33.2169 45.9547 33.2616 44.7319 33.5175C44.4434 33.5703 44.2038 33.7125 44.0209 33.9481ZM44.9838 39.3269C44.8659 39.3756 44.7441 39.4244 44.6303 39.4812C44.3134 38.6037 44.155 37.8075 44.155 37.0966C44.155 36.1744 44.4231 35.4025 44.9716 34.7322L44.9756 34.7281H44.9797C45.6094 34.5981 46.2431 34.5291 46.885 34.5209C45.9019 35.6828 45.2681 37.2916 44.9838 39.3269Z" fill="#5CE1E6"/>
<path d="M50.5818 46.8709C52.1175 48.7031 52.8853 50.4053 52.8853 51.9775C52.8853 52.2456 52.8609 52.5138 52.8162 52.7819C52.8081 52.8184 52.8081 52.855 52.8081 52.8956C52.8081 53.1516 52.9259 53.3384 53.1575 53.4522C53.389 53.5659 53.6084 53.5416 53.8115 53.3831C54.8068 52.6234 55.6437 51.7175 56.3262 50.6694C56.4643 50.4703 56.5334 50.2469 56.5334 50.0031C56.5334 49.9584 56.5334 49.9097 56.5293 49.8609C56.3059 47.5372 54.559 45.8106 51.2847 44.6813C51.2522 45.4775 51.0165 46.2088 50.5818 46.8709ZM55.3025 49.9788V49.9828L55.2984 49.9909C54.945 50.5272 54.5468 51.0269 54.0959 51.4859C53.974 49.9706 53.2875 48.3781 52.0525 46.7409C52.1012 46.6191 52.15 46.4972 52.1947 46.3753C54.1406 47.2894 55.1603 48.4756 55.3025 49.9788Z" fill="#5CE1E6"/>
<path d="M46.9866 48.0409C47.4538 48.0409 47.9047 47.9475 48.3394 47.7687C48.77 47.59 49.1519 47.3341 49.481 47.005C49.8141 46.6719 50.066 46.29 50.2488 45.8553C50.4275 45.4206 50.5169 44.9697 50.5169 44.5025C50.5169 44.0312 50.4275 43.5803 50.2488 43.1497C50.07 42.715 49.8141 42.3331 49.481 42C49.1519 41.6669 48.77 41.4109 48.3394 41.2322C47.9047 41.0534 47.4538 40.9641 46.9866 40.9641C46.5194 40.9641 46.0685 41.0534 45.6378 41.2322C45.2072 41.4109 44.8253 41.6669 44.4922 42C44.1631 42.3331 43.9072 42.715 43.7285 43.1456C43.5497 43.5803 43.4603 44.0312 43.4603 44.5025C43.4603 44.9697 43.5497 45.4206 43.7285 45.8553C43.9072 46.2859 44.1631 46.6719 44.4963 47.0009C44.8253 47.3341 45.2072 47.59 45.6378 47.7687C46.0685 47.9475 46.5194 48.0369 46.9866 48.0409ZM46.9866 42.1991C47.2913 42.1991 47.5838 42.2559 47.8681 42.3737C48.1485 42.4916 48.3963 42.6581 48.6116 42.8734C48.8269 43.0887 48.9935 43.3366 49.1072 43.6209C49.225 43.9012 49.2819 44.1978 49.2819 44.5025C49.2819 44.8072 49.225 45.0997 49.1072 45.3841C48.9935 45.6644 48.8269 45.9122 48.6116 46.1275C48.3963 46.3469 48.1485 46.5134 47.8681 46.6272C47.5838 46.745 47.2913 46.8019 46.9866 46.8019C46.6819 46.8019 46.3894 46.745 46.1091 46.6272C45.8288 46.5134 45.581 46.3469 45.3656 46.1275C45.1503 45.9122 44.9838 45.6644 44.866 45.3841C44.7522 45.0997 44.6913 44.8072 44.6913 44.5025C44.6913 44.1978 44.7522 43.9012 44.866 43.6209C44.9838 43.3406 45.1503 43.0887 45.3656 42.8734C45.581 42.6581 45.8288 42.4916 46.1091 42.3737C46.3894 42.26 46.6819 42.1991 46.9866 42.1991Z" fill="#5CE1E6"/>
</svg>
