<svg xmlns="http://www.w3.org/2000/svg" xmlns:xlink="http://www.w3.org/1999/xlink" width="500" zoomAndPan="magnify" viewBox="0 0 375 89.999999" height="120" preserveAspectRatio="xMidYMid meet" version="1.0"><defs><g/><clipPath id="5400019dc4"><path d="M 0 1.203125 L 52.5 1.203125 L 52.5 88.953125 L 0 88.953125 Z M 0 1.203125 " clip-rule="nonzero"/></clipPath></defs><g fill="#ffffff" fill-opacity="1"><g transform="translate(63.566518, 46.221176)"><g><path d="M 15.59375 0.59375 C 12.832031 0.59375 10.164062 0.222656 7.59375 -0.515625 C 5.019531 -1.265625 2.953125 -2.238281 1.390625 -3.4375 L 4.140625 -9.515625 C 5.628906 -8.421875 7.398438 -7.539062 9.453125 -6.875 C 11.515625 -6.207031 13.578125 -5.875 15.640625 -5.875 C 17.929688 -5.875 19.625 -6.210938 20.71875 -6.890625 C 21.8125 -7.578125 22.359375 -8.484375 22.359375 -9.609375 C 22.359375 -10.441406 22.035156 -11.128906 21.390625 -11.671875 C 20.742188 -12.222656 19.910156 -12.664062 18.890625 -13 C 17.878906 -13.332031 16.515625 -13.695312 14.796875 -14.09375 C 12.140625 -14.71875 9.960938 -15.347656 8.265625 -15.984375 C 6.578125 -16.617188 5.125 -17.628906 3.90625 -19.015625 C 2.695312 -20.410156 2.09375 -22.269531 2.09375 -24.59375 C 2.09375 -26.625 2.640625 -28.457031 3.734375 -30.09375 C 4.828125 -31.738281 6.476562 -33.039062 8.6875 -34 C 10.894531 -34.96875 13.59375 -35.453125 16.78125 -35.453125 C 19.007812 -35.453125 21.179688 -35.1875 23.296875 -34.65625 C 25.421875 -34.125 27.28125 -33.363281 28.875 -32.375 L 26.390625 -26.25 C 23.171875 -28.070312 19.953125 -28.984375 16.734375 -28.984375 C 14.472656 -28.984375 12.800781 -28.617188 11.71875 -27.890625 C 10.644531 -27.160156 10.109375 -26.195312 10.109375 -25 C 10.109375 -23.800781 10.726562 -22.910156 11.96875 -22.328125 C 13.21875 -21.753906 15.117188 -21.179688 17.671875 -20.609375 C 20.328125 -19.984375 22.5 -19.351562 24.1875 -18.71875 C 25.882812 -18.09375 27.335938 -17.097656 28.546875 -15.734375 C 29.765625 -14.367188 30.375 -12.523438 30.375 -10.203125 C 30.375 -8.210938 29.816406 -6.394531 28.703125 -4.75 C 27.597656 -3.113281 25.929688 -1.8125 23.703125 -0.84375 C 21.472656 0.113281 18.769531 0.59375 15.59375 0.59375 Z M 15.59375 0.59375 "/></g></g></g><g fill="#ffffff" fill-opacity="1"><g transform="translate(100.556553, 46.221176)"><g><path d="M 4.140625 -34.859375 L 12.203125 -34.859375 L 12.203125 0 L 4.140625 0 Z M 4.140625 -34.859375 "/></g></g></g><g fill="#ffffff" fill-opacity="1"><g transform="translate(122.114377, 46.221176)"><g><path d="M 4.140625 -34.859375 L 12.203125 -34.859375 L 12.203125 -6.578125 L 29.671875 -6.578125 L 29.671875 0 L 4.140625 0 Z M 4.140625 -34.859375 "/></g></g></g><g fill="#ffffff" fill-opacity="1"><g transform="translate(157.411838, 46.221176)"><g><path d="M 4.140625 -34.859375 L 12.203125 -34.859375 L 12.203125 -6.578125 L 29.671875 -6.578125 L 29.671875 0 L 4.140625 0 Z M 4.140625 -34.859375 "/></g></g></g><g fill="#ffffff" fill-opacity="1"><g transform="translate(192.709308, 46.221176)"><g><path d="M 4.140625 -34.859375 L 12.203125 -34.859375 L 12.203125 0 L 4.140625 0 Z M 4.140625 -34.859375 "/></g></g></g><g fill="#ffffff" fill-opacity="1"><g transform="translate(214.267137, 46.221176)"><g><path d="M 20.8125 0.59375 C 17.257812 0.59375 14.046875 -0.175781 11.171875 -1.71875 C 8.304688 -3.257812 6.050781 -5.398438 4.40625 -8.140625 C 2.757812 -10.878906 1.9375 -13.972656 1.9375 -17.421875 C 1.9375 -20.878906 2.757812 -23.976562 4.40625 -26.71875 C 6.050781 -29.457031 8.304688 -31.597656 11.171875 -33.140625 C 14.046875 -34.679688 17.273438 -35.453125 20.859375 -35.453125 C 23.878906 -35.453125 26.609375 -34.921875 29.046875 -33.859375 C 31.492188 -32.796875 33.546875 -31.269531 35.203125 -29.28125 L 30.03125 -24.5 C 27.664062 -27.21875 24.742188 -28.578125 21.265625 -28.578125 C 19.109375 -28.578125 17.179688 -28.101562 15.484375 -27.15625 C 13.796875 -26.21875 12.476562 -24.898438 11.53125 -23.203125 C 10.582031 -21.515625 10.109375 -19.585938 10.109375 -17.421875 C 10.109375 -15.265625 10.582031 -13.335938 11.53125 -11.640625 C 12.476562 -9.953125 13.796875 -8.632812 15.484375 -7.6875 C 17.179688 -6.75 19.109375 -6.28125 21.265625 -6.28125 C 24.742188 -6.28125 27.664062 -7.65625 30.03125 -10.40625 L 35.203125 -5.625 C 33.546875 -3.601562 31.488281 -2.0625 29.03125 -1 C 26.570312 0.0625 23.832031 0.59375 20.8125 0.59375 Z M 20.8125 0.59375 "/></g></g></g><g fill="#ffffff" fill-opacity="1"><g transform="translate(255.986404, 46.221176)"><g><path d="M 21.015625 0.59375 C 17.398438 0.59375 14.140625 -0.179688 11.234375 -1.734375 C 8.328125 -3.296875 6.050781 -5.445312 4.40625 -8.1875 C 2.757812 -10.925781 1.9375 -14.003906 1.9375 -17.421875 C 1.9375 -20.847656 2.757812 -23.929688 4.40625 -26.671875 C 6.050781 -29.410156 8.328125 -31.554688 11.234375 -33.109375 C 14.140625 -34.671875 17.398438 -35.453125 21.015625 -35.453125 C 24.628906 -35.453125 27.878906 -34.671875 30.765625 -33.109375 C 33.660156 -31.554688 35.9375 -29.410156 37.59375 -26.671875 C 39.257812 -23.929688 40.09375 -20.847656 40.09375 -17.421875 C 40.09375 -14.003906 39.257812 -10.925781 37.59375 -8.1875 C 35.9375 -5.445312 33.660156 -3.296875 30.765625 -1.734375 C 27.878906 -0.179688 24.628906 0.59375 21.015625 0.59375 Z M 21.015625 -6.28125 C 23.078125 -6.28125 24.9375 -6.75 26.59375 -7.6875 C 28.25 -8.632812 29.550781 -9.953125 30.5 -11.640625 C 31.445312 -13.335938 31.921875 -15.265625 31.921875 -17.421875 C 31.921875 -19.585938 31.445312 -21.515625 30.5 -23.203125 C 29.550781 -24.898438 28.25 -26.21875 26.59375 -27.15625 C 24.9375 -28.101562 23.078125 -28.578125 21.015625 -28.578125 C 18.953125 -28.578125 17.09375 -28.101562 15.4375 -27.15625 C 13.78125 -26.21875 12.476562 -24.898438 11.53125 -23.203125 C 10.582031 -21.515625 10.109375 -19.585938 10.109375 -17.421875 C 10.109375 -15.265625 10.582031 -13.335938 11.53125 -11.640625 C 12.476562 -9.953125 13.78125 -8.632812 15.4375 -7.6875 C 17.09375 -6.75 18.953125 -6.28125 21.015625 -6.28125 Z M 21.015625 -6.28125 "/></g></g></g><g fill="#ffffff" fill-opacity="1"><g transform="translate(303.231386, 46.221176)"><g><path d="M 36.109375 -34.859375 L 36.109375 0 L 29.484375 0 L 12.09375 -21.15625 L 12.09375 0 L 4.140625 0 L 4.140625 -34.859375 L 10.8125 -34.859375 L 28.140625 -13.6875 L 28.140625 -34.859375 Z M 36.109375 -34.859375 "/></g></g></g><g fill="#ffffff" fill-opacity="1"><g transform="translate(92.759928, 81.634882)"><g><path d="M 5.703125 -14.203125 L 0.09375 -14.203125 L 0.09375 -17.5 L 15.34375 -17.5 L 15.34375 -14.203125 L 9.75 -14.203125 L 9.75 0 L 5.703125 0 Z M 5.703125 -14.203125 "/></g></g></g><g fill="#ffffff" fill-opacity="1"><g transform="translate(114.334217, 81.634882)"><g><path d="M 15.625 -3.25 L 15.625 0 L 2.078125 0 L 2.078125 -17.5 L 15.296875 -17.5 L 15.296875 -14.25 L 6.09375 -14.25 L 6.09375 -10.453125 L 14.21875 -10.453125 L 14.21875 -7.296875 L 6.09375 -7.296875 L 6.09375 -3.25 Z M 15.625 -3.25 "/></g></g></g><g fill="#ffffff" fill-opacity="1"><g transform="translate(137.233289, 81.634882)"><g><path d="M 10.453125 0.296875 C 8.671875 0.296875 7.054688 -0.0859375 5.609375 -0.859375 C 4.171875 -1.640625 3.035156 -2.71875 2.203125 -4.09375 C 1.378906 -5.46875 0.96875 -7.019531 0.96875 -8.75 C 0.96875 -10.476562 1.378906 -12.03125 2.203125 -13.40625 C 3.035156 -14.78125 4.171875 -15.851562 5.609375 -16.625 C 7.054688 -17.40625 8.675781 -17.796875 10.46875 -17.796875 C 11.988281 -17.796875 13.359375 -17.53125 14.578125 -17 C 15.804688 -16.46875 16.835938 -15.703125 17.671875 -14.703125 L 15.078125 -12.296875 C 13.890625 -13.660156 12.421875 -14.34375 10.671875 -14.34375 C 9.585938 -14.34375 8.617188 -14.101562 7.765625 -13.625 C 6.921875 -13.15625 6.257812 -12.492188 5.78125 -11.640625 C 5.3125 -10.796875 5.078125 -9.832031 5.078125 -8.75 C 5.078125 -7.664062 5.3125 -6.695312 5.78125 -5.84375 C 6.257812 -5 6.921875 -4.335938 7.765625 -3.859375 C 8.617188 -3.390625 9.585938 -3.15625 10.671875 -3.15625 C 12.421875 -3.15625 13.890625 -3.84375 15.078125 -5.21875 L 17.671875 -2.828125 C 16.835938 -1.804688 15.800781 -1.03125 14.5625 -0.5 C 13.332031 0.03125 11.960938 0.296875 10.453125 0.296875 Z M 10.453125 0.296875 "/></g></g></g><g fill="#ffffff" fill-opacity="1"><g transform="translate(161.682086, 81.634882)"><g><path d="M 18.125 -17.5 L 18.125 0 L 14.078125 0 L 14.078125 -7.171875 L 6.125 -7.171875 L 6.125 0 L 2.078125 0 L 2.078125 -17.5 L 6.125 -17.5 L 6.125 -10.59375 L 14.078125 -10.59375 L 14.078125 -17.5 Z M 18.125 -17.5 "/></g></g></g><g fill="#ffffff" fill-opacity="1"><g transform="translate(188.005562, 81.634882)"><g/></g></g><g fill="#5b43d6" fill-opacity="1"><g transform="translate(201.195319, 81.634882)"><g><path d="M 7.828125 0.296875 C 6.441406 0.296875 5.101562 0.109375 3.8125 -0.265625 C 2.519531 -0.640625 1.484375 -1.125 0.703125 -1.71875 L 2.078125 -4.78125 C 2.828125 -4.226562 3.71875 -3.785156 4.75 -3.453125 C 5.78125 -3.117188 6.8125 -2.953125 7.84375 -2.953125 C 9 -2.953125 9.847656 -3.117188 10.390625 -3.453125 C 10.941406 -3.796875 11.21875 -4.253906 11.21875 -4.828125 C 11.21875 -5.242188 11.054688 -5.585938 10.734375 -5.859375 C 10.410156 -6.140625 9.992188 -6.363281 9.484375 -6.53125 C 8.972656 -6.695312 8.285156 -6.878906 7.421875 -7.078125 C 6.085938 -7.390625 4.992188 -7.703125 4.140625 -8.015625 C 3.296875 -8.335938 2.566406 -8.847656 1.953125 -9.546875 C 1.347656 -10.242188 1.046875 -11.175781 1.046875 -12.34375 C 1.046875 -13.363281 1.320312 -14.285156 1.875 -15.109375 C 2.425781 -15.929688 3.253906 -16.582031 4.359375 -17.0625 C 5.472656 -17.550781 6.828125 -17.796875 8.421875 -17.796875 C 9.535156 -17.796875 10.625 -17.660156 11.6875 -17.390625 C 12.757812 -17.128906 13.695312 -16.75 14.5 -16.25 L 13.25 -13.171875 C 11.632812 -14.085938 10.019531 -14.546875 8.40625 -14.546875 C 7.269531 -14.546875 6.429688 -14.363281 5.890625 -14 C 5.347656 -13.632812 5.078125 -13.148438 5.078125 -12.546875 C 5.078125 -11.953125 5.390625 -11.507812 6.015625 -11.21875 C 6.640625 -10.925781 7.59375 -10.632812 8.875 -10.34375 C 10.207031 -10.03125 11.296875 -9.710938 12.140625 -9.390625 C 12.992188 -9.078125 13.722656 -8.578125 14.328125 -7.890625 C 14.941406 -7.210938 15.25 -6.289062 15.25 -5.125 C 15.25 -4.125 14.96875 -3.210938 14.40625 -2.390625 C 13.851562 -1.566406 13.015625 -0.910156 11.890625 -0.421875 C 10.773438 0.0546875 9.421875 0.296875 7.828125 0.296875 Z M 7.828125 0.296875 "/></g></g></g><g fill="#5b43d6" fill-opacity="1"><g transform="translate(223.269525, 81.634882)"><g><path d="M 5.703125 -14.203125 L 0.09375 -14.203125 L 0.09375 -17.5 L 15.34375 -17.5 L 15.34375 -14.203125 L 9.75 -14.203125 L 9.75 0 L 5.703125 0 Z M 5.703125 -14.203125 "/></g></g></g><g fill="#5b43d6" fill-opacity="1"><g transform="translate(244.843815, 81.634882)"><g><path d="M 10.546875 0.296875 C 8.734375 0.296875 7.097656 -0.09375 5.640625 -0.875 C 4.179688 -1.65625 3.035156 -2.734375 2.203125 -4.109375 C 1.378906 -5.484375 0.96875 -7.03125 0.96875 -8.75 C 0.96875 -10.46875 1.378906 -12.015625 2.203125 -13.390625 C 3.035156 -14.765625 4.179688 -15.84375 5.640625 -16.625 C 7.097656 -17.40625 8.734375 -17.796875 10.546875 -17.796875 C 12.367188 -17.796875 14.003906 -17.40625 15.453125 -16.625 C 16.898438 -15.84375 18.039062 -14.765625 18.875 -13.390625 C 19.707031 -12.015625 20.125 -10.46875 20.125 -8.75 C 20.125 -7.03125 19.707031 -5.484375 18.875 -4.109375 C 18.039062 -2.734375 16.898438 -1.65625 15.453125 -0.875 C 14.003906 -0.09375 12.367188 0.296875 10.546875 0.296875 Z M 10.546875 -3.15625 C 11.578125 -3.15625 12.507812 -3.390625 13.34375 -3.859375 C 14.175781 -4.335938 14.832031 -5 15.3125 -5.84375 C 15.789062 -6.695312 16.03125 -7.664062 16.03125 -8.75 C 16.03125 -9.832031 15.789062 -10.796875 15.3125 -11.640625 C 14.832031 -12.492188 14.175781 -13.15625 13.34375 -13.625 C 12.507812 -14.101562 11.578125 -14.34375 10.546875 -14.34375 C 9.515625 -14.34375 8.582031 -14.101562 7.75 -13.625 C 6.914062 -13.15625 6.257812 -12.492188 5.78125 -11.640625 C 5.3125 -10.796875 5.078125 -9.832031 5.078125 -8.75 C 5.078125 -7.664062 5.3125 -6.695312 5.78125 -5.84375 C 6.257812 -5 6.914062 -4.335938 7.75 -3.859375 C 8.582031 -3.390625 9.515625 -3.15625 10.546875 -3.15625 Z M 10.546875 -3.15625 "/></g></g></g><g fill="#5b43d6" fill-opacity="1"><g transform="translate(272.067114, 81.634882)"><g><path d="M 13.21875 0 L 9.84375 -4.875 L 6.125 -4.875 L 6.125 0 L 2.078125 0 L 2.078125 -17.5 L 9.65625 -17.5 C 11.195312 -17.5 12.539062 -17.238281 13.6875 -16.71875 C 14.832031 -16.207031 15.710938 -15.472656 16.328125 -14.515625 C 16.941406 -13.566406 17.25 -12.445312 17.25 -11.15625 C 17.25 -9.851562 16.9375 -8.726562 16.3125 -7.78125 C 15.6875 -6.84375 14.800781 -6.125 13.65625 -5.625 L 17.578125 0 Z M 13.15625 -11.15625 C 13.15625 -12.132812 12.835938 -12.882812 12.203125 -13.40625 C 11.566406 -13.9375 10.640625 -14.203125 9.421875 -14.203125 L 6.125 -14.203125 L 6.125 -8.09375 L 9.421875 -8.09375 C 10.640625 -8.09375 11.566406 -8.359375 12.203125 -8.890625 C 12.835938 -9.429688 13.15625 -10.1875 13.15625 -11.15625 Z M 13.15625 -11.15625 "/></g></g></g><g fill="#5b43d6" fill-opacity="1"><g transform="translate(296.565909, 81.634882)"><g><path d="M 15.625 -3.25 L 15.625 0 L 2.078125 0 L 2.078125 -17.5 L 15.296875 -17.5 L 15.296875 -14.25 L 6.09375 -14.25 L 6.09375 -10.453125 L 14.21875 -10.453125 L 14.21875 -7.296875 L 6.09375 -7.296875 L 6.09375 -3.25 Z M 15.625 -3.25 "/></g></g></g><g clip-path="url(#5400019dc4)"><path fill="#5ce1e6" d="M 8.054688 3.328125 L 8.054688 78.949219 L 0.601562 78.949219 C 0.4375 78.949219 0.296875 79.007812 0.183594 79.125 C 0.0664062 79.242188 0.0078125 79.378906 0.0078125 79.542969 L 0.0078125 88.359375 C 0.0078125 88.523438 0.0664062 88.664062 0.183594 88.78125 C 0.296875 88.898438 0.4375 88.953125 0.601562 88.953125 L 4.773438 88.953125 C 4.9375 88.953125 5.078125 88.898438 5.191406 88.78125 C 5.308594 88.664062 5.367188 88.523438 5.367188 88.359375 L 5.367188 83.574219 L 51.898438 83.574219 C 52.058594 83.574219 52.199219 83.515625 52.316406 83.402344 C 52.429688 83.285156 52.488281 83.144531 52.488281 82.980469 L 52.488281 79.539062 C 52.488281 79.375 52.429688 79.234375 52.316406 79.117188 C 52.199219 79 52.058594 78.945312 51.898438 78.945312 L 45.894531 78.945312 L 45.894531 73.664062 L 51.898438 73.664062 C 52.058594 73.664062 52.199219 73.605469 52.316406 73.492188 C 52.429688 73.375 52.488281 73.234375 52.488281 73.070312 L 52.488281 23.011719 C 52.488281 22.847656 52.429688 22.710938 52.316406 22.59375 C 52.199219 22.476562 52.058594 22.417969 51.898438 22.417969 L 45.894531 22.417969 L 45.894531 18.601562 L 51.898438 18.601562 C 52.058594 18.601562 52.199219 18.542969 52.316406 18.425781 C 52.429688 18.3125 52.488281 18.171875 52.488281 18.007812 L 52.488281 7.996094 C 52.488281 7.832031 52.429688 7.691406 52.316406 7.578125 C 52.199219 7.460938 52.058594 7.402344 51.898438 7.402344 L 45.894531 7.402344 L 45.894531 3.328125 C 45.894531 3.046875 45.839844 2.777344 45.734375 2.515625 C 45.625 2.253906 45.472656 2.023438 45.273438 1.824219 C 45.074219 1.625 44.84375 1.472656 44.585938 1.363281 C 44.324219 1.253906 44.054688 1.203125 43.773438 1.203125 L 10.179688 1.203125 C 9.898438 1.203125 9.625 1.253906 9.367188 1.363281 C 9.105469 1.472656 8.878906 1.625 8.679688 1.824219 C 8.480469 2.023438 8.324219 2.253906 8.21875 2.515625 C 8.109375 2.777344 8.054688 3.046875 8.054688 3.328125 Z M 51.304688 82.386719 L 4.773438 82.386719 C 4.609375 82.386719 4.46875 82.445312 4.355469 82.5625 C 4.238281 82.675781 4.179688 82.816406 4.179688 82.980469 L 4.179688 87.765625 L 1.191406 87.765625 L 1.191406 80.136719 L 51.304688 80.132812 Z M 9.242188 15.78125 L 12.675781 19.226562 L 12.675781 64.9375 L 9.242188 68.382812 Z M 44.710938 68.777344 L 41.097656 65.15625 L 41.097656 19.441406 L 44.710938 15.820312 Z M 45.933594 72.476562 L 45.933594 68.660156 L 51.304688 68.660156 L 51.304688 72.476562 Z M 45.933594 67.472656 L 45.933594 63.652344 L 51.304688 63.652344 L 51.304688 67.472656 Z M 45.933594 62.464844 L 45.933594 58.648438 L 51.304688 58.648438 L 51.304688 62.464844 Z M 45.933594 57.460938 L 45.933594 53.640625 L 51.304688 53.640625 L 51.304688 57.460938 Z M 45.933594 52.453125 L 45.933594 48.636719 L 51.304688 48.636719 L 51.304688 52.453125 Z M 45.933594 47.449219 L 45.933594 43.628906 L 51.304688 43.628906 L 51.304688 47.449219 Z M 45.933594 42.441406 L 45.933594 38.625 L 51.304688 38.625 L 51.304688 42.441406 Z M 45.933594 37.4375 L 45.933594 33.617188 L 51.304688 33.617188 L 51.304688 37.4375 Z M 45.933594 32.429688 L 45.933594 28.613281 L 51.304688 28.613281 L 51.304688 32.429688 Z M 51.304688 23.605469 L 51.304688 27.425781 L 45.933594 27.425781 L 45.933594 23.605469 Z M 45.933594 17.414062 L 45.933594 13.597656 L 51.304688 13.597656 L 51.304688 17.414062 Z M 51.304688 8.589844 L 51.304688 12.40625 L 45.933594 12.40625 L 45.933594 8.589844 Z M 43.773438 2.390625 C 44.03125 2.390625 44.253906 2.480469 44.4375 2.664062 C 44.617188 2.847656 44.710938 3.070312 44.710938 3.328125 L 44.710938 14.28125 C 44.59375 14.304688 44.492188 14.359375 44.410156 14.445312 L 40.089844 18.777344 C 39.972656 18.890625 39.914062 19.03125 39.914062 19.195312 L 39.914062 65.402344 C 39.914062 65.566406 39.972656 65.707031 40.089844 65.824219 L 44.191406 69.9375 C 44.335938 70.082031 44.507812 70.136719 44.710938 70.101562 L 44.710938 78.945312 L 9.242188 78.945312 L 9.242188 70.03125 C 9.285156 70.003906 9.328125 69.972656 9.367188 69.9375 L 13.6875 65.605469 C 13.800781 65.488281 13.859375 65.351562 13.859375 65.1875 L 13.859375 18.980469 C 13.859375 18.816406 13.800781 18.675781 13.6875 18.558594 L 9.582031 14.445312 C 9.488281 14.347656 9.371094 14.292969 9.242188 14.277344 L 9.242188 3.328125 C 9.242188 3.070312 9.332031 2.847656 9.515625 2.664062 C 9.699219 2.480469 9.917969 2.390625 10.179688 2.390625 Z M 43.773438 2.390625 " fill-opacity="1" fill-rule="nonzero"/></g><path fill="#5ce1e6" d="M 22.859375 66.554688 C 20.175781 66.320312 18.335938 65.492188 17.335938 64.0625 C 17.175781 63.835938 16.964844 63.757812 16.699219 63.824219 C 16.433594 63.890625 16.28125 64.058594 16.246094 64.332031 C 16.1875 64.796875 16.15625 65.261719 16.15625 65.734375 C 16.15625 66.460938 16.230469 67.179688 16.378906 67.890625 C 16.429688 68.171875 16.566406 68.402344 16.789062 68.578125 C 18.515625 70.007812 20.875 69.988281 23.867188 68.523438 C 23.347656 67.960938 23.011719 67.304688 22.859375 66.554688 Z M 17.546875 67.660156 L 17.539062 67.65625 L 17.539062 67.652344 C 17.414062 67.046875 17.347656 66.433594 17.339844 65.8125 C 18.453125 66.761719 19.996094 67.375 21.949219 67.648438 C 21.996094 67.765625 22.046875 67.878906 22.097656 67.996094 C 20.160156 68.699219 18.660156 68.585938 17.546875 67.660156 Z M 17.546875 67.660156 " fill-opacity="1" fill-rule="nonzero"/><path fill="#5ce1e6" d="M 26.738281 69.859375 C 25.976562 69.832031 25.273438 69.605469 24.636719 69.183594 C 22.578125 70.917969 20.6875 71.636719 18.972656 71.335938 C 18.886719 71.320312 18.796875 71.324219 18.710938 71.347656 C 18.625 71.371094 18.550781 71.414062 18.480469 71.46875 C 18.414062 71.527344 18.359375 71.597656 18.324219 71.679688 C 18.285156 71.757812 18.265625 71.84375 18.265625 71.933594 C 18.265625 72.070312 18.308594 72.191406 18.394531 72.296875 C 19.125 73.253906 19.992188 74.0625 20.996094 74.722656 C 21.230469 74.886719 21.488281 74.949219 21.773438 74.914062 C 24 74.703125 25.65625 73.019531 26.738281 69.859375 Z M 21.648438 73.730469 C 21.132812 73.390625 20.652344 73.003906 20.214844 72.574219 C 21.667969 72.453125 23.191406 71.792969 24.765625 70.601562 C 24.878906 70.652344 24.996094 70.699219 25.113281 70.738281 C 24.238281 72.613281 23.101562 73.597656 21.660156 73.734375 L 21.652344 73.734375 Z M 21.648438 73.730469 " fill-opacity="1" fill-rule="nonzero"/><path fill="#5ce1e6" d="M 29.710938 68.769531 C 29.148438 69.289062 28.496094 69.625 27.746094 69.78125 C 27.515625 72.46875 26.6875 74.316406 25.261719 75.320312 C 25.089844 75.4375 25.003906 75.601562 25.003906 75.808594 C 25.003906 75.960938 25.050781 76.09375 25.152344 76.210938 C 25.253906 76.324219 25.378906 76.390625 25.53125 76.410156 C 26.71875 76.570312 27.902344 76.527344 29.078125 76.277344 C 29.359375 76.230469 29.585938 76.089844 29.761719 75.867188 C 30.46875 75.011719 30.820312 74.003906 30.820312 72.835938 C 30.820312 71.644531 30.449219 70.289062 29.710938 68.769531 Z M 28.847656 75.113281 L 28.839844 75.113281 C 28.234375 75.242188 27.625 75.308594 27.007812 75.3125 C 27.953125 74.199219 28.566406 72.652344 28.835938 70.691406 C 28.953125 70.648438 29.066406 70.597656 29.179688 70.542969 C 29.480469 71.386719 29.636719 72.15625 29.636719 72.835938 C 29.636719 73.722656 29.378906 74.46875 28.851562 75.109375 Z M 28.847656 75.113281 " fill-opacity="1" fill-rule="nonzero"/><path fill="#5ce1e6" d="M 23.457031 63.4375 C 21.980469 61.675781 21.242188 60.039062 21.242188 58.527344 C 21.242188 58.269531 21.261719 58.011719 21.308594 57.757812 C 21.3125 57.722656 21.316406 57.683594 21.316406 57.648438 C 21.3125 57.398438 21.199219 57.21875 20.976562 57.113281 C 20.753906 57.003906 20.546875 57.023438 20.347656 57.175781 C 19.394531 57.910156 18.589844 58.777344 17.929688 59.785156 C 17.796875 59.980469 17.730469 60.191406 17.730469 60.425781 C 17.730469 60.472656 17.734375 60.515625 17.738281 60.5625 C 17.949219 62.796875 19.632812 64.457031 22.78125 65.542969 C 22.808594 64.777344 23.035156 64.078125 23.457031 63.4375 Z M 18.917969 60.449219 L 18.917969 60.445312 L 18.921875 60.441406 C 19.257812 59.921875 19.644531 59.441406 20.074219 59 C 20.191406 60.457031 20.851562 61.988281 22.042969 63.566406 C 21.992188 63.679688 21.945312 63.796875 21.902344 63.914062 C 20.035156 63.039062 19.054688 61.898438 18.917969 60.449219 Z M 18.917969 60.449219 " fill-opacity="1" fill-rule="nonzero"/><path fill="#5ce1e6" d="M 30.964844 64.878906 C 33.644531 65.113281 35.488281 65.945312 36.488281 67.371094 C 36.644531 67.597656 36.855469 67.675781 37.121094 67.609375 C 37.390625 67.546875 37.539062 67.375 37.574219 67.101562 C 37.636719 66.636719 37.667969 66.171875 37.667969 65.703125 C 37.664062 64.976562 37.589844 64.253906 37.441406 63.542969 C 37.394531 63.261719 37.253906 63.035156 37.03125 62.859375 C 35.304688 61.425781 32.945312 61.445312 29.957031 62.910156 C 30.472656 63.472656 30.808594 64.128906 30.964844 64.878906 Z M 36.277344 63.773438 L 36.28125 63.777344 L 36.28125 63.78125 C 36.410156 64.390625 36.476562 65 36.480469 65.621094 C 35.371094 64.671875 33.828125 64.058594 31.871094 63.785156 C 31.828125 63.671875 31.777344 63.554688 31.722656 63.441406 C 33.664062 62.738281 35.160156 62.847656 36.277344 63.773438 Z M 36.277344 63.773438 " fill-opacity="1" fill-rule="nonzero"/><path fill="#5ce1e6" d="M 27.082031 61.574219 C 27.847656 61.605469 28.546875 61.832031 29.183594 62.253906 C 31.246094 60.515625 33.132812 59.796875 34.847656 60.097656 C 34.9375 60.113281 35.023438 60.109375 35.109375 60.085938 C 35.195312 60.0625 35.273438 60.023438 35.339844 59.964844 C 35.410156 59.90625 35.460938 59.835938 35.5 59.757812 C 35.535156 59.675781 35.554688 59.589844 35.554688 59.5 C 35.554688 59.363281 35.511719 59.242188 35.429688 59.136719 C 34.699219 58.179688 33.832031 57.371094 32.824219 56.710938 C 32.589844 56.546875 32.332031 56.484375 32.050781 56.519531 C 29.820312 56.730469 28.167969 58.417969 27.082031 61.574219 Z M 32.171875 57.703125 C 32.691406 58.042969 33.167969 58.429688 33.609375 58.863281 C 32.152344 58.980469 30.628906 59.640625 29.058594 60.835938 C 28.941406 60.785156 28.828125 60.738281 28.707031 60.695312 C 29.582031 58.820312 30.722656 57.839844 32.164062 57.699219 L 32.167969 57.699219 Z M 32.171875 57.703125 " fill-opacity="1" fill-rule="nonzero"/><path fill="#5ce1e6" d="M 24.058594 55.570312 C 23.355469 56.421875 23.003906 57.433594 23.003906 58.597656 C 23.003906 59.789062 23.371094 61.148438 24.113281 62.664062 C 24.671875 62.144531 25.328125 61.808594 26.078125 61.652344 C 26.308594 58.964844 27.136719 57.117188 28.5625 56.113281 C 28.734375 55.996094 28.816406 55.832031 28.816406 55.625 C 28.820312 55.472656 28.769531 55.339844 28.671875 55.222656 C 28.570312 55.109375 28.445312 55.042969 28.292969 55.023438 C 27.101562 54.863281 25.917969 54.910156 24.742188 55.15625 C 24.464844 55.207031 24.234375 55.34375 24.058594 55.570312 Z M 24.984375 60.742188 C 24.871094 60.789062 24.753906 60.835938 24.644531 60.890625 C 24.339844 60.046875 24.1875 59.28125 24.1875 58.597656 C 24.1875 57.710938 24.445312 56.964844 24.972656 56.324219 L 24.976562 56.320312 L 24.980469 56.320312 C 25.585938 56.195312 26.195312 56.128906 26.8125 56.121094 C 25.867188 57.234375 25.257812 58.78125 24.984375 60.742188 Z M 24.984375 60.742188 " fill-opacity="1" fill-rule="nonzero"/><path fill="#5ce1e6" d="M 30.367188 67.996094 C 31.84375 69.757812 32.582031 71.394531 32.582031 72.90625 C 32.582031 73.164062 32.558594 73.421875 32.515625 73.675781 C 32.507812 73.714844 32.507812 73.75 32.507812 73.789062 C 32.507812 74.035156 32.621094 74.214844 32.84375 74.324219 C 33.066406 74.433594 33.277344 74.410156 33.472656 74.257812 C 34.429688 73.527344 35.234375 72.65625 35.890625 71.648438 C 36.023438 71.457031 36.089844 71.242188 36.089844 71.007812 C 36.089844 70.964844 36.089844 70.917969 36.082031 70.871094 C 35.871094 68.636719 34.191406 66.976562 31.042969 65.890625 C 31.011719 66.65625 30.785156 67.359375 30.367188 67.996094 Z M 34.90625 70.984375 L 34.90625 70.988281 L 34.902344 70.996094 C 34.5625 71.511719 34.179688 71.992188 33.746094 72.433594 C 33.628906 70.976562 32.96875 69.445312 31.78125 67.871094 C 31.828125 67.753906 31.875 67.636719 31.917969 67.519531 C 33.789062 68.398438 34.769531 69.539062 34.90625 70.984375 Z M 34.90625 70.984375 " fill-opacity="1" fill-rule="nonzero"/><path fill="#5ce1e6" d="M 26.910156 69.117188 C 27.359375 69.117188 27.792969 69.03125 28.210938 68.859375 C 28.625 68.6875 28.992188 68.441406 29.308594 68.121094 C 29.628906 67.804688 29.871094 67.4375 30.046875 67.019531 C 30.21875 66.601562 30.304688 66.167969 30.304688 65.71875 C 30.304688 65.265625 30.21875 64.832031 30.046875 64.414062 C 29.871094 64 29.628906 63.632812 29.308594 63.3125 C 28.992188 62.992188 28.625 62.746094 28.210938 62.574219 C 27.792969 62.402344 27.359375 62.316406 26.910156 62.316406 C 26.460938 62.316406 26.027344 62.402344 25.613281 62.574219 C 25.199219 62.746094 24.832031 62.992188 24.511719 63.3125 C 24.195312 63.632812 23.949219 64 23.777344 64.414062 C 23.605469 64.832031 23.519531 65.265625 23.519531 65.71875 C 23.519531 66.167969 23.605469 66.601562 23.777344 67.019531 C 23.949219 67.433594 24.195312 67.800781 24.515625 68.121094 C 24.832031 68.441406 25.199219 68.6875 25.613281 68.859375 C 26.027344 69.03125 26.460938 69.117188 26.910156 69.117188 Z M 26.910156 63.503906 C 27.203125 63.503906 27.484375 63.558594 27.757812 63.671875 C 28.027344 63.785156 28.265625 63.945312 28.472656 64.152344 C 28.679688 64.359375 28.839844 64.597656 28.949219 64.871094 C 29.0625 65.140625 29.117188 65.425781 29.117188 65.71875 C 29.117188 66.011719 29.0625 66.292969 28.949219 66.566406 C 28.839844 66.835938 28.679688 67.074219 28.472656 67.28125 C 28.265625 67.492188 28.027344 67.648438 27.757812 67.761719 C 27.484375 67.875 27.203125 67.929688 26.910156 67.929688 C 26.617188 67.929688 26.335938 67.875 26.066406 67.761719 C 25.796875 67.648438 25.558594 67.492188 25.351562 67.28125 C 25.144531 67.074219 24.984375 66.835938 24.871094 66.566406 C 24.761719 66.292969 24.703125 66.011719 24.703125 65.71875 C 24.703125 65.425781 24.761719 65.140625 24.871094 64.871094 C 24.984375 64.601562 25.144531 64.359375 25.351562 64.152344 C 25.558594 63.945312 25.796875 63.785156 26.066406 63.671875 C 26.335938 63.5625 26.617188 63.503906 26.910156 63.503906 Z M 26.910156 63.503906 " fill-opacity="1" fill-rule="nonzero"/><path fill="#5ce1e6" d="M 22.859375 41.75 C 20.175781 41.519531 18.335938 40.6875 17.335938 39.257812 C 17.175781 39.035156 16.964844 38.953125 16.699219 39.019531 C 16.433594 39.085938 16.28125 39.253906 16.246094 39.527344 C 16.1875 39.992188 16.15625 40.457031 16.15625 40.929688 C 16.15625 41.65625 16.230469 42.375 16.378906 43.085938 C 16.429688 43.367188 16.566406 43.597656 16.789062 43.773438 C 18.515625 45.203125 20.875 45.183594 23.867188 43.71875 C 23.347656 43.15625 23.011719 42.5 22.859375 41.75 Z M 17.546875 42.855469 L 17.539062 42.851562 L 17.539062 42.847656 C 17.414062 42.242188 17.347656 41.628906 17.339844 41.007812 C 18.453125 41.957031 19.996094 42.570312 21.949219 42.84375 C 21.996094 42.960938 22.046875 43.074219 22.097656 43.191406 C 20.160156 43.894531 18.660156 43.78125 17.546875 42.855469 Z M 17.546875 42.855469 " fill-opacity="1" fill-rule="nonzero"/><path fill="#5ce1e6" d="M 26.738281 45.054688 C 25.976562 45.027344 25.273438 44.800781 24.636719 44.378906 C 22.578125 46.113281 20.6875 46.832031 18.972656 46.53125 C 18.886719 46.519531 18.796875 46.523438 18.710938 46.546875 C 18.625 46.566406 18.550781 46.609375 18.480469 46.667969 C 18.414062 46.722656 18.359375 46.792969 18.324219 46.875 C 18.285156 46.953125 18.265625 47.039062 18.265625 47.128906 C 18.265625 47.265625 18.308594 47.386719 18.394531 47.496094 C 19.125 48.449219 19.992188 49.257812 20.996094 49.917969 C 21.230469 50.082031 21.488281 50.144531 21.773438 50.113281 C 24 49.898438 25.65625 48.214844 26.738281 45.054688 Z M 21.648438 48.925781 C 21.132812 48.585938 20.652344 48.199219 20.214844 47.769531 C 21.667969 47.648438 23.191406 46.988281 24.765625 45.796875 C 24.878906 45.847656 24.996094 45.890625 25.113281 45.933594 C 24.238281 47.808594 23.101562 48.792969 21.660156 48.929688 L 21.652344 48.929688 Z M 21.648438 48.925781 " fill-opacity="1" fill-rule="nonzero"/><path fill="#5ce1e6" d="M 29.710938 43.964844 C 29.148438 44.484375 28.496094 44.820312 27.746094 44.976562 C 27.515625 47.664062 26.6875 49.511719 25.261719 50.515625 C 25.089844 50.632812 25.003906 50.796875 25.003906 51.003906 C 25.003906 51.15625 25.050781 51.289062 25.152344 51.40625 C 25.253906 51.519531 25.378906 51.585938 25.53125 51.605469 C 26.71875 51.765625 27.902344 51.722656 29.078125 51.472656 C 29.359375 51.425781 29.585938 51.285156 29.761719 51.0625 C 30.46875 50.207031 30.820312 49.199219 30.820312 48.03125 C 30.820312 46.839844 30.449219 45.484375 29.710938 43.964844 Z M 28.847656 50.308594 L 28.839844 50.308594 C 28.234375 50.4375 27.625 50.503906 27.007812 50.507812 C 27.953125 49.394531 28.566406 47.847656 28.835938 45.886719 C 28.953125 45.84375 29.066406 45.792969 29.179688 45.738281 C 29.480469 46.582031 29.636719 47.351562 29.636719 48.03125 C 29.636719 48.921875 29.378906 49.664062 28.851562 50.304688 Z M 28.847656 50.308594 " fill-opacity="1" fill-rule="nonzero"/><path fill="#5ce1e6" d="M 23.457031 38.632812 C 21.980469 36.871094 21.242188 35.234375 21.242188 33.726562 C 21.242188 33.464844 21.261719 33.207031 21.308594 32.953125 C 21.3125 32.917969 21.316406 32.878906 21.316406 32.84375 C 21.3125 32.59375 21.199219 32.414062 20.976562 32.308594 C 20.753906 32.199219 20.546875 32.21875 20.347656 32.371094 C 19.394531 33.105469 18.589844 33.972656 17.929688 34.980469 C 17.796875 35.175781 17.730469 35.386719 17.730469 35.621094 C 17.730469 35.667969 17.734375 35.710938 17.738281 35.757812 C 17.949219 37.992188 19.632812 39.65625 22.78125 40.738281 C 22.808594 39.976562 23.035156 39.273438 23.457031 38.632812 Z M 18.917969 35.644531 L 18.917969 35.640625 L 18.921875 35.636719 C 19.257812 35.117188 19.644531 34.636719 20.074219 34.195312 C 20.191406 35.652344 20.851562 37.183594 22.042969 38.761719 C 21.992188 38.875 21.945312 38.992188 21.902344 39.109375 C 20.035156 38.234375 19.054688 37.09375 18.917969 35.644531 Z M 18.917969 35.644531 " fill-opacity="1" fill-rule="nonzero"/><path fill="#5ce1e6" d="M 30.964844 40.074219 C 33.644531 40.308594 35.488281 41.140625 36.488281 42.566406 C 36.644531 42.792969 36.855469 42.871094 37.121094 42.804688 C 37.390625 42.742188 37.539062 42.570312 37.574219 42.300781 C 37.636719 41.832031 37.667969 41.367188 37.667969 40.898438 C 37.664062 40.171875 37.589844 39.449219 37.441406 38.738281 C 37.394531 38.457031 37.253906 38.230469 37.03125 38.054688 C 35.304688 36.621094 32.945312 36.640625 29.957031 38.105469 C 30.472656 38.667969 30.808594 39.324219 30.964844 40.074219 Z M 36.277344 38.96875 L 36.28125 38.972656 L 36.28125 38.976562 C 36.410156 39.585938 36.476562 40.195312 36.480469 40.816406 C 35.371094 39.867188 33.828125 39.253906 31.871094 38.980469 C 31.828125 38.867188 31.777344 38.75 31.722656 38.636719 C 33.664062 37.933594 35.160156 38.042969 36.277344 38.96875 Z M 36.277344 38.96875 " fill-opacity="1" fill-rule="nonzero"/><path fill="#5ce1e6" d="M 27.082031 36.769531 C 27.847656 36.800781 28.546875 37.027344 29.183594 37.449219 C 31.246094 35.710938 33.132812 34.992188 34.847656 35.292969 C 34.9375 35.308594 35.023438 35.304688 35.109375 35.28125 C 35.195312 35.257812 35.273438 35.21875 35.339844 35.160156 C 35.410156 35.101562 35.460938 35.03125 35.5 34.953125 C 35.535156 34.871094 35.554688 34.785156 35.554688 34.695312 C 35.554688 34.558594 35.511719 34.4375 35.429688 34.332031 C 34.699219 33.375 33.832031 32.566406 32.824219 31.90625 C 32.589844 31.746094 32.332031 31.679688 32.050781 31.714844 C 29.820312 31.925781 28.167969 33.613281 27.082031 36.769531 Z M 32.171875 32.898438 C 32.691406 33.238281 33.167969 33.625 33.609375 34.058594 C 32.152344 34.175781 30.628906 34.835938 29.058594 36.03125 C 28.941406 35.980469 28.828125 35.933594 28.707031 35.890625 C 29.582031 34.015625 30.722656 33.035156 32.164062 32.894531 L 32.167969 32.894531 Z M 32.171875 32.898438 " fill-opacity="1" fill-rule="nonzero"/><path fill="#5ce1e6" d="M 24.058594 30.765625 C 23.355469 31.617188 23.003906 32.628906 23.003906 33.792969 C 23.003906 34.984375 23.371094 36.34375 24.113281 37.859375 C 24.671875 37.339844 25.328125 37.003906 26.078125 36.847656 C 26.308594 34.160156 27.136719 32.3125 28.5625 31.308594 C 28.734375 31.191406 28.820312 31.03125 28.816406 30.820312 C 28.820312 30.667969 28.769531 30.535156 28.671875 30.417969 C 28.570312 30.304688 28.445312 30.238281 28.292969 30.21875 C 27.101562 30.058594 25.917969 30.105469 24.742188 30.351562 C 24.464844 30.402344 24.234375 30.539062 24.058594 30.765625 Z M 24.984375 35.9375 C 24.871094 35.984375 24.753906 36.03125 24.644531 36.085938 C 24.339844 35.242188 24.1875 34.476562 24.1875 33.792969 C 24.1875 32.90625 24.445312 32.164062 24.972656 31.519531 L 24.976562 31.515625 L 24.980469 31.515625 C 25.585938 31.390625 26.195312 31.324219 26.8125 31.316406 C 25.867188 32.433594 25.257812 33.976562 24.984375 35.9375 Z M 24.984375 35.9375 " fill-opacity="1" fill-rule="nonzero"/><path fill="#5ce1e6" d="M 30.367188 43.191406 C 31.84375 44.953125 32.582031 46.589844 32.582031 48.101562 C 32.582031 48.359375 32.558594 48.617188 32.515625 48.871094 C 32.507812 48.910156 32.507812 48.945312 32.507812 48.984375 C 32.507812 49.230469 32.621094 49.410156 32.84375 49.519531 C 33.066406 49.625 33.277344 49.605469 33.472656 49.453125 C 34.429688 48.722656 35.234375 47.851562 35.890625 46.84375 C 36.023438 46.652344 36.089844 46.4375 36.089844 46.203125 C 36.089844 46.160156 36.089844 46.113281 36.082031 46.066406 C 35.871094 43.832031 34.191406 42.171875 31.042969 41.085938 C 31.011719 41.851562 30.785156 42.554688 30.367188 43.191406 Z M 34.90625 46.179688 L 34.90625 46.183594 L 34.902344 46.191406 C 34.5625 46.707031 34.179688 47.1875 33.746094 47.628906 C 33.628906 46.171875 32.96875 44.640625 31.78125 43.066406 C 31.828125 42.949219 31.875 42.832031 31.917969 42.714844 C 33.789062 43.59375 34.769531 44.734375 34.90625 46.179688 Z M 34.90625 46.179688 " fill-opacity="1" fill-rule="nonzero"/><path fill="#5ce1e6" d="M 26.910156 44.3125 C 27.359375 44.3125 27.792969 44.226562 28.210938 44.054688 C 28.625 43.882812 28.992188 43.636719 29.308594 43.316406 C 29.628906 43 29.871094 42.632812 30.046875 42.214844 C 30.21875 41.796875 30.304688 41.363281 30.304688 40.914062 C 30.304688 40.460938 30.21875 40.027344 30.046875 39.609375 C 29.875 39.195312 29.628906 38.828125 29.308594 38.507812 C 28.992188 38.1875 28.625 37.941406 28.210938 37.769531 C 27.792969 37.597656 27.359375 37.511719 26.910156 37.511719 C 26.460938 37.511719 26.027344 37.597656 25.613281 37.769531 C 25.199219 37.941406 24.832031 38.1875 24.511719 38.507812 C 24.195312 38.828125 23.949219 39.195312 23.777344 39.609375 C 23.605469 40.027344 23.519531 40.460938 23.519531 40.914062 C 23.519531 41.363281 23.605469 41.796875 23.777344 42.214844 C 23.949219 42.628906 24.195312 43 24.515625 43.316406 C 24.832031 43.636719 25.199219 43.882812 25.613281 44.054688 C 26.027344 44.226562 26.460938 44.3125 26.910156 44.3125 Z M 26.910156 38.699219 C 27.203125 38.699219 27.484375 38.753906 27.757812 38.867188 C 28.027344 38.980469 28.265625 39.140625 28.472656 39.347656 C 28.679688 39.554688 28.839844 39.792969 28.949219 40.066406 C 29.0625 40.335938 29.117188 40.621094 29.117188 40.914062 C 29.117188 41.207031 29.0625 41.488281 28.949219 41.761719 C 28.839844 42.03125 28.679688 42.269531 28.472656 42.476562 C 28.265625 42.6875 28.027344 42.847656 27.757812 42.957031 C 27.484375 43.070312 27.203125 43.125 26.910156 43.125 C 26.617188 43.125 26.335938 43.070312 26.066406 42.957031 C 25.796875 42.847656 25.558594 42.6875 25.351562 42.476562 C 25.144531 42.269531 24.984375 42.03125 24.871094 41.761719 C 24.761719 41.488281 24.703125 41.207031 24.703125 40.914062 C 24.703125 40.621094 24.761719 40.335938 24.871094 40.066406 C 24.984375 39.796875 25.144531 39.554688 25.351562 39.347656 C 25.558594 39.140625 25.796875 38.980469 26.066406 38.867188 C 26.335938 38.757812 26.617188 38.699219 26.910156 38.699219 Z M 26.910156 38.699219 " fill-opacity="1" fill-rule="nonzero"/><path fill="#5ce1e6" d="M 22.859375 16.945312 C 20.175781 16.714844 18.335938 15.882812 17.335938 14.453125 C 17.175781 14.230469 16.964844 14.148438 16.699219 14.214844 C 16.433594 14.28125 16.28125 14.449219 16.246094 14.722656 C 16.1875 15.1875 16.15625 15.65625 16.15625 16.125 C 16.15625 16.851562 16.230469 17.570312 16.378906 18.28125 C 16.429688 18.5625 16.566406 18.792969 16.789062 18.96875 C 18.515625 20.398438 20.875 20.382812 23.867188 18.914062 C 23.347656 18.351562 23.011719 17.695312 22.859375 16.945312 Z M 17.546875 18.050781 L 17.539062 18.046875 L 17.539062 18.042969 C 17.414062 17.4375 17.347656 16.824219 17.339844 16.207031 C 18.453125 17.152344 19.996094 17.769531 21.949219 18.039062 C 21.996094 18.15625 22.046875 18.269531 22.097656 18.386719 C 20.160156 19.089844 18.660156 18.976562 17.546875 18.050781 Z M 17.546875 18.050781 " fill-opacity="1" fill-rule="nonzero"/><path fill="#5ce1e6" d="M 26.738281 20.25 C 25.976562 20.222656 25.273438 19.996094 24.636719 19.574219 C 22.578125 21.3125 20.6875 22.027344 18.972656 21.730469 C 18.886719 21.714844 18.796875 21.71875 18.710938 21.742188 C 18.625 21.765625 18.550781 21.804688 18.480469 21.863281 C 18.414062 21.917969 18.359375 21.988281 18.324219 22.070312 C 18.285156 22.152344 18.265625 22.234375 18.265625 22.324219 C 18.265625 22.460938 18.308594 22.582031 18.394531 22.691406 C 19.125 23.648438 19.992188 24.453125 20.996094 25.113281 C 21.230469 25.277344 21.488281 25.339844 21.773438 25.308594 C 24 25.09375 25.65625 23.410156 26.738281 20.25 Z M 21.648438 24.121094 C 21.132812 23.78125 20.652344 23.398438 20.214844 22.964844 C 21.667969 22.84375 23.191406 22.1875 24.765625 20.992188 C 24.878906 21.042969 24.996094 21.089844 25.113281 21.132812 C 24.238281 23.003906 23.101562 23.988281 21.660156 24.125 L 21.652344 24.125 Z M 21.648438 24.121094 " fill-opacity="1" fill-rule="nonzero"/><path fill="#5ce1e6" d="M 29.710938 19.160156 C 29.148438 19.679688 28.496094 20.015625 27.746094 20.171875 C 27.515625 22.859375 26.6875 24.707031 25.261719 25.710938 C 25.089844 25.828125 25.003906 25.992188 25.003906 26.199219 C 25.003906 26.351562 25.050781 26.488281 25.152344 26.601562 C 25.253906 26.714844 25.378906 26.78125 25.53125 26.800781 C 26.71875 26.960938 27.902344 26.917969 29.078125 26.667969 C 29.359375 26.621094 29.585938 26.480469 29.761719 26.257812 C 30.46875 25.402344 30.820312 24.394531 30.820312 23.226562 C 30.820312 22.035156 30.449219 20.679688 29.710938 19.160156 Z M 28.847656 25.503906 L 28.839844 25.507812 C 28.234375 25.632812 27.625 25.699219 27.007812 25.707031 C 27.953125 24.589844 28.566406 23.042969 28.835938 21.082031 C 28.953125 21.039062 29.066406 20.988281 29.179688 20.9375 C 29.480469 21.777344 29.636719 22.546875 29.636719 23.226562 C 29.636719 24.117188 29.378906 24.859375 28.851562 25.5 Z M 28.847656 25.503906 " fill-opacity="1" fill-rule="nonzero"/><path fill="#5ce1e6" d="M 23.457031 13.828125 C 21.980469 12.066406 21.242188 10.429688 21.242188 8.921875 C 21.242188 8.660156 21.261719 8.402344 21.308594 8.148438 C 21.3125 8.113281 21.316406 8.074219 21.316406 8.039062 C 21.3125 7.789062 21.199219 7.609375 20.976562 7.503906 C 20.753906 7.394531 20.546875 7.414062 20.347656 7.566406 C 19.394531 8.300781 18.589844 9.167969 17.929688 10.179688 C 17.796875 10.371094 17.730469 10.582031 17.730469 10.816406 C 17.730469 10.863281 17.734375 10.90625 17.738281 10.953125 C 17.949219 13.191406 19.632812 14.851562 22.78125 15.9375 C 22.808594 15.171875 23.035156 14.46875 23.457031 13.828125 Z M 18.917969 10.84375 L 18.917969 10.835938 L 18.921875 10.832031 C 19.257812 10.3125 19.644531 9.835938 20.074219 9.390625 C 20.191406 10.847656 20.851562 12.378906 22.042969 13.957031 C 21.992188 14.070312 21.945312 14.1875 21.902344 14.304688 C 20.035156 13.429688 19.054688 12.289062 18.917969 10.84375 Z M 18.917969 10.84375 " fill-opacity="1" fill-rule="nonzero"/><path fill="#5ce1e6" d="M 30.964844 15.269531 C 33.644531 15.503906 35.488281 16.335938 36.488281 17.761719 C 36.644531 17.988281 36.855469 18.066406 37.121094 18 C 37.390625 17.9375 37.539062 17.765625 37.574219 17.496094 C 37.636719 17.03125 37.667969 16.5625 37.667969 16.09375 C 37.664062 15.367188 37.589844 14.644531 37.441406 13.933594 C 37.394531 13.652344 37.253906 13.425781 37.03125 13.25 C 35.304688 11.820312 32.945312 11.835938 29.957031 13.300781 C 30.472656 13.863281 30.808594 14.519531 30.964844 15.269531 Z M 36.277344 14.164062 L 36.28125 14.167969 L 36.28125 14.175781 C 36.410156 14.78125 36.476562 15.390625 36.480469 16.011719 C 35.371094 15.0625 33.828125 14.449219 31.871094 14.179688 C 31.828125 14.0625 31.777344 13.945312 31.722656 13.832031 C 33.664062 13.128906 35.160156 13.238281 36.277344 14.164062 Z M 36.277344 14.164062 " fill-opacity="1" fill-rule="nonzero"/><path fill="#5ce1e6" d="M 27.082031 11.964844 C 27.847656 11.996094 28.546875 12.222656 29.183594 12.644531 C 31.246094 10.90625 33.132812 10.1875 34.847656 10.488281 C 34.9375 10.503906 35.023438 10.5 35.109375 10.476562 C 35.195312 10.453125 35.273438 10.414062 35.339844 10.355469 C 35.410156 10.296875 35.460938 10.226562 35.5 10.148438 C 35.535156 10.066406 35.554688 9.980469 35.554688 9.890625 C 35.554688 9.753906 35.511719 9.632812 35.429688 9.527344 C 34.699219 8.570312 33.832031 7.761719 32.824219 7.101562 C 32.589844 6.9375 32.332031 6.875 32.050781 6.910156 C 29.820312 7.121094 28.167969 8.808594 27.082031 11.964844 Z M 32.171875 8.09375 C 32.691406 8.433594 33.167969 8.820312 33.609375 9.253906 C 32.152344 9.371094 30.628906 10.03125 29.058594 11.226562 C 28.941406 11.175781 28.828125 11.128906 28.707031 11.085938 C 29.582031 9.210938 30.722656 8.230469 32.164062 8.089844 L 32.167969 8.089844 Z M 32.171875 8.09375 " fill-opacity="1" fill-rule="nonzero"/><path fill="#5ce1e6" d="M 24.058594 5.960938 C 23.355469 6.8125 23.003906 7.824219 23.003906 8.988281 C 23.003906 10.183594 23.371094 11.539062 24.113281 13.054688 C 24.671875 12.535156 25.328125 12.199219 26.078125 12.046875 C 26.308594 9.355469 27.136719 7.507812 28.5625 6.503906 C 28.734375 6.386719 28.820312 6.226562 28.816406 6.015625 C 28.820312 5.863281 28.769531 5.730469 28.671875 5.617188 C 28.570312 5.5 28.445312 5.433594 28.292969 5.414062 C 27.101562 5.257812 25.917969 5.300781 24.742188 5.546875 C 24.464844 5.597656 24.234375 5.734375 24.058594 5.960938 Z M 24.984375 11.132812 C 24.871094 11.179688 24.753906 11.226562 24.644531 11.28125 C 24.339844 10.4375 24.1875 9.671875 24.1875 8.988281 C 24.1875 8.101562 24.445312 7.359375 24.972656 6.714844 L 24.976562 6.710938 L 24.980469 6.710938 C 25.585938 6.585938 26.195312 6.519531 26.8125 6.511719 C 25.867188 7.628906 25.257812 9.175781 24.984375 11.132812 Z M 24.984375 11.132812 " fill-opacity="1" fill-rule="nonzero"/><path fill="#5ce1e6" d="M 30.367188 18.386719 C 31.84375 20.148438 32.582031 21.785156 32.582031 23.296875 C 32.582031 23.554688 32.558594 23.8125 32.515625 24.070312 C 32.507812 24.105469 32.507812 24.140625 32.507812 24.179688 C 32.507812 24.425781 32.621094 24.605469 32.84375 24.714844 C 33.066406 24.824219 33.277344 24.800781 33.472656 24.648438 C 34.429688 23.917969 35.234375 23.046875 35.890625 22.039062 C 36.023438 21.847656 36.089844 21.632812 36.089844 21.398438 C 36.089844 21.355469 36.089844 21.308594 36.085938 21.261719 C 35.871094 19.027344 34.191406 17.367188 31.042969 16.28125 C 31.011719 17.046875 30.785156 17.75 30.367188 18.386719 Z M 34.90625 21.375 L 34.90625 21.378906 L 34.902344 21.386719 C 34.5625 21.902344 34.179688 22.382812 33.746094 22.824219 C 33.628906 21.367188 32.96875 19.835938 31.78125 18.261719 C 31.828125 18.144531 31.875 18.027344 31.917969 17.910156 C 33.789062 18.789062 34.769531 19.929688 34.90625 21.375 Z M 34.90625 21.375 " fill-opacity="1" fill-rule="nonzero"/><path fill="#5ce1e6" d="M 26.910156 19.511719 C 27.359375 19.511719 27.792969 19.421875 28.210938 19.25 C 28.625 19.078125 28.992188 18.832031 29.308594 18.515625 C 29.628906 18.195312 29.871094 17.828125 30.046875 17.410156 C 30.21875 16.992188 30.304688 16.558594 30.304688 16.109375 C 30.304688 15.65625 30.21875 15.222656 30.046875 14.808594 C 29.875 14.390625 29.628906 14.023438 29.308594 13.703125 C 28.992188 13.382812 28.625 13.136719 28.210938 12.964844 C 27.792969 12.792969 27.359375 12.707031 26.910156 12.707031 C 26.460938 12.707031 26.027344 12.792969 25.613281 12.964844 C 25.199219 13.136719 24.832031 13.382812 24.511719 13.703125 C 24.195312 14.023438 23.949219 14.390625 23.777344 14.804688 C 23.605469 15.222656 23.519531 15.65625 23.519531 16.109375 C 23.519531 16.558594 23.605469 16.992188 23.777344 17.410156 C 23.949219 17.824219 24.195312 18.195312 24.515625 18.511719 C 24.832031 18.832031 25.199219 19.078125 25.613281 19.25 C 26.027344 19.421875 26.460938 19.507812 26.910156 19.511719 Z M 26.910156 13.894531 C 27.203125 13.894531 27.484375 13.949219 27.757812 14.0625 C 28.027344 14.175781 28.265625 14.335938 28.472656 14.542969 C 28.679688 14.75 28.839844 14.988281 28.949219 15.261719 C 29.0625 15.53125 29.117188 15.816406 29.117188 16.109375 C 29.117188 16.402344 29.0625 16.683594 28.949219 16.957031 C 28.839844 17.226562 28.679688 17.464844 28.472656 17.671875 C 28.265625 17.882812 28.027344 18.042969 27.757812 18.152344 C 27.484375 18.265625 27.203125 18.320312 26.910156 18.320312 C 26.617188 18.320312 26.335938 18.265625 26.066406 18.152344 C 25.796875 18.042969 25.558594 17.882812 25.351562 17.671875 C 25.144531 17.464844 24.984375 17.226562 24.871094 16.957031 C 24.761719 16.683594 24.703125 16.402344 24.703125 16.109375 C 24.703125 15.816406 24.761719 15.53125 24.871094 15.261719 C 24.984375 14.992188 25.144531 14.75 25.351562 14.542969 C 25.558594 14.335938 25.796875 14.175781 26.066406 14.0625 C 26.335938 13.953125 26.617188 13.894531 26.910156 13.894531 Z M 26.910156 13.894531 " fill-opacity="1" fill-rule="nonzero"/></svg>