<svg xmlns="http://www.w3.org/2000/svg" xmlns:xlink="http://www.w3.org/1999/xlink" width="500" zoomAndPan="magnify" viewBox="0 0 375 89.999999" height="120" preserveAspectRatio="xMidYMid meet" version="1.0"><defs><g/><clipPath id="3fde1dc5db"><path d="M 139.460938 3.292969 L 235.460938 3.292969 L 235.460938 61.042969 L 139.460938 61.042969 Z M 139.460938 3.292969 " clip-rule="nonzero"/></clipPath></defs><g clip-path="url(#3fde1dc5db)"><path fill="#5ce1e6" d="M 233.132812 12.160156 L 150.402344 12.160156 L 150.402344 3.960938 C 150.402344 3.78125 150.339844 3.625 150.210938 3.5 C 150.085938 3.371094 149.933594 3.308594 149.753906 3.308594 L 140.109375 3.308594 C 139.929688 3.308594 139.773438 3.371094 139.648438 3.5 C 139.523438 3.625 139.457031 3.78125 139.457031 3.960938 L 139.457031 8.546875 C 139.457031 8.726562 139.523438 8.882812 139.648438 9.007812 C 139.773438 9.136719 139.929688 9.199219 140.109375 9.199219 L 145.34375 9.199219 L 145.34375 60.378906 C 145.34375 60.558594 145.40625 60.714844 145.535156 60.839844 C 145.660156 60.96875 145.8125 61.03125 145.992188 61.03125 L 149.761719 61.03125 C 149.941406 61.03125 150.09375 60.96875 150.21875 60.839844 C 150.347656 60.714844 150.410156 60.558594 150.410156 60.378906 L 150.410156 53.777344 L 156.1875 53.777344 L 156.1875 60.378906 C 156.1875 60.558594 156.25 60.714844 156.375 60.839844 C 156.503906 60.96875 156.65625 61.03125 156.835938 61.03125 L 211.597656 61.03125 C 211.777344 61.03125 211.929688 60.96875 212.058594 60.839844 C 212.183594 60.714844 212.25 60.558594 212.25 60.378906 L 212.25 53.777344 L 216.425781 53.777344 L 216.425781 60.378906 C 216.425781 60.558594 216.488281 60.714844 216.617188 60.839844 C 216.742188 60.96875 216.894531 61.03125 217.074219 61.03125 L 228.027344 61.03125 C 228.207031 61.03125 228.359375 60.96875 228.488281 60.839844 C 228.613281 60.714844 228.679688 60.558594 228.679688 60.378906 L 228.679688 53.777344 L 233.132812 53.777344 C 233.441406 53.777344 233.738281 53.71875 234.023438 53.601562 C 234.308594 53.480469 234.5625 53.3125 234.777344 53.09375 C 234.996094 52.875 235.164062 52.621094 235.285156 52.335938 C 235.402344 52.050781 235.460938 51.753906 235.460938 51.445312 L 235.460938 14.492188 C 235.460938 14.183594 235.402344 13.886719 235.285156 13.601562 C 235.164062 13.316406 234.996094 13.0625 234.777344 12.84375 C 234.5625 12.625 234.308594 12.457031 234.023438 12.335938 C 233.738281 12.21875 233.441406 12.160156 233.132812 12.160156 Z M 146.644531 59.726562 L 146.644531 8.546875 C 146.644531 8.367188 146.578125 8.214844 146.453125 8.085938 C 146.324219 7.960938 146.171875 7.898438 145.992188 7.898438 L 140.757812 7.898438 L 140.757812 4.609375 L 149.101562 4.609375 L 149.109375 59.726562 Z M 219.511719 13.460938 L 215.742188 17.238281 L 165.730469 17.238281 L 161.964844 13.460938 Z M 161.53125 52.476562 L 165.492188 48.503906 L 215.507812 48.503906 L 219.46875 52.476562 Z M 157.484375 53.820312 L 161.664062 53.820312 L 161.664062 59.726562 L 157.484375 59.726562 Z M 162.960938 53.820312 L 167.136719 53.820312 L 167.136719 59.726562 L 162.960938 59.726562 Z M 168.4375 53.820312 L 172.613281 53.820312 L 172.613281 59.726562 L 168.4375 59.726562 Z M 173.914062 53.820312 L 178.089844 53.820312 L 178.089844 59.726562 L 173.914062 59.726562 Z M 179.390625 53.820312 L 183.566406 53.820312 L 183.566406 59.726562 L 179.390625 59.726562 Z M 184.867188 53.820312 L 189.042969 53.820312 L 189.042969 59.726562 L 184.867188 59.726562 Z M 190.34375 53.820312 L 194.519531 53.820312 L 194.519531 59.726562 L 190.34375 59.726562 Z M 195.820312 53.820312 L 199.996094 53.820312 L 199.996094 59.726562 L 195.820312 59.726562 Z M 201.296875 53.820312 L 205.472656 53.820312 L 205.472656 59.726562 L 201.296875 59.726562 Z M 210.949219 59.726562 L 206.773438 59.726562 L 206.773438 53.820312 L 210.949219 53.820312 Z M 217.726562 53.820312 L 221.902344 53.820312 L 221.902344 59.726562 L 217.726562 59.726562 Z M 227.378906 59.726562 L 223.203125 59.726562 L 223.203125 53.820312 L 227.378906 53.820312 Z M 234.164062 51.445312 C 234.164062 51.582031 234.136719 51.710938 234.082031 51.839844 C 234.03125 51.964844 233.957031 52.078125 233.859375 52.171875 C 233.765625 52.269531 233.652344 52.34375 233.527344 52.398438 C 233.402344 52.449219 233.269531 52.476562 233.132812 52.476562 L 221.152344 52.476562 C 221.125 52.347656 221.066406 52.234375 220.976562 52.144531 L 216.234375 47.390625 C 216.109375 47.265625 215.957031 47.199219 215.777344 47.199219 L 165.226562 47.199219 C 165.046875 47.199219 164.890625 47.265625 164.765625 47.390625 L 160.261719 51.90625 C 160.105469 52.0625 160.042969 52.253906 160.082031 52.476562 L 150.410156 52.476562 L 150.410156 13.460938 L 160.160156 13.460938 C 160.1875 13.511719 160.222656 13.558594 160.261719 13.597656 L 165.003906 18.351562 C 165.128906 18.476562 165.28125 18.542969 165.460938 18.542969 L 216.011719 18.542969 C 216.191406 18.542969 216.34375 18.476562 216.472656 18.351562 L 220.976562 13.835938 C 221.078125 13.734375 221.140625 13.609375 221.15625 13.460938 L 233.132812 13.460938 C 233.269531 13.460938 233.402344 13.488281 233.527344 13.539062 C 233.652344 13.59375 233.765625 13.667969 233.859375 13.765625 C 233.957031 13.859375 234.03125 13.972656 234.085938 14.097656 C 234.136719 14.226562 234.164062 14.355469 234.164062 14.492188 Z M 234.164062 51.445312 " fill-opacity="1" fill-rule="nonzero"/></g><path fill="#5ce1e6" d="M 163.964844 28.441406 C 164.21875 25.492188 165.128906 23.464844 166.691406 22.363281 C 166.9375 22.191406 167.023438 21.957031 166.953125 21.667969 C 166.878906 21.375 166.695312 21.207031 166.394531 21.167969 C 165.886719 21.101562 165.375 21.070312 164.863281 21.066406 C 164.066406 21.070312 163.28125 21.152344 162.5 21.3125 C 162.195312 21.367188 161.945312 21.519531 161.75 21.765625 C 160.1875 23.664062 160.207031 26.257812 161.808594 29.550781 C 162.425781 28.980469 163.144531 28.609375 163.964844 28.441406 Z M 162.753906 22.597656 L 162.757812 22.589844 L 162.765625 22.589844 C 163.425781 22.449219 164.097656 22.378906 164.773438 22.371094 C 163.738281 23.59375 163.066406 25.292969 162.769531 27.441406 C 162.640625 27.492188 162.515625 27.546875 162.390625 27.605469 C 161.617188 25.472656 161.742188 23.824219 162.753906 22.597656 Z M 162.753906 22.597656 " fill-opacity="1" fill-rule="nonzero"/><path fill="#5ce1e6" d="M 160.347656 32.707031 C 160.378906 31.867188 160.628906 31.097656 161.089844 30.398438 C 159.1875 28.128906 158.402344 26.054688 158.730469 24.167969 C 158.75 24.070312 158.742188 23.976562 158.71875 23.878906 C 158.691406 23.785156 158.648438 23.699219 158.585938 23.625 C 158.523438 23.550781 158.445312 23.492188 158.359375 23.453125 C 158.269531 23.410156 158.175781 23.390625 158.078125 23.390625 C 157.929688 23.390625 157.796875 23.4375 157.679688 23.53125 C 156.632812 24.332031 155.75 25.289062 155.027344 26.394531 C 154.847656 26.648438 154.777344 26.933594 154.816406 27.246094 C 155.050781 29.695312 156.894531 31.515625 160.347656 32.707031 Z M 156.113281 27.109375 C 156.484375 26.542969 156.90625 26.015625 157.378906 25.53125 C 157.511719 27.132812 158.230469 28.808594 159.539062 30.539062 C 159.484375 30.664062 159.433594 30.792969 159.386719 30.921875 C 157.335938 29.957031 156.261719 28.707031 156.109375 27.121094 L 156.109375 27.113281 Z M 156.113281 27.109375 " fill-opacity="1" fill-rule="nonzero"/><path fill="#5ce1e6" d="M 161.539062 35.976562 C 160.972656 35.359375 160.605469 34.640625 160.433594 33.816406 C 157.492188 33.5625 155.472656 32.652344 154.375 31.082031 C 154.246094 30.894531 154.066406 30.800781 153.839844 30.800781 C 153.671875 30.800781 153.527344 30.855469 153.402344 30.964844 C 153.273438 31.074219 153.203125 31.210938 153.179688 31.378906 C 153.007812 32.6875 153.054688 33.988281 153.324219 35.28125 C 153.378906 35.589844 153.53125 35.84375 153.777344 36.035156 C 154.710938 36.808594 155.816406 37.195312 157.089844 37.195312 C 158.394531 37.195312 159.878906 36.789062 161.539062 35.976562 Z M 154.601562 35.027344 L 154.597656 35.019531 C 154.460938 34.355469 154.390625 33.683594 154.382812 33.003906 C 155.601562 34.042969 157.292969 34.71875 159.4375 35.015625 C 159.488281 35.144531 159.542969 35.269531 159.601562 35.394531 C 158.675781 35.726562 157.835938 35.894531 157.09375 35.894531 C 156.121094 35.894531 155.308594 35.613281 154.605469 35.03125 Z M 154.601562 35.027344 " fill-opacity="1" fill-rule="nonzero"/><path fill="#5ce1e6" d="M 167.375 29.097656 C 169.300781 27.472656 171.09375 26.660156 172.742188 26.660156 C 173.027344 26.660156 173.308594 26.683594 173.589844 26.734375 C 173.628906 26.742188 173.667969 26.746094 173.707031 26.746094 C 173.980469 26.742188 174.175781 26.617188 174.296875 26.371094 C 174.414062 26.125 174.390625 25.894531 174.222656 25.679688 C 173.421875 24.628906 172.472656 23.742188 171.367188 23.019531 C 171.15625 22.875 170.925781 22.800781 170.667969 22.800781 C 170.621094 22.800781 170.570312 22.804688 170.519531 22.808594 C 168.074219 23.042969 166.257812 24.890625 165.070312 28.355469 C 165.90625 28.386719 166.675781 28.636719 167.375 29.097656 Z M 170.640625 24.105469 L 170.648438 24.105469 L 170.652344 24.109375 C 171.21875 24.480469 171.746094 24.902344 172.226562 25.378906 C 170.632812 25.507812 168.960938 26.234375 167.234375 27.542969 C 167.109375 27.488281 166.980469 27.4375 166.851562 27.390625 C 167.8125 25.335938 169.058594 24.257812 170.640625 24.105469 Z M 170.640625 24.105469 " fill-opacity="1" fill-rule="nonzero"/><path fill="#5ce1e6" d="M 165.796875 37.355469 C 165.542969 40.304688 164.632812 42.328125 163.070312 43.429688 C 162.824219 43.605469 162.738281 43.835938 162.808594 44.128906 C 162.878906 44.421875 163.066406 44.589844 163.363281 44.625 C 163.871094 44.695312 164.382812 44.726562 164.898438 44.726562 C 165.691406 44.726562 166.480469 44.644531 167.257812 44.480469 C 167.566406 44.425781 167.816406 44.277344 168.007812 44.03125 C 169.574219 42.132812 169.554688 39.535156 167.953125 36.246094 C 167.335938 36.816406 166.617188 37.183594 165.796875 37.355469 Z M 167.007812 43.199219 L 167.003906 43.203125 L 166.996094 43.207031 C 166.332031 43.34375 165.664062 43.417969 164.984375 43.425781 C 166.023438 42.203125 166.695312 40.503906 166.992188 38.355469 C 167.121094 38.304688 167.246094 38.25 167.371094 38.191406 C 168.140625 40.324219 168.019531 41.972656 167.007812 43.199219 Z M 167.007812 43.199219 " fill-opacity="1" fill-rule="nonzero"/><path fill="#5ce1e6" d="M 169.414062 33.089844 C 169.378906 33.925781 169.132812 34.699219 168.671875 35.398438 C 170.570312 37.664062 171.359375 39.742188 171.027344 41.628906 C 171.011719 41.726562 171.015625 41.820312 171.042969 41.914062 C 171.066406 42.011719 171.113281 42.09375 171.175781 42.171875 C 171.238281 42.246094 171.3125 42.304688 171.402344 42.34375 C 171.492188 42.386719 171.582031 42.40625 171.679688 42.40625 C 171.832031 42.40625 171.964844 42.359375 172.082031 42.265625 C 173.128906 41.464844 174.011719 40.507812 174.730469 39.402344 C 174.910156 39.144531 174.980469 38.863281 174.945312 38.550781 C 174.710938 36.101562 172.867188 34.277344 169.414062 33.089844 Z M 173.648438 38.6875 C 173.277344 39.253906 172.855469 39.78125 172.378906 40.265625 C 172.25 38.664062 171.527344 36.988281 170.222656 35.257812 C 170.277344 35.132812 170.328125 35.003906 170.375 34.875 C 172.425781 35.835938 173.5 37.089844 173.652344 38.675781 L 173.652344 38.679688 Z M 173.648438 38.6875 " fill-opacity="1" fill-rule="nonzero"/><path fill="#5ce1e6" d="M 175.984375 29.761719 C 175.046875 28.988281 173.945312 28.601562 172.667969 28.601562 C 171.363281 28.601562 169.878906 29.007812 168.21875 29.820312 C 168.789062 30.4375 169.15625 31.15625 169.324219 31.980469 C 172.269531 32.234375 174.289062 33.144531 175.386719 34.714844 C 175.515625 34.902344 175.691406 34.996094 175.921875 34.996094 C 176.085938 34.996094 176.234375 34.941406 176.359375 34.832031 C 176.484375 34.722656 176.558594 34.585938 176.578125 34.417969 C 176.753906 33.109375 176.703125 31.808594 176.433594 30.515625 C 176.378906 30.207031 176.230469 29.953125 175.984375 29.761719 Z M 170.324219 30.78125 C 170.273438 30.652344 170.21875 30.527344 170.160156 30.402344 C 171.082031 30.070312 171.921875 29.902344 172.667969 29.902344 C 173.640625 29.902344 174.453125 30.183594 175.15625 30.765625 L 175.160156 30.769531 L 175.160156 30.777344 C 175.300781 31.441406 175.371094 32.113281 175.378906 32.789062 C 174.160156 31.75 172.46875 31.078125 170.324219 30.78125 Z M 170.324219 30.78125 " fill-opacity="1" fill-rule="nonzero"/><path fill="#5ce1e6" d="M 162.386719 36.699219 C 160.457031 38.324219 158.667969 39.136719 157.015625 39.136719 C 156.734375 39.136719 156.449219 39.109375 156.171875 39.0625 C 156.132812 39.054688 156.089844 39.050781 156.050781 39.050781 C 155.78125 39.054688 155.585938 39.179688 155.464844 39.425781 C 155.347656 39.667969 155.371094 39.898438 155.535156 40.117188 C 156.335938 41.164062 157.289062 42.050781 158.390625 42.773438 C 158.601562 42.921875 158.835938 42.996094 159.09375 42.996094 C 159.140625 42.996094 159.191406 42.992188 159.242188 42.988281 C 161.6875 42.753906 163.503906 40.90625 164.691406 37.441406 C 163.855469 37.410156 163.085938 37.160156 162.386719 36.699219 Z M 159.117188 41.691406 L 159.113281 41.691406 L 159.105469 41.6875 C 158.539062 41.316406 158.015625 40.890625 157.53125 40.417969 C 159.125 40.285156 160.800781 39.5625 162.527344 38.253906 C 162.652344 38.308594 162.777344 38.359375 162.90625 38.40625 C 161.949219 40.460938 160.699219 41.539062 159.117188 41.691406 Z M 159.117188 41.691406 " fill-opacity="1" fill-rule="nonzero"/><path fill="#5ce1e6" d="M 161.160156 32.898438 C 161.160156 33.394531 161.253906 33.867188 161.441406 34.324219 C 161.632812 34.78125 161.898438 35.1875 162.25 35.535156 C 162.597656 35.886719 163 36.15625 163.457031 36.34375 C 163.910156 36.535156 164.386719 36.628906 164.878906 36.628906 C 165.375 36.628906 165.847656 36.535156 166.304688 36.34375 C 166.761719 36.15625 167.164062 35.886719 167.511719 35.535156 C 167.859375 35.1875 168.128906 34.78125 168.316406 34.324219 C 168.507812 33.867188 168.601562 33.394531 168.601562 32.898438 C 168.601562 32.402344 168.507812 31.925781 168.316406 31.46875 C 168.128906 31.011719 167.859375 30.609375 167.511719 30.261719 C 167.164062 29.910156 166.761719 29.640625 166.304688 29.453125 C 165.847656 29.261719 165.375 29.167969 164.878906 29.167969 C 164.386719 29.167969 163.914062 29.261719 163.457031 29.453125 C 163 29.640625 162.597656 29.910156 162.25 30.261719 C 161.902344 30.609375 161.632812 31.015625 161.441406 31.472656 C 161.253906 31.929688 161.160156 32.402344 161.160156 32.898438 Z M 167.300781 32.898438 C 167.300781 33.21875 167.242188 33.53125 167.117188 33.828125 C 166.996094 34.125 166.820312 34.386719 166.59375 34.613281 C 166.367188 34.84375 166.105469 35.019531 165.808594 35.140625 C 165.511719 35.265625 165.203125 35.328125 164.878906 35.328125 C 164.558594 35.328125 164.25 35.265625 163.953125 35.140625 C 163.65625 35.019531 163.394531 34.84375 163.167969 34.613281 C 162.941406 34.386719 162.765625 34.125 162.644531 33.828125 C 162.519531 33.53125 162.457031 33.21875 162.457031 32.898438 C 162.457031 32.574219 162.519531 32.265625 162.644531 31.96875 C 162.765625 31.671875 162.941406 31.410156 163.167969 31.179688 C 163.394531 30.953125 163.65625 30.777344 163.953125 30.65625 C 164.25 30.53125 164.558594 30.46875 164.878906 30.46875 C 165.203125 30.46875 165.511719 30.53125 165.804688 30.65625 C 166.101562 30.777344 166.363281 30.953125 166.589844 31.183594 C 166.820312 31.410156 166.992188 31.671875 167.117188 31.96875 C 167.238281 32.265625 167.300781 32.578125 167.300781 32.898438 Z M 167.300781 32.898438 " fill-opacity="1" fill-rule="nonzero"/><path fill="#5ce1e6" d="M 191.101562 28.441406 C 191.355469 25.492188 192.265625 23.464844 193.828125 22.363281 C 194.074219 22.191406 194.160156 21.957031 194.089844 21.667969 C 194.015625 21.375 193.832031 21.207031 193.53125 21.167969 C 193.023438 21.101562 192.511719 21.070312 192 21.066406 C 191.203125 21.070312 190.417969 21.152344 189.636719 21.3125 C 189.332031 21.367188 189.082031 21.519531 188.886719 21.765625 C 187.324219 23.664062 187.34375 26.257812 188.945312 29.550781 C 189.5625 28.980469 190.28125 28.609375 191.101562 28.441406 Z M 189.890625 22.597656 L 189.894531 22.589844 L 189.898438 22.589844 C 190.5625 22.449219 191.234375 22.378906 191.910156 22.371094 C 190.875 23.59375 190.203125 25.292969 189.90625 27.441406 C 189.777344 27.492188 189.648438 27.546875 189.527344 27.605469 C 188.753906 25.472656 188.878906 23.824219 189.890625 22.597656 Z M 189.890625 22.597656 " fill-opacity="1" fill-rule="nonzero"/><path fill="#5ce1e6" d="M 187.484375 32.707031 C 187.515625 31.867188 187.765625 31.097656 188.226562 30.398438 C 186.324219 28.128906 185.539062 26.054688 185.867188 24.167969 C 185.886719 24.070312 185.878906 23.976562 185.855469 23.878906 C 185.828125 23.785156 185.785156 23.699219 185.722656 23.625 C 185.660156 23.550781 185.582031 23.492188 185.496094 23.453125 C 185.40625 23.410156 185.3125 23.390625 185.214844 23.390625 C 185.066406 23.390625 184.933594 23.4375 184.816406 23.53125 C 183.769531 24.332031 182.886719 25.285156 182.164062 26.394531 C 181.984375 26.648438 181.914062 26.933594 181.953125 27.246094 C 182.1875 29.695312 184.027344 31.515625 187.484375 32.707031 Z M 183.25 27.109375 C 183.621094 26.542969 184.042969 26.015625 184.515625 25.53125 C 184.648438 27.132812 185.367188 28.808594 186.675781 30.539062 C 186.621094 30.664062 186.570312 30.792969 186.523438 30.921875 C 184.472656 29.957031 183.398438 28.707031 183.246094 27.121094 L 183.246094 27.113281 Z M 183.25 27.109375 " fill-opacity="1" fill-rule="nonzero"/><path fill="#5ce1e6" d="M 188.675781 35.976562 C 188.109375 35.359375 187.742188 34.640625 187.570312 33.816406 C 184.628906 33.5625 182.609375 32.652344 181.511719 31.082031 C 181.382812 30.894531 181.203125 30.800781 180.976562 30.800781 C 180.808594 30.800781 180.664062 30.855469 180.539062 30.964844 C 180.410156 31.074219 180.339844 31.210938 180.316406 31.378906 C 180.144531 32.6875 180.191406 33.988281 180.460938 35.28125 C 180.515625 35.589844 180.667969 35.84375 180.914062 36.035156 C 181.847656 36.808594 182.953125 37.195312 184.226562 37.195312 C 185.53125 37.195312 187.015625 36.789062 188.675781 35.976562 Z M 181.738281 35.027344 L 181.734375 35.019531 C 181.597656 34.355469 181.523438 33.683594 181.519531 33.003906 C 182.738281 34.042969 184.429688 34.71875 186.574219 35.015625 C 186.625 35.144531 186.679688 35.269531 186.734375 35.394531 C 185.8125 35.726562 184.972656 35.894531 184.226562 35.894531 C 183.257812 35.894531 182.441406 35.613281 181.742188 35.03125 Z M 181.738281 35.027344 " fill-opacity="1" fill-rule="nonzero"/><path fill="#5ce1e6" d="M 194.511719 29.097656 C 196.4375 27.472656 198.226562 26.660156 199.878906 26.660156 C 200.164062 26.660156 200.445312 26.683594 200.726562 26.734375 C 200.765625 26.742188 200.804688 26.746094 200.84375 26.746094 C 201.117188 26.742188 201.3125 26.617188 201.433594 26.371094 C 201.550781 26.125 201.527344 25.894531 201.359375 25.679688 C 200.558594 24.628906 199.609375 23.742188 198.503906 23.019531 C 198.292969 22.875 198.0625 22.800781 197.804688 22.800781 C 197.757812 22.800781 197.707031 22.804688 197.65625 22.808594 C 195.210938 23.042969 193.394531 24.890625 192.207031 28.355469 C 193.042969 28.386719 193.8125 28.636719 194.511719 29.097656 Z M 197.777344 24.105469 L 197.785156 24.105469 L 197.789062 24.109375 C 198.355469 24.480469 198.882812 24.902344 199.363281 25.378906 C 197.769531 25.507812 196.097656 26.234375 194.371094 27.542969 C 194.246094 27.488281 194.117188 27.4375 193.988281 27.390625 C 194.949219 25.335938 196.195312 24.257812 197.777344 24.105469 Z M 197.777344 24.105469 " fill-opacity="1" fill-rule="nonzero"/><path fill="#5ce1e6" d="M 192.933594 37.355469 C 192.679688 40.304688 191.769531 42.328125 190.207031 43.429688 C 189.960938 43.605469 189.875 43.835938 189.945312 44.128906 C 190.015625 44.421875 190.203125 44.589844 190.5 44.625 C 191.007812 44.695312 191.519531 44.726562 192.035156 44.726562 C 192.828125 44.726562 193.617188 44.644531 194.394531 44.480469 C 194.703125 44.425781 194.953125 44.277344 195.144531 44.03125 C 196.710938 42.132812 196.691406 39.535156 195.089844 36.246094 C 194.472656 36.816406 193.753906 37.183594 192.933594 37.355469 Z M 194.144531 43.199219 L 194.140625 43.203125 L 194.132812 43.207031 C 193.46875 43.34375 192.800781 43.417969 192.121094 43.425781 C 193.160156 42.203125 193.832031 40.503906 194.128906 38.355469 C 194.257812 38.304688 194.382812 38.25 194.507812 38.191406 C 195.277344 40.324219 195.15625 41.972656 194.144531 43.199219 Z M 194.144531 43.199219 " fill-opacity="1" fill-rule="nonzero"/><path fill="#5ce1e6" d="M 196.550781 33.089844 C 196.515625 33.925781 196.269531 34.699219 195.808594 35.398438 C 197.707031 37.664062 198.496094 39.742188 198.164062 41.628906 C 198.148438 41.726562 198.152344 41.820312 198.179688 41.914062 C 198.203125 42.011719 198.246094 42.09375 198.3125 42.171875 C 198.375 42.246094 198.449219 42.304688 198.539062 42.34375 C 198.625 42.386719 198.71875 42.40625 198.816406 42.40625 C 198.964844 42.40625 199.101562 42.359375 199.21875 42.265625 C 200.261719 41.464844 201.148438 40.507812 201.867188 39.402344 C 202.046875 39.144531 202.117188 38.863281 202.078125 38.550781 C 201.847656 36.101562 200.003906 34.277344 196.550781 33.089844 Z M 200.785156 38.6875 C 200.414062 39.253906 199.988281 39.78125 199.515625 40.265625 C 199.386719 38.664062 198.664062 36.988281 197.359375 35.257812 C 197.414062 35.132812 197.464844 35.003906 197.511719 34.875 C 199.5625 35.835938 200.636719 37.089844 200.785156 38.675781 L 200.789062 38.679688 Z M 200.785156 38.6875 " fill-opacity="1" fill-rule="nonzero"/><path fill="#5ce1e6" d="M 203.121094 29.761719 C 202.183594 28.988281 201.082031 28.601562 199.804688 28.601562 C 198.5 28.601562 197.015625 29.007812 195.355469 29.820312 C 195.925781 30.4375 196.292969 31.15625 196.460938 31.980469 C 199.402344 32.234375 201.425781 33.144531 202.523438 34.714844 C 202.652344 34.902344 202.828125 34.996094 203.058594 34.996094 C 203.222656 34.996094 203.371094 34.941406 203.496094 34.832031 C 203.621094 34.722656 203.695312 34.585938 203.714844 34.417969 C 203.890625 33.109375 203.839844 31.808594 203.570312 30.515625 C 203.515625 30.207031 203.367188 29.953125 203.121094 29.761719 Z M 197.460938 30.78125 C 197.410156 30.652344 197.355469 30.527344 197.296875 30.402344 C 198.21875 30.070312 199.058594 29.902344 199.804688 29.902344 C 200.777344 29.902344 201.589844 30.183594 202.292969 30.765625 L 202.296875 30.769531 L 202.296875 30.777344 C 202.4375 31.441406 202.507812 32.113281 202.515625 32.789062 C 201.296875 31.75 199.601562 31.078125 197.460938 30.78125 Z M 197.460938 30.78125 " fill-opacity="1" fill-rule="nonzero"/><path fill="#5ce1e6" d="M 189.523438 36.699219 C 187.59375 38.324219 185.804688 39.136719 184.152344 39.136719 C 183.871094 39.136719 183.589844 39.109375 183.308594 39.0625 C 183.269531 39.054688 183.230469 39.050781 183.1875 39.050781 C 182.917969 39.054688 182.722656 39.179688 182.601562 39.425781 C 182.484375 39.667969 182.507812 39.898438 182.671875 40.117188 C 183.472656 41.164062 184.425781 42.050781 185.527344 42.773438 C 185.738281 42.921875 185.972656 42.996094 186.230469 42.996094 C 186.277344 42.996094 186.328125 42.992188 186.378906 42.988281 C 188.824219 42.753906 190.640625 40.90625 191.828125 37.441406 C 190.992188 37.410156 190.222656 37.160156 189.523438 36.699219 Z M 186.253906 41.691406 L 186.25 41.691406 L 186.242188 41.6875 C 185.675781 41.316406 185.152344 40.890625 184.667969 40.417969 C 186.261719 40.285156 187.9375 39.5625 189.664062 38.253906 C 189.789062 38.308594 189.914062 38.359375 190.042969 38.40625 C 189.085938 40.460938 187.835938 41.539062 186.253906 41.691406 Z M 186.253906 41.691406 " fill-opacity="1" fill-rule="nonzero"/><path fill="#5ce1e6" d="M 188.296875 32.898438 C 188.296875 33.394531 188.390625 33.867188 188.578125 34.324219 C 188.765625 34.78125 189.035156 35.1875 189.386719 35.535156 C 189.734375 35.886719 190.136719 36.15625 190.59375 36.34375 C 191.046875 36.535156 191.523438 36.628906 192.015625 36.628906 C 192.511719 36.628906 192.984375 36.535156 193.441406 36.34375 C 193.898438 36.15625 194.300781 35.886719 194.648438 35.535156 C 194.996094 35.1875 195.265625 34.78125 195.453125 34.324219 C 195.644531 33.867188 195.738281 33.394531 195.738281 32.898438 C 195.738281 32.402344 195.644531 31.925781 195.453125 31.46875 C 195.265625 31.011719 194.996094 30.609375 194.648438 30.261719 C 194.300781 29.910156 193.898438 29.640625 193.441406 29.453125 C 192.984375 29.261719 192.511719 29.167969 192.015625 29.167969 C 191.523438 29.167969 191.050781 29.261719 190.59375 29.453125 C 190.136719 29.640625 189.734375 29.910156 189.386719 30.261719 C 189.039062 30.609375 188.769531 31.015625 188.578125 31.472656 C 188.390625 31.929688 188.296875 32.402344 188.296875 32.898438 Z M 194.4375 32.898438 C 194.4375 33.21875 194.378906 33.53125 194.253906 33.828125 C 194.132812 34.125 193.957031 34.386719 193.730469 34.613281 C 193.503906 34.84375 193.238281 35.019531 192.945312 35.140625 C 192.648438 35.265625 192.335938 35.328125 192.015625 35.328125 C 191.695312 35.328125 191.386719 35.265625 191.089844 35.140625 C 190.792969 35.019531 190.53125 34.84375 190.304688 34.613281 C 190.078125 34.386719 189.902344 34.125 189.777344 33.828125 C 189.65625 33.53125 189.59375 33.21875 189.59375 32.898438 C 189.59375 32.574219 189.65625 32.265625 189.777344 31.96875 C 189.902344 31.671875 190.078125 31.410156 190.304688 31.179688 C 190.53125 30.953125 190.792969 30.777344 191.089844 30.65625 C 191.386719 30.53125 191.695312 30.46875 192.015625 30.46875 C 192.335938 30.46875 192.648438 30.53125 192.941406 30.65625 C 193.238281 30.777344 193.5 30.953125 193.726562 31.183594 C 193.957031 31.410156 194.128906 31.671875 194.253906 31.96875 C 194.375 32.265625 194.4375 32.578125 194.4375 32.898438 Z M 194.4375 32.898438 " fill-opacity="1" fill-rule="nonzero"/><path fill="#5ce1e6" d="M 218.238281 28.441406 C 218.492188 25.492188 219.402344 23.464844 220.964844 22.363281 C 221.210938 22.191406 221.296875 21.957031 221.222656 21.667969 C 221.152344 21.375 220.96875 21.207031 220.667969 21.167969 C 220.160156 21.101562 219.648438 21.070312 219.136719 21.066406 C 218.339844 21.070312 217.554688 21.152344 216.773438 21.3125 C 216.46875 21.367188 216.21875 21.519531 216.023438 21.765625 C 214.460938 23.664062 214.480469 26.257812 216.082031 29.550781 C 216.699219 28.980469 217.417969 28.609375 218.238281 28.441406 Z M 217.027344 22.597656 L 217.03125 22.589844 L 217.035156 22.589844 C 217.699219 22.449219 218.371094 22.378906 219.046875 22.371094 C 218.011719 23.59375 217.339844 25.292969 217.042969 27.441406 C 216.914062 27.492188 216.785156 27.546875 216.664062 27.605469 C 215.890625 25.472656 216.015625 23.824219 217.027344 22.597656 Z M 217.027344 22.597656 " fill-opacity="1" fill-rule="nonzero"/><path fill="#5ce1e6" d="M 214.621094 32.707031 C 214.652344 31.867188 214.902344 31.097656 215.363281 30.398438 C 213.460938 28.128906 212.675781 26.054688 213.003906 24.167969 C 213.019531 24.070312 213.015625 23.976562 212.992188 23.878906 C 212.964844 23.785156 212.921875 23.699219 212.859375 23.625 C 212.796875 23.550781 212.71875 23.492188 212.632812 23.453125 C 212.542969 23.410156 212.449219 23.390625 212.351562 23.390625 C 212.203125 23.390625 212.070312 23.4375 211.953125 23.53125 C 210.90625 24.332031 210.023438 25.285156 209.300781 26.394531 C 209.121094 26.648438 209.050781 26.933594 209.089844 27.246094 C 209.320312 29.695312 211.164062 31.515625 214.621094 32.707031 Z M 210.386719 27.109375 C 210.757812 26.542969 211.179688 26.015625 211.652344 25.53125 C 211.78125 27.132812 212.503906 28.808594 213.8125 30.539062 C 213.753906 30.664062 213.703125 30.792969 213.660156 30.921875 C 211.609375 29.957031 210.53125 28.707031 210.382812 27.121094 L 210.382812 27.113281 Z M 210.386719 27.109375 " fill-opacity="1" fill-rule="nonzero"/><path fill="#5ce1e6" d="M 215.8125 35.976562 C 215.246094 35.359375 214.878906 34.640625 214.707031 33.816406 C 211.765625 33.5625 209.746094 32.652344 208.648438 31.082031 C 208.519531 30.894531 208.339844 30.800781 208.113281 30.800781 C 207.945312 30.800781 207.800781 30.855469 207.671875 30.964844 C 207.546875 31.074219 207.476562 31.210938 207.453125 31.378906 C 207.28125 32.6875 207.328125 33.988281 207.597656 35.28125 C 207.652344 35.589844 207.804688 35.84375 208.050781 36.035156 C 208.984375 36.808594 210.089844 37.195312 211.363281 37.195312 C 212.667969 37.195312 214.152344 36.789062 215.8125 35.976562 Z M 208.871094 35.027344 L 208.871094 35.019531 C 208.734375 34.355469 208.660156 33.683594 208.652344 33.003906 C 209.875 34.042969 211.566406 34.71875 213.710938 35.015625 C 213.761719 35.144531 213.8125 35.269531 213.871094 35.394531 C 212.949219 35.726562 212.109375 35.894531 211.363281 35.894531 C 210.390625 35.894531 209.578125 35.613281 208.878906 35.03125 Z M 208.871094 35.027344 " fill-opacity="1" fill-rule="nonzero"/><path fill="#5ce1e6" d="M 221.648438 29.097656 C 223.574219 27.472656 225.363281 26.660156 227.015625 26.660156 C 227.300781 26.660156 227.582031 26.683594 227.863281 26.734375 C 227.902344 26.742188 227.941406 26.746094 227.980469 26.746094 C 228.253906 26.742188 228.449219 26.617188 228.566406 26.371094 C 228.6875 26.125 228.664062 25.894531 228.496094 25.679688 C 227.695312 24.628906 226.746094 23.746094 225.640625 23.019531 C 225.429688 22.875 225.199219 22.800781 224.941406 22.800781 C 224.894531 22.800781 224.84375 22.804688 224.792969 22.808594 C 222.347656 23.042969 220.53125 24.890625 219.34375 28.355469 C 220.179688 28.386719 220.949219 28.636719 221.648438 29.097656 Z M 224.914062 24.105469 L 224.921875 24.105469 L 224.925781 24.109375 C 225.492188 24.480469 226.015625 24.902344 226.5 25.378906 C 224.90625 25.507812 223.230469 26.234375 221.507812 27.542969 C 221.382812 27.488281 221.253906 27.4375 221.125 27.390625 C 222.085938 25.335938 223.332031 24.257812 224.914062 24.105469 Z M 224.914062 24.105469 " fill-opacity="1" fill-rule="nonzero"/><path fill="#5ce1e6" d="M 220.070312 37.355469 C 219.816406 40.304688 218.90625 42.328125 217.34375 43.429688 C 217.097656 43.605469 217.011719 43.835938 217.082031 44.128906 C 217.152344 44.421875 217.339844 44.589844 217.636719 44.625 C 218.144531 44.695312 218.65625 44.726562 219.167969 44.726562 C 219.964844 44.726562 220.753906 44.644531 221.53125 44.480469 C 221.839844 44.425781 222.089844 44.277344 222.28125 44.03125 C 223.847656 42.132812 223.828125 39.535156 222.226562 36.246094 C 221.609375 36.816406 220.890625 37.183594 220.070312 37.355469 Z M 221.28125 43.199219 L 221.277344 43.203125 L 221.269531 43.207031 C 220.605469 43.34375 219.9375 43.417969 219.257812 43.425781 C 220.296875 42.203125 220.96875 40.503906 221.265625 38.355469 C 221.394531 38.304688 221.519531 38.25 221.644531 38.191406 C 222.414062 40.324219 222.292969 41.972656 221.28125 43.199219 Z M 221.28125 43.199219 " fill-opacity="1" fill-rule="nonzero"/><path fill="#5ce1e6" d="M 223.6875 33.089844 C 223.652344 33.925781 223.40625 34.699219 222.945312 35.398438 C 224.84375 37.664062 225.628906 39.742188 225.300781 41.628906 C 225.285156 41.726562 225.289062 41.820312 225.316406 41.914062 C 225.339844 42.011719 225.382812 42.09375 225.449219 42.171875 C 225.511719 42.246094 225.585938 42.304688 225.675781 42.34375 C 225.761719 42.386719 225.855469 42.40625 225.953125 42.40625 C 226.101562 42.40625 226.238281 42.359375 226.351562 42.265625 C 227.398438 41.464844 228.285156 40.507812 229.003906 39.402344 C 229.183594 39.144531 229.253906 38.863281 229.21875 38.550781 C 228.984375 36.101562 227.140625 34.277344 223.6875 33.089844 Z M 227.921875 38.6875 C 227.550781 39.253906 227.128906 39.78125 226.652344 40.265625 C 226.523438 38.664062 225.800781 36.988281 224.496094 35.257812 C 224.550781 35.132812 224.601562 35.003906 224.648438 34.875 C 226.699219 35.835938 227.773438 37.089844 227.925781 38.675781 L 227.925781 38.679688 Z M 227.921875 38.6875 " fill-opacity="1" fill-rule="nonzero"/><path fill="#5ce1e6" d="M 230.257812 29.761719 C 229.320312 28.988281 228.214844 28.601562 226.941406 28.601562 C 225.636719 28.601562 224.152344 29.007812 222.492188 29.820312 C 223.0625 30.4375 223.429688 31.15625 223.597656 31.980469 C 226.539062 32.234375 228.5625 33.144531 229.660156 34.714844 C 229.789062 34.902344 229.964844 34.996094 230.195312 34.996094 C 230.359375 34.996094 230.507812 34.941406 230.632812 34.832031 C 230.757812 34.722656 230.832031 34.585938 230.851562 34.417969 C 231.027344 33.109375 230.976562 31.808594 230.707031 30.515625 C 230.652344 30.207031 230.503906 29.953125 230.257812 29.761719 Z M 224.597656 30.78125 C 224.546875 30.652344 224.492188 30.527344 224.433594 30.402344 C 225.355469 30.070312 226.195312 29.902344 226.941406 29.902344 C 227.914062 29.902344 228.726562 30.183594 229.429688 30.765625 L 229.433594 30.769531 L 229.433594 30.777344 C 229.570312 31.441406 229.644531 32.113281 229.652344 32.789062 C 228.433594 31.75 226.738281 31.078125 224.597656 30.78125 Z M 224.597656 30.78125 " fill-opacity="1" fill-rule="nonzero"/><path fill="#5ce1e6" d="M 216.660156 36.699219 C 214.730469 38.324219 212.941406 39.136719 211.289062 39.136719 C 211.003906 39.136719 210.722656 39.109375 210.445312 39.0625 C 210.40625 39.054688 210.363281 39.050781 210.324219 39.050781 C 210.050781 39.054688 209.855469 39.179688 209.738281 39.425781 C 209.621094 39.667969 209.644531 39.898438 209.808594 40.117188 C 210.609375 41.164062 211.5625 42.050781 212.664062 42.773438 C 212.875 42.921875 213.109375 42.996094 213.363281 42.996094 C 213.414062 42.996094 213.464844 42.992188 213.515625 42.988281 C 215.960938 42.753906 217.777344 40.90625 218.964844 37.441406 C 218.125 37.410156 217.359375 37.160156 216.660156 36.699219 Z M 213.390625 41.691406 L 213.386719 41.691406 L 213.378906 41.6875 C 212.8125 41.316406 212.289062 40.890625 211.804688 40.417969 C 213.398438 40.285156 215.074219 39.5625 216.796875 38.253906 C 216.925781 38.308594 217.050781 38.359375 217.179688 38.40625 C 216.222656 40.460938 214.972656 41.539062 213.390625 41.691406 Z M 213.390625 41.691406 " fill-opacity="1" fill-rule="nonzero"/><path fill="#5ce1e6" d="M 215.433594 32.898438 C 215.433594 33.394531 215.527344 33.867188 215.714844 34.324219 C 215.902344 34.78125 216.171875 35.1875 216.523438 35.535156 C 216.871094 35.886719 217.273438 36.15625 217.730469 36.34375 C 218.183594 36.535156 218.660156 36.628906 219.152344 36.628906 C 219.648438 36.628906 220.121094 36.535156 220.578125 36.34375 C 221.03125 36.15625 221.433594 35.886719 221.785156 35.535156 C 222.132812 35.1875 222.402344 34.78125 222.589844 34.324219 C 222.78125 33.867188 222.875 33.394531 222.875 32.898438 C 222.875 32.402344 222.78125 31.925781 222.589844 31.46875 C 222.402344 31.011719 222.132812 30.609375 221.785156 30.261719 C 221.4375 29.910156 221.035156 29.640625 220.578125 29.453125 C 220.121094 29.261719 219.648438 29.167969 219.152344 29.167969 C 218.660156 29.167969 218.183594 29.261719 217.730469 29.453125 C 217.273438 29.640625 216.871094 29.910156 216.523438 30.261719 C 216.175781 30.609375 215.90625 31.015625 215.714844 31.472656 C 215.527344 31.929688 215.433594 32.402344 215.433594 32.898438 Z M 221.574219 32.898438 C 221.574219 33.21875 221.511719 33.53125 221.390625 33.828125 C 221.269531 34.125 221.09375 34.386719 220.867188 34.613281 C 220.636719 34.84375 220.375 35.019531 220.078125 35.140625 C 219.785156 35.265625 219.472656 35.328125 219.152344 35.328125 C 218.832031 35.328125 218.523438 35.265625 218.226562 35.140625 C 217.929688 35.019531 217.667969 34.84375 217.441406 34.613281 C 217.214844 34.386719 217.039062 34.125 216.914062 33.828125 C 216.792969 33.53125 216.730469 33.21875 216.730469 32.898438 C 216.730469 32.574219 216.792969 32.265625 216.914062 31.96875 C 217.039062 31.671875 217.214844 31.410156 217.441406 31.179688 C 217.667969 30.953125 217.929688 30.777344 218.226562 30.65625 C 218.523438 30.53125 218.832031 30.46875 219.152344 30.46875 C 219.472656 30.46875 219.78125 30.53125 220.078125 30.65625 C 220.375 30.777344 220.636719 30.953125 220.863281 31.183594 C 221.09375 31.410156 221.265625 31.671875 221.390625 31.96875 C 221.511719 32.265625 221.574219 32.578125 221.574219 32.898438 Z M 221.574219 32.898438 " fill-opacity="1" fill-rule="nonzero"/><g fill="#ffffff" fill-opacity="1"><g transform="translate(144.827014, 81.484766)"><g><path d="M 6.03125 0.140625 C 5.101562 0.140625 4.269531 -0.0195312 3.53125 -0.34375 C 2.789062 -0.664062 2.207031 -1.125 1.78125 -1.71875 C 1.363281 -2.320312 1.15625 -3.019531 1.15625 -3.8125 L 3.578125 -3.8125 C 3.628906 -3.21875 3.863281 -2.726562 4.28125 -2.34375 C 4.695312 -1.957031 5.28125 -1.765625 6.03125 -1.765625 C 6.8125 -1.765625 7.421875 -1.953125 7.859375 -2.328125 C 8.296875 -2.710938 8.515625 -3.203125 8.515625 -3.796875 C 8.515625 -4.253906 8.378906 -4.628906 8.109375 -4.921875 C 7.835938 -5.210938 7.5 -5.4375 7.09375 -5.59375 C 6.695312 -5.757812 6.140625 -5.929688 5.421875 -6.109375 C 4.523438 -6.347656 3.796875 -6.585938 3.234375 -6.828125 C 2.671875 -7.078125 2.1875 -7.460938 1.78125 -7.984375 C 1.382812 -8.503906 1.1875 -9.191406 1.1875 -10.046875 C 1.1875 -10.835938 1.382812 -11.53125 1.78125 -12.125 C 2.1875 -12.726562 2.742188 -13.1875 3.453125 -13.5 C 4.171875 -13.820312 5 -13.984375 5.9375 -13.984375 C 7.269531 -13.984375 8.363281 -13.644531 9.21875 -12.96875 C 10.070312 -12.300781 10.546875 -11.390625 10.640625 -10.234375 L 8.140625 -10.234375 C 8.097656 -10.734375 7.859375 -11.160156 7.421875 -11.515625 C 6.984375 -11.867188 6.410156 -12.046875 5.703125 -12.046875 C 5.046875 -12.046875 4.515625 -11.878906 4.109375 -11.546875 C 3.703125 -11.222656 3.5 -10.75 3.5 -10.125 C 3.5 -9.707031 3.625 -9.359375 3.875 -9.078125 C 4.132812 -8.804688 4.460938 -8.59375 4.859375 -8.4375 C 5.265625 -8.28125 5.8125 -8.109375 6.5 -7.921875 C 7.40625 -7.671875 8.144531 -7.421875 8.71875 -7.171875 C 9.300781 -6.921875 9.789062 -6.53125 10.1875 -6 C 10.59375 -5.476562 10.796875 -4.78125 10.796875 -3.90625 C 10.796875 -3.207031 10.609375 -2.546875 10.234375 -1.921875 C 9.859375 -1.304688 9.304688 -0.804688 8.578125 -0.421875 C 7.859375 -0.046875 7.007812 0.140625 6.03125 0.140625 Z M 6.03125 0.140625 "/></g></g></g><g fill="#ffffff" fill-opacity="1"><g transform="translate(156.818867, 81.484766)"><g><path d="M 3.75 -13.796875 L 3.75 0 L 1.484375 0 L 1.484375 -13.796875 Z M 3.75 -13.796875 "/></g></g></g><g fill="#ffffff" fill-opacity="1"><g transform="translate(162.060339, 81.484766)"><g><path d="M 3.75 -1.828125 L 8.421875 -1.828125 L 8.421875 0 L 1.484375 0 L 1.484375 -13.796875 L 3.75 -13.796875 Z M 3.75 -1.828125 "/></g></g></g><g fill="#ffffff" fill-opacity="1"><g transform="translate(170.87554, 81.484766)"><g><path d="M 3.75 -1.828125 L 8.421875 -1.828125 L 8.421875 0 L 1.484375 0 L 1.484375 -13.796875 L 3.75 -13.796875 Z M 3.75 -1.828125 "/></g></g></g><g fill="#ffffff" fill-opacity="1"><g transform="translate(179.69074, 81.484766)"><g><path d="M 3.75 -13.796875 L 3.75 0 L 1.484375 0 L 1.484375 -13.796875 Z M 3.75 -13.796875 "/></g></g></g><g fill="#ffffff" fill-opacity="1"><g transform="translate(184.932212, 81.484766)"><g><path d="M 0.734375 -6.9375 C 0.734375 -8.28125 1.046875 -9.488281 1.671875 -10.5625 C 2.304688 -11.632812 3.160156 -12.472656 4.234375 -13.078125 C 5.316406 -13.679688 6.5 -13.984375 7.78125 -13.984375 C 9.25 -13.984375 10.554688 -13.617188 11.703125 -12.890625 C 12.847656 -12.171875 13.679688 -11.148438 14.203125 -9.828125 L 11.484375 -9.828125 C 11.117188 -10.554688 10.617188 -11.097656 9.984375 -11.453125 C 9.347656 -11.816406 8.613281 -12 7.78125 -12 C 6.875 -12 6.0625 -11.789062 5.34375 -11.375 C 4.625 -10.96875 4.0625 -10.378906 3.65625 -9.609375 C 3.257812 -8.835938 3.0625 -7.945312 3.0625 -6.9375 C 3.0625 -5.914062 3.257812 -5.019531 3.65625 -4.25 C 4.0625 -3.476562 4.625 -2.882812 5.34375 -2.46875 C 6.0625 -2.050781 6.875 -1.84375 7.78125 -1.84375 C 8.613281 -1.84375 9.347656 -2.019531 9.984375 -2.375 C 10.617188 -2.738281 11.117188 -3.285156 11.484375 -4.015625 L 14.203125 -4.015625 C 13.679688 -2.691406 12.847656 -1.671875 11.703125 -0.953125 C 10.554688 -0.234375 9.25 0.125 7.78125 0.125 C 6.488281 0.125 5.304688 -0.175781 4.234375 -0.78125 C 3.160156 -1.382812 2.304688 -2.222656 1.671875 -3.296875 C 1.046875 -4.367188 0.734375 -5.582031 0.734375 -6.9375 Z M 0.734375 -6.9375 "/></g></g></g><g fill="#ffffff" fill-opacity="1"><g transform="translate(200.279395, 81.484766)"><g><path d="M 7.78125 0.140625 C 6.5 0.140625 5.316406 -0.160156 4.234375 -0.765625 C 3.160156 -1.367188 2.304688 -2.207031 1.671875 -3.28125 C 1.046875 -4.363281 0.734375 -5.582031 0.734375 -6.9375 C 0.734375 -8.28125 1.046875 -9.488281 1.671875 -10.5625 C 2.304688 -11.632812 3.160156 -12.472656 4.234375 -13.078125 C 5.316406 -13.679688 6.5 -13.984375 7.78125 -13.984375 C 9.082031 -13.984375 10.269531 -13.679688 11.34375 -13.078125 C 12.425781 -12.472656 13.273438 -11.632812 13.890625 -10.5625 C 14.515625 -9.488281 14.828125 -8.28125 14.828125 -6.9375 C 14.828125 -5.582031 14.515625 -4.363281 13.890625 -3.28125 C 13.273438 -2.207031 12.425781 -1.367188 11.34375 -0.765625 C 10.269531 -0.160156 9.082031 0.140625 7.78125 0.140625 Z M 7.78125 -1.828125 C 8.695312 -1.828125 9.507812 -2.035156 10.21875 -2.453125 C 10.9375 -2.867188 11.5 -3.460938 11.90625 -4.234375 C 12.3125 -5.015625 12.515625 -5.914062 12.515625 -6.9375 C 12.515625 -7.945312 12.3125 -8.835938 11.90625 -9.609375 C 11.5 -10.378906 10.9375 -10.96875 10.21875 -11.375 C 9.507812 -11.789062 8.695312 -12 7.78125 -12 C 6.875 -12 6.0625 -11.789062 5.34375 -11.375 C 4.625 -10.96875 4.0625 -10.378906 3.65625 -9.609375 C 3.257812 -8.835938 3.0625 -7.945312 3.0625 -6.9375 C 3.0625 -5.914062 3.257812 -5.015625 3.65625 -4.234375 C 4.0625 -3.460938 4.625 -2.867188 5.34375 -2.453125 C 6.0625 -2.035156 6.875 -1.828125 7.78125 -1.828125 Z M 7.78125 -1.828125 "/></g></g></g><g fill="#ffffff" fill-opacity="1"><g transform="translate(215.844977, 81.484766)"><g><path d="M 12.828125 0 L 10.5625 0 L 3.75 -10.3125 L 3.75 0 L 1.484375 0 L 1.484375 -13.828125 L 3.75 -13.828125 L 10.5625 -3.53125 L 10.5625 -13.828125 L 12.828125 -13.828125 Z M 12.828125 0 "/></g></g></g><g fill="#ffffff" fill-opacity="1"><g transform="translate(238.318884, 18.411096)"><g><path d="M 1.171875 1.171875 C 1.160156 1.171875 1.15625 1.171875 1.15625 1.171875 C 1.113281 1.273438 1.039062 1.359375 0.9375 1.421875 C 0.84375 1.484375 0.726562 1.515625 0.59375 1.515625 C 0.414062 1.515625 0.269531 1.460938 0.15625 1.359375 C 0.0507812 1.253906 0 1.113281 0 0.9375 L 0 0.359375 C 0 0.335938 0.0078125 0.328125 0.03125 0.328125 L 2.203125 0.328125 C 2.234375 0.328125 2.25 0.335938 2.25 0.359375 L 2.25 0.921875 C 2.25 1.097656 2.195312 1.238281 2.09375 1.34375 C 1.988281 1.445312 1.847656 1.5 1.671875 1.5 C 1.546875 1.5 1.441406 1.46875 1.359375 1.40625 C 1.273438 1.351562 1.210938 1.273438 1.171875 1.171875 Z M 2.15625 0.4375 C 2.15625 0.425781 2.148438 0.421875 2.140625 0.421875 L 1.21875 0.421875 C 1.207031 0.421875 1.203125 0.425781 1.203125 0.4375 L 1.203125 0.921875 C 1.203125 1.066406 1.242188 1.179688 1.328125 1.265625 C 1.410156 1.359375 1.523438 1.40625 1.671875 1.40625 C 1.816406 1.40625 1.929688 1.359375 2.015625 1.265625 C 2.109375 1.179688 2.15625 1.066406 2.15625 0.921875 Z M 0.09375 0.921875 C 0.09375 1.078125 0.140625 1.195312 0.234375 1.28125 C 0.328125 1.363281 0.453125 1.40625 0.609375 1.40625 C 0.765625 1.40625 0.890625 1.363281 0.984375 1.28125 C 1.078125 1.195312 1.125 1.078125 1.125 0.921875 L 1.125 0.4375 C 1.125 0.425781 1.117188 0.421875 1.109375 0.421875 L 0.109375 0.421875 C 0.0976562 0.421875 0.09375 0.425781 0.09375 0.4375 Z M 0.09375 0.921875 "/></g></g></g><g fill="#ffffff" fill-opacity="1"><g transform="translate(238.318884, 20.95723)"><g><path d="M 0 0.734375 C 0 0.710938 0.0078125 0.703125 0.03125 0.703125 L 1.0625 0.703125 C 1.070312 0.703125 1.078125 0.695312 1.078125 0.6875 L 2.203125 0.140625 C 2.203125 0.140625 2.207031 0.140625 2.21875 0.140625 C 2.238281 0.140625 2.25 0.148438 2.25 0.171875 L 2.25 0.203125 C 2.25 0.222656 2.238281 0.234375 2.21875 0.234375 L 1.1875 0.734375 C 1.175781 0.734375 1.171875 0.734375 1.171875 0.734375 C 1.171875 0.742188 1.175781 0.75 1.1875 0.75 L 2.21875 1.25 C 2.238281 1.257812 2.25 1.273438 2.25 1.296875 L 2.25 1.328125 C 2.25 1.335938 2.242188 1.34375 2.234375 1.34375 C 2.222656 1.351562 2.210938 1.351562 2.203125 1.34375 L 1.078125 0.796875 C 1.078125 0.796875 1.070312 0.796875 1.0625 0.796875 L 0.03125 0.796875 C 0.0078125 0.796875 0 0.785156 0 0.765625 Z M 0 0.734375 "/></g></g></g><g fill="#ffffff" fill-opacity="1"><g transform="translate(238.318884, 23.28558)"><g/></g></g><g fill="#ffffff" fill-opacity="1"><g transform="translate(238.318884, 24.762016)"><g><path d="M 0 1.359375 C 0 1.335938 0.0078125 1.320312 0.03125 1.3125 L 0.484375 1.1875 C 0.484375 1.1875 0.484375 1.179688 0.484375 1.171875 L 0.484375 0.3125 C 0.484375 0.300781 0.484375 0.296875 0.484375 0.296875 L 0.03125 0.171875 C 0.0078125 0.171875 0 0.160156 0 0.140625 L 0 0.109375 C 0 0.0976562 0 0.0859375 0 0.078125 C 0.0078125 0.078125 0.0195312 0.0820312 0.03125 0.09375 L 2.21875 0.6875 C 2.238281 0.6875 2.25 0.695312 2.25 0.71875 L 2.25 0.765625 C 2.25 0.785156 2.238281 0.796875 2.21875 0.796875 L 0.03125 1.421875 C 0.0078125 1.421875 0 1.410156 0 1.390625 Z M 0.59375 0.328125 C 0.582031 0.328125 0.578125 0.328125 0.578125 0.328125 C 0.578125 0.335938 0.578125 0.34375 0.578125 0.34375 L 0.578125 1.15625 C 0.578125 1.164062 0.582031 1.171875 0.59375 1.171875 L 2.078125 0.75 C 2.078125 0.75 2.078125 0.742188 2.078125 0.734375 Z M 0.59375 0.328125 "/></g></g></g><g fill="#ffffff" fill-opacity="1"><g transform="translate(238.318884, 27.096772)"><g><path d="M 2.203125 1.453125 C 2.234375 1.453125 2.25 1.460938 2.25 1.484375 L 2.25 1.515625 C 2.25 1.535156 2.234375 1.546875 2.203125 1.546875 L 0.03125 1.546875 C 0.0078125 1.546875 0 1.535156 0 1.515625 L 0 1.46875 C 0 1.445312 0.00390625 1.4375 0.015625 1.4375 L 2.015625 0.4375 C 2.015625 0.425781 2.015625 0.421875 2.015625 0.421875 C 2.015625 0.421875 2.007812 0.421875 2 0.421875 L 0.03125 0.421875 C 0.0078125 0.421875 0 0.410156 0 0.390625 L 0 0.359375 C 0 0.335938 0.0078125 0.328125 0.03125 0.328125 L 2.203125 0.328125 C 2.234375 0.328125 2.25 0.335938 2.25 0.359375 L 2.25 0.390625 C 2.25 0.410156 2.238281 0.425781 2.21875 0.4375 L 0.234375 1.4375 C 0.222656 1.4375 0.21875 1.4375 0.21875 1.4375 C 0.226562 1.445312 0.234375 1.453125 0.234375 1.453125 Z M 2.203125 1.453125 "/></g></g></g><g fill="#ffffff" fill-opacity="1"><g transform="translate(238.318884, 29.796635)"><g><path d="M 2.25 1.359375 C 2.25 1.378906 2.234375 1.390625 2.203125 1.390625 L 2.1875 1.390625 C 2.164062 1.390625 2.15625 1.378906 2.15625 1.359375 L 2.15625 0.8125 C 2.15625 0.800781 2.148438 0.796875 2.140625 0.796875 L 0.03125 0.796875 C 0.0078125 0.796875 0 0.785156 0 0.765625 L 0 0.734375 C 0 0.710938 0.0078125 0.703125 0.03125 0.703125 L 2.140625 0.703125 C 2.148438 0.703125 2.15625 0.695312 2.15625 0.6875 L 2.15625 0.171875 C 2.15625 0.148438 2.164062 0.140625 2.1875 0.140625 L 2.203125 0.140625 C 2.234375 0.140625 2.25 0.148438 2.25 0.171875 Z M 2.25 1.359375 "/></g></g></g><g fill="#ffffff" fill-opacity="1"><g transform="translate(238.318884, 32.163417)"><g><path d="M 2.1875 1.484375 C 2.164062 1.484375 2.15625 1.472656 2.15625 1.453125 L 2.15625 0.4375 C 2.15625 0.425781 2.148438 0.421875 2.140625 0.421875 L 1.171875 0.421875 C 1.171875 0.421875 1.171875 0.425781 1.171875 0.4375 L 1.171875 1.140625 C 1.171875 1.160156 1.160156 1.171875 1.140625 1.171875 L 1.109375 1.171875 C 1.085938 1.171875 1.078125 1.160156 1.078125 1.140625 L 1.078125 0.4375 C 1.078125 0.425781 1.070312 0.421875 1.0625 0.421875 L 0.109375 0.421875 C 0.0976562 0.421875 0.09375 0.425781 0.09375 0.4375 L 0.09375 1.453125 C 0.09375 1.472656 0.0820312 1.484375 0.0625 1.484375 L 0.03125 1.484375 C 0.0078125 1.484375 0 1.472656 0 1.453125 L 0 0.359375 C 0 0.335938 0.0078125 0.328125 0.03125 0.328125 L 2.203125 0.328125 C 2.234375 0.328125 2.25 0.335938 2.25 0.359375 L 2.25 1.453125 C 2.25 1.472656 2.234375 1.484375 2.203125 1.484375 Z M 2.1875 1.484375 "/></g></g></g><g fill="#ffffff" fill-opacity="1"><g transform="translate(238.318884, 34.667914)"><g><path d="M 2.25 1.359375 C 2.25 1.378906 2.234375 1.390625 2.203125 1.390625 L 2.1875 1.390625 C 2.164062 1.390625 2.15625 1.378906 2.15625 1.359375 L 2.15625 0.8125 C 2.15625 0.800781 2.148438 0.796875 2.140625 0.796875 L 0.03125 0.796875 C 0.0078125 0.796875 0 0.785156 0 0.765625 L 0 0.734375 C 0 0.710938 0.0078125 0.703125 0.03125 0.703125 L 2.140625 0.703125 C 2.148438 0.703125 2.15625 0.695312 2.15625 0.6875 L 2.15625 0.171875 C 2.15625 0.148438 2.164062 0.140625 2.1875 0.140625 L 2.203125 0.140625 C 2.234375 0.140625 2.25 0.148438 2.25 0.171875 Z M 2.25 1.359375 "/></g></g></g><g fill="#ffffff" fill-opacity="1"><g transform="translate(238.318884, 37.034696)"><g><path d="M 2.1875 1.484375 C 2.164062 1.484375 2.15625 1.472656 2.15625 1.453125 L 2.15625 0.4375 C 2.15625 0.425781 2.148438 0.421875 2.140625 0.421875 L 1.171875 0.421875 C 1.171875 0.421875 1.171875 0.425781 1.171875 0.4375 L 1.171875 1.140625 C 1.171875 1.160156 1.160156 1.171875 1.140625 1.171875 L 1.109375 1.171875 C 1.085938 1.171875 1.078125 1.160156 1.078125 1.140625 L 1.078125 0.4375 C 1.078125 0.425781 1.070312 0.421875 1.0625 0.421875 L 0.109375 0.421875 C 0.0976562 0.421875 0.09375 0.425781 0.09375 0.4375 L 0.09375 1.453125 C 0.09375 1.472656 0.0820312 1.484375 0.0625 1.484375 L 0.03125 1.484375 C 0.0078125 1.484375 0 1.472656 0 1.453125 L 0 0.359375 C 0 0.335938 0.0078125 0.328125 0.03125 0.328125 L 2.203125 0.328125 C 2.234375 0.328125 2.25 0.335938 2.25 0.359375 L 2.25 1.453125 C 2.25 1.472656 2.234375 1.484375 2.203125 1.484375 Z M 2.1875 1.484375 "/></g></g></g><g fill="#ffffff" fill-opacity="1"><g transform="translate(238.318884, 39.539194)"><g><path d="M -0.03125 0.84375 C -0.03125 0.664062 0.0195312 0.519531 0.125 0.40625 C 0.238281 0.300781 0.378906 0.25 0.546875 0.25 L 1.6875 0.25 C 1.863281 0.25 2.003906 0.300781 2.109375 0.40625 C 2.210938 0.519531 2.265625 0.664062 2.265625 0.84375 C 2.265625 1.019531 2.210938 1.160156 2.109375 1.265625 C 2.003906 1.378906 1.863281 1.4375 1.6875 1.4375 L 1.59375 1.4375 C 1.570312 1.4375 1.5625 1.425781 1.5625 1.40625 L 1.5625 1.375 C 1.5625 1.351562 1.570312 1.34375 1.59375 1.34375 L 1.703125 1.34375 C 1.847656 1.34375 1.960938 1.296875 2.046875 1.203125 C 2.128906 1.109375 2.171875 0.988281 2.171875 0.84375 C 2.171875 0.695312 2.125 0.578125 2.03125 0.484375 C 1.945312 0.390625 1.832031 0.34375 1.6875 0.34375 L 0.546875 0.34375 C 0.398438 0.34375 0.28125 0.390625 0.1875 0.484375 C 0.101562 0.578125 0.0625 0.695312 0.0625 0.84375 C 0.0625 0.988281 0.101562 1.109375 0.1875 1.203125 C 0.28125 1.296875 0.398438 1.34375 0.546875 1.34375 L 0.984375 1.34375 C 0.992188 1.34375 1 1.335938 1 1.328125 L 1 0.90625 C 1 0.882812 1.007812 0.875 1.03125 0.875 L 1.046875 0.875 C 1.066406 0.875 1.078125 0.882812 1.078125 0.90625 L 1.078125 1.40625 C 1.078125 1.425781 1.066406 1.4375 1.046875 1.4375 L 0.546875 1.4375 C 0.367188 1.4375 0.226562 1.378906 0.125 1.265625 C 0.0195312 1.160156 -0.03125 1.019531 -0.03125 0.84375 Z M -0.03125 0.84375 "/></g></g></g><g fill="#ffffff" fill-opacity="1"><g transform="translate(238.318884, 42.062911)"><g><path d="M -0.03125 0.90625 C -0.03125 0.726562 0.0234375 0.582031 0.140625 0.46875 C 0.265625 0.351562 0.421875 0.296875 0.609375 0.296875 L 2.203125 0.296875 C 2.234375 0.296875 2.25 0.304688 2.25 0.328125 L 2.25 0.359375 C 2.25 0.378906 2.234375 0.390625 2.203125 0.390625 L 0.609375 0.390625 C 0.441406 0.390625 0.304688 0.4375 0.203125 0.53125 C 0.109375 0.625 0.0625 0.75 0.0625 0.90625 C 0.0625 1.0625 0.109375 1.1875 0.203125 1.28125 C 0.304688 1.375 0.441406 1.421875 0.609375 1.421875 L 2.203125 1.421875 C 2.234375 1.421875 2.25 1.429688 2.25 1.453125 L 2.25 1.484375 C 2.25 1.503906 2.234375 1.515625 2.203125 1.515625 L 0.609375 1.515625 C 0.484375 1.515625 0.375 1.488281 0.28125 1.4375 C 0.1875 1.382812 0.109375 1.3125 0.046875 1.21875 C -0.00390625 1.125 -0.03125 1.019531 -0.03125 0.90625 Z M -0.03125 0.90625 "/></g></g></g><g fill="#ffffff" fill-opacity="1"><g transform="translate(238.318884, 44.714733)"><g><path d="M 2.1875 1.484375 C 2.164062 1.484375 2.15625 1.472656 2.15625 1.453125 L 2.15625 0.4375 C 2.15625 0.425781 2.148438 0.421875 2.140625 0.421875 L 1.171875 0.421875 C 1.171875 0.421875 1.171875 0.425781 1.171875 0.4375 L 1.171875 1.140625 C 1.171875 1.160156 1.160156 1.171875 1.140625 1.171875 L 1.109375 1.171875 C 1.085938 1.171875 1.078125 1.160156 1.078125 1.140625 L 1.078125 0.4375 C 1.078125 0.425781 1.070312 0.421875 1.0625 0.421875 L 0.109375 0.421875 C 0.0976562 0.421875 0.09375 0.425781 0.09375 0.4375 L 0.09375 1.453125 C 0.09375 1.472656 0.0820312 1.484375 0.0625 1.484375 L 0.03125 1.484375 C 0.0078125 1.484375 0 1.472656 0 1.453125 L 0 0.359375 C 0 0.335938 0.0078125 0.328125 0.03125 0.328125 L 2.203125 0.328125 C 2.234375 0.328125 2.25 0.335938 2.25 0.359375 L 2.25 1.453125 C 2.25 1.472656 2.234375 1.484375 2.203125 1.484375 Z M 2.1875 1.484375 "/></g></g></g><g fill="#ffffff" fill-opacity="1"><g transform="translate(238.318884, 47.219231)"><g><path d="M 2.21875 1.53125 C 2.238281 1.53125 2.25 1.539062 2.25 1.5625 L 2.25 1.609375 C 2.25 1.628906 2.234375 1.640625 2.203125 1.640625 L 0.03125 1.640625 C 0.0078125 1.640625 0 1.628906 0 1.609375 L 0 1.5625 C 0 1.539062 0.0078125 1.53125 0.03125 1.53125 L 2.015625 1.53125 C 2.023438 1.53125 2.03125 1.53125 2.03125 1.53125 C 2.03125 1.53125 2.023438 1.523438 2.015625 1.515625 L 1.078125 1.03125 C 1.054688 1.019531 1.046875 1.003906 1.046875 0.984375 L 1.046875 0.96875 C 1.046875 0.945312 1.054688 0.9375 1.078125 0.9375 L 2.015625 0.4375 C 2.015625 0.425781 2.015625 0.421875 2.015625 0.421875 L 0.03125 0.421875 C 0.0078125 0.421875 0 0.410156 0 0.390625 L 0 0.359375 C 0 0.335938 0.0078125 0.328125 0.03125 0.328125 L 2.203125 0.328125 C 2.234375 0.328125 2.25 0.335938 2.25 0.359375 L 2.25 0.390625 C 2.25 0.410156 2.238281 0.421875 2.21875 0.421875 L 1.21875 0.96875 C 1.207031 0.96875 1.203125 0.96875 1.203125 0.96875 C 1.203125 0.976562 1.207031 0.984375 1.21875 0.984375 Z M 2.21875 1.53125 "/></g></g></g><g fill="#ffffff" fill-opacity="1"><g transform="translate(238.318884, 50.00877)"><g><path d="M -0.03125 0.859375 C -0.03125 0.734375 -0.00390625 0.625 0.046875 0.53125 C 0.0976562 0.445312 0.171875 0.378906 0.265625 0.328125 C 0.359375 0.273438 0.460938 0.25 0.578125 0.25 L 1.65625 0.25 C 1.769531 0.25 1.875 0.273438 1.96875 0.328125 C 2.0625 0.378906 2.132812 0.445312 2.1875 0.53125 C 2.238281 0.625 2.265625 0.734375 2.265625 0.859375 C 2.265625 0.972656 2.238281 1.078125 2.1875 1.171875 C 2.132812 1.265625 2.0625 1.335938 1.96875 1.390625 C 1.875 1.441406 1.769531 1.46875 1.65625 1.46875 L 0.578125 1.46875 C 0.460938 1.46875 0.359375 1.441406 0.265625 1.390625 C 0.171875 1.335938 0.0976562 1.265625 0.046875 1.171875 C -0.00390625 1.078125 -0.03125 0.972656 -0.03125 0.859375 Z M 0.0625 0.859375 C 0.0625 1.003906 0.109375 1.125 0.203125 1.21875 C 0.296875 1.320312 0.421875 1.375 0.578125 1.375 L 1.65625 1.375 C 1.8125 1.375 1.9375 1.320312 2.03125 1.21875 C 2.125 1.125 2.171875 1.003906 2.171875 0.859375 C 2.171875 0.703125 2.125 0.578125 2.03125 0.484375 C 1.9375 0.390625 1.8125 0.34375 1.65625 0.34375 L 0.578125 0.34375 C 0.421875 0.34375 0.296875 0.390625 0.203125 0.484375 C 0.109375 0.578125 0.0625 0.703125 0.0625 0.859375 Z M 0.0625 0.859375 "/></g></g></g><g fill="#ffffff" fill-opacity="1"><g transform="translate(238.318884, 52.554905)"><g><path d="M 2.203125 1.453125 C 2.234375 1.453125 2.25 1.460938 2.25 1.484375 L 2.25 1.515625 C 2.25 1.535156 2.234375 1.546875 2.203125 1.546875 L 0.03125 1.546875 C 0.0078125 1.546875 0 1.535156 0 1.515625 L 0 1.46875 C 0 1.445312 0.00390625 1.4375 0.015625 1.4375 L 2.015625 0.4375 C 2.015625 0.425781 2.015625 0.421875 2.015625 0.421875 C 2.015625 0.421875 2.007812 0.421875 2 0.421875 L 0.03125 0.421875 C 0.0078125 0.421875 0 0.410156 0 0.390625 L 0 0.359375 C 0 0.335938 0.0078125 0.328125 0.03125 0.328125 L 2.203125 0.328125 C 2.234375 0.328125 2.25 0.335938 2.25 0.359375 L 2.25 0.390625 C 2.25 0.410156 2.238281 0.425781 2.21875 0.4375 L 0.234375 1.4375 C 0.222656 1.4375 0.21875 1.4375 0.21875 1.4375 C 0.226562 1.445312 0.234375 1.453125 0.234375 1.453125 Z M 2.203125 1.453125 "/></g></g></g></svg>