<svg xmlns="http://www.w3.org/2000/svg" xmlns:xlink="http://www.w3.org/1999/xlink" width="500" zoomAndPan="magnify" viewBox="0 0 375 89.999999" height="120" preserveAspectRatio="xMidYMid meet" version="1.0"><defs><g/></defs><g fill="#ffffff" fill-opacity="1"><g transform="translate(89.19624, 48.318334)"><g><path d="M 7.25 -16.71875 C 8.132812 -16.71875 9 -16.585938 9.84375 -16.328125 C 10.695312 -16.066406 11.332031 -15.8125 11.75 -15.5625 L 12.34375 -15.171875 L 10.828125 -12.1875 C 10.710938 -12.257812 10.546875 -12.359375 10.328125 -12.484375 C 10.117188 -12.617188 9.722656 -12.789062 9.140625 -13 C 8.554688 -13.207031 8.007812 -13.3125 7.5 -13.3125 C 6.875 -13.3125 6.390625 -13.175781 6.046875 -12.90625 C 5.710938 -12.644531 5.546875 -12.289062 5.546875 -11.84375 C 5.546875 -11.613281 5.625 -11.398438 5.78125 -11.203125 C 5.945312 -11.015625 6.222656 -10.8125 6.609375 -10.59375 C 6.992188 -10.375 7.332031 -10.195312 7.625 -10.0625 C 7.914062 -9.9375 8.367188 -9.738281 8.984375 -9.46875 C 10.035156 -9.019531 10.9375 -8.40625 11.6875 -7.625 C 12.4375 -6.851562 12.8125 -5.976562 12.8125 -5 C 12.8125 -4.050781 12.640625 -3.222656 12.296875 -2.515625 C 11.960938 -1.816406 11.5 -1.269531 10.90625 -0.875 C 10.320312 -0.476562 9.671875 -0.1875 8.953125 0 C 8.242188 0.195312 7.46875 0.296875 6.625 0.296875 C 5.90625 0.296875 5.203125 0.222656 4.515625 0.078125 C 3.828125 -0.0664062 3.25 -0.25 2.78125 -0.46875 C 2.320312 -0.6875 1.90625 -0.898438 1.53125 -1.109375 C 1.15625 -1.328125 0.882812 -1.507812 0.71875 -1.65625 L 0.453125 -1.875 L 2.328125 -5.015625 C 2.484375 -4.878906 2.703125 -4.707031 2.984375 -4.5 C 3.265625 -4.300781 3.757812 -4.03125 4.46875 -3.6875 C 5.175781 -3.34375 5.800781 -3.171875 6.34375 -3.171875 C 7.925781 -3.171875 8.71875 -3.707031 8.71875 -4.78125 C 8.71875 -5 8.660156 -5.203125 8.546875 -5.390625 C 8.429688 -5.585938 8.234375 -5.78125 7.953125 -5.96875 C 7.671875 -6.164062 7.421875 -6.320312 7.203125 -6.4375 C 6.984375 -6.550781 6.625 -6.722656 6.125 -6.953125 C 5.625 -7.191406 5.253906 -7.367188 5.015625 -7.484375 C 4.015625 -7.972656 3.242188 -8.585938 2.703125 -9.328125 C 2.160156 -10.066406 1.890625 -10.859375 1.890625 -11.703125 C 1.890625 -13.179688 2.429688 -14.382812 3.515625 -15.3125 C 4.609375 -16.25 5.851562 -16.71875 7.25 -16.71875 Z M 7.25 -16.71875 "/></g></g></g><g fill="#ffffff" fill-opacity="1"><g transform="translate(104.546913, 48.318334)"><g><path d="M 4.9375 -16.421875 L 4.9375 0 L 1.1875 0 L 1.1875 -16.421875 Z M 4.9375 -16.421875 "/></g></g></g><g fill="#ffffff" fill-opacity="1"><g transform="translate(112.650316, 48.318334)"><g><path d="M 4.9375 -16.421875 L 4.9375 -3.28125 L 10.59375 -3.28125 L 10.59375 0 L 1.1875 0 L 1.1875 -16.421875 Z M 4.9375 -16.421875 "/></g></g></g><g fill="#ffffff" fill-opacity="1"><g transform="translate(125.870604, 48.318334)"><g><path d="M 4.9375 -16.421875 L 4.9375 -3.28125 L 10.59375 -3.28125 L 10.59375 0 L 1.1875 0 L 1.1875 -16.421875 Z M 4.9375 -16.421875 "/></g></g></g><g fill="#ffffff" fill-opacity="1"><g transform="translate(139.090892, 48.318334)"><g><path d="M 4.9375 -16.421875 L 4.9375 0 L 1.1875 0 L 1.1875 -16.421875 Z M 4.9375 -16.421875 "/></g></g></g><g fill="#ffffff" fill-opacity="1"><g transform="translate(147.194295, 48.318334)"><g><path d="M 9.9375 -3.390625 C 10.507812 -3.390625 11.0625 -3.472656 11.59375 -3.640625 C 12.132812 -3.816406 12.53125 -3.984375 12.78125 -4.140625 L 13.15625 -4.40625 L 14.75 -1.21875 C 14.695312 -1.175781 14.625 -1.117188 14.53125 -1.046875 C 14.4375 -0.984375 14.21875 -0.863281 13.875 -0.6875 C 13.539062 -0.507812 13.179688 -0.351562 12.796875 -0.21875 C 12.410156 -0.0820312 11.90625 0.0351562 11.28125 0.140625 C 10.65625 0.242188 10.015625 0.296875 9.359375 0.296875 C 7.828125 0.296875 6.378906 -0.078125 5.015625 -0.828125 C 3.648438 -1.578125 2.546875 -2.609375 1.703125 -3.921875 C 0.867188 -5.234375 0.453125 -6.65625 0.453125 -8.1875 C 0.453125 -9.332031 0.695312 -10.4375 1.1875 -11.5 C 1.6875 -12.5625 2.34375 -13.472656 3.15625 -14.234375 C 3.96875 -14.992188 4.914062 -15.597656 6 -16.046875 C 7.09375 -16.492188 8.210938 -16.71875 9.359375 -16.71875 C 10.421875 -16.71875 11.398438 -16.59375 12.296875 -16.34375 C 13.191406 -16.09375 13.820312 -15.84375 14.1875 -15.59375 L 14.75 -15.203125 L 13.15625 -12.015625 C 13.0625 -12.097656 12.921875 -12.195312 12.734375 -12.3125 C 12.554688 -12.425781 12.1875 -12.570312 11.625 -12.75 C 11.070312 -12.9375 10.507812 -13.03125 9.9375 -13.03125 C 9.03125 -13.03125 8.21875 -12.882812 7.5 -12.59375 C 6.789062 -12.300781 6.222656 -11.914062 5.796875 -11.4375 C 5.378906 -10.96875 5.0625 -10.457031 4.84375 -9.90625 C 4.625 -9.351562 4.515625 -8.789062 4.515625 -8.21875 C 4.515625 -6.96875 4.984375 -5.847656 5.921875 -4.859375 C 6.859375 -3.878906 8.195312 -3.390625 9.9375 -3.390625 Z M 9.9375 -3.390625 "/></g></g></g><g fill="#ffffff" fill-opacity="1"><g transform="translate(164.157675, 48.318334)"><g><path d="M 0.453125 -8.21875 C 0.453125 -10.59375 1.257812 -12.601562 2.875 -14.25 C 4.5 -15.894531 6.453125 -16.71875 8.734375 -16.71875 C 11.035156 -16.71875 12.988281 -15.894531 14.59375 -14.25 C 16.195312 -12.613281 17 -10.601562 17 -8.21875 C 17 -5.820312 16.207031 -3.800781 14.625 -2.15625 C 13.050781 -0.519531 11.085938 0.296875 8.734375 0.296875 C 6.335938 0.296875 4.359375 -0.515625 2.796875 -2.140625 C 1.234375 -3.765625 0.453125 -5.789062 0.453125 -8.21875 Z M 4.5 -8.21875 C 4.5 -7.351562 4.628906 -6.566406 4.890625 -5.859375 C 5.160156 -5.148438 5.625 -4.550781 6.28125 -4.0625 C 6.945312 -3.570312 7.765625 -3.328125 8.734375 -3.328125 C 10.128906 -3.328125 11.179688 -3.800781 11.890625 -4.75 C 12.597656 -5.707031 12.953125 -6.863281 12.953125 -8.21875 C 12.953125 -9.5625 12.59375 -10.710938 11.875 -11.671875 C 11.15625 -12.640625 10.109375 -13.125 8.734375 -13.125 C 7.378906 -13.125 6.332031 -12.640625 5.59375 -11.671875 C 4.863281 -10.710938 4.5 -9.5625 4.5 -8.21875 Z M 4.5 -8.21875 "/></g></g></g><g fill="#ffffff" fill-opacity="1"><g transform="translate(183.589926, 48.318334)"><g><path d="M 4.9375 -10.1875 L 4.9375 0 L 1.1875 0 L 1.1875 -16.421875 L 4.9375 -16.421875 L 11.46875 -6.234375 L 11.5 -6.234375 L 11.5 -16.421875 L 15.25 -16.421875 L 15.25 0 L 11.5 0 L 4.984375 -10.1875 Z M 4.9375 -10.1875 "/></g></g></g><g fill="#ffffff" fill-opacity="1"><g transform="translate(202.006745, 48.318334)"><g/></g></g><g fill="#5b43d6" fill-opacity="1"><g transform="translate(209.407815, 48.318334)"><g><path d="M 7.25 -16.71875 C 8.132812 -16.71875 9 -16.585938 9.84375 -16.328125 C 10.695312 -16.066406 11.332031 -15.8125 11.75 -15.5625 L 12.34375 -15.171875 L 10.828125 -12.1875 C 10.710938 -12.257812 10.546875 -12.359375 10.328125 -12.484375 C 10.117188 -12.617188 9.722656 -12.789062 9.140625 -13 C 8.554688 -13.207031 8.007812 -13.3125 7.5 -13.3125 C 6.875 -13.3125 6.390625 -13.175781 6.046875 -12.90625 C 5.710938 -12.644531 5.546875 -12.289062 5.546875 -11.84375 C 5.546875 -11.613281 5.625 -11.398438 5.78125 -11.203125 C 5.945312 -11.015625 6.222656 -10.8125 6.609375 -10.59375 C 6.992188 -10.375 7.332031 -10.195312 7.625 -10.0625 C 7.914062 -9.9375 8.367188 -9.738281 8.984375 -9.46875 C 10.035156 -9.019531 10.9375 -8.40625 11.6875 -7.625 C 12.4375 -6.851562 12.8125 -5.976562 12.8125 -5 C 12.8125 -4.050781 12.640625 -3.222656 12.296875 -2.515625 C 11.960938 -1.816406 11.5 -1.269531 10.90625 -0.875 C 10.320312 -0.476562 9.671875 -0.1875 8.953125 0 C 8.242188 0.195312 7.46875 0.296875 6.625 0.296875 C 5.90625 0.296875 5.203125 0.222656 4.515625 0.078125 C 3.828125 -0.0664062 3.25 -0.25 2.78125 -0.46875 C 2.320312 -0.6875 1.90625 -0.898438 1.53125 -1.109375 C 1.15625 -1.328125 0.882812 -1.507812 0.71875 -1.65625 L 0.453125 -1.875 L 2.328125 -5.015625 C 2.484375 -4.878906 2.703125 -4.707031 2.984375 -4.5 C 3.265625 -4.300781 3.757812 -4.03125 4.46875 -3.6875 C 5.175781 -3.34375 5.800781 -3.171875 6.34375 -3.171875 C 7.925781 -3.171875 8.71875 -3.707031 8.71875 -4.78125 C 8.71875 -5 8.660156 -5.203125 8.546875 -5.390625 C 8.429688 -5.585938 8.234375 -5.78125 7.953125 -5.96875 C 7.671875 -6.164062 7.421875 -6.320312 7.203125 -6.4375 C 6.984375 -6.550781 6.625 -6.722656 6.125 -6.953125 C 5.625 -7.191406 5.253906 -7.367188 5.015625 -7.484375 C 4.015625 -7.972656 3.242188 -8.585938 2.703125 -9.328125 C 2.160156 -10.066406 1.890625 -10.859375 1.890625 -11.703125 C 1.890625 -13.179688 2.429688 -14.382812 3.515625 -15.3125 C 4.609375 -16.25 5.851562 -16.71875 7.25 -16.71875 Z M 7.25 -16.71875 "/></g></g></g><g fill="#5b43d6" fill-opacity="1"><g transform="translate(224.758488, 48.318334)"><g><path d="M 0.15625 -13.140625 L 0.15625 -16.421875 L 11.703125 -16.421875 L 11.703125 -13.140625 L 7.796875 -13.140625 L 7.796875 0 L 4.0625 0 L 4.0625 -13.140625 Z M 0.15625 -13.140625 "/></g></g></g><g fill="#5b43d6" fill-opacity="1"><g transform="translate(238.596, 48.318334)"><g><path d="M 0.453125 -8.21875 C 0.453125 -10.59375 1.257812 -12.601562 2.875 -14.25 C 4.5 -15.894531 6.453125 -16.71875 8.734375 -16.71875 C 11.035156 -16.71875 12.988281 -15.894531 14.59375 -14.25 C 16.195312 -12.613281 17 -10.601562 17 -8.21875 C 17 -5.820312 16.207031 -3.800781 14.625 -2.15625 C 13.050781 -0.519531 11.085938 0.296875 8.734375 0.296875 C 6.335938 0.296875 4.359375 -0.515625 2.796875 -2.140625 C 1.234375 -3.765625 0.453125 -5.789062 0.453125 -8.21875 Z M 4.5 -8.21875 C 4.5 -7.351562 4.628906 -6.566406 4.890625 -5.859375 C 5.160156 -5.148438 5.625 -4.550781 6.28125 -4.0625 C 6.945312 -3.570312 7.765625 -3.328125 8.734375 -3.328125 C 10.128906 -3.328125 11.179688 -3.800781 11.890625 -4.75 C 12.597656 -5.707031 12.953125 -6.863281 12.953125 -8.21875 C 12.953125 -9.5625 12.59375 -10.710938 11.875 -11.671875 C 11.15625 -12.640625 10.109375 -13.125 8.734375 -13.125 C 7.378906 -13.125 6.332031 -12.640625 5.59375 -11.671875 C 4.863281 -10.710938 4.5 -9.5625 4.5 -8.21875 Z M 4.5 -8.21875 "/></g></g></g><g fill="#5b43d6" fill-opacity="1"><g transform="translate(258.028252, 48.318334)"><g><path d="M 1.1875 -16.421875 L 7.0625 -16.421875 C 8.644531 -16.421875 9.929688 -16 10.921875 -15.15625 C 11.921875 -14.3125 12.421875 -13.109375 12.421875 -11.546875 C 12.421875 -10.335938 12.117188 -9.320312 11.515625 -8.5 C 10.910156 -7.6875 10.09375 -7.113281 9.0625 -6.78125 L 14.703125 0 L 9.953125 0 L 4.9375 -6.484375 L 4.9375 0 L 1.1875 0 Z M 4.9375 -9.140625 L 5.375 -9.140625 C 5.71875 -9.140625 6.007812 -9.144531 6.25 -9.15625 C 6.488281 -9.164062 6.757812 -9.210938 7.0625 -9.296875 C 7.375 -9.378906 7.617188 -9.492188 7.796875 -9.640625 C 7.984375 -9.785156 8.144531 -9.992188 8.28125 -10.265625 C 8.414062 -10.546875 8.484375 -10.882812 8.484375 -11.28125 C 8.484375 -11.6875 8.414062 -12.023438 8.28125 -12.296875 C 8.144531 -12.578125 7.984375 -12.789062 7.796875 -12.9375 C 7.617188 -13.082031 7.375 -13.191406 7.0625 -13.265625 C 6.757812 -13.347656 6.488281 -13.394531 6.25 -13.40625 C 6.007812 -13.425781 5.71875 -13.4375 5.375 -13.4375 L 4.9375 -13.4375 Z M 4.9375 -9.140625 "/></g></g></g><g fill="#5b43d6" fill-opacity="1"><g transform="translate(274.254963, 48.318334)"><g><path d="M 10.59375 -16.421875 L 10.59375 -13.140625 L 4.9375 -13.140625 L 4.9375 -9.875 L 10.34375 -9.875 L 10.34375 -6.59375 L 4.9375 -6.59375 L 4.9375 -3.28125 L 10.59375 -3.28125 L 10.59375 0 L 1.1875 0 L 1.1875 -16.421875 Z M 10.59375 -16.421875 "/></g></g></g></svg>