<svg width="21" height="20" viewBox="0 0 21 20" fill="none" xmlns="http://www.w3.org/2000/svg">
<path d="M1 1H17V10H18V1C18 0.5 17.5 0 17.0003 0H1C0.5 0 0 0.5 0 1V8.5V16C0 16.5 0.5 17 1 17H11L11.0002 16H1V1Z" fill="#5B43D6"/>
<path d="M1 1H17V10H18V1C18 0.5 17.5 0 17.0003 0H1C0.5 0 0 0.5 0 1V8.5V16C0 16.5 0.5 17 1 17H11L11.0002 16H1V1Z" fill="#5B43D6"/>
<mask id="mask0_872_2" style="mask-type:luminance" maskUnits="userSpaceOnUse" x="3" y="5" width="12" height="8">
<path d="M14.9639 5L14.9639 13L2.99996 13L2.99996 5L14.9639 5Z" fill="white"/>
</mask>
<g mask="url(#mask0_872_2)">
<path d="M14.6741 6.22723L4.3639 6.22723V5.09151C4.3639 5.06651 4.35591 5.04509 4.33993 5.02782C4.32395 5.00997 4.30531 5.00104 4.28295 5.00104H3.08091C3.05854 5.00104 3.03937 5.00997 3.02339 5.02782C3.00741 5.04509 2.99996 5.06651 2.99996 5.09151V5.72723C2.99996 5.75223 3.00741 5.77366 3.02339 5.79092C3.03937 5.80878 3.05854 5.8177 3.08091 5.8177H3.73332L3.73332 12.9082C3.73332 12.9326 3.74131 12.954 3.75676 12.9719C3.77273 12.9891 3.79191 12.9981 3.81427 12.9981H4.28348C4.30585 12.9981 4.32502 12.9891 4.341 12.9719C4.35697 12.954 4.36443 12.9326 4.36443 12.9082V11.9933H5.08448V12.9082C5.08448 12.9326 5.09247 12.954 5.10791 12.9719C5.12389 12.9891 5.14306 12.9981 5.16543 12.9981L11.9905 12.9981C12.0128 12.9981 12.0315 12.9891 12.0475 12.9719C12.0634 12.954 12.0714 12.9326 12.0714 12.9082L12.0714 11.9933H12.5917L12.5917 12.9082C12.5917 12.9326 12.5997 12.954 12.6157 12.9719C12.6312 12.9891 12.6503 12.9981 12.6727 12.9981H14.0377C14.0601 12.9981 14.0792 12.9891 14.0947 12.9719C14.1107 12.954 14.1187 12.9326 14.1187 12.9082V11.9933H14.6741C14.7125 11.9933 14.7492 11.985 14.7849 11.9689C14.8206 11.9522 14.852 11.929 14.8792 11.8987C14.9063 11.8683 14.9271 11.8332 14.942 11.7939C14.9569 11.754 14.9639 11.7129 14.9639 11.6701L14.9639 6.55104C14.9639 6.50818 14.9569 6.46651 14.942 6.42723C14.9271 6.38735 14.9063 6.35282 14.8792 6.32247C14.852 6.29211 14.8206 6.2683 14.7849 6.25223C14.7492 6.23556 14.7125 6.22723 14.6741 6.22723ZM3.89523 12.8177L3.89523 5.72723C3.89523 5.70223 3.88724 5.6808 3.87126 5.66354C3.85582 5.64568 3.83664 5.63675 3.81427 5.63675H3.16186V5.18139H4.20199L4.20253 12.8177H3.89523ZM12.9763 6.40818L12.5065 6.93139L6.27427 6.93139L5.80453 6.40818L12.9763 6.40818ZM5.75074 11.8129L6.24444 11.2623L12.4772 11.2623L12.9709 11.8129L5.75074 11.8129ZM5.24639 11.9993L5.76672 11.9993V12.8177L5.24639 12.8177V11.9993ZM5.92862 11.9993H6.44949V12.8177H5.92862V11.9993ZM6.61139 11.9993H7.13172V12.8177H6.61139V11.9993ZM7.29363 11.9993H7.81449V12.8177H7.29363V11.9993ZM7.9764 11.9993H8.49673V12.8177H7.9764V11.9993ZM8.65864 11.9993L9.1795 11.9993V12.8177L8.65864 12.8177V11.9993ZM9.3414 11.9993H9.86174V12.8177H9.3414V11.9993ZM10.0236 11.9993H10.5445V12.8177H10.0236V11.9993ZM10.7064 11.9993H11.2267L11.2267 12.8177H10.7064V11.9993ZM11.9095 12.8177H11.3886L11.3886 11.9993H11.9095L11.9095 12.8177ZM12.7537 11.9993H13.274V12.8177H12.7537L12.7537 11.9993ZM13.9568 12.8177H13.4364V11.9993H13.9568V12.8177ZM14.802 11.6701C14.802 11.7094 14.7897 11.7433 14.7647 11.7713C14.7397 11.7987 14.7093 11.8129 14.6741 11.8129H13.1808C13.1776 11.7951 13.1701 11.7796 13.1584 11.7671L12.5678 11.1088C12.5523 11.0909 12.5332 11.082 12.5108 11.082L6.21089 11.082C6.18852 11.082 6.16935 11.0909 6.15337 11.1088L5.59256 11.7338C5.57286 11.7558 5.5654 11.782 5.5702 11.8129L4.36443 11.8129L4.36443 6.40818L5.57978 6.40818C5.58351 6.41473 5.58777 6.42128 5.59256 6.42723L6.1832 7.08556C6.19917 7.10282 6.21781 7.11175 6.24018 7.11175L12.5401 7.11175C12.5625 7.11175 12.5816 7.10282 12.5976 7.08556L13.1584 6.45997C13.1717 6.44568 13.1792 6.42782 13.1813 6.40818H14.6741C14.7093 6.40818 14.7397 6.42187 14.7647 6.44985C14.7897 6.47782 14.802 6.51116 14.802 6.55104L14.802 11.6701Z" fill="#5B43D6"/>
</g>
<path d="M6.05332 8.48334C6.08528 8.07441 6.19819 7.79406 6.39311 7.64168C6.424 7.61727 6.43465 7.58513 6.4256 7.54465C6.41654 7.50418 6.39364 7.48096 6.35636 7.4756C6.29298 7.46668 6.22961 7.46191 6.16517 7.46191C6.0661 7.46191 5.96811 7.47322 5.87118 7.49584C5.83283 7.50358 5.80141 7.52441 5.77745 7.55834C5.58252 7.82144 5.58518 8.18096 5.7849 8.63691C5.86159 8.55775 5.95107 8.50656 6.05332 8.48334ZM5.9026 7.67382L5.90313 7.67263H5.90367C5.98622 7.65358 6.06983 7.64346 6.15451 7.64227C6.0251 7.81191 5.94148 8.04703 5.9042 8.34465C5.88822 8.3518 5.87278 8.35953 5.8568 8.36727C5.76094 8.07203 5.77638 7.84346 5.9026 7.67382Z" fill="#5B43D6"/>
<path d="M5.60366 9.0744C5.60739 8.95833 5.63828 8.85118 5.6958 8.75416C5.45933 8.44047 5.36134 8.15237 5.40235 7.89106C5.40448 7.87797 5.40395 7.86428 5.40075 7.85118C5.39756 7.83809 5.3917 7.82678 5.38424 7.81606C5.37625 7.80594 5.36667 7.79761 5.35548 7.79225C5.34483 7.7863 5.33311 7.78333 5.32086 7.78333C5.30222 7.78333 5.28571 7.78987 5.27133 7.80297C5.14085 7.91428 5.03061 8.04642 4.9406 8.1994C4.91823 8.23511 4.90971 8.2744 4.9145 8.31785C4.94326 8.65713 5.17281 8.90952 5.60366 9.0744ZM5.07588 8.2988C5.12221 8.22023 5.17494 8.14702 5.23352 8.08035C5.25003 8.30178 5.34004 8.53392 5.50247 8.7738C5.49555 8.79106 5.48916 8.80892 5.48383 8.82678C5.22819 8.69344 5.09398 8.52023 5.07534 8.30059V8.2994L5.07588 8.2988Z" fill="#5B43D6"/>
<path d="M5.75146 9.52738C5.68063 9.44167 5.63483 9.34226 5.61353 9.22798C5.24711 9.19286 4.9952 9.06667 4.85833 8.84941C4.84235 8.82321 4.81998 8.81012 4.79175 8.81012C4.77098 8.81012 4.75287 8.81726 4.7369 8.83274C4.72145 8.84821 4.7124 8.86726 4.70974 8.89048C4.6879 9.07143 4.69376 9.25179 4.72784 9.43095C4.73423 9.47381 4.75341 9.50833 4.78376 9.53512C4.9004 9.64286 5.03781 9.69643 5.19705 9.69643C5.35948 9.69643 5.54429 9.63988 5.75146 9.52738ZM4.88655 9.39583V9.39464C4.86898 9.30238 4.85992 9.20952 4.85939 9.11548C5.01118 9.25952 5.22208 9.35298 5.48943 9.39405C5.49529 9.41191 5.50222 9.42917 5.50967 9.44643C5.39464 9.49226 5.28972 9.51607 5.19705 9.51607C5.07615 9.51607 4.97443 9.47679 4.88709 9.39643L4.88655 9.39583Z" fill="#5B43D6"/>
<path d="M6.47889 8.5744C6.71908 8.3494 6.94223 8.2369 7.14834 8.2369C7.18349 8.2369 7.21864 8.23988 7.25326 8.24702C7.25805 8.24762 7.26338 8.24821 7.26817 8.24821C7.30226 8.24762 7.32676 8.23035 7.34114 8.19643C7.35605 8.1625 7.35339 8.13095 7.33262 8.10059C7.23249 7.95535 7.11426 7.83273 6.97685 7.73214C6.95022 7.7119 6.92146 7.70178 6.88951 7.70178C6.88312 7.70178 6.87726 7.70238 6.87087 7.70297C6.56623 7.73512 6.33988 7.99166 6.19183 8.47143C6.29621 8.47559 6.39154 8.51012 6.47889 8.5744ZM6.88631 7.88273H6.88684L6.88738 7.88333C6.95821 7.93452 7.02372 7.99345 7.0839 8.05893C6.88525 8.07678 6.67647 8.17738 6.46131 8.35893C6.44587 8.35119 6.42989 8.34404 6.41391 8.3375C6.53321 8.05297 6.68872 7.90357 6.88631 7.88273Z" fill="#5B43D6"/>
<path d="M6.28205 9.71845C6.2501 10.1268 6.13666 10.4077 5.94227 10.5601C5.91138 10.5839 5.90072 10.6161 5.90978 10.6565C5.9183 10.6976 5.94173 10.7202 5.97901 10.7256C6.04239 10.7351 6.10577 10.7399 6.16968 10.7399C6.26874 10.7393 6.36727 10.728 6.4642 10.7054C6.50254 10.6982 6.53343 10.6768 6.5574 10.6429C6.75286 10.3798 6.75019 10.0202 6.55047 9.56488C6.47378 9.64345 6.38431 9.69464 6.28205 9.71845ZM6.43277 10.528L6.43224 10.5286H6.43171C6.34863 10.5482 6.26554 10.5583 6.18086 10.5589C6.31028 10.3899 6.3939 10.1548 6.43118 9.85655C6.44662 9.85 6.4626 9.84226 6.47804 9.83393C6.57391 10.1298 6.559 10.3577 6.43277 10.528Z" fill="#5B43D6"/>
<path d="M6.7324 9.12677C6.72814 9.24344 6.69725 9.34998 6.63973 9.44701C6.87673 9.76129 6.97472 10.0488 6.93372 10.3101C6.93159 10.3238 6.93212 10.3369 6.93531 10.35C6.93851 10.3631 6.94383 10.375 6.95182 10.3851C6.95981 10.3958 6.9694 10.4036 6.98005 10.4095C6.99123 10.4149 7.00295 10.4178 7.0152 10.4178C7.03384 10.4178 7.05035 10.4113 7.06473 10.3988C7.19521 10.2875 7.30546 10.1553 7.39546 10.0018C7.41783 9.96606 7.42635 9.92677 7.42156 9.88391C7.3928 9.54403 7.16273 9.29225 6.7324 9.12677ZM7.26019 9.90237C7.21385 9.98153 7.16113 10.0542 7.10201 10.1214C7.08603 9.89939 6.99603 9.66725 6.83306 9.42796C6.83998 9.4101 6.84637 9.39284 6.85223 9.37439C7.10787 9.50772 7.24155 9.68153 7.26072 9.90117V9.90177L7.26019 9.90237Z" fill="#5B43D6"/>
<path d="M7.55187 8.66609C7.43576 8.55894 7.29783 8.50537 7.13912 8.50537C6.97668 8.50537 6.79134 8.56132 6.5847 8.67442C6.65553 8.75954 6.70133 8.85954 6.72264 8.97382C7.08905 9.00894 7.34097 9.13513 7.47784 9.35239C7.49382 9.37859 7.51618 9.39109 7.54441 9.39109C7.56518 9.39168 7.58329 9.38394 7.59927 9.36906C7.61471 9.35359 7.62377 9.33454 7.62643 9.31132C7.64826 9.12978 7.64187 8.94942 7.60832 8.77025C7.6014 8.72799 7.58276 8.69287 7.55187 8.66609ZM6.84673 8.80716C6.84034 8.78989 6.83395 8.77204 6.82649 8.75537C6.94153 8.70894 7.04591 8.68573 7.13912 8.68573C7.26001 8.68573 7.36174 8.72501 7.44908 8.80537L7.44961 8.80597V8.80656C7.46665 8.89882 7.47571 8.99168 7.47677 9.08573C7.32499 8.94168 7.11409 8.84882 6.84673 8.80716Z" fill="#5B43D6"/>
<path d="M5.85698 9.62738C5.61679 9.85238 5.39364 9.96488 5.18753 9.96488C5.15238 9.96488 5.11723 9.96131 5.08261 9.95476C5.07728 9.95357 5.07249 9.95357 5.06716 9.95357C5.03361 9.95357 5.00911 9.97083 4.9942 10.0048C4.97929 10.0387 4.98248 10.0708 5.00325 10.1006C5.10285 10.2464 5.22161 10.369 5.35902 10.469C5.38511 10.4893 5.41441 10.4994 5.44636 10.4994C5.45222 10.4994 5.45861 10.4994 5.465 10.4982C5.76964 10.4661 5.99599 10.2101 6.14404 9.73036C6.03966 9.72559 5.94379 9.69107 5.85698 9.62738ZM5.44956 10.319H5.44902L5.44796 10.3185C5.37766 10.2667 5.31215 10.2083 5.25197 10.1423C5.45062 10.1244 5.65939 10.0238 5.87402 9.84286C5.89 9.85 5.90598 9.85714 5.92196 9.86369C5.80213 10.1488 5.64661 10.2982 5.44956 10.319Z" fill="#5B43D6"/>
<path d="M5.70461 9.10059C5.70461 9.16904 5.71633 9.23511 5.73976 9.2988C5.7632 9.3619 5.79675 9.41785 5.84042 9.46607C5.88356 9.51488 5.93362 9.55178 5.99061 9.57857C6.04759 9.60476 6.10671 9.61785 6.16796 9.61785C6.22974 9.61785 6.28885 9.60476 6.34584 9.57857C6.40229 9.55178 6.45236 9.51488 6.49603 9.46607C6.5397 9.41785 6.57325 9.3619 6.59669 9.2988C6.62012 9.23511 6.63184 9.16904 6.63184 9.10059C6.63184 9.03214 6.62012 8.96607 6.59669 8.90297C6.57325 8.83988 6.5397 8.78392 6.49603 8.73511C6.45236 8.6869 6.40229 8.6494 6.34584 8.62321C6.28885 8.59702 6.22974 8.58392 6.16796 8.58392C6.10671 8.58392 6.04759 8.59702 5.99061 8.62321C5.93415 8.6494 5.88409 8.6869 5.84042 8.73571C5.79675 8.78392 5.7632 8.83988 5.73976 8.90297C5.71633 8.96607 5.70461 9.03214 5.70461 9.10059ZM6.46993 9.10059C6.46993 9.14523 6.46247 9.18809 6.44703 9.22976C6.43159 9.27083 6.40975 9.30714 6.38152 9.33869C6.3533 9.37023 6.32081 9.39464 6.28353 9.4113C6.24678 9.42857 6.2079 9.4369 6.16796 9.4369C6.12801 9.4369 6.08967 9.42857 6.05239 9.4113C6.01564 9.39464 5.98315 9.37023 5.95492 9.33869C5.92617 9.30714 5.90486 9.27083 5.88942 9.22976C5.87397 9.18809 5.86652 9.14523 5.86652 9.10059C5.86652 9.05595 5.87397 9.01309 5.88942 8.97202C5.90486 8.93095 5.92617 8.89464 5.95492 8.86309C5.98315 8.83154 6.01564 8.80714 6.05239 8.78988C6.08967 8.77321 6.12801 8.76428 6.16796 8.76428C6.2079 8.76428 6.24678 8.77321 6.28353 8.78988C6.32028 8.80714 6.3533 8.83154 6.38152 8.86309C6.40975 8.89464 6.43159 8.93095 6.44703 8.97202C6.46194 9.01309 6.46993 9.05595 6.46993 9.10059Z" fill="#5B43D6"/>
<path d="M9.4362 8.48334C9.46762 8.07441 9.58106 7.79406 9.77599 7.64168C9.80634 7.61727 9.81753 7.58513 9.80847 7.54465C9.79942 7.50418 9.77652 7.48096 9.73924 7.4756C9.67586 7.46668 9.61248 7.46191 9.54804 7.46191C9.44898 7.46191 9.35099 7.47322 9.25406 7.49584C9.21571 7.50358 9.18429 7.52441 9.16032 7.55834C8.9654 7.82144 8.96806 8.18096 9.16778 8.63691C9.24447 8.55775 9.33394 8.50656 9.4362 8.48334ZM9.28548 7.67382L9.28601 7.67263H9.28654C9.36909 7.65358 9.45271 7.64346 9.53739 7.64227C9.40797 7.81191 9.32436 8.04703 9.28708 8.34465C9.2711 8.3518 9.25565 8.35953 9.23968 8.36727C9.14381 8.07203 9.15926 7.84346 9.28548 7.67382Z" fill="#5B43D6"/>
<path d="M8.98501 9.0744C8.98874 8.95833 9.01963 8.85118 9.07715 8.75416C8.84068 8.44047 8.74269 8.15237 8.7837 7.89106C8.78529 7.87797 8.78476 7.86428 8.78157 7.85118C8.7789 7.83809 8.77304 7.82678 8.76506 7.81606C8.7576 7.80594 8.74801 7.79761 8.73683 7.79225C8.72618 7.7863 8.71446 7.78333 8.70221 7.78333C8.68357 7.78333 8.66706 7.78987 8.65215 7.80297C8.5222 7.91428 8.41195 8.04642 8.32195 8.1994C8.29958 8.23511 8.29106 8.2744 8.29532 8.31785C8.32461 8.65713 8.55415 8.90952 8.98501 9.0744ZM8.45722 8.2988C8.50356 8.22023 8.55628 8.14702 8.61487 8.08035C8.63138 8.30178 8.72138 8.53392 8.88382 8.7738C8.8769 8.79106 8.87104 8.80892 8.86518 8.82678C8.60954 8.69344 8.47533 8.52023 8.45669 8.30059V8.2994L8.45722 8.2988Z" fill="#5B43D6"/>
<path d="M9.13379 9.52738C9.06296 9.44167 9.01715 9.34226 8.99585 9.22798C8.62943 9.19286 8.37752 9.06667 8.24065 8.84941C8.22467 8.82321 8.2023 8.81012 8.17408 8.81012C8.15331 8.81012 8.1352 8.81726 8.11922 8.83274C8.10378 8.84821 8.09472 8.86726 8.09206 8.89048C8.07022 9.07143 8.07608 9.25179 8.11017 9.43095C8.11656 9.47381 8.13573 9.50833 8.16609 9.53512C8.28272 9.64286 8.42013 9.69643 8.57937 9.69643C8.74181 9.69643 8.92661 9.63988 9.13379 9.52738ZM8.26888 9.39583V9.39464C8.2513 9.30238 8.24225 9.20952 8.24172 9.11548C8.3935 9.25952 8.6044 9.35298 8.87176 9.39405C8.87762 9.41191 8.88454 9.42917 8.892 9.44643C8.77696 9.49226 8.67204 9.51607 8.57937 9.51607C8.45794 9.51607 8.35675 9.47679 8.26941 9.39643L8.26888 9.39583Z" fill="#5B43D6"/>
<path d="M9.86023 8.5744C10.1004 8.3494 10.3236 8.2369 10.5292 8.2369C10.5648 8.2369 10.6 8.23988 10.6346 8.24702C10.6394 8.24762 10.6447 8.24821 10.6495 8.24821C10.6836 8.24762 10.7081 8.23035 10.7225 8.19643C10.7374 8.1625 10.7347 8.13095 10.714 8.10059C10.6138 7.95535 10.4956 7.83273 10.3582 7.73214C10.3316 7.7119 10.3028 7.70178 10.2709 7.70178C10.2645 7.70178 10.2586 7.70238 10.2522 7.70297C9.94758 7.73512 9.7207 7.99166 9.57317 8.47143C9.67703 8.47559 9.77289 8.51012 9.86023 8.5744ZM10.2677 7.88273H10.2682L10.2687 7.88333C10.3396 7.93452 10.4051 7.99345 10.4652 8.05893C10.2666 8.07678 10.0578 8.17738 9.84266 8.35893C9.82721 8.35119 9.81124 8.34404 9.79526 8.3375C9.91456 8.05297 10.0701 7.90357 10.2677 7.88273Z" fill="#5B43D6"/>
<path d="M9.66438 9.71845C9.63242 10.1268 9.51898 10.4077 9.32459 10.5601C9.2937 10.5839 9.28305 10.6161 9.2921 10.6565C9.30062 10.6976 9.32406 10.7202 9.36081 10.7256C9.42472 10.7351 9.48809 10.7399 9.552 10.7399C9.65106 10.7393 9.74959 10.728 9.84652 10.7054C9.88487 10.6982 9.91576 10.6768 9.93972 10.6429C10.1352 10.3798 10.1325 10.0202 9.9328 9.56488C9.85611 9.64345 9.76663 9.69464 9.66438 9.71845ZM9.8151 10.528L9.81457 10.5286H9.81403C9.73095 10.5482 9.64787 10.5583 9.56319 10.5589C9.6926 10.3899 9.77622 10.1548 9.8135 9.85655C9.82894 9.85 9.84492 9.84226 9.86037 9.83393C9.95623 10.1298 9.94132 10.3577 9.8151 10.528Z" fill="#5B43D6"/>
<path d="M10.1153 9.12677C10.111 9.24344 10.0801 9.34998 10.0226 9.44701C10.2596 9.76129 10.3576 10.0488 10.3166 10.3101C10.3144 10.3238 10.315 10.3369 10.3182 10.35C10.3214 10.3631 10.3267 10.375 10.3347 10.3851C10.3427 10.3958 10.3523 10.4036 10.3629 10.4095C10.3741 10.4149 10.3858 10.4178 10.3981 10.4178C10.4167 10.4178 10.4332 10.4113 10.4476 10.3988C10.5781 10.2875 10.6883 10.1553 10.7783 10.0018C10.8002 9.96606 10.8092 9.92677 10.8044 9.88391C10.7757 9.54403 10.5456 9.29225 10.1153 9.12677ZM10.643 9.90237C10.5967 9.98153 10.544 10.0542 10.4849 10.1214C10.4689 9.89939 10.3789 9.66725 10.2159 9.42796C10.2228 9.4101 10.2292 9.39284 10.2351 9.37439C10.4907 9.50772 10.6244 9.68153 10.6436 9.90117V9.90177L10.643 9.90237Z" fill="#5B43D6"/>
<path d="M10.9332 8.66609C10.8171 8.55894 10.6792 8.50537 10.5205 8.50537C10.358 8.50537 10.1727 8.56132 9.96605 8.67442C10.0369 8.75954 10.0827 8.85954 10.104 8.97382C10.4704 9.00894 10.7223 9.13513 10.8592 9.35239C10.8752 9.37859 10.897 9.39168 10.9258 9.39109C10.9465 9.39168 10.9646 9.38394 10.9806 9.36906C10.9961 9.35359 11.0051 9.33454 11.0078 9.31132C11.0296 9.12978 11.0232 8.94942 10.9897 8.77025C10.9827 8.72799 10.9641 8.69287 10.9332 8.66609ZM10.2281 8.80716C10.2217 8.78989 10.2153 8.77204 10.2078 8.75537C10.3229 8.70894 10.4273 8.68573 10.5205 8.68573C10.6414 8.68573 10.7426 8.72501 10.8304 8.80537L10.831 8.80597V8.80656C10.848 8.89882 10.8571 8.99168 10.8581 9.08573C10.7058 8.94168 10.4954 8.84882 10.2281 8.80716Z" fill="#5B43D6"/>
<path d="M9.23931 9.62738C8.99911 9.85238 8.77596 9.96488 8.56985 9.96488C8.5347 9.96488 8.49955 9.96131 8.46493 9.95476C8.45961 9.95357 8.45481 9.95357 8.44949 9.95357C8.41593 9.95357 8.39144 9.97083 8.37652 10.0048C8.36214 10.0387 8.36481 10.0708 8.38558 10.1006C8.48517 10.2464 8.60394 10.369 8.74134 10.469C8.76744 10.4893 8.79673 10.4994 8.82869 10.4994C8.83454 10.4994 8.84093 10.4994 8.84733 10.4982C9.15196 10.4661 9.37831 10.2101 9.52637 9.73036C9.42198 9.72559 9.32612 9.69107 9.23931 9.62738ZM8.83188 10.319H8.83135L8.83028 10.3185C8.75998 10.2667 8.69447 10.2083 8.63429 10.1423C8.83295 10.1244 9.04172 10.0238 9.25635 9.84286C9.27233 9.85 9.2883 9.85714 9.30428 9.86369C9.18445 10.1488 9.02894 10.2982 8.83188 10.319Z" fill="#5B43D6"/>
<path d="M9.08596 9.10059C9.08596 9.16904 9.09768 9.23511 9.12111 9.2988C9.14454 9.3619 9.1781 9.41785 9.22177 9.46607C9.26491 9.51488 9.31497 9.55178 9.37196 9.57857C9.42894 9.60476 9.48806 9.61785 9.54931 9.61785C9.61108 9.61785 9.6702 9.60476 9.72719 9.57857C9.78364 9.55238 9.8337 9.51488 9.87738 9.46607C9.92105 9.41785 9.9546 9.3619 9.97803 9.2988C10.0015 9.23511 10.0132 9.16904 10.0132 9.10059C10.0132 9.03214 10.0015 8.96607 9.97803 8.90297C9.9546 8.83988 9.92105 8.78392 9.87738 8.73511C9.8337 8.6869 9.78364 8.6494 9.72719 8.62321C9.6702 8.59702 9.61108 8.58392 9.54931 8.58392C9.48806 8.58392 9.42894 8.59702 9.37196 8.62321C9.3155 8.6494 9.26491 8.6869 9.22177 8.73571C9.1781 8.78392 9.14454 8.83988 9.12111 8.90297C9.09768 8.96607 9.08596 9.03214 9.08596 9.10059ZM9.85128 9.10059C9.85128 9.14523 9.84382 9.18809 9.82838 9.22976C9.81293 9.27083 9.7911 9.30714 9.76287 9.33869C9.73464 9.37023 9.70216 9.39464 9.66488 9.4113C9.62813 9.42857 9.58925 9.4369 9.54931 9.4369C9.50936 9.4369 9.47102 9.42857 9.43373 9.4113C9.39699 9.39464 9.3645 9.37023 9.33627 9.33869C9.30751 9.30714 9.28568 9.27083 9.27077 9.22976C9.25532 9.18809 9.24786 9.14523 9.24786 9.10059C9.24786 9.05595 9.25532 9.01309 9.27077 8.97202C9.28568 8.93095 9.30751 8.89464 9.33627 8.86309C9.3645 8.83154 9.39699 8.80714 9.43373 8.78988C9.47102 8.77321 9.50936 8.76428 9.54931 8.76428C9.58925 8.76428 9.62813 8.77321 9.66488 8.78988C9.70162 8.80714 9.73464 8.83154 9.76287 8.86309C9.7911 8.89464 9.81293 8.93095 9.82838 8.97202C9.84329 9.01309 9.85128 9.05595 9.85128 9.10059Z" fill="#5B43D6"/>
<path d="M12.8171 8.48334C12.8485 8.07441 12.9619 7.79406 13.1568 7.64168C13.1872 7.61727 13.1984 7.58513 13.1893 7.54465C13.1803 7.50418 13.1574 7.48096 13.1201 7.4756C13.0567 7.46668 12.9928 7.46191 12.9289 7.46191C12.8298 7.46191 12.7318 7.47322 12.6349 7.49584C12.5966 7.50358 12.5651 7.52441 12.5412 7.55834C12.3463 7.82144 12.3484 8.18096 12.5486 8.63691C12.6253 8.55775 12.7148 8.50656 12.8171 8.48334ZM12.6663 7.67382L12.6669 7.67263H12.6674C12.75 7.65358 12.8336 7.64346 12.9177 7.64227C12.7888 7.81191 12.7047 8.04703 12.6679 8.34465C12.652 8.3518 12.6365 8.35953 12.6205 8.36727C12.5247 8.07203 12.5401 7.84346 12.6663 7.67382Z" fill="#5B43D6"/>
<path d="M12.3673 9.0744C12.3711 8.95833 12.402 8.85118 12.4595 8.75416C12.2225 8.44047 12.125 8.15237 12.1655 7.89106C12.1676 7.87797 12.1671 7.86428 12.1639 7.85118C12.1607 7.83809 12.1554 7.82678 12.1474 7.81606C12.1399 7.80594 12.1303 7.79761 12.1192 7.79225C12.108 7.7863 12.0968 7.78333 12.0845 7.78333C12.0659 7.78333 12.0494 7.78987 12.0345 7.80297C11.904 7.91428 11.7943 8.04642 11.7043 8.1994C11.6819 8.23511 11.6734 8.2744 11.6776 8.31785C11.7069 8.65713 11.9365 8.90952 12.3673 9.0744ZM11.8395 8.2988C11.8859 8.22023 11.9381 8.14702 11.9972 8.08035C12.0137 8.30178 12.1032 8.53392 12.2661 8.7738C12.2592 8.79106 12.2528 8.80892 12.247 8.82678C11.9919 8.69344 11.8577 8.52023 11.839 8.30059V8.2994L11.8395 8.2988Z" fill="#5B43D6"/>
<path d="M12.5151 9.52738C12.4443 9.44167 12.3985 9.34226 12.3772 9.22798C12.0108 9.19286 11.7589 9.06667 11.622 8.84941C11.606 8.82321 11.5837 8.81012 11.5554 8.81012C11.5347 8.81012 11.516 8.81726 11.5006 8.83274C11.4851 8.84821 11.4761 8.86726 11.4734 8.89048C11.4516 9.07143 11.4574 9.25179 11.4915 9.43095C11.4979 9.47381 11.5171 9.50833 11.5474 9.53512C11.6641 9.64286 11.8015 9.69643 11.9607 9.69643C12.1232 9.69643 12.308 9.63988 12.5151 9.52738ZM11.6502 9.39583L11.6497 9.39464C11.6326 9.30238 11.6236 9.20952 11.6225 9.11548C11.7748 9.25952 11.9858 9.35298 12.2531 9.39405C12.259 9.41191 12.2659 9.42917 12.2728 9.44643C12.1583 9.49226 12.0534 9.51607 11.9607 9.51607C11.8393 9.51607 11.7381 9.47679 11.6508 9.39643L11.6502 9.39583Z" fill="#5B43D6"/>
<path d="M13.2426 8.5744C13.4828 8.3494 13.7059 8.2369 13.9115 8.2369C13.9472 8.2369 13.9823 8.23988 14.0169 8.24702C14.0217 8.24762 14.0271 8.24821 14.0318 8.24821C14.0659 8.24762 14.0904 8.23035 14.1048 8.19643C14.1197 8.1625 14.1171 8.13095 14.0963 8.10059C13.9962 7.95535 13.8779 7.83273 13.74 7.73214C13.7139 7.7119 13.6851 7.70178 13.6532 7.70178C13.6468 7.70178 13.6409 7.70238 13.6345 7.70297C13.3294 7.73512 13.103 7.99166 12.955 8.47143C13.0594 8.47559 13.1552 8.51012 13.2426 8.5744ZM13.6495 7.88273H13.6505L13.651 7.88333C13.7219 7.93452 13.7869 7.99345 13.8476 8.05893C13.6489 8.07678 13.4401 8.17738 13.225 8.35893C13.2095 8.35119 13.1936 8.34404 13.1776 8.3375C13.2969 8.05297 13.4524 7.90357 13.6495 7.88273Z" fill="#5B43D6"/>
<path d="M13.0459 9.71845C13.014 10.1268 12.9005 10.4077 12.7061 10.5601C12.6753 10.5839 12.6646 10.6161 12.6737 10.6565C12.6822 10.6976 12.7056 10.7202 12.7424 10.7256C12.8057 10.7351 12.8696 10.7399 12.9336 10.7399C13.0326 10.7393 13.1311 10.728 13.2281 10.7054C13.2664 10.6982 13.2973 10.6768 13.3213 10.6429C13.5162 10.3798 13.5141 10.0202 13.3143 9.56488C13.2377 9.64345 13.1482 9.69464 13.0459 9.71845ZM13.1966 10.528L13.1961 10.5286H13.195C13.1125 10.5482 13.0294 10.5583 12.9447 10.5589C13.0742 10.3899 13.1578 10.1548 13.1945 9.85655C13.2105 9.85 13.2265 9.84226 13.2419 9.83393C13.3378 10.1298 13.3229 10.3577 13.1966 10.528Z" fill="#5B43D6"/>
<path d="M13.4961 9.12677C13.4918 9.24344 13.4609 9.34998 13.4034 9.44701C13.6404 9.76129 13.7384 10.0488 13.6974 10.3101C13.6953 10.3238 13.6958 10.3369 13.699 10.35C13.7022 10.3631 13.7075 10.375 13.7155 10.3851C13.7235 10.3958 13.7331 10.4036 13.7437 10.4095C13.7549 10.4149 13.7666 10.4178 13.7789 10.4178C13.7975 10.4178 13.814 10.4113 13.8284 10.3988C13.9589 10.2875 14.0691 10.1553 14.1591 10.0018C14.1815 9.96606 14.19 9.92677 14.1852 9.88391C14.1565 9.54403 13.9264 9.29225 13.4961 9.12677ZM14.0239 9.90237C13.9775 9.98153 13.9248 10.0542 13.8657 10.1214C13.8497 9.89939 13.7597 9.66725 13.5967 9.42796C13.6037 9.4101 13.61 9.39284 13.6159 9.37439C13.8715 9.50772 14.0052 9.68153 14.0244 9.90117V9.90177L14.0239 9.90237Z" fill="#5B43D6"/>
<path d="M14.3148 8.66609C14.1987 8.55894 14.0608 8.50537 13.902 8.50537C13.7391 8.50537 13.5543 8.56132 13.3476 8.67442C13.4185 8.75954 13.4643 8.85954 13.485 8.97382C13.852 9.00894 14.1039 9.13513 14.2408 9.35239C14.2567 9.37859 14.2786 9.39168 14.3073 9.39109C14.3281 9.39168 14.3462 9.38394 14.3617 9.36906C14.3776 9.35359 14.3867 9.33454 14.3894 9.31132C14.4107 9.12978 14.4048 8.94942 14.3712 8.77025C14.3643 8.72799 14.3457 8.69287 14.3148 8.66609ZM13.6097 8.80716C13.6033 8.78989 13.5969 8.77204 13.5894 8.75537C13.7045 8.70894 13.8088 8.68573 13.902 8.68573C14.0229 8.68573 14.1241 8.72501 14.212 8.80537L14.2125 8.80597V8.80656C14.2296 8.89882 14.2386 8.99168 14.2397 9.08573C14.0874 8.94168 13.8765 8.84882 13.6097 8.80716Z" fill="#5B43D6"/>
<path d="M12.6207 9.62738C12.3805 9.85238 12.1573 9.96488 11.9512 9.96488C11.916 9.96488 11.8809 9.96131 11.8457 9.95476C11.841 9.95357 11.8362 9.95357 11.8308 9.95357C11.7973 9.95357 11.7728 9.97083 11.7579 10.0048C11.743 10.0387 11.7462 10.0708 11.7669 10.1006C11.8665 10.2464 11.9853 10.369 12.1227 10.469C12.1488 10.4893 12.1781 10.4994 12.21 10.4994C12.2159 10.4994 12.2223 10.4994 12.2287 10.4988C12.5333 10.4661 12.7597 10.2101 12.9077 9.73036C12.8033 9.72559 12.7075 9.69107 12.6207 9.62738ZM12.2132 10.319H12.2127L12.2116 10.3185C12.1413 10.2667 12.0758 10.2083 12.0156 10.1423C12.2143 10.1244 12.4231 10.0238 12.6377 9.84286C12.6537 9.85 12.6697 9.85714 12.6856 9.86369C12.5658 10.1488 12.4103 10.2982 12.2132 10.319Z" fill="#5B43D6"/>
<path d="M12.4678 9.10059C12.4678 9.16904 12.48 9.23511 12.5034 9.2988C12.5269 9.3619 12.5604 9.41785 12.6036 9.46607C12.6472 9.51488 12.6973 9.55178 12.7543 9.57857C12.8113 9.60476 12.8704 9.61785 12.9316 9.61785C12.9934 9.61785 13.0525 9.60476 13.109 9.57857C13.166 9.55238 13.216 9.51488 13.2597 9.46607C13.3034 9.41785 13.3369 9.3619 13.3604 9.2988C13.3838 9.23511 13.3955 9.16904 13.3955 9.10059C13.3955 9.03214 13.3838 8.96607 13.3604 8.90297C13.3369 8.83988 13.3034 8.78392 13.2597 8.73511C13.216 8.6869 13.166 8.6494 13.1095 8.62321C13.0525 8.59702 12.9934 8.58392 12.9316 8.58392C12.8704 8.58392 12.8113 8.59702 12.7543 8.62321C12.6978 8.6494 12.6472 8.6869 12.6041 8.73571C12.5604 8.78392 12.5269 8.83988 12.5034 8.90297C12.48 8.96607 12.4683 9.03214 12.4678 9.10059ZM13.2336 9.10059C13.2336 9.14523 13.2261 9.18809 13.2107 9.22976C13.1953 9.27083 13.1734 9.30714 13.1452 9.33869C13.117 9.37023 13.0845 9.39464 13.0472 9.4113C13.0105 9.42857 12.9716 9.4369 12.9316 9.4369C12.8917 9.4369 12.8533 9.42857 12.8161 9.4113C12.7793 9.39464 12.7468 9.37023 12.7186 9.33869C12.6898 9.30714 12.668 9.27083 12.6531 9.22976C12.6376 9.18809 12.6302 9.14523 12.6302 9.10059C12.6302 9.05595 12.6376 9.01309 12.6531 8.97202C12.668 8.93095 12.6898 8.89464 12.7186 8.86309C12.7468 8.83154 12.7793 8.80714 12.8161 8.78988C12.8533 8.77321 12.8917 8.76428 12.9316 8.76428C12.9716 8.76428 13.0105 8.77321 13.0472 8.78988C13.0839 8.80714 13.117 8.83154 13.1452 8.86309C13.1734 8.89464 13.1953 8.93095 13.2107 8.97202C13.2256 9.01309 13.2336 9.05595 13.2336 9.10059Z" fill="#5B43D6"/>
<path d="M18 13H17V16H14V17H17V20H18V17H21V16H18V13Z" fill="#5B43D6"/>
</svg>
