<svg width="20" height="15" viewBox="0 0 20 15" fill="none" xmlns="http://www.w3.org/2000/svg">
<g id="Group">
<path id="Vector" d="M0 7.5V15H0.181818H0.363636V7.5V9.53674e-07H0.181818H0V7.5Z" fill="#ffffff"/>
<path id="Vector_2" d="M0.623535 7.5V15H0.701457H0.779379V7.5V9.53674e-07H0.701457H0.623535V7.5Z" fill="#ffffff"/>
<path id="Vector_3" d="M1.2207 7.5V15H1.29863H1.37655V7.5V9.53674e-07H1.29863H1.2207V7.5Z" fill="#ffffff"/>
<path id="Vector_4" d="M2.25977 7.5V15H2.63639H3.01301V7.5V9.53674e-07H2.63639H2.25977V7.5Z" fill="#ffffff"/>
<path id="Vector_5" d="M3.27295 7.5V15H3.35087H3.42879V7.5V9.53674e-07H3.35087H3.27295V7.5Z" fill="#ffffff"/>
<path id="Vector_6" d="M3.68848 7.5V15H3.97419H4.25991V7.5V9.53674e-07H3.97419H3.68848V7.5Z" fill="#ffffff"/>
<path id="Vector_7" d="M4.51953 7.5V15H4.79226H5.06499V7.5V9.53674e-07H4.79226H4.51953V7.5Z" fill="#ffffff"/>
<path id="Vector_8" d="M5.32471 7.5V15H5.40263H5.48055V7.5V9.53674e-07H5.40263H5.32471V7.5Z" fill="#ffffff"/>
<path id="Vector_9" d="M6.12988 7.5V15H6.3117H6.49352V7.5V9.53674e-07H6.3117H6.12988V7.5Z" fill="#ffffff"/>
<path id="Vector_10" d="M6.75342 7.5V15H6.83134H6.90926V7.5V9.53674e-07H6.83134H6.75342V7.5Z" fill="#ffffff"/>
<path id="Vector_11" d="M7.76611 7.5V15H7.94793H8.12975V7.5V9.53674e-07H7.94793H7.76611V7.5Z" fill="#ffffff"/>
<path id="Vector_12" d="M8.38965 7.5V15H8.46757H8.54549V7.5V9.53674e-07H8.46757H8.38965V7.5Z" fill="#ffffff"/>
<path id="Vector_13" d="M9.01318 7.5V15H9.18201H9.35085V7.5V9.53674e-07H9.18201H9.01318V7.5Z" fill="#ffffff"/>
<path id="Vector_14" d="M10.2339 7.5V15H10.3118H10.3897V7.5V9.53674e-07H10.3118H10.2339V7.5Z" fill="#ffffff"/>
<path id="Vector_15" d="M10.8569 7.5V15H10.9349H11.0128V7.5V9.53674e-07H10.9349H10.8569V7.5Z" fill="#ffffff"/>
<path id="Vector_16" d="M11.2729 7.5V15H11.3379H11.4028V7.5V9.53674e-07H11.3379H11.2729V7.5Z" fill="#ffffff"/>
<path id="Vector_17" d="M12.2856 7.5V15H12.4675H12.6493V7.5V9.53674e-07H12.4675H12.2856V7.5Z" fill="#ffffff"/>
<path id="Vector_18" d="M12.8833 7.5V15H12.9612H13.0391V7.5V9.53674e-07H12.9612H12.8833V7.5Z" fill="#ffffff"/>
<path id="Vector_19" d="M13.5063 7.5V15H13.5843H13.6622V7.5V9.53674e-07H13.5843H13.5063V7.5Z" fill="#ffffff"/>
<path id="Vector_20" d="M13.9219 7.5V15H13.9998H14.0777V7.5V9.53674e-07H13.9998H13.9219V7.5Z" fill="#ffffff"/>
<path id="Vector_21" d="M14.5195 7.5V15H14.9091H15.2988V7.5V9.53674e-07H14.9091H14.5195V7.5Z" fill="#ffffff"/>
<path id="Vector_22" d="M15.7661 7.5V15H15.844H15.922V7.5V9.53674e-07H15.844H15.7661V7.5Z" fill="#ffffff"/>
<path id="Vector_23" d="M16.1816 7.5V15H16.3505H16.5193V7.5V9.53674e-07H16.3505H16.1816V7.5Z" fill="#ffffff"/>
<path id="Vector_24" d="M16.9868 7.5V15H17.0647H17.1427V7.5V9.53674e-07H17.0647H16.9868V7.5Z" fill="#ffffff"/>
<path id="Vector_25" d="M18 7.5V15H18.0779H18.1558V7.5V9.53674e-07H18.0779H18V7.5Z" fill="#ffffff"/>
<path id="Vector_26" d="M19.0132 7.5V15H19.0911H19.169V7.5V9.53674e-07H19.0911H19.0132V7.5Z" fill="#ffffff"/>
<path id="Vector_27" d="M19.6362 15V7.5V0H19.818H19.9999V7.5V15H19.818H19.6362Z" fill="#ffffff"/>
</g>
</svg>
