<svg width="27" height="20" viewBox="0 0 27 20" fill="none" xmlns="http://www.w3.org/2000/svg">
<mask id="mask0_621_1772" style="mask-type:luminance" maskUnits="userSpaceOnUse" x="0" y="0" width="23" height="16">
<path d="M0 0H22.8898V15.3027H0V0Z" fill="white"/>
</mask>
<g mask="url(#mask0_621_1772)">
<mask id="mask1_621_1772" style="mask-type:luminance" maskUnits="userSpaceOnUse" x="0" y="0" width="23" height="16">
<path d="M22.7451 14.8676C22.7451 15.0666 22.5874 15.2254 22.3873 15.2254H6.6234C5.83585 15.2254 5.16688 14.6576 5.03852 13.8864L2.91847 1.34883C2.85647 0.981163 2.54537 0.714661 2.17226 0.714661H0.357874C0.158813 0.714661 0 0.556935 0 0.357875C0 0.158814 0.158813 0 0.357874 0H2.17226C2.89236 0 3.50586 0.5156 3.62878 1.22591L5.74448 13.7646C5.81519 14.1932 6.18829 14.5097 6.6234 14.5097H22.3873C22.582 14.5097 22.7451 14.6685 22.7451 14.8676Z" fill="white"/>
</mask>
<g mask="url(#mask1_621_1772)">
<path d="M0 0V15.2254H22.7451V0H0Z" fill="#5B43D6"/>
</g>
</g>
<mask id="mask2_621_1772" style="mask-type:luminance" maskUnits="userSpaceOnUse" x="6" y="15" width="17" height="5">
<path d="M6.73438 15.8602H22.0492V19.4235H6.73438V15.8602Z" fill="white"/>
</mask>
<g mask="url(#mask2_621_1772)">
<mask id="mask3_621_1772" style="mask-type:luminance" maskUnits="userSpaceOnUse" x="6" y="16" width="16" height="4">
<path d="M8.53428 16.0204C7.59342 16.0204 6.83203 16.7818 6.83203 17.7216C6.83203 18.6613 7.59342 19.4216 8.53428 19.4216C9.47406 19.4216 10.2354 18.6613 10.2354 17.7216C10.2354 16.7818 9.47406 16.0204 8.53428 16.0204ZM8.53428 18.3035C8.21232 18.3035 7.94584 18.0424 7.94584 17.7161C7.94584 17.3942 8.20689 17.1288 8.53428 17.1288C8.85516 17.1288 9.12164 17.3887 9.12164 17.7161C9.12164 18.0424 8.86059 18.3035 8.53428 18.3035ZM20.2401 16.0204C19.3003 16.0204 18.539 16.7818 18.539 17.7216C18.539 18.6613 19.3003 19.4216 20.2401 19.4216C21.181 19.4216 21.9424 18.6613 21.9424 17.7216C21.9424 16.7818 21.1755 16.0204 20.2401 16.0204ZM20.2401 18.3035C19.9182 18.3035 19.6528 18.0424 19.6528 17.7161C19.6528 17.3942 19.9138 17.1288 20.2401 17.1288C20.5621 17.1288 20.8286 17.3887 20.8286 17.7161C20.8286 18.0424 20.5621 18.3035 20.2401 18.3035Z" fill="white"/>
</mask>
<g mask="url(#mask3_621_1772)">
<path d="M6.83203 16.0204V19.4216H21.9424V16.0204H6.83203Z" fill="#010F20"/>
</g>
</g>
<mask id="mask4_621_1772" style="mask-type:luminance" maskUnits="userSpaceOnUse" x="5" y="3" width="19" height="11">
<path d="M5.34375 3.05042H24V13.6316H5.34375V3.05042Z" fill="white"/>
</mask>
<g mask="url(#mask4_621_1772)">
<mask id="mask5_621_1772" style="mask-type:luminance" maskUnits="userSpaceOnUse" x="5" y="3" width="19" height="11">
<path d="M6.50635 3.23938H22.811C23.4908 3.23938 24.0118 3.8474 23.8998 4.52069L22.5815 12.5642C22.4945 13.0961 22.0344 13.4888 21.4927 13.4888H7.82464C7.28297 13.4888 6.82287 13.0961 6.73585 12.5642L5.41756 4.52069C5.30553 3.85176 5.82654 3.23938 6.50635 3.23938Z" fill="white"/>
</mask>
<g mask="url(#mask5_621_1772)">
<path d="M5.30859 3.23938V13.4888H24.0149V3.23938H5.30859Z" fill="#010F20"/>
</g>
</g>
<rect x="19" width="8" height="8" rx="4" fill="#5B43D6"/>
<path d="M25 4.60392H23.6353V6H22.3647V4.60392H21V3.40392H22.3647V2H23.6353V3.40392H25V4.60392Z" fill="#010F20"/>
</svg>
