<svg width="19" height="14" viewBox="0 0 19 14" fill="none" xmlns="http://www.w3.org/2000/svg">
<path d="M4.84493 11.2712V10.3183H6.08972V6.5272L4.95441 7.14356L4.8125 6.0893L6.08972 5.35136H7.20476V10.3183H8.4536V11.2712H4.84493ZM11.2878 8.068C11.5176 8.068 11.7338 8.02607 11.9366 7.94234C12.1393 7.85584 12.3177 7.74228 12.4718 7.60174C12.4312 7.13678 12.3137 6.78808 12.1191 6.55557C11.9244 6.32043 11.646 6.20286 11.2837 6.20286C11.1324 6.20286 10.9946 6.22584 10.8702 6.27178C10.7486 6.31773 10.6445 6.37987 10.558 6.45828C10.4715 6.53668 10.4039 6.62858 10.3552 6.73404C10.3066 6.83943 10.2823 6.9516 10.2823 7.07056C10.2823 7.2192 10.3066 7.35435 10.3552 7.476C10.4039 7.59765 10.4715 7.70311 10.558 7.79231C10.6472 7.87881 10.7526 7.94635 10.8742 7.995C10.9986 8.04365 11.1364 8.068 11.2878 8.068ZM9.80384 9.9737C9.89034 10.0602 9.98224 10.1332 10.0795 10.1926C10.1795 10.2494 10.2809 10.2953 10.3836 10.3305C10.4864 10.3629 10.5891 10.3859 10.6918 10.3994C10.7972 10.413 10.8986 10.4197 10.9959 10.4197C11.177 10.4197 11.3514 10.3913 11.519 10.3346C11.6866 10.2751 11.8365 10.1711 11.969 10.0223C12.1015 9.8737 12.2123 9.67095 12.3015 9.41415C12.3907 9.15735 12.4475 8.83031 12.4718 8.43289C12.288 8.587 12.0879 8.70997 11.8717 8.80187C11.6554 8.89107 11.4284 8.9357 11.1905 8.9357C10.9094 8.9357 10.6499 8.89107 10.412 8.80187C10.1741 8.71267 9.96868 8.59109 9.79568 8.43698C9.62268 8.28017 9.48753 8.09776 9.39023 7.88961C9.29292 7.67876 9.24426 7.45171 9.24426 7.2084C9.24426 6.90565 9.30103 6.63398 9.41452 6.39344C9.52808 6.15013 9.68081 5.94468 9.87277 5.77707C10.0647 5.60681 10.2877 5.47706 10.5418 5.38786C10.7958 5.29595 11.0648 5.25 11.3487 5.25C11.6109 5.25 11.8474 5.28649 12.0582 5.35947C12.269 5.42975 12.4569 5.52977 12.6218 5.65952C12.7867 5.78655 12.9272 5.93928 13.0435 6.11768C13.1625 6.29337 13.2598 6.48803 13.3355 6.70158C13.4138 6.91244 13.4706 7.1381 13.5058 7.3787C13.5435 7.61661 13.5625 7.85985 13.5625 8.10855C13.5625 8.35726 13.5422 8.61129 13.5017 8.87079C13.4638 9.12759 13.4017 9.37768 13.3152 9.62092C13.2287 9.86153 13.1165 10.0886 12.9786 10.3021C12.8434 10.5157 12.6785 10.7022 12.484 10.8617C12.2921 11.0185 12.069 11.1428 11.8149 11.2347C11.5635 11.3266 11.277 11.3726 10.9553 11.3726C10.6931 11.3726 10.4471 11.3415 10.2174 11.2793C9.98764 11.2198 9.77678 11.1293 9.58482 11.0076L9.80384 9.9737Z" fill="#5B43D6"/>
<path d="M14.5089 0H13.9286C13.4847 0 13.125 0.289068 13.125 0.645727V0.918364V1.6162V1.97927C13.125 2.33593 13.4847 2.625 13.9286 2.625H14.5089C14.9528 2.625 15.3125 2.33593 15.3125 1.97927V1.6162V0.918364V0.645727C15.3123 0.289068 14.9526 0 14.5089 0Z" fill="#5B43D6"/>
<path d="M4.27135 0H3.69105C3.24715 0 2.88745 0.289068 2.88745 0.645727V0.918364V1.6162V1.97927C2.88745 2.33593 3.24715 2.625 3.69105 2.625H4.27135C4.71525 2.625 5.07495 2.33593 5.07495 1.97927V1.6162V0.918364V0.645727C5.07474 0.289068 4.71504 0 4.27135 0Z" fill="#5B43D6"/>
<path d="M17.0891 1.75H15.8096V2.06421C15.8096 2.60817 15.1993 3.05067 14.4494 3.05067H13.9326C13.1826 3.05067 12.5724 2.60817 12.5724 2.06421V1.75H5.63822V2.06421C5.63822 2.60817 5.02798 3.05067 4.27798 3.05067H3.76122C3.0112 3.05067 2.40099 2.60817 2.40099 2.06421V1.75H1.2861C0.575932 1.75 0 2.10814 0 2.54969V13.2003C0 13.6427 0.575898 14 1.2861 14H17.0889C17.7998 14 18.375 13.6426 18.375 13.2003V2.5498C18.3752 2.10825 17.8 1.75 17.0891 1.75ZM16.6903 12.8261L1.63796 12.8223V4.23566H16.6903V12.8261Z" fill="#5B43D6"/>
</svg>
