<svg width="20" height="14" viewBox="0 0 20 14" fill="none" xmlns="http://www.w3.org/2000/svg">
<g id="Group">
<g id="Group_2">
<g id="Group_3">
<path id="Vector" d="M3.00031 10.6988H9.0003C9.18428 10.6988 9.33362 10.5579 9.33362 10.3843C9.33362 10.2107 9.18428 10.0698 9.0003 10.0698H3.00031C2.81633 10.0698 2.66699 10.2107 2.66699 10.3843C2.66699 10.5579 2.81633 10.6988 3.00031 10.6988Z" fill="#5CE1E6"/>
<path id="Vector_2" d="M19.6666 5.66454H1.66668C1.48269 5.66454 1.33336 5.80552 1.33336 5.97921C1.33336 6.15291 1.48269 6.29389 1.66668 6.29389H19.3333V12.2729C19.3333 12.7934 18.8847 13.217 18.3333 13.217H1.66668C1.20301 13.217 0.666678 12.8941 0.666678 12.2729V5.34983C0.666678 5.17614 0.517343 5.03516 0.333359 5.03516C0.149375 5.03516 0 5.17614 0 5.34983V12.2729C0 13.0291 0.648983 13.8463 1.66668 13.8463H18.3333C19.2523 13.8463 20 13.1405 20 12.2729V5.97921C20 5.80552 19.8506 5.66454 19.6666 5.66454Z" fill="#5CE1E6"/>
<path id="Vector_3" d="M18.3333 0H1.66668C0.747655 0 0 0.705831 0 1.57341V3.46152C0 3.63521 0.149336 3.77619 0.33332 3.77619H18.3333C18.5173 3.77619 18.6666 3.63521 18.6666 3.46152C18.6666 3.28783 18.5173 3.14685 18.3333 3.14685H0.666678V1.57341C0.666678 1.05292 1.11535 0.629347 1.66668 0.629347H18.3333C18.8847 0.629347 19.3333 1.05292 19.3333 1.57341V4.72025C19.3333 4.89394 19.4827 5.03493 19.6666 5.03493C19.8506 5.03493 20 4.89394 20 4.72025V1.57341C20 0.705831 19.2523 0 18.3333 0Z" fill="#5CE1E6"/>
<path id="Vector_4" d="M11.6665 9.44004C11.8505 9.44004 11.9998 9.29914 11.9998 9.12554C11.9998 8.95194 11.8505 8.81104 11.6665 8.81104H8.99982C8.81584 8.81104 8.6665 8.95194 8.6665 9.12554C8.6665 9.29914 8.81584 9.44004 8.99982 9.44004H11.6665Z" fill="#5CE1E6"/>
<path id="Vector_5" d="M3.00031 9.44004H7.66698C7.85097 9.44004 8.0003 9.29914 8.0003 9.12554C8.0003 8.95194 7.85097 8.81104 7.66698 8.81104H3.00031C2.81633 8.81104 2.66699 8.95194 2.66699 9.12554C2.66699 9.29914 2.81633 9.44004 3.00031 9.44004Z" fill="#5CE1E6"/>
</g>
</g>
</g>
</svg>
