<svg width="26" height="18" viewBox="0 0 26 18" fill="none" xmlns="http://www.w3.org/2000/svg">
<g id="Group">
<g id="Group_2">
<g id="Group_3">
<path id="Vector" d="M3.89999 13.9086H11.7C11.9392 13.9086 12.1333 13.7255 12.1333 13.4998C12.1333 13.2741 11.9392 13.0909 11.7 13.0909H3.89999C3.66081 13.0909 3.46667 13.2741 3.46667 13.4998C3.46667 13.7255 3.66081 13.9086 3.89999 13.9086Z" fill="#5B43D6"/>
<path id="Vector_2" d="M25.5666 7.36367H2.16668C1.9275 7.36367 1.73336 7.54695 1.73336 7.77275C1.73336 7.99855 1.9275 8.18182 2.16668 8.18182H25.1333V15.9545C25.1333 16.6312 24.55 17.1818 23.8333 17.1818H2.16668C1.56391 17.1818 0.866682 16.7621 0.866682 15.9545V6.95455C0.866682 6.72875 0.672546 6.54547 0.433366 6.54547C0.194187 6.54547 0 6.72875 0 6.95455V15.9545C0 16.9376 0.843678 18 2.16668 18H23.8333C25.028 18 26 17.0824 26 15.9545V7.77275C25.9999 7.54695 25.8058 7.36367 25.5666 7.36367Z" fill="#5B43D6"/>
<path id="Vector_3" d="M23.8333 0H2.16668C0.971951 0 0 0.91758 0 2.04543V4.49998C0 4.72578 0.194136 4.90905 0.433316 4.90905H23.8333C24.0725 4.90905 24.2666 4.72578 24.2666 4.49998C24.2666 4.27418 24.0725 4.0909 23.8333 4.0909H0.866682V2.04543C0.866682 1.3688 1.44995 0.818152 2.16668 0.818152H23.8333C24.55 0.818152 25.1333 1.3688 25.1333 2.04543V6.13633C25.1333 6.36213 25.3275 6.5454 25.5666 6.5454C25.8058 6.5454 26 6.36213 26 6.13633V2.04543C26 0.91758 25.028 0 23.8333 0Z" fill="#5B43D6"/>
<path id="Vector_4" d="M15.1667 12.2724C15.4058 12.2724 15.6 12.0892 15.6 11.8635C15.6 11.6378 15.4058 11.4547 15.1667 11.4547H11.7C11.4608 11.4547 11.2667 11.6378 11.2667 11.8635C11.2667 12.0892 11.4608 12.2724 11.7 12.2724H15.1667Z" fill="#5B43D6"/>
<path id="Vector_5" d="M3.89999 12.2724H9.96666C10.2058 12.2724 10.4 12.0892 10.4 11.8635C10.4 11.6378 10.2058 11.4547 9.96666 11.4547H3.89999C3.66081 11.4547 3.46667 11.6378 3.46667 11.8635C3.46667 12.0892 3.66081 12.2724 3.89999 12.2724Z" fill="#5B43D6"/>
</g>
</g>
</g>
</svg>
