<svg width="16" height="15" viewBox="0 0 16 15" fill="none" xmlns="http://www.w3.org/2000/svg">
    <g id="Font_Awesome_5_regular_edit 1">
        <path id="Vector"
            d="M11.0002 9.47725H11.6101H12.0318L12.0002 12.9773C12.0002 13.7134 11.389 13.9521 10.9752 13.9773H1.00015C0.26404 13.9773 0.000150681 13.4773 0.000150681 13.0024V2.97728C0.000150681 2.47728 0.500151 1.97728 1.00015 1.97728H8.50015V2.47728V2.97728H8.00015H1.00015V12.9773H11.0002V9.97725V9.47725ZM15.5002 3.97728L8.20571 11.2717L5.69459 11.5495C4.96682 11.6301 4.34737 11.0162 4.42793 10.2828L4.70571 7.77173L12.0001 0.477284C12.6363 -0.158827 13.664 -0.158827 14.2974 0.477284L15.4974 1.67728C16.1335 2.3134 16.1335 3.34395 15.5002 3.97728ZM12.7557 4.83562L11.1418 3.22173L5.98071 8.38562L5.77793 10.1995L7.59182 9.99673L12.7557 4.83562ZM14.5557 2.62173L13.3557 1.42173C13.2418 1.30784 13.0557 1.30784 12.9446 1.42173L12.0863 2.28006L13.7002 3.89395L14.5585 3.03562C14.6696 2.91895 14.6696 2.73562 14.5557 2.62173Z"
            fill="#c1c5d6" />
    </g>
</svg>