<svg width="26" height="26" viewBox="0 0 26 26" fill="none" xmlns="http://www.w3.org/2000/svg">
    <path
        d="M15.1456 19.4011L12.8466 17.1215C11.7373 16.0212 11.1826 15.4712 10.5462 15.2701C9.98635 15.0933 9.38463 15.0998 8.82878 15.2887C8.19674 15.5036 7.65409 16.0655 6.56882 17.1893L1.06076 22.6297M15.1456 19.4011L15.6161 18.9346C16.7268 17.8332 17.2821 17.2824 17.9193 17.0813C18.4797 16.9047 19.0818 16.9116 19.6381 17.1012C20.2704 17.3167 20.813 17.8801 21.898 19.0068L23.051 20.1674M15.1456 19.4011L20.6737 24.9401M1.06076 22.6297C1.10353 22.977 1.17635 23.2515 1.30043 23.495C1.56469 24.0136 1.98636 24.4354 2.50501 24.6996C3.09463 25 3.86648 25 5.41021 25H18.6408C19.5426 25 20.1811 25 20.6737 24.9401M1.06076 22.6297C1 22.1363 1 21.496 1 20.5898V7.3592C1 5.81548 1 5.04362 1.30043 4.45401C1.56469 3.93535 1.98636 3.51368 2.50501 3.24941C3.09463 2.94899 3.86648 2.94899 5.41021 2.94899L12.7146 2.94884M23.051 20.1674V20.5898C23.051 22.1335 23.051 22.9054 22.7506 23.495C22.4864 24.0136 22.0647 24.4354 21.5461 24.6996C21.3009 24.8246 21.0241 24.8975 20.6737 24.9401M23.051 20.1674V13.2853M14.7819 11.2183L17.5726 10.66C17.816 10.6114 17.9377 10.587 18.0511 10.5425C18.1518 10.503 18.2475 10.4518 18.3362 10.3899C18.4362 10.3202 18.524 10.2325 18.6994 10.057L24.4292 4.32724C25.1903 3.56609 25.1903 2.33202 24.4292 1.57086C23.668 0.809713 22.4339 0.809713 21.6728 1.57086L15.943 7.30061C15.7676 7.47609 15.6798 7.56383 15.61 7.6638C15.5482 7.75252 15.497 7.84822 15.4575 7.94893C15.413 8.06238 15.3887 8.18406 15.3399 8.42739L14.7819 11.2183Z"
        stroke="#5B43D6" stroke-width="2.5" stroke-linecap="round" stroke-linejoin="round" />
</svg>