<svg width="60" height="60" viewBox="0 0 60 60" fill="none" xmlns="http://www.w3.org/2000/svg">
<path d="M3.33008 55.9534H56.6634M3.33008 55.9534V42.6201L29.9967 15.9535M3.33008 55.9534H16.6634L43.3301 29.2868M29.9967 15.9535L39.5587 6.39132L39.5647 6.38565C40.8807 5.06938 41.5401 4.41008 42.3001 4.16315C42.9697 3.94562 43.6907 3.94562 44.3604 4.16315C45.1197 4.40992 45.7784 5.06845 47.0927 6.38285L52.8921 12.1822C54.2121 13.5023 54.8724 14.1626 55.1197 14.9237C55.3374 15.5932 55.3371 16.3143 55.1197 16.9838C54.8727 17.7443 54.2134 18.4037 52.8951 19.7218L52.8921 19.7247L43.3301 29.2868M29.9967 15.9535L43.3301 29.2868" stroke="#5B43D6" stroke-width="6" stroke-linecap="round" stroke-linejoin="round"/>
</svg>
