<svg width="16" height="12" viewBox="0 0 16 12" fill="none" xmlns="http://www.w3.org/2000/svg">
<path fill-rule="evenodd" clip-rule="evenodd" d="M13.6856 1.25936C13.9737 0.971263 13.9737 0.50417 13.6856 0.21607C13.3976 -0.0720232 12.9304 -0.0720232 12.6424 0.21607L9.49902 3.35943C9.05971 3.09983 8.54722 2.95087 7.99998 2.95087C6.37026 2.95087 5.04911 4.27202 5.04911 5.90173C5.04911 6.44897 5.19808 6.96146 5.45767 7.40077L2.31431 10.5441C2.02622 10.8322 2.02622 11.2993 2.31431 11.5874C2.60241 11.8755 3.06951 11.8755 3.35761 11.5874L6.50096 8.44406C6.94025 8.70366 7.45274 8.8526 7.99998 8.8526C9.62967 8.8526 10.9508 7.53143 10.9508 5.90173C10.9508 5.3545 10.8019 4.842 10.5423 4.40272L13.6856 1.25936ZM8.38211 4.47624C8.26024 4.44371 8.13218 4.4263 7.99998 4.4263C7.18509 4.4263 6.52454 5.08685 6.52454 5.90173C6.52454 6.03393 6.54195 6.162 6.57449 6.28387L8.38211 4.47624ZM7.61784 7.32722L9.42547 5.5196C9.458 5.64147 9.47541 5.76954 9.47541 5.90173C9.47541 6.71662 8.81486 7.37717 7.99998 7.37717C7.86778 7.37717 7.73971 7.35976 7.61784 7.32722ZM10.7776 0.605444C9.93921 0.236431 9.0088 0 7.99998 0C5.89567 0 4.13225 1.02883 2.83457 2.14377C1.53218 3.26274 0.628393 4.52781 0.227296 5.14174C-0.0757654 5.60554 -0.0757654 6.19793 0.227296 6.66173C0.565827 7.1799 1.26245 8.16188 2.25459 9.12843L3.29796 8.08508C2.43427 7.24652 1.81159 6.38354 1.49333 5.90173C1.86984 5.33177 2.67242 4.22828 3.79607 3.26288C4.95617 2.26616 6.38861 1.47543 7.99998 1.47543C8.56942 1.47543 9.11651 1.57418 9.63719 1.74587L10.7776 0.605444ZM7.99998 10.328C7.43061 10.328 6.88352 10.2293 6.36286 10.0576L5.22244 11.198C6.06078 11.567 6.99122 11.8035 7.99998 11.8035C10.1043 11.8035 11.8678 10.7747 13.1655 9.65974C14.4678 8.5407 15.3716 7.27566 15.7727 6.66173C16.0758 6.19793 16.0758 5.60554 15.7727 5.14174C15.4342 4.62357 14.7375 3.64157 13.7454 2.67504L12.702 3.71841C13.5658 4.55695 14.1885 5.41993 14.5067 5.90173C14.1302 6.47169 13.3276 7.57517 12.2039 8.54062C11.0439 9.53735 9.61137 10.328 7.99998 10.328Z" fill="#5B43D6"/>
</svg>
