<svg width="16" height="12" viewBox="0 0 16 12" fill="none" xmlns="http://www.w3.org/2000/svg">
<path fill-rule="evenodd" clip-rule="evenodd" d="M3.79607 8.54062C2.67242 7.57517 1.86985 6.47169 1.49333 5.90173C1.86985 5.33177 2.67242 4.22828 3.79607 3.26288C4.95617 2.26616 6.38861 1.47543 7.99998 1.47543C9.61137 1.47543 11.0439 2.26616 12.2039 3.26288C13.3276 4.22828 14.1302 5.33177 14.5067 5.90173C14.1302 6.47169 13.3276 7.57517 12.2039 8.54062C11.0439 9.53735 9.61137 10.328 7.99998 10.328C6.38861 10.328 4.95617 9.53735 3.79607 8.54062ZM7.99998 0C5.89567 0 4.13225 1.02883 2.83457 2.14377C1.53218 3.26274 0.628393 4.52781 0.227296 5.14174C-0.0757654 5.60554 -0.0757654 6.19793 0.227296 6.66173C0.628393 7.27566 1.53218 8.5407 2.83457 9.65974C4.13225 10.7746 5.89567 11.8035 7.99998 11.8035C10.1043 11.8035 11.8678 10.7746 13.1655 9.65974C14.4678 8.5407 15.3716 7.27566 15.7727 6.66173C16.0758 6.19793 16.0758 5.60554 15.7727 5.14174C15.3716 4.52781 14.4678 3.26274 13.1655 2.14377C11.8678 1.02883 10.1043 0 7.99998 0ZM6.52454 5.90173C6.52454 5.08685 7.18517 4.4263 7.99998 4.4263C8.81486 4.4263 9.47541 5.08685 9.47541 5.90173C9.47541 6.71662 8.81486 7.37717 7.99998 7.37717C7.18517 7.37717 6.52454 6.71662 6.52454 5.90173ZM7.99998 2.95087C6.37029 2.95087 5.04914 4.27201 5.04914 5.90173C5.04914 7.53143 6.37029 8.8526 7.99998 8.8526C9.62974 8.8526 10.9508 7.53143 10.9508 5.90173C10.9508 4.27201 9.62974 2.95087 7.99998 2.95087Z" fill="#5B43D6"/>
</svg>
