<svg width="20" height="14" viewBox="0 0 20 14" fill="none" xmlns="http://www.w3.org/2000/svg">
<path d="M18.1586 0H1.84144C0.826115 0 0 0.826115 0 1.84144V11.8851C0 12.9004 0.826115 13.7265 1.84144 13.7265H18.1586C19.1739 13.7265 20 12.9004 20 11.8851V1.84144C20 0.826038 19.1739 0 18.1586 0ZM18.8491 11.8851C18.8491 12.2658 18.5394 12.5756 18.1586 12.5756H1.84144C1.46064 12.5756 1.1509 12.2658 1.1509 11.8851V1.84144C1.1509 1.46072 1.46064 1.1509 1.84144 1.1509H18.1586C18.5394 1.1509 18.8491 1.46072 18.8491 1.84144V11.8851Z" fill="#5B43D6"/>
<path d="M16.5765 3.28516H11.2875C11.0332 3.28516 10.8271 3.49132 10.8271 3.74552C10.8271 3.99971 11.0332 4.20587 11.2875 4.20587H16.5765C16.8308 4.20587 17.0369 3.99971 17.0369 3.74552C17.0369 3.49132 16.8308 3.28516 16.5765 3.28516Z" fill="#5B43D6"/>
<path d="M16.5765 9.52051H11.2875C11.0332 9.52051 10.8271 9.7266 10.8271 9.98087C10.8271 10.2351 11.0332 10.4412 11.2875 10.4412H16.5765C16.8308 10.4412 17.0369 10.2351 17.0369 9.98087C17.0369 9.7266 16.8308 9.52051 16.5765 9.52051Z" fill="#5B43D6"/>
<path d="M16.5763 5.94824H13.3754C13.1212 5.94824 12.915 6.15441 12.915 6.4086C12.915 6.6628 13.1212 6.86896 13.3754 6.86896H16.5763C16.8305 6.86896 17.0366 6.6628 17.0366 6.4086C17.0366 6.15441 16.8305 5.94824 16.5763 5.94824Z" fill="#5B43D6"/>
<path d="M16.5763 7.73438H13.3754C13.1212 7.73438 12.915 7.94054 12.915 8.19473C12.915 8.44901 13.1212 8.65509 13.3754 8.65509H16.5763C16.8305 8.65509 17.0366 8.44901 17.0366 8.19473C17.0366 7.94054 16.8305 7.73438 16.5763 7.73438Z" fill="#5B43D6"/>
<path d="M6.53475 7.07868C7.83941 7.07868 8.90085 6.01686 8.90085 4.71174C8.90085 3.40655 7.83941 2.34473 6.53475 2.34473C5.22971 2.34473 4.16797 3.40655 4.16797 4.71174C4.16797 6.01686 5.22971 7.07868 6.53475 7.07868ZM6.53475 3.4957C7.20481 3.4957 7.74995 4.04123 7.74995 4.71182C7.74995 5.38233 7.20488 5.92786 6.53475 5.92786C5.86432 5.92786 5.31887 5.38233 5.31887 4.71182C5.31887 4.04123 5.86432 3.4957 6.53475 3.4957Z" fill="#5B43D6"/>
<path d="M7.44996 7.50391H5.63292C4.35987 7.50391 3.32422 8.53949 3.32422 9.81246V10.8069C3.32422 11.1247 3.58179 11.3824 3.89967 11.3824C4.21755 11.3824 4.47512 11.1247 4.47512 10.8069V9.81246C4.47512 9.17417 4.99456 8.6548 5.63292 8.6548H7.44996C8.08832 8.6548 8.60776 9.17409 8.60776 9.81246V10.8069C8.60776 11.1247 8.86533 11.3824 9.18321 11.3824C9.50109 11.3824 9.75866 11.1247 9.75866 10.8069V9.81246C9.75866 8.53949 8.72293 7.50391 7.44996 7.50391Z" fill="#5B43D6"/>
</svg>
