<svg width="12" height="17" viewBox="0 0 12 17" fill="none" xmlns="http://www.w3.org/2000/svg">
<g id="Group">
<path id="Vector" d="M5.99974 0C2.69144 0 0 2.59975 0 5.79494C0 8.87059 5.44367 16.0564 5.67545 16.3607L5.89178 16.645C5.91707 16.6784 5.95736 16.698 5.99974 16.698C6.04278 16.698 6.0828 16.6784 6.10836 16.645L6.32455 16.3607C6.55647 16.0564 12 8.87059 12 5.79494C12 2.59975 9.30812 0 5.99974 0ZM5.99974 3.7192C7.18511 3.7192 8.14901 4.65017 8.14901 5.79494C8.14901 6.93913 7.18507 7.87068 5.99974 7.87068C4.81507 7.87068 3.85047 6.93913 3.85047 5.79494C3.85047 4.65017 4.81502 3.7192 5.99974 3.7192Z" fill="#010F20"/>
</g>
</svg>
