<svg width="25" height="25" viewBox="0 0 25 25" fill="none" xmlns="http://www.w3.org/2000/svg">
<g clip-path="url(#clip0_746_403)">
<path d="M12.4999 0C7.35932 0 3.17725 4.18375 3.17725 9.32635C3.17725 16.9885 11.5719 24.4699 11.9294 24.7847C12.0924 24.9282 12.2961 25.0001 12.4999 25.0001C12.7037 25.0001 12.9074 24.9283 13.0704 24.7847C13.4278 24.4699 21.8225 16.9886 21.8225 9.32635C21.8225 4.18375 17.6405 0 12.4999 0ZM12.4999 22.9536C10.6439 21.1551 4.90368 15.1229 4.90368 9.32635C4.90368 5.13577 8.31134 1.72643 12.4999 1.72643C16.6884 1.72643 20.0961 5.13577 20.0961 9.32635C20.0961 15.1228 14.3559 21.1551 12.4999 22.9536Z" fill="#02EDDF"/>
<path d="M12.4998 4.98193C10.1199 4.98193 8.18384 6.93092 8.18384 9.32655C8.18384 11.7223 10.1199 13.6712 12.4998 13.6712C14.8797 13.6712 16.8158 11.7223 16.8158 9.32655C16.8158 6.93092 14.8797 4.98193 12.4998 4.98193ZM12.4998 11.9447C11.0719 11.9447 9.91018 10.7702 9.91018 9.32655C9.91018 7.88294 11.0719 6.70836 12.4998 6.70836C13.9278 6.70836 15.0895 7.88286 15.0895 9.32655C15.0895 10.7702 13.9278 11.9447 12.4998 11.9447Z" fill="#02EDDF"/>
</g>
<defs>
<clipPath id="clip0_746_403">
<rect width="25" height="25" fill="white"/>
</clipPath>
</defs>
</svg>
