<svg width="26" height="26" viewBox="0 0 26 26" fill="none" xmlns="http://www.w3.org/2000/svg">
<g id="Group 9">
<path id="Vector" d="M20.2749 19.8891C19.7733 19.8902 19.2764 19.7919 18.8129 19.6001C18.3494 19.4082 17.9285 19.1264 17.5745 18.7711L13.6742 14.871C13.5361 14.7399 13.3529 14.6668 13.1625 14.6668C12.9721 14.6668 12.7889 14.7399 12.6508 14.871L8.73569 18.7859C8.38177 19.1414 7.96088 19.4233 7.49736 19.6152C7.03384 19.8071 6.53688 19.9052 6.03521 19.9039H5.2663L10.2066 24.8439C11.7482 26.3854 14.2499 26.3854 15.7915 24.8439L20.7448 19.8891H20.2749ZM6.03521 6.09417C7.05671 6.09417 8.01506 6.4916 8.73569 7.21217L12.6508 11.127C12.7181 11.1944 12.798 11.2479 12.886 11.2844C12.9739 11.3208 13.0682 11.3396 13.1634 11.3396C13.2587 11.3396 13.3529 11.3208 13.4409 11.2844C13.5289 11.2479 13.6088 11.1944 13.676 11.127L17.5763 7.22703C17.93 6.87172 18.3506 6.58999 18.8138 6.3981C19.277 6.20621 19.7736 6.10796 20.2749 6.10903H20.7448L15.7915 1.15601C15.0507 0.415804 14.0463 0 12.9991 0C11.9518 0 10.9474 0.415804 10.2066 1.15601L5.2663 6.09603L6.03521 6.09417Z" fill="#5B43D6"/>
<path id="Vector_2" d="M24.8438 10.2059L21.8499 7.21216C21.7827 7.23975 21.7108 7.25425 21.6382 7.25487H20.2768C19.5729 7.25487 18.8839 7.54087 18.388 8.03859L14.4877 11.9386C14.3142 12.1129 14.108 12.2513 13.8809 12.3457C13.6538 12.4401 13.4103 12.4887 13.1644 12.4887C12.9184 12.4887 12.6749 12.4401 12.4478 12.3457C12.2207 12.2513 12.0145 12.1129 11.8411 11.9386L7.92592 8.02187C7.42362 7.52167 6.74412 7.24001 6.03522 7.23816H4.36367C4.29437 7.23761 4.22576 7.22439 4.16123 7.19916L1.15615 10.2059C-0.385385 11.7473 -0.385385 14.2489 1.15615 15.7922L4.16123 18.797C4.22505 18.7714 4.29302 18.7575 4.36181 18.7562H6.03522C6.74098 18.7562 7.42817 18.472 7.92592 17.9743L11.8392 14.0576C12.1963 13.7177 12.6704 13.528 13.1634 13.528C13.6565 13.528 14.1306 13.7177 14.4877 14.0576L18.388 17.9576C18.8839 18.4553 19.5729 18.7395 20.2768 18.7395H21.6382C21.7125 18.7395 21.7849 18.758 21.8499 18.784L24.8438 15.7903C26.3854 14.2489 26.3854 11.7473 24.8438 10.2059Z" fill="#5B43D6"/>
</g>
</svg>
