<svg width="20" height="20" viewBox="0 0 20 20" fill="none" xmlns="http://www.w3.org/2000/svg">
<g id="Group 9">
<path id="Vector" d="M15.5959 15.2993C15.21 15.3001 14.8278 15.2246 14.4712 15.077C14.1147 14.9294 13.7909 14.7126 13.5186 14.4393L10.5184 11.4393C10.4122 11.3384 10.2713 11.2821 10.1248 11.2821C9.97829 11.2821 9.83739 11.3384 9.73119 11.4393L6.71954 14.4507C6.4473 14.7242 6.12354 14.941 5.76699 15.0886C5.41043 15.2362 5.02816 15.3117 4.64225 15.3107H4.05078L7.85105 19.1107C9.03685 20.2964 10.9613 20.2964 12.1471 19.1107L15.9573 15.2993H15.5959ZM4.64225 4.68782C5.42802 4.68782 6.16522 4.99354 6.71954 5.54782L9.73119 8.55926C9.78294 8.61109 9.8444 8.65221 9.91206 8.68027C9.97972 8.70833 10.0523 8.72277 10.1255 8.72277C10.1987 8.72277 10.2713 8.70833 10.3389 8.68027C10.4066 8.65221 10.4681 8.61109 10.5198 8.55926L13.52 5.55925C13.7921 5.28594 14.1156 5.06922 14.4719 4.92161C14.8282 4.774 15.2102 4.69843 15.5959 4.69925H15.9573L12.1471 0.889242C11.5773 0.319849 10.8046 0 9.99906 0C9.19349 0 8.42088 0.319849 7.85105 0.889242L4.05078 4.68925L4.64225 4.68782Z" fill="#5CE1E6"/>
<path id="Vector_2" d="M19.1107 7.85046L16.8076 5.5476C16.7559 5.56883 16.7006 5.57998 16.6448 5.58046H15.5975C15.0561 5.58046 14.526 5.80046 14.1446 6.18331L11.1444 9.18332C11.0109 9.31744 10.8523 9.42386 10.6776 9.49649C10.5029 9.56911 10.3156 9.60649 10.1264 9.60649C9.93725 9.60649 9.74993 9.56911 9.57524 9.49649C9.40055 9.42386 9.24193 9.31744 9.10851 9.18332L6.09686 6.17046C5.71048 5.78568 5.18778 5.56902 4.64247 5.5676H3.35667C3.30336 5.56717 3.25059 5.55701 3.20094 5.5376L0.889349 7.85046C-0.29645 9.03618 -0.29645 10.9605 0.889349 12.1476L3.20094 14.459C3.25004 14.4393 3.30233 14.4286 3.35524 14.4276H4.64247C5.18537 14.4276 5.71398 14.209 6.09686 13.8262L9.10708 10.8133C9.38175 10.5518 9.74647 10.406 10.1257 10.406C10.505 10.406 10.8697 10.5518 11.1444 10.8133L14.1446 13.8133C14.526 14.1962 15.0561 14.4148 15.5975 14.4148H16.6448C16.7019 14.4148 16.7576 14.429 16.8076 14.449L19.1107 12.1462C20.2964 10.9605 20.2964 9.03618 19.1107 7.85046Z" fill="#5CE1E6"/>
</g>
</svg>
