<svg width="16" height="18" viewBox="0 0 16 18" fill="none" xmlns="http://www.w3.org/2000/svg">
<path d="M13.3333 0C12.6261 0 11.9478 0.314495 11.4477 0.874301C10.9476 1.43411 10.6667 2.19337 10.6667 2.98505C10.6679 3.19487 10.6888 3.40397 10.7292 3.60888L4.67448 6.99767C4.42476 6.67584 4.11636 6.41762 3.77003 6.24038C3.4237 6.06313 3.04748 5.97097 2.66667 5.9701C1.95942 5.9701 1.28115 6.2846 0.781048 6.8444C0.280951 7.40421 0 8.16347 0 8.95515C0 9.74684 0.280951 10.5061 0.781048 11.0659C1.28115 11.6257 1.95942 11.9402 2.66667 11.9402C3.0476 11.9397 3.42401 11.8479 3.77057 11.6709C4.11713 11.4939 4.4258 11.2358 4.67578 10.9141L10.7266 14.3014C10.6871 14.5064 10.667 14.7155 10.6667 14.9253C10.6667 15.7169 10.9476 16.4762 11.4477 17.036C11.9478 17.5958 12.6261 17.9103 13.3333 17.9103C14.0406 17.9103 14.7189 17.5958 15.219 17.036C15.719 16.4762 16 15.7169 16 14.9253C16 14.1336 15.719 13.3743 15.219 12.8145C14.7189 12.2547 14.0406 11.9402 13.3333 11.9402C12.9524 11.9407 12.576 12.0325 12.2294 12.2095C11.8829 12.3865 11.5742 12.6446 11.3242 12.9663L5.27344 9.57898C5.31292 9.37397 5.333 9.16487 5.33333 8.95515C5.33205 8.74582 5.3111 8.53721 5.27083 8.33278L11.3255 4.94399C11.5754 5.26555 11.8838 5.5235 12.2301 5.70049C12.5765 5.87748 12.9526 5.96941 13.3333 5.9701C14.0406 5.9701 14.7189 5.65561 15.219 5.0958C15.719 4.53599 16 3.77674 16 2.98505C16 2.19337 15.719 1.43411 15.219 0.874301C14.7189 0.314495 14.0406 0 13.3333 0Z" fill="#C1C5D6"/>
</svg>
