<svg width="14" height="9" viewBox="0 0 14 9" fill="none" xmlns="http://www.w3.org/2000/svg">
<g id="Group">
<g id="Group_2">
<path id="Vector" d="M4.37461 6.12061C3.69516 6.12061 3.14453 6.67103 3.14453 7.35055C3.14453 8.0301 3.69516 8.58052 4.37461 8.58052C5.0543 8.58052 5.60479 8.0301 5.60479 7.35055C5.60479 6.67103 5.0543 6.12061 4.37461 6.12061ZM4.37461 7.88528C4.07925 7.88528 3.83992 7.64591 3.83992 7.35055C3.83992 7.05505 4.07925 6.81582 4.37461 6.81582C4.67001 6.81582 4.90951 7.05505 4.90951 7.35055C4.90951 7.64591 4.67001 7.88528 4.37461 7.88528Z" fill="#010F20"/>
<path id="Vector_2" d="M10.8619 6.12061C10.1824 6.12061 9.63184 6.67103 9.63184 7.35055C9.63184 8.0301 10.1824 8.58052 10.8619 8.58052C11.5416 8.58052 12.0921 8.0301 12.0921 7.35055C12.0921 6.67103 11.5416 6.12061 10.8619 6.12061ZM10.8619 7.88528C10.5665 7.88528 10.3272 7.64591 10.3272 7.35055C10.3272 7.05505 10.5665 6.81582 10.8619 6.81582C11.1573 6.81582 11.3968 7.05505 11.3968 7.35055C11.3968 7.64591 11.1573 7.88528 10.8619 7.88528Z" fill="#010F20"/>
<path id="Vector_3" d="M5.75856 2.34119C5.75856 2.51355 5.61753 2.65455 5.4452 2.65455H1.12094C0.948587 2.65455 0.807617 2.51355 0.807617 2.34119V2.15317C0.807617 1.98085 0.948621 1.83984 1.12094 1.83984H5.4452C5.61756 1.83984 5.75856 1.98085 5.75856 2.15317V2.34119Z" fill="#010F20"/>
<path id="Vector_4" d="M13.2722 4.17575C12.8211 4.05849 12.563 3.98477 12.3859 3.64274L11.7937 2.44371C11.6165 2.10168 11.1564 1.8218 10.7713 1.8218H9.96132C9.96132 1.8218 9.85236 1.82407 9.85236 1.71442C9.85236 1.46301 9.85236 0.708807 9.85236 0.708807C9.85236 0.318972 9.63175 0 9.16248 0H2.56113C1.88928 0 1.57031 0.319006 1.57031 0.708807V1.33901C1.57031 1.33901 1.57031 1.52644 1.75172 1.52644C2.67525 1.52644 5.44588 1.52644 5.44588 1.52644C5.79146 1.52644 6.07261 1.80755 6.07261 2.15313V2.34115C6.07261 2.68672 5.79146 2.96784 5.44588 2.96784H1.75172C1.75172 2.96784 1.57031 2.95276 1.57031 3.14859C1.57031 3.24585 1.57031 3.31114 1.57031 3.36531C1.57031 3.53767 1.80655 3.53757 1.80655 3.53757H4.29327C4.63885 3.53757 4.92 3.81871 4.92 4.16426V4.35227C4.92 4.69785 4.63885 4.97896 4.29327 4.97896H1.84578C1.84578 4.97896 1.57031 4.97387 1.57031 5.1932C1.57031 5.57392 1.57031 6.716 1.57031 6.716C1.57031 7.1058 1.88928 7.4248 2.27912 7.4248C2.27912 7.4248 2.57276 7.4248 2.67064 7.4248C2.75944 7.4248 2.77251 7.37535 2.77251 7.3505C2.77251 6.46672 3.49161 5.74779 4.37543 5.74779C5.25931 5.74779 5.97837 6.46679 5.97837 7.3505C5.97837 7.37545 5.97128 7.4248 6.03919 7.4248C6.81528 7.4248 9.19883 7.4248 9.19883 7.4248C9.26147 7.4248 9.25892 7.37201 9.25892 7.3505C9.25892 6.46672 9.97798 5.74779 10.8618 5.74779C11.7457 5.74779 12.4647 6.46679 12.4647 7.3505C12.4647 7.37545 12.4641 7.4248 12.5033 7.4248C12.8592 7.4248 13.2999 7.4248 13.2999 7.4248C13.6852 7.4248 14.0004 7.10965 14.0004 6.72439V5.39371C14.0004 4.27308 13.6466 4.27308 13.2722 4.17575ZM11.9393 4.11342C11.9393 4.11342 10.4519 4.11342 9.94563 4.11342C9.86327 4.11342 9.85233 4.03323 9.85233 4.03323V2.37246C9.85233 2.37246 9.84768 2.30869 9.95344 2.30869C10.0957 2.30869 10.5223 2.30869 10.5223 2.30869C10.8651 2.30869 11.2745 2.55773 11.4321 2.86207L11.9591 3.92898C11.9813 3.97194 12.005 4.01007 12.0304 4.04424C12.0491 4.0693 12.0177 4.11342 11.9393 4.11342Z" fill="#010F20"/>
<path id="Vector_5" d="M4.60623 4.35217C4.60623 4.52453 4.46523 4.66554 4.2929 4.66554H0.313328C0.14097 4.66554 0 4.52453 0 4.35217V4.16416C0 3.99183 0.141004 3.85083 0.313328 3.85083H4.2929C4.46526 3.85083 4.60623 3.99183 4.60623 4.16416V4.35217Z" fill="#010F20"/>
</g>
</g>
</svg>
