<svg width="24" height="12" viewBox="0 0 24 12" fill="none" xmlns="http://www.w3.org/2000/svg">
<g id="Layer_2">
<g id="Group">
<path id="Vector" d="M21.9483 2.12048C21.8509 1.98143 21.691 1.898 21.5242 1.898H18.2913V0.521429C18.2913 0.236381 18.0549 0 17.7699 0H6.05512C5.77007 0 5.53369 0.236381 5.53369 0.521429V8.94772C5.53369 9.23277 5.77007 9.46915 6.05512 9.46915H7.52903C7.80017 10.4147 8.67617 11.1169 9.70512 11.1169C10.7341 11.1169 11.6101 10.4216 11.8812 9.46915H17.6587C17.9298 10.4147 18.8058 11.1169 19.8348 11.1169C20.8637 11.1169 21.7397 10.4216 22.0109 9.46915H23.0885C23.3735 9.46915 23.6099 9.23277 23.6099 8.94772V4.6581C23.6099 4.54686 23.5751 4.44257 23.5126 4.35914L21.9483 2.12048ZM22.574 4.81105H20.238V2.94781H21.26L22.574 4.81105ZM6.57655 1.04981H17.2485V8.43324H11.9299C11.7283 7.38343 10.8106 6.59086 9.70512 6.59086C8.5997 6.59086 7.67503 7.38343 7.48036 8.43324H6.57655V1.04981ZM9.70512 10.074C9.03074 10.074 8.48151 9.52477 8.48151 8.85038C8.48151 8.176 9.03074 7.62677 9.70512 7.62677C10.3795 7.62677 10.9287 8.176 10.9287 8.85038C10.9287 9.52477 10.3795 10.074 9.70512 10.074ZM19.8417 10.074C19.1673 10.074 18.6181 9.52477 18.6181 8.85038C18.6181 8.176 19.1673 7.62677 19.8417 7.62677C20.5161 7.62677 21.0653 8.176 21.0653 8.85038C21.0653 9.52477 20.5161 10.074 19.8417 10.074ZM22.0665 8.43324C21.8649 7.38343 20.9471 6.59086 19.8417 6.59086C19.2438 6.59086 18.6946 6.82724 18.2913 7.20962V2.94781H19.1882V5.33248C19.1882 5.61753 19.4246 5.85391 19.7096 5.85391H22.5809V8.43324H22.0665Z" fill="#5CE1E6"/>
<path id="Vector_2" d="M0.521429 1.04628H4.24096C4.526 1.04628 4.76239 0.809894 4.76239 0.524847C4.76239 0.239799 4.526 0.00341797 4.24096 0.00341797H0.521429C0.236381 0.00341797 0 0.239799 0 0.524847C0 0.809894 0.236381 1.04628 0.521429 1.04628Z" fill="#5CE1E6"/>
<path id="Vector_3" d="M4.23982 1.90381H1.37543C1.09039 1.90381 0.854004 2.14019 0.854004 2.42524C0.854004 2.71028 1.09039 2.94667 1.37543 2.94667H4.23982C4.52486 2.94667 4.76125 2.71028 4.76125 2.42524C4.76125 2.14019 4.53182 1.90381 4.23982 1.90381Z" fill="#5CE1E6"/>
<path id="Vector_4" d="M4.24165 3.80371H2.43403C2.14898 3.80371 1.9126 4.04009 1.9126 4.32514C1.9126 4.61019 2.14898 4.84657 2.43403 4.84657H4.24165C4.5267 4.84657 4.76308 4.61019 4.76308 4.32514C4.76308 4.04009 4.53365 3.80371 4.24165 3.80371Z" fill="#5CE1E6"/>
<path id="Vector_5" d="M4.23894 5.70117H3.61323C3.32818 5.70117 3.0918 5.93755 3.0918 6.2226C3.0918 6.50765 3.32818 6.74403 3.61323 6.74403H4.23894C4.52399 6.74403 4.76037 6.50765 4.76037 6.2226C4.76037 5.93755 4.53094 5.70117 4.23894 5.70117Z" fill="#5CE1E6"/>
</g>
</g>
</svg>
