<svg width="21" height="20" viewBox="0 0 21 20" fill="none" xmlns="http://www.w3.org/2000/svg">
<g id="Group 25">
<path id="Vector" d="M1 1H17V10H18V1C18 0.5 17.5 0 17.0003 0H1C0.5 0 0 0.5 0 1V8.5V16C0 16.5 0.5 17 1 17H11L11.0002 16H1V1Z" fill="#C1C5D6"/>
<path id="Vector_2" d="M1 1H17V10H18V1C18 0.5 17.5 0 17.0003 0H1C0.5 0 0 0.5 0 1V8.5V16C0 16.5 0.5 17 1 17H11L11.0002 16H1V1Z" fill="#C1C5D6"/>
<g id="GPU">
<g id="Clip path group">
<mask id="mask0_180_494" style="mask-type:luminance" maskUnits="userSpaceOnUse" x="3" y="5" width="12" height="8">
<g id="5400019dc4">
<path id="Vector_3" d="M14.9639 5L14.9639 13L2.99996 13L2.99996 5L14.9639 5Z" fill="white"/>
</g>
</mask>
<g mask="url(#mask0_180_494)">
<g id="Group">
<path id="Vector_4" d="M14.6741 6.22724L4.3639 6.22724V5.09153C4.3639 5.06653 4.35591 5.0451 4.33993 5.02784C4.32395 5.00998 4.30531 5.00105 4.28295 5.00105H3.08091C3.05854 5.00105 3.03937 5.00998 3.02339 5.02784C3.00741 5.0451 2.99996 5.06653 2.99996 5.09153V5.72724C2.99996 5.75224 3.00741 5.77367 3.02339 5.79093C3.03937 5.80879 3.05854 5.81772 3.08091 5.81772H3.73332L3.73332 12.9082C3.73332 12.9326 3.74131 12.954 3.75675 12.9719C3.77273 12.9891 3.79191 12.9981 3.81427 12.9981H4.28348C4.30585 12.9981 4.32502 12.9891 4.341 12.9719C4.35697 12.954 4.36443 12.9326 4.36443 12.9082V11.9933H5.08448V12.9082C5.08448 12.9326 5.09247 12.954 5.10791 12.9719C5.12389 12.9891 5.14306 12.9981 5.16543 12.9981L11.9905 12.9981C12.0128 12.9981 12.0315 12.9891 12.0475 12.9719C12.0634 12.954 12.0714 12.9326 12.0714 12.9082L12.0714 11.9933H12.5917L12.5917 12.9082C12.5917 12.9326 12.5997 12.954 12.6157 12.9719C12.6312 12.9891 12.6503 12.9981 12.6727 12.9981H14.0377C14.0601 12.9981 14.0792 12.9891 14.0947 12.9719C14.1107 12.954 14.1187 12.9326 14.1187 12.9082V11.9933H14.6741C14.7125 11.9933 14.7492 11.985 14.7849 11.9689C14.8206 11.9522 14.852 11.929 14.8792 11.8987C14.9063 11.8683 14.9271 11.8332 14.942 11.7939C14.9569 11.754 14.9639 11.713 14.9639 11.6701L14.9639 6.55105C14.9639 6.5082 14.9569 6.46653 14.942 6.42724C14.9271 6.38736 14.9063 6.35284 14.8792 6.32248C14.852 6.29212 14.8206 6.26831 14.7849 6.25224C14.7492 6.23558 14.7125 6.22724 14.6741 6.22724ZM3.89523 12.8177L3.89523 5.72724C3.89523 5.70224 3.88724 5.68081 3.87126 5.66355C3.85582 5.6457 3.83664 5.63677 3.81427 5.63677H3.16186V5.18141H4.20199L4.20253 12.8177H3.89523ZM12.9763 6.4082L12.5065 6.93141L6.27427 6.93141L5.80453 6.4082L12.9763 6.4082ZM5.75074 11.813L6.24444 11.2624L12.4772 11.2624L12.9709 11.813L5.75074 11.813ZM5.24639 11.9993L5.76672 11.9993V12.8177L5.24639 12.8177V11.9993ZM5.92862 11.9993H6.44949V12.8177H5.92862V11.9993ZM6.61139 11.9993H7.13172V12.8177H6.61139V11.9993ZM7.29363 11.9993H7.81449V12.8177H7.29363V11.9993ZM7.9764 11.9993H8.49673V12.8177H7.9764V11.9993ZM8.65864 11.9993L9.1795 11.9993V12.8177L8.65864 12.8177V11.9993ZM9.3414 11.9993H9.86174V12.8177H9.3414V11.9993ZM10.0236 11.9993H10.5445V12.8177H10.0236V11.9993ZM10.7064 11.9993H11.2267L11.2267 12.8177H10.7064V11.9993ZM11.9095 12.8177H11.3886L11.3886 11.9993H11.9095L11.9095 12.8177ZM12.7537 11.9993H13.274V12.8177H12.7537L12.7537 11.9993ZM13.9568 12.8177H13.4364V11.9993H13.9568V12.8177ZM14.802 11.6701C14.802 11.7094 14.7897 11.7433 14.7647 11.7713C14.7397 11.7987 14.7093 11.813 14.6741 11.813H13.1808C13.1776 11.7951 13.1701 11.7796 13.1584 11.7671L12.5678 11.1088C12.5523 11.0909 12.5332 11.082 12.5108 11.082L6.21089 11.082C6.18852 11.082 6.16935 11.0909 6.15337 11.1088L5.59256 11.7338C5.57286 11.7558 5.5654 11.782 5.5702 11.813L4.36443 11.813L4.36443 6.4082L5.57978 6.4082C5.58351 6.41474 5.58777 6.42129 5.59256 6.42724L6.1832 7.08558C6.19917 7.10284 6.21781 7.11177 6.24018 7.11177L12.5401 7.11177C12.5625 7.11177 12.5816 7.10284 12.5976 7.08558L13.1584 6.45998C13.1717 6.4457 13.1792 6.42784 13.1813 6.4082H14.6741C14.7093 6.4082 14.7397 6.42189 14.7647 6.44986C14.7897 6.47784 14.802 6.51117 14.802 6.55105L14.802 11.6701Z" fill="#C1C5D6"/>
</g>
</g>
</g>
<path id="Vector_5" d="M6.05357 8.48334C6.08552 8.07441 6.19843 7.79406 6.39335 7.64168C6.42424 7.61727 6.4349 7.58513 6.42584 7.54465C6.41679 7.50418 6.39389 7.48096 6.35661 7.4756C6.29323 7.46668 6.22985 7.46191 6.16541 7.46191C6.06635 7.46191 5.96835 7.47322 5.87142 7.49584C5.83308 7.50358 5.80166 7.52441 5.77769 7.55834C5.58277 7.82144 5.58543 8.18096 5.78515 8.63691C5.86184 8.55775 5.95131 8.50656 6.05357 8.48334ZM5.90285 7.67382L5.90338 7.67263H5.90391C5.98646 7.65358 6.07008 7.64346 6.15476 7.64227C6.02534 7.81191 5.94172 8.04703 5.90444 8.34465C5.88847 8.3518 5.87302 8.35953 5.85704 8.36727C5.76118 8.07203 5.77662 7.84346 5.90285 7.67382Z" fill="#C1C5D6"/>
<path id="Vector_6" d="M5.60342 9.0744C5.60715 8.95833 5.63804 8.85118 5.69556 8.75416C5.45909 8.44047 5.3611 8.15237 5.4021 7.89106C5.40423 7.87797 5.4037 7.86428 5.40051 7.85118C5.39731 7.83809 5.39145 7.82678 5.384 7.81606C5.37601 7.80594 5.36642 7.79761 5.35524 7.79225C5.34459 7.7863 5.33287 7.78333 5.32062 7.78333C5.30198 7.78333 5.28547 7.78987 5.27109 7.80297C5.14061 7.91428 5.03036 8.04642 4.94036 8.1994C4.91799 8.23511 4.90947 8.2744 4.91426 8.31785C4.94302 8.65713 5.17256 8.90952 5.60342 9.0744ZM5.07563 8.2988C5.12197 8.22023 5.17469 8.14702 5.23328 8.08035C5.24979 8.30178 5.33979 8.53392 5.50223 8.7738C5.49531 8.79106 5.48891 8.80892 5.48359 8.82678C5.22795 8.69344 5.09374 8.52023 5.0751 8.30059V8.2994L5.07563 8.2988Z" fill="#C1C5D6"/>
<path id="Vector_7" d="M5.75171 9.5274C5.68088 9.44168 5.63507 9.34228 5.61377 9.22799C5.24735 9.19287 4.99544 9.06668 4.85857 8.84942C4.84259 8.82323 4.82022 8.81013 4.792 8.81013C4.77123 8.81013 4.75312 8.81728 4.73714 8.83275C4.7217 8.84823 4.71264 8.86728 4.70998 8.89049C4.68814 9.07144 4.694 9.2518 4.72809 9.43097C4.73448 9.47383 4.75365 9.50835 4.78401 9.53513C4.90064 9.64287 5.03805 9.69644 5.19729 9.69644C5.35973 9.69644 5.54453 9.6399 5.75171 9.5274ZM4.8868 9.39585V9.39466C4.86922 9.3024 4.86017 9.20954 4.85963 9.11549C5.01142 9.25954 5.22232 9.35299 5.48968 9.39406C5.49554 9.41192 5.50246 9.42918 5.50992 9.44644C5.39488 9.49228 5.28996 9.51609 5.19729 9.51609C5.0764 9.51609 4.97467 9.4768 4.88733 9.39644L4.8868 9.39585Z" fill="#C1C5D6"/>
<path id="Vector_8" d="M6.47889 8.5744C6.71908 8.3494 6.94223 8.2369 7.14834 8.2369C7.18349 8.2369 7.21864 8.23988 7.25326 8.24702C7.25805 8.24762 7.26338 8.24821 7.26817 8.24821C7.30226 8.24762 7.32676 8.23035 7.34114 8.19643C7.35605 8.1625 7.35339 8.13095 7.33262 8.10059C7.23249 7.95535 7.11426 7.83273 6.97685 7.73214C6.95022 7.7119 6.92146 7.70178 6.88951 7.70178C6.88312 7.70178 6.87726 7.70238 6.87087 7.70297C6.56623 7.73512 6.33988 7.99166 6.19183 8.47143C6.29621 8.47559 6.39154 8.51012 6.47889 8.5744ZM6.88631 7.88273H6.88684L6.88738 7.88333C6.95821 7.93452 7.02372 7.99345 7.0839 8.05893C6.88525 8.07678 6.67647 8.17738 6.46131 8.35893C6.44587 8.35119 6.42989 8.34404 6.41391 8.3375C6.53321 8.05297 6.68872 7.90357 6.88631 7.88273Z" fill="#C1C5D6"/>
<path id="Vector_9" d="M6.2823 9.71844C6.25034 10.1268 6.1369 10.4077 5.94251 10.5601C5.91162 10.5839 5.90097 10.6161 5.91002 10.6565C5.91854 10.6976 5.94198 10.7202 5.97926 10.7256C6.04264 10.7351 6.10601 10.7399 6.16992 10.7399C6.26898 10.7393 6.36751 10.728 6.46444 10.7053C6.50279 10.6982 6.53368 10.6768 6.55764 10.6428C6.7531 10.3797 6.75044 10.0202 6.55072 9.56487C6.47403 9.64344 6.38455 9.69463 6.2823 9.71844ZM6.43302 10.528L6.43249 10.5286H6.43195C6.34887 10.5482 6.26579 10.5583 6.18111 10.5589C6.31052 10.3899 6.39414 10.1547 6.43142 9.85653C6.44686 9.84998 6.46284 9.84225 6.47829 9.83391C6.57415 10.1297 6.55924 10.3577 6.43302 10.528Z" fill="#C1C5D6"/>
<path id="Vector_10" d="M6.73264 9.12679C6.72838 9.24345 6.69749 9.35 6.63997 9.44702C6.87697 9.76131 6.97497 10.0488 6.93396 10.3101C6.93183 10.3238 6.93236 10.3369 6.93556 10.35C6.93875 10.3631 6.94408 10.375 6.95207 10.3851C6.96006 10.3958 6.96964 10.4036 6.98029 10.4095C6.99148 10.4149 7.0032 10.4179 7.01544 10.4179C7.03409 10.4179 7.0506 10.4113 7.06497 10.3988C7.19546 10.2875 7.3057 10.1554 7.39571 10.0018C7.41808 9.96607 7.4266 9.92679 7.4218 9.88393C7.39305 9.54405 7.16297 9.29226 6.73264 9.12679ZM7.26043 9.90238C7.2141 9.98155 7.16137 10.0542 7.10226 10.1214C7.08628 9.8994 6.99627 9.66726 6.8333 9.42798C6.84023 9.41012 6.84662 9.39286 6.85247 9.3744C7.10811 9.50774 7.24179 9.68155 7.26097 9.90119V9.90179L7.26043 9.90238Z" fill="#C1C5D6"/>
<path id="Vector_11" d="M7.55162 8.66607C7.43552 8.55893 7.29758 8.50536 7.13887 8.50536C6.97644 8.50536 6.7911 8.56131 6.58446 8.6744C6.65529 8.75952 6.70109 8.85952 6.72239 8.97381C7.08881 9.00893 7.34072 9.13512 7.47759 9.35238C7.49357 9.37857 7.51594 9.39107 7.54417 9.39107C7.56494 9.39167 7.58305 9.38393 7.59902 9.36905C7.61447 9.35357 7.62352 9.33452 7.62618 9.31131C7.64802 9.12976 7.64163 8.9494 7.60808 8.77024C7.60115 8.72797 7.58251 8.69286 7.55162 8.66607ZM6.84649 8.80714C6.84009 8.78988 6.8337 8.77202 6.82625 8.75536C6.94128 8.70893 7.04567 8.68571 7.13887 8.68571C7.25977 8.68571 7.36149 8.725 7.44884 8.80536L7.44937 8.80595V8.80655C7.46641 8.89881 7.47546 8.99167 7.47653 9.08571C7.32474 8.94167 7.11384 8.84881 6.84649 8.80714Z" fill="#C1C5D6"/>
<path id="Vector_12" d="M5.85723 9.62737C5.61703 9.85237 5.39388 9.96487 5.18777 9.96487C5.15262 9.96487 5.11747 9.96129 5.08285 9.95475C5.07753 9.95356 5.07273 9.95356 5.06741 9.95356C5.03385 9.95356 5.00936 9.97082 4.99444 10.0047C4.97953 10.0387 4.98273 10.0708 5.0035 10.1006C5.10309 10.2464 5.22186 10.369 5.35926 10.469C5.38536 10.4893 5.41465 10.4994 5.44661 10.4994C5.45246 10.4994 5.45885 10.4994 5.46525 10.4982C5.76988 10.4661 5.99623 10.2101 6.14429 9.73034C6.0399 9.72558 5.94404 9.69106 5.85723 9.62737ZM5.4498 10.319H5.44927L5.4482 10.3184C5.3779 10.2667 5.31239 10.2083 5.25221 10.1422C5.45087 10.1244 5.65964 10.0238 5.87427 9.84284C5.89025 9.84998 5.90622 9.85713 5.9222 9.86367C5.80237 10.1488 5.64686 10.2982 5.4498 10.319Z" fill="#C1C5D6"/>
<path id="Vector_13" d="M5.70437 9.10061C5.70437 9.16906 5.71608 9.23513 5.73952 9.29882C5.76295 9.36191 5.7965 9.41787 5.84018 9.46608C5.88331 9.51489 5.93338 9.5518 5.99036 9.57858C6.04735 9.60477 6.10647 9.61787 6.16771 9.61787C6.22949 9.61787 6.28861 9.60477 6.3456 9.57858C6.40205 9.5518 6.45211 9.51489 6.49578 9.46608C6.53946 9.41787 6.57301 9.36191 6.59644 9.29882C6.61988 9.23513 6.63159 9.16906 6.63159 9.10061C6.63159 9.03215 6.61988 8.96608 6.59644 8.90299C6.57301 8.83989 6.53946 8.78394 6.49578 8.73513C6.45211 8.68691 6.40205 8.64941 6.3456 8.62322C6.28861 8.59703 6.22949 8.58394 6.16771 8.58394C6.10647 8.58394 6.04735 8.59703 5.99036 8.62322C5.93391 8.64941 5.88385 8.68691 5.84018 8.73572C5.7965 8.78394 5.76295 8.83989 5.73952 8.90299C5.71608 8.96608 5.70437 9.03215 5.70437 9.10061ZM6.46969 9.10061C6.46969 9.14525 6.46223 9.18811 6.44679 9.22977C6.43134 9.27084 6.40951 9.30715 6.38128 9.3387C6.35305 9.37025 6.32056 9.39465 6.28328 9.41132C6.24654 9.42858 6.20766 9.43691 6.16771 9.43691C6.12777 9.43691 6.08942 9.42858 6.05214 9.41132C6.01539 9.39465 5.98291 9.37025 5.95468 9.3387C5.92592 9.30715 5.90462 9.27084 5.88917 9.22977C5.87373 9.18811 5.86627 9.14525 5.86627 9.10061C5.86627 9.05596 5.87373 9.01311 5.88917 8.97203C5.90462 8.93096 5.92592 8.89465 5.95468 8.86311C5.98291 8.83156 6.01539 8.80715 6.05214 8.78989C6.08942 8.77322 6.12777 8.7643 6.16771 8.7643C6.20766 8.7643 6.24654 8.77322 6.28328 8.78989C6.32003 8.80715 6.35305 8.83156 6.38128 8.86311C6.40951 8.89465 6.43134 8.93096 6.44679 8.97203C6.4617 9.01311 6.46969 9.05596 6.46969 9.10061Z" fill="#C1C5D6"/>
<path id="Vector_14" d="M9.43596 8.48334C9.46738 8.07441 9.58082 7.79406 9.77574 7.64168C9.8061 7.61727 9.81728 7.58513 9.80823 7.54465C9.79918 7.50418 9.77627 7.48096 9.73899 7.4756C9.67562 7.46668 9.61224 7.46191 9.5478 7.46191C9.44874 7.46191 9.35074 7.47322 9.25381 7.49584C9.21547 7.50358 9.18404 7.52441 9.16008 7.55834C8.96515 7.82144 8.96782 8.18096 9.16753 8.63691C9.24423 8.55775 9.3337 8.50656 9.43596 8.48334ZM9.28523 7.67382L9.28577 7.67263H9.2863C9.36885 7.65358 9.45247 7.64346 9.53715 7.64227C9.40773 7.81191 9.32411 8.04703 9.28683 8.34465C9.27085 8.3518 9.25541 8.35953 9.23943 8.36727C9.14357 8.07203 9.15901 7.84346 9.28523 7.67382Z" fill="#C1C5D6"/>
<path id="Vector_15" d="M8.98501 9.0744C8.98874 8.95833 9.01963 8.85118 9.07715 8.75416C8.84068 8.44047 8.74269 8.15237 8.7837 7.89106C8.78529 7.87797 8.78476 7.86428 8.78157 7.85118C8.7789 7.83809 8.77304 7.82678 8.76506 7.81606C8.7576 7.80594 8.74801 7.79761 8.73683 7.79225C8.72618 7.7863 8.71446 7.78333 8.70221 7.78333C8.68357 7.78333 8.66706 7.78987 8.65215 7.80297C8.5222 7.91428 8.41195 8.04642 8.32195 8.1994C8.29958 8.23511 8.29106 8.2744 8.29532 8.31785C8.32461 8.65713 8.55415 8.90952 8.98501 9.0744ZM8.45722 8.2988C8.50356 8.22023 8.55628 8.14702 8.61487 8.08035C8.63138 8.30178 8.72138 8.53392 8.88382 8.7738C8.8769 8.79106 8.87104 8.80892 8.86518 8.82678C8.60954 8.69344 8.47533 8.52023 8.45669 8.30059V8.2994L8.45722 8.2988Z" fill="#C1C5D6"/>
<path id="Vector_16" d="M9.13379 9.5274C9.06296 9.44168 9.01715 9.34228 8.99585 9.22799C8.62943 9.19287 8.37752 9.06668 8.24065 8.84942C8.22467 8.82323 8.2023 8.81013 8.17408 8.81013C8.15331 8.81013 8.1352 8.81728 8.11922 8.83275C8.10378 8.84823 8.09472 8.86728 8.09206 8.89049C8.07022 9.07144 8.07608 9.2518 8.11017 9.43097C8.11656 9.47383 8.13573 9.50835 8.16609 9.53513C8.28272 9.64287 8.42013 9.69644 8.57937 9.69644C8.74181 9.69644 8.92661 9.6399 9.13379 9.5274ZM8.26888 9.39585V9.39466C8.2513 9.3024 8.24225 9.20954 8.24172 9.11549C8.3935 9.25954 8.6044 9.35299 8.87176 9.39406C8.87762 9.41192 8.88454 9.42918 8.892 9.44644C8.77696 9.49228 8.67204 9.51609 8.57937 9.51609C8.45794 9.51609 8.35675 9.4768 8.26941 9.39644L8.26888 9.39585Z" fill="#C1C5D6"/>
<path id="Vector_17" d="M9.86048 8.5744C10.1007 8.3494 10.3238 8.2369 10.5294 8.2369C10.5651 8.2369 10.6002 8.23988 10.6349 8.24702C10.6396 8.24762 10.645 8.24821 10.6498 8.24821C10.6838 8.24762 10.7083 8.23035 10.7227 8.19643C10.7376 8.1625 10.735 8.13095 10.7142 8.10059C10.6141 7.95535 10.4958 7.83273 10.3584 7.73214C10.3318 7.7119 10.3031 7.70178 10.2711 7.70178C10.2647 7.70178 10.2588 7.70238 10.2525 7.70297C9.94782 7.73512 9.72094 7.99166 9.57342 8.47143C9.67727 8.47559 9.77314 8.51012 9.86048 8.5744ZM10.2679 7.88273H10.2684L10.269 7.88333C10.3398 7.93452 10.4053 7.99345 10.4655 8.05893C10.2668 8.07678 10.0581 8.17738 9.8429 8.35893C9.82746 8.35119 9.81148 8.34404 9.7955 8.3375C9.9148 8.05297 10.0703 7.90357 10.2679 7.88273Z" fill="#C1C5D6"/>
<path id="Vector_18" d="M9.66413 9.71844C9.63218 10.1268 9.51874 10.4077 9.32435 10.5601C9.29346 10.5839 9.2828 10.6161 9.29186 10.6565C9.30038 10.6976 9.32381 10.7202 9.36056 10.7256C9.42447 10.7351 9.48785 10.7399 9.55176 10.7399C9.65082 10.7393 9.74935 10.728 9.84628 10.7053C9.88462 10.6982 9.91551 10.6768 9.93948 10.6428C10.1349 10.3797 10.1323 10.0202 9.93255 9.56487C9.85586 9.64344 9.76639 9.69463 9.66413 9.71844ZM9.81485 10.528L9.81432 10.5286H9.81379C9.73071 10.5482 9.64762 10.5583 9.56294 10.5589C9.69236 10.3899 9.77598 10.1547 9.81326 9.85653C9.8287 9.84998 9.84468 9.84225 9.86012 9.83391C9.95599 10.1297 9.94108 10.3577 9.81485 10.528Z" fill="#C1C5D6"/>
<path id="Vector_19" d="M10.115 9.12679C10.1107 9.24345 10.0799 9.35 10.0223 9.44702C10.2593 9.76131 10.3573 10.0488 10.3163 10.3101C10.3142 10.3238 10.3147 10.3369 10.3179 10.35C10.3211 10.3631 10.3264 10.375 10.3344 10.3851C10.3424 10.3958 10.352 10.4036 10.3627 10.4095C10.3738 10.4149 10.3856 10.4179 10.3978 10.4179C10.4165 10.4179 10.433 10.4113 10.4473 10.3988C10.5778 10.2875 10.6881 10.1554 10.7781 10.0018C10.7999 9.96607 10.809 9.92679 10.8042 9.88393C10.7754 9.54405 10.5453 9.29226 10.115 9.12679ZM10.6428 9.90238C10.5965 9.98155 10.5437 10.0542 10.4846 10.1214C10.4686 9.8994 10.3786 9.66726 10.2157 9.42798C10.2226 9.41012 10.229 9.39286 10.2348 9.3744C10.4905 9.50774 10.6242 9.68155 10.6433 9.90119V9.90179L10.6428 9.90238Z" fill="#C1C5D6"/>
<path id="Vector_20" d="M10.9332 8.66607C10.8171 8.55893 10.6792 8.50536 10.5205 8.50536C10.358 8.50536 10.1727 8.56131 9.96605 8.6744C10.0369 8.75952 10.0827 8.85952 10.104 8.97381C10.4704 9.00893 10.7223 9.13512 10.8592 9.35238C10.8752 9.37857 10.897 9.39167 10.9258 9.39107C10.9465 9.39167 10.9646 9.38393 10.9806 9.36905C10.9961 9.35357 11.0051 9.33452 11.0078 9.31131C11.0296 9.12976 11.0232 8.9494 10.9897 8.77024C10.9827 8.72797 10.9641 8.69286 10.9332 8.66607ZM10.2281 8.80714C10.2217 8.78988 10.2153 8.77202 10.2078 8.75536C10.3229 8.70893 10.4273 8.68571 10.5205 8.68571C10.6414 8.68571 10.7426 8.725 10.8304 8.80536L10.831 8.80595V8.80655C10.848 8.89881 10.8571 8.99167 10.8581 9.08571C10.7058 8.94167 10.4954 8.84881 10.2281 8.80714Z" fill="#C1C5D6"/>
<path id="Vector_21" d="M9.23931 9.62737C8.99911 9.85237 8.77596 9.96487 8.56985 9.96487C8.5347 9.96487 8.49955 9.96129 8.46493 9.95475C8.45961 9.95356 8.45481 9.95356 8.44949 9.95356C8.41593 9.95356 8.39144 9.97082 8.37652 10.0047C8.36214 10.0387 8.36481 10.0708 8.38558 10.1006C8.48517 10.2464 8.60394 10.369 8.74134 10.469C8.76744 10.4893 8.79673 10.4994 8.82869 10.4994C8.83454 10.4994 8.84093 10.4994 8.84733 10.4982C9.15196 10.4661 9.37831 10.2101 9.52637 9.73034C9.42198 9.72558 9.32612 9.69106 9.23931 9.62737ZM8.83188 10.319H8.83135L8.83028 10.3184C8.75998 10.2667 8.69447 10.2083 8.63429 10.1422C8.83295 10.1244 9.04172 10.0238 9.25635 9.84284C9.27233 9.84998 9.2883 9.85713 9.30428 9.86367C9.18445 10.1488 9.02894 10.2982 8.83188 10.319Z" fill="#C1C5D6"/>
<path id="Vector_22" d="M9.0862 9.10061C9.0862 9.16906 9.09792 9.23513 9.12135 9.29882C9.14479 9.36191 9.17834 9.41787 9.22201 9.46608C9.26515 9.51489 9.31521 9.5518 9.3722 9.57858C9.42919 9.60477 9.4883 9.61787 9.54955 9.61787C9.61133 9.61787 9.67045 9.60477 9.72743 9.57858C9.78389 9.55239 9.83395 9.51489 9.87762 9.46608C9.92129 9.41787 9.95484 9.36191 9.97828 9.29882C10.0017 9.23513 10.0134 9.16906 10.0134 9.10061C10.0134 9.03215 10.0017 8.96608 9.97828 8.90299C9.95484 8.83989 9.92129 8.78394 9.87762 8.73513C9.83395 8.68691 9.78389 8.64941 9.72743 8.62322C9.67045 8.59703 9.61133 8.58394 9.54955 8.58394C9.4883 8.58394 9.42919 8.59703 9.3722 8.62322C9.31575 8.64941 9.26515 8.68691 9.22201 8.73572C9.17834 8.78394 9.14479 8.83989 9.12135 8.90299C9.09792 8.96608 9.0862 9.03215 9.0862 9.10061ZM9.85152 9.10061C9.85152 9.14525 9.84407 9.18811 9.82862 9.22977C9.81318 9.27084 9.79134 9.30715 9.76311 9.3387C9.73489 9.37025 9.7024 9.39465 9.66512 9.41132C9.62837 9.42858 9.58949 9.43691 9.54955 9.43691C9.50961 9.43691 9.47126 9.42858 9.43398 9.41132C9.39723 9.39465 9.36474 9.37025 9.33652 9.3387C9.30776 9.30715 9.28592 9.27084 9.27101 9.22977C9.25556 9.18811 9.24811 9.14525 9.24811 9.10061C9.24811 9.05596 9.25556 9.01311 9.27101 8.97203C9.28592 8.93096 9.30776 8.89465 9.33652 8.86311C9.36474 8.83156 9.39723 8.80715 9.43398 8.78989C9.47126 8.77322 9.50961 8.7643 9.54955 8.7643C9.58949 8.7643 9.62837 8.77322 9.66512 8.78989C9.70187 8.80715 9.73489 8.83156 9.76311 8.86311C9.79134 8.89465 9.81318 8.93096 9.82862 8.97203C9.84353 9.01311 9.85152 9.05596 9.85152 9.10061Z" fill="#C1C5D6"/>
<path id="Vector_23" d="M12.8173 8.48334C12.8487 8.07441 12.9622 7.79406 13.1571 7.64168C13.1874 7.61727 13.1986 7.58513 13.1896 7.54465C13.1805 7.50418 13.1576 7.48096 13.1203 7.4756C13.057 7.46668 12.9931 7.46191 12.9291 7.46191C12.8301 7.46191 12.7321 7.47322 12.6352 7.49584C12.5968 7.50358 12.5654 7.52441 12.5414 7.55834C12.3465 7.82144 12.3486 8.18096 12.5489 8.63691C12.6256 8.55775 12.715 8.50656 12.8173 8.48334ZM12.6666 7.67382L12.6671 7.67263H12.6676C12.7502 7.65358 12.8338 7.64346 12.918 7.64227C12.7891 7.81191 12.7049 8.04703 12.6682 8.34465C12.6522 8.3518 12.6368 8.35953 12.6208 8.36727C12.5249 8.07203 12.5404 7.84346 12.6666 7.67382Z" fill="#C1C5D6"/>
<path id="Vector_24" d="M12.3671 9.0744C12.3708 8.95833 12.4017 8.85118 12.4592 8.75416C12.2222 8.44047 12.1248 8.15237 12.1652 7.89106C12.1674 7.87797 12.1668 7.86428 12.1636 7.85118C12.1605 7.83809 12.1551 7.82678 12.1471 7.81606C12.1397 7.80594 12.1301 7.79761 12.1189 7.79225C12.1077 7.7863 12.0965 7.78333 12.0843 7.78333C12.0657 7.78333 12.0491 7.78987 12.0342 7.80297C11.9037 7.91428 11.794 8.04642 11.704 8.1994C11.6817 8.23511 11.6731 8.2744 11.6774 8.31785C11.7067 8.65713 11.9362 8.90952 12.3671 9.0744ZM11.8393 8.2988C11.8856 8.22023 11.9378 8.14702 11.9969 8.08035C12.0135 8.30178 12.1029 8.53392 12.2659 8.7738C12.259 8.79106 12.2526 8.80892 12.2467 8.82678C11.9916 8.69344 11.8574 8.52023 11.8388 8.30059V8.2994L11.8393 8.2988Z" fill="#C1C5D6"/>
<path id="Vector_25" d="M12.5154 9.5274C12.4445 9.44168 12.3987 9.34228 12.3774 9.22799C12.011 9.19287 11.7591 9.06668 11.6222 8.84942C11.6063 8.82323 11.5839 8.81013 11.5557 8.81013C11.5349 8.81013 11.5163 8.81728 11.5008 8.83275C11.4854 8.84823 11.4763 8.86728 11.4737 8.89049C11.4518 9.07144 11.4577 9.2518 11.4918 9.43097C11.4982 9.47383 11.5173 9.50835 11.5477 9.53513C11.6643 9.64287 11.8017 9.69644 11.961 9.69644C12.1234 9.69644 12.3082 9.6399 12.5154 9.5274ZM11.6505 9.39585L11.6499 9.39466C11.6329 9.3024 11.6238 9.20954 11.6228 9.11549C11.7751 9.25954 11.986 9.35299 12.2534 9.39406C12.2592 9.41192 12.2661 9.42918 12.2731 9.44644C12.1586 9.49228 12.0536 9.51609 11.961 9.51609C11.8395 9.51609 11.7383 9.4768 11.651 9.39644L11.6505 9.39585Z" fill="#C1C5D6"/>
<path id="Vector_26" d="M13.2426 8.5744C13.4828 8.3494 13.7059 8.2369 13.9115 8.2369C13.9472 8.2369 13.9823 8.23988 14.0169 8.24702C14.0217 8.24762 14.0271 8.24821 14.0318 8.24821C14.0659 8.24762 14.0904 8.23035 14.1048 8.19643C14.1197 8.1625 14.1171 8.13095 14.0963 8.10059C13.9962 7.95535 13.8779 7.83273 13.74 7.73214C13.7139 7.7119 13.6851 7.70178 13.6532 7.70178C13.6468 7.70178 13.6409 7.70238 13.6345 7.70297C13.3294 7.73512 13.103 7.99166 12.955 8.47143C13.0594 8.47559 13.1552 8.51012 13.2426 8.5744ZM13.6495 7.88273H13.6505L13.651 7.88333C13.7219 7.93452 13.7869 7.99345 13.8476 8.05893C13.6489 8.07678 13.4401 8.17738 13.225 8.35893C13.2095 8.35119 13.1936 8.34404 13.1776 8.3375C13.2969 8.05297 13.4524 7.90357 13.6495 7.88273Z" fill="#C1C5D6"/>
<path id="Vector_27" d="M13.0459 9.71844C13.014 10.1268 12.9005 10.4077 12.7061 10.5601C12.6753 10.5839 12.6646 10.6161 12.6737 10.6565C12.6822 10.6976 12.7056 10.7202 12.7424 10.7256C12.8057 10.7351 12.8696 10.7399 12.9336 10.7399C13.0326 10.7393 13.1311 10.728 13.2281 10.7053C13.2664 10.6982 13.2973 10.6768 13.3213 10.6428C13.5162 10.3797 13.5141 10.0202 13.3143 9.56487C13.2377 9.64344 13.1482 9.69463 13.0459 9.71844ZM13.1966 10.528L13.1961 10.5286H13.195C13.1125 10.5482 13.0294 10.5583 12.9447 10.5589C13.0742 10.3899 13.1578 10.1547 13.1945 9.85653C13.2105 9.84998 13.2265 9.84225 13.2419 9.83391C13.3378 10.1297 13.3229 10.3577 13.1966 10.528Z" fill="#C1C5D6"/>
<path id="Vector_28" d="M13.4963 9.12679C13.4921 9.24345 13.4612 9.35 13.4036 9.44702C13.6406 9.76131 13.7386 10.0488 13.6976 10.3101C13.6955 10.3238 13.696 10.3369 13.6992 10.35C13.7024 10.3631 13.7078 10.375 13.7157 10.3851C13.7237 10.3958 13.7333 10.4036 13.744 10.4095C13.7552 10.4149 13.7669 10.4179 13.7791 10.4179C13.7978 10.4179 13.8143 10.4113 13.8286 10.3988C13.9591 10.2875 14.0694 10.1554 14.1594 10.0018C14.1817 9.96607 14.1903 9.92679 14.1855 9.88393C14.1567 9.54405 13.9266 9.29226 13.4963 9.12679ZM14.0241 9.90238C13.9778 9.98155 13.925 10.0542 13.8659 10.1214C13.8499 9.8994 13.7599 9.66726 13.597 9.42798C13.6039 9.41012 13.6103 9.39286 13.6161 9.3744C13.8718 9.50774 14.0055 9.68155 14.0246 9.90119V9.90179L14.0241 9.90238Z" fill="#C1C5D6"/>
<path id="Vector_29" d="M14.315 8.66607C14.1989 8.55893 14.061 8.50536 13.9023 8.50536C13.7393 8.50536 13.5545 8.56131 13.3479 8.6744C13.4187 8.75952 13.4645 8.85952 13.4853 8.97381C13.8522 9.00893 14.1041 9.13512 14.241 9.35238C14.257 9.37857 14.2788 9.39167 14.3076 9.39107C14.3284 9.39167 14.3465 9.38393 14.3619 9.36905C14.3779 9.35357 14.3869 9.33452 14.3896 9.31131C14.4109 9.12976 14.405 8.9494 14.3715 8.77024C14.3646 8.72797 14.3459 8.69286 14.315 8.66607ZM13.6099 8.80714C13.6035 8.78988 13.5971 8.77202 13.5897 8.75536C13.7047 8.70893 13.8091 8.68571 13.9023 8.68571C14.0232 8.68571 14.1244 8.725 14.2123 8.80536L14.2128 8.80595V8.80655C14.2298 8.89881 14.2389 8.99167 14.2399 9.08571C14.0876 8.94167 13.8767 8.84881 13.6099 8.80714Z" fill="#C1C5D6"/>
<path id="Vector_30" d="M12.6209 9.62737C12.3807 9.85237 12.1576 9.96487 11.9514 9.96487C11.9163 9.96487 11.8811 9.96129 11.846 9.95475C11.8412 9.95356 11.8364 9.95356 11.8311 9.95356C11.7975 9.95356 11.773 9.97082 11.7581 10.0047C11.7432 10.0387 11.7464 10.0708 11.7672 10.1006C11.8668 10.2464 11.9855 10.369 12.1229 10.469C12.149 10.4893 12.1783 10.4994 12.2103 10.4994C12.2161 10.4994 12.2225 10.4994 12.2289 10.4988C12.5336 10.4661 12.7599 10.2101 12.908 9.73034C12.8036 9.72558 12.7077 9.69106 12.6209 9.62737ZM12.2135 10.319H12.2129L12.2119 10.3184C12.1416 10.2667 12.0761 10.2083 12.0159 10.1422C12.2145 10.1244 12.4233 10.0238 12.6379 9.84284C12.6539 9.84998 12.6699 9.85713 12.6859 9.86367C12.566 10.1488 12.4105 10.2982 12.2135 10.319Z" fill="#C1C5D6"/>
<path id="Vector_31" d="M12.4678 9.10061C12.4678 9.16906 12.48 9.23513 12.5034 9.29882C12.5269 9.36191 12.5604 9.41787 12.6036 9.46608C12.6472 9.51489 12.6973 9.5518 12.7543 9.57858C12.8113 9.60477 12.8704 9.61787 12.9316 9.61787C12.9934 9.61787 13.0525 9.60477 13.109 9.57858C13.166 9.55239 13.216 9.51489 13.2597 9.46608C13.3034 9.41787 13.3369 9.36191 13.3604 9.29882C13.3838 9.23513 13.3955 9.16906 13.3955 9.10061C13.3955 9.03215 13.3838 8.96608 13.3604 8.90299C13.3369 8.83989 13.3034 8.78394 13.2597 8.73513C13.216 8.68691 13.166 8.64941 13.1095 8.62322C13.0525 8.59703 12.9934 8.58394 12.9316 8.58394C12.8704 8.58394 12.8113 8.59703 12.7543 8.62322C12.6978 8.64941 12.6472 8.68691 12.6041 8.73572C12.5604 8.78394 12.5269 8.83989 12.5034 8.90299C12.48 8.96608 12.4683 9.03215 12.4678 9.10061ZM13.2336 9.10061C13.2336 9.14525 13.2261 9.18811 13.2107 9.22977C13.1953 9.27084 13.1734 9.30715 13.1452 9.3387C13.117 9.37025 13.0845 9.39465 13.0472 9.41132C13.0105 9.42858 12.9716 9.43691 12.9316 9.43691C12.8917 9.43691 12.8533 9.42858 12.8161 9.41132C12.7793 9.39465 12.7468 9.37025 12.7186 9.3387C12.6898 9.30715 12.668 9.27084 12.6531 9.22977C12.6376 9.18811 12.6302 9.14525 12.6302 9.10061C12.6302 9.05596 12.6376 9.01311 12.6531 8.97203C12.668 8.93096 12.6898 8.89465 12.7186 8.86311C12.7468 8.83156 12.7793 8.80715 12.8161 8.78989C12.8533 8.77322 12.8917 8.7643 12.9316 8.7643C12.9716 8.7643 13.0105 8.77322 13.0472 8.78989C13.0839 8.80715 13.117 8.83156 13.1452 8.86311C13.1734 8.89465 13.1953 8.93096 13.2107 8.97203C13.2256 9.01311 13.2336 9.05596 13.2336 9.10061Z" fill="#C1C5D6"/>
</g>
<path id="Vector_32" d="M18 13H17V16H14V17H17V20H18V17H21V16H18V13Z" fill="#C1C5D6"/>
</g>
</svg>
