<svg width="18" height="10" viewBox="0 0 18 10" fill="none" xmlns="http://www.w3.org/2000/svg">
    <g id="33 discount ticket">
        <path id="Vector"
            d="M17.0002 3.6599H17.6429C17.7265 3.6599 17.8066 3.62538 17.8657 3.56393C17.9248 3.50248 17.958 3.41914 17.958 3.33224V0.661861C17.9574 0.486511 17.8901 0.318515 17.7709 0.194523C17.6517 0.0705305 17.4902 0.000604513 17.3216 0H0.636405C0.467799 0.000604513 0.306264 0.0705305 0.187041 0.194523C0.0678179 0.318515 0.000581695 0.486511 4.32134e-07 0.661861V3.33224C4.32134e-07 3.41914 0.0331933 3.50248 0.092277 3.56393C0.151361 3.62538 0.231495 3.6599 0.315052 3.6599H0.957758C1.29951 3.6599 1.62726 3.80108 1.86891 4.0524C2.11056 4.30372 2.24632 4.64458 2.24632 5C2.24632 5.35542 2.11056 5.69628 1.86891 5.9476C1.62726 6.19892 1.29951 6.34011 0.957758 6.34011H0.315052C0.231495 6.34011 0.151361 6.37463 0.092277 6.43607C0.0331933 6.49752 4.32134e-07 6.58086 4.32134e-07 6.66776V9.33814C0.000581695 9.51349 0.0678179 9.68149 0.187041 9.80548C0.306264 9.92947 0.467799 9.9994 0.636405 10H17.3216C17.4902 9.9994 17.6517 9.92947 17.7709 9.80548C17.8901 9.68149 17.9574 9.51349 17.958 9.33814V6.66776C17.958 6.58086 17.9248 6.49752 17.8657 6.43607C17.8066 6.37463 17.7265 6.34011 17.6429 6.34011H17.0002C16.6585 6.34011 16.3307 6.19892 16.0891 5.9476C15.8474 5.69628 15.7116 5.35542 15.7116 5C15.7116 4.64458 15.8474 4.30372 16.0891 4.0524C16.3307 3.80108 16.6585 3.6599 17.0002 3.6599ZM17.0002 6.99541V9H1V6.99493L0.957758 6.99541C1.46662 6.99541 1.95464 6.78518 2.31446 6.41097C2.67428 6.03676 2.87642 5.52922 2.87642 5C2.87642 4.47078 2.67428 3.96324 2.31446 3.58903C1.95464 3.21482 1.46662 3.00459 0.957758 3.00459L1 3V1H17L17.0002 3.00459C16.4913 3.00459 16.0033 3.21482 15.6435 3.58903C15.2837 3.96324 15.0815 4.47078 15.0815 5C15.0815 5.52922 15.2837 6.03676 15.6435 6.41097C16.0033 6.78518 16.4913 6.99541 17.0002 6.99541Z"
            fill="#010F20" />
        <path id="Vector_2"
            d="M8.97911 1.33643C8.89556 1.33643 8.81542 1.37095 8.75634 1.43239C8.69726 1.49384 8.66406 1.57718 8.66406 1.66408V2.33184C8.66406 2.41874 8.69726 2.50208 8.75634 2.56353C8.81542 2.62497 8.89556 2.65949 8.97911 2.65949C9.06267 2.65949 9.14281 2.62497 9.20189 2.56353C9.26097 2.50208 9.29417 2.41874 9.29417 2.33184V1.66408C9.29417 1.57718 9.26097 1.49384 9.20189 1.43239C9.14281 1.37095 9.06267 1.33643 8.97911 1.33643Z"
            fill="#010F20" />
        <path id="Vector_3"
            d="M8.97911 7.3418C8.89556 7.3418 8.81542 7.37632 8.75634 7.43777C8.69726 7.49921 8.66406 7.58255 8.66406 7.66945V8.33721C8.66406 8.42411 8.69726 8.50745 8.75634 8.5689C8.81542 8.63034 8.89556 8.66486 8.97911 8.66486C9.06267 8.66486 9.14281 8.63034 9.20189 8.5689C9.26097 8.50745 9.29417 8.42411 9.29417 8.33721V7.66945C9.29417 7.58255 9.26097 7.49921 9.20189 7.43777C9.14281 7.37632 9.06267 7.3418 8.97911 7.3418Z"
            fill="#010F20" />
        <path id="Vector_4"
            d="M8.97911 5.33984C8.89556 5.33984 8.81542 5.37437 8.75634 5.43581C8.69726 5.49726 8.66406 5.5806 8.66406 5.6675V6.33493C8.66406 6.42183 8.69726 6.50517 8.75634 6.56662C8.81542 6.62806 8.89556 6.66258 8.97911 6.66258C9.06267 6.66258 9.14281 6.62806 9.20189 6.56662C9.26097 6.50517 9.29417 6.42183 9.29417 6.33493V5.6675C9.29417 5.5806 9.26097 5.49726 9.20189 5.43581C9.14281 5.37437 9.06267 5.33984 8.97911 5.33984Z"
            fill="#010F20" />
        <path id="Vector_5"
            d="M8.97911 3.33813C8.89556 3.33813 8.81542 3.37266 8.75634 3.4341C8.69726 3.49555 8.66406 3.57889 8.66406 3.66579V4.33322C8.66406 4.42012 8.69726 4.50346 8.75634 4.56491C8.81542 4.62635 8.89556 4.66087 8.97911 4.66087C9.06267 4.66087 9.14281 4.62635 9.20189 4.56491C9.26097 4.50346 9.29417 4.42012 9.29417 4.33322V3.66579C9.29417 3.57889 9.26097 3.49555 9.20189 3.4341C9.14281 3.37266 9.06267 3.33813 8.97911 3.33813Z"
            fill="#010F20" />
        <path id="Vector_6"
            d="M4.16466 3.32792H5.44944C5.533 3.32792 5.61313 3.2934 5.67222 3.23195C5.7313 3.1705 5.76449 3.08716 5.76449 3.00026C5.76449 2.91336 5.7313 2.83002 5.67222 2.76857C5.61313 2.70713 5.533 2.67261 5.44944 2.67261H4.16466C4.0811 2.67261 4.00097 2.70713 3.94189 2.76857C3.8828 2.83002 3.84961 2.91336 3.84961 3.00026C3.84961 3.08716 3.8828 3.1705 3.94189 3.23195C4.00097 3.2934 4.0811 3.32792 4.16466 3.32792Z"
            fill="#010F20" />
        <path id="Vector_7"
            d="M4.16466 5.32962H6.08994C6.1735 5.32962 6.25364 5.2951 6.31272 5.23366C6.3718 5.17221 6.405 5.08887 6.405 5.00197C6.405 4.91507 6.3718 4.83173 6.31272 4.77028C6.25364 4.70884 6.1735 4.67432 6.08994 4.67432H4.16466C4.0811 4.67432 4.00097 4.70884 3.94189 4.77028C3.8828 4.83173 3.84961 4.91507 3.84961 5.00197C3.84961 5.08887 3.8828 5.17221 3.94189 5.23366C4.00097 5.2951 4.0811 5.32962 4.16466 5.32962Z"
            fill="#010F20" />
        <path id="Vector_8"
            d="M6.73202 6.67603H4.16466C4.0811 6.67603 4.00097 6.71055 3.94189 6.77199C3.8828 6.83344 3.84961 6.91678 3.84961 7.00368C3.84961 7.09058 3.8828 7.17392 3.94189 7.23537C4.00097 7.29681 4.0811 7.33133 4.16466 7.33133H6.73202C6.81558 7.33133 6.89571 7.29681 6.95479 7.23537C7.01388 7.17392 7.04707 7.09058 7.04707 7.00368C7.04707 6.91678 7.01388 6.83344 6.95479 6.77199C6.89571 6.71055 6.81558 6.67603 6.73202 6.67603Z"
            fill="#010F20" />
        <path id="Vector_9"
            d="M11.2232 2.67261C11.0342 2.67293 10.8495 2.73149 10.6925 2.84088C10.5355 2.95028 10.4132 3.1056 10.341 3.28724C10.2689 3.46888 10.2501 3.66869 10.287 3.86144C10.3239 4.05419 10.415 4.23123 10.5486 4.3702C10.6822 4.50918 10.8525 4.60386 11.0378 4.64228C11.2231 4.6807 11.4153 4.66115 11.5899 4.58608C11.7646 4.51102 11.9139 4.38382 12.0191 4.22053C12.1243 4.05725 12.1806 3.86522 12.1809 3.66868C12.1805 3.40464 12.0795 3.15153 11.8999 2.96483C11.7204 2.77812 11.477 2.67304 11.2232 2.67261ZM11.2232 4.00616C11.1587 4.00583 11.0957 3.98563 11.0423 3.9481C10.9888 3.91056 10.9473 3.85739 10.9229 3.7953C10.8985 3.73321 10.8924 3.66499 10.9052 3.59928C10.9181 3.53356 10.9495 3.47329 10.9953 3.42609C11.0411 3.37889 11.0994 3.34689 11.1627 3.33412C11.226 3.32135 11.2915 3.3284 11.351 3.35436C11.4104 3.38033 11.4612 3.42405 11.4967 3.48C11.5323 3.53594 11.5511 3.60161 11.5508 3.66868C11.5502 3.75856 11.5154 3.84455 11.454 3.9078C11.3926 3.97105 11.3096 4.00642 11.2232 4.00616Z"
            fill="#010F20" />
        <path id="Vector_10"
            d="M13.7956 5.33985C13.6064 5.33952 13.4213 5.39761 13.2638 5.50675C13.1063 5.6159 12.9835 5.77119 12.911 5.95297C12.8384 6.13474 12.8193 6.33482 12.8562 6.52788C12.893 6.72093 12.9841 6.89827 13.118 7.03744C13.2518 7.17661 13.4223 7.27136 13.6079 7.30968C13.7935 7.34799 13.9859 7.32816 14.1607 7.25269C14.3355 7.17722 14.4848 7.04951 14.5898 6.88573C14.6947 6.72194 14.7506 6.52946 14.7503 6.33264C14.7497 6.06952 14.6489 5.81735 14.47 5.6313C14.2911 5.44524 14.0486 5.34045 13.7956 5.33985ZM13.7956 6.6734C13.7092 6.6734 13.6262 6.63767 13.5651 6.57407C13.5039 6.51047 13.4696 6.42422 13.4696 6.33428C13.4696 6.24433 13.5039 6.15808 13.5651 6.09448C13.6262 6.03088 13.7092 5.99515 13.7956 5.99515C13.8821 5.99515 13.9651 6.03088 14.0262 6.09448C14.0874 6.15808 14.1217 6.24433 14.1217 6.33428C14.1217 6.42422 14.0874 6.51047 14.0262 6.57407C13.9651 6.63767 13.8821 6.6734 13.7956 6.6734Z"
            fill="#010F20" />
        <path id="Vector_11"
            d="M14.3307 3.10106C14.2716 3.03963 14.1915 3.00513 14.1079 3.00513C14.0244 3.00513 13.9443 3.03963 13.8852 3.10106L10.6761 6.43854C10.6468 6.46905 10.6236 6.50525 10.6078 6.54508C10.592 6.5849 10.5839 6.62758 10.584 6.67066C10.5841 6.75767 10.6175 6.84106 10.6767 6.9025C10.7359 6.96394 10.8162 6.99839 10.8999 6.99826C10.9835 6.99814 11.0637 6.96346 11.1228 6.90185L14.3307 3.56436C14.3897 3.50292 14.4229 3.41959 14.4229 3.33271C14.4229 3.24583 14.3897 3.1625 14.3307 3.10106Z"
            fill="#010F20" />
    </g>
</svg>