<svg width="11" height="11" viewBox="0 0 11 11" fill="none" xmlns="http://www.w3.org/2000/svg">
<path d="M10.8534 0.854534L6.20692 5.5L10.8534 10.1455C10.9473 10.2393 11 10.3667 11 10.4994C11 10.6322 10.9473 10.7595 10.8534 10.8534C10.7595 10.9473 10.6322 11 10.4994 11C10.3667 11 10.2393 10.9473 10.1455 10.8534L5.5 6.20692L0.854534 10.8534C0.760658 10.9473 0.633335 11 0.500574 11C0.367814 11 0.240491 10.9473 0.146615 10.8534C0.052739 10.7595 2.61703e-09 10.6322 0 10.4994C-2.61703e-09 10.3667 0.052739 10.2393 0.146615 10.1455L4.79308 5.5L0.146615 0.854534C0.052739 0.760658 -2.61703e-09 0.633335 0 0.500574C2.61703e-09 0.367814 0.052739 0.240491 0.146615 0.146615C0.240491 0.052739 0.367814 2.61703e-09 0.500574 0C0.633335 -2.61703e-09 0.760658 0.052739 0.854534 0.146615L5.5 4.79308L10.1455 0.146615C10.2393 0.052739 10.3667 -2.61703e-09 10.4994 0C10.6322 2.61703e-09 10.7595 0.052739 10.8534 0.146615C10.9473 0.240491 11 0.367814 11 0.500574C11 0.633335 10.9473 0.760658 10.8534 0.854534Z" fill="black"/>
</svg>
