<svg width="20" height="23" viewBox="0 0 20 23" fill="none" xmlns="http://www.w3.org/2000/svg">
<path d="M4.66546 0H4.10299C4.03122 0 3.96316 0.0150809 3.89722 0.0365096C3.56775 0.14336 3.32422 0.4951 3.32422 0.917033V1.30422V2.29526V2.81087C3.32422 2.90668 3.34018 2.9972 3.36333 3.08387C3.46248 3.45616 3.75423 3.72791 4.10299 3.72791H4.66546C5.09565 3.72791 5.44423 3.31738 5.44423 2.81087V2.29526V1.30422V0.917033C5.44423 0.410522 5.09565 0 4.66546 0Z" fill="#5B43D6"/>
<path d="M15.7328 0H15.1704C14.7402 0 14.3916 0.410522 14.3916 0.917033V1.30422V2.29526V2.81087C14.3916 3.31738 14.7402 3.72791 15.1704 3.72791H15.7328C16.163 3.72791 16.5116 3.31738 16.5116 2.81087V2.29526V1.30422V0.917033C16.5114 0.410522 16.1628 0 15.7328 0Z" fill="#5B43D6"/>
<path d="M18.6004 2.29688H17.2077V2.81249C17.2077 3.70512 16.5435 4.43127 15.7272 4.43127H15.1647C14.3484 4.43127 13.6842 3.70512 13.6842 2.81249V2.29688H6.13684V2.81249C6.13684 3.70512 5.47263 4.43127 4.65631 4.43127H4.09385C3.2775 4.43127 2.61332 3.70512 2.61332 2.81249V2.29688H1.39984C0.626865 2.29688 0 2.88459 0 3.60917V21.0867C0 21.8127 0.626828 22.399 1.39984 22.399H18.6002C19.3739 22.399 20 21.8125 20 21.0867V3.60935C20.0002 2.88477 19.3741 2.29688 18.6004 2.29688ZM18.1663 20.4727L1.78281 20.4664V6.37582H18.1663V20.4727Z" fill="#5B43D6"/>
<path d="M3.55273 18V16.623H5.35156V11.1445L3.71094 12.0352L3.50586 10.5117L5.35156 9.44531H6.96289V16.623H8.76758V18H3.55273ZM15.8867 18H10.1445V16.7109C10.4102 16.5195 10.6875 16.3066 10.9766 16.0723C11.2656 15.8379 11.5508 15.5898 11.832 15.3281C12.1133 15.0664 12.3809 14.7969 12.6348 14.5195C12.8926 14.2383 13.1172 13.957 13.3086 13.6758C13.5039 13.3945 13.6582 13.1172 13.7715 12.8438C13.8848 12.5664 13.9414 12.3027 13.9414 12.0527C13.9414 11.8809 13.9141 11.7168 13.8594 11.5605C13.8086 11.4043 13.7285 11.2676 13.6191 11.1504C13.5137 11.0332 13.3789 10.9395 13.2148 10.8691C13.0508 10.7988 12.8574 10.7637 12.6348 10.7637C12.4551 10.7637 12.2656 10.791 12.0664 10.8457C11.8711 10.8965 11.6777 10.9707 11.4863 11.0684C11.2988 11.166 11.1191 11.2812 10.9473 11.4141C10.7754 11.5469 10.625 11.6914 10.4961 11.8477L10.1152 10.4414C10.248 10.2773 10.4141 10.127 10.6133 9.99023C10.8164 9.84961 11.0371 9.72852 11.2754 9.62695C11.5137 9.52148 11.7617 9.44141 12.0195 9.38672C12.2812 9.32812 12.5352 9.29883 12.7812 9.29883C13.207 9.29883 13.5938 9.35742 13.9414 9.47461C14.293 9.58789 14.5938 9.75195 14.8438 9.9668C15.0938 10.1777 15.2871 10.4355 15.4238 10.7402C15.5605 11.041 15.6289 11.3809 15.6289 11.7598C15.6289 12.0801 15.5762 12.3965 15.4707 12.709C15.3691 13.0215 15.2305 13.3281 15.0547 13.6289C14.8789 13.9258 14.6777 14.2129 14.4512 14.4902C14.2246 14.7676 13.9883 15.0312 13.7422 15.2812C13.4961 15.5312 13.25 15.7656 13.0039 15.9844C12.7578 16.1992 12.5273 16.3926 12.3125 16.5645H13.8652C14.1543 16.5645 14.4004 16.5645 14.6035 16.5645C14.8066 16.5605 14.9824 16.5566 15.1309 16.5527C15.2832 16.5449 15.418 16.5352 15.5352 16.5234C15.6523 16.5117 15.7695 16.4961 15.8867 16.4766V18Z" fill="#5B43D6"/>
</svg>
