<svg width="20" height="23" viewBox="0 0 20 23" fill="none" xmlns="http://www.w3.org/2000/svg">
<path d="M4.66546 0H4.10299C4.03122 0 3.96316 0.0150809 3.89722 0.0365096C3.56775 0.14336 3.32422 0.4951 3.32422 0.917033V1.30422V2.29526V2.81087C3.32422 2.90668 3.34018 2.9972 3.36333 3.08387C3.46248 3.45616 3.75423 3.72791 4.10299 3.72791H4.66546C5.09565 3.72791 5.44423 3.31738 5.44423 2.81087V2.29526V1.30422V0.917033C5.44423 0.410522 5.09565 0 4.66546 0Z" fill="#5B43D6"/>
<path d="M15.7328 0H15.1704C14.7402 0 14.3916 0.410522 14.3916 0.917033V1.30422V2.29526V2.81087C14.3916 3.31738 14.7402 3.72791 15.1704 3.72791H15.7328C16.163 3.72791 16.5116 3.31738 16.5116 2.81087V2.29526V1.30422V0.917033C16.5114 0.410522 16.1628 0 15.7328 0Z" fill="#5B43D6"/>
<path d="M18.6004 2.29688H17.2077V2.81249C17.2077 3.70512 16.5435 4.43127 15.7272 4.43127H15.1647C14.3484 4.43127 13.6842 3.70512 13.6842 2.81249V2.29688H6.13684V2.81249C6.13684 3.70512 5.47263 4.43127 4.65631 4.43127H4.09385C3.2775 4.43127 2.61332 3.70512 2.61332 2.81249V2.29688H1.39984C0.626865 2.29688 0 2.88459 0 3.60917V21.0867C0 21.8127 0.626828 22.399 1.39984 22.399H18.6002C19.3739 22.399 20 21.8125 20 21.0867V3.60935C20.0002 2.88477 19.3741 2.29688 18.6004 2.29688ZM18.1663 20.4727L1.78281 20.4664V6.37582H18.1663V20.4727Z" fill="#5B43D6"/>
<path d="M10.1191 13.6641C10.1191 14.5117 10.041 15.2227 9.88477 15.7969C9.72852 16.3672 9.50977 16.8281 9.22852 17.1797C8.94727 17.5273 8.60938 17.7754 8.21484 17.9238C7.82422 18.0723 7.39453 18.1465 6.92578 18.1465C6.45703 18.1465 6.0332 18.0723 5.6543 17.9238C5.27539 17.7715 4.95117 17.5254 4.68164 17.1855C4.41602 16.8418 4.21094 16.3926 4.06641 15.8379C3.92188 15.2793 3.84961 14.5938 3.84961 13.7812C3.84961 12.957 3.92773 12.2598 4.08398 11.6895C4.24414 11.1191 4.46484 10.6582 4.74609 10.3066C5.02734 9.95117 5.36328 9.69531 5.75391 9.53906C6.14453 9.37891 6.57422 9.29883 7.04297 9.29883C7.53906 9.29883 7.97852 9.37695 8.36133 9.5332C8.74414 9.68555 9.06641 9.93555 9.32812 10.2832C9.58984 10.627 9.78711 11.0762 9.91992 11.6309C10.0527 12.1855 10.1191 12.8633 10.1191 13.6641ZM8.44922 13.8105C8.44922 12.7246 8.33008 11.9258 8.0918 11.4141C7.85742 10.9023 7.48828 10.6465 6.98438 10.6465C6.50781 10.6465 6.14453 10.8906 5.89453 11.3789C5.64453 11.8633 5.51953 12.6152 5.51953 13.6348C5.51953 14.7207 5.64062 15.5195 5.88281 16.0312C6.125 16.543 6.49219 16.7988 6.98438 16.7988C7.45703 16.7988 7.81836 16.5547 8.06836 16.0664C8.32227 15.5781 8.44922 14.8262 8.44922 13.8105ZM13.3125 12.8145C13.5781 12.8145 13.8223 12.7793 14.0449 12.709C14.2676 12.6348 14.459 12.5371 14.6191 12.416C14.7832 12.2949 14.9102 12.1602 15 12.0117C15.0898 11.8594 15.1348 11.7031 15.1348 11.543C15.1348 11.4102 15.0996 11.291 15.0293 11.1855C14.9629 11.0762 14.873 10.9844 14.7598 10.9102C14.6504 10.8359 14.5254 10.7793 14.3848 10.7402C14.2441 10.6973 14.1016 10.6758 13.957 10.6758C13.5039 10.6758 13.0879 10.7422 12.709 10.875C12.3301 11.0078 11.9746 11.2441 11.6426 11.584L11.4375 10.2363C11.5547 10.1035 11.7031 9.98047 11.8828 9.86719C12.0625 9.75 12.2598 9.65039 12.4746 9.56836C12.6934 9.48242 12.9238 9.41602 13.166 9.36914C13.4082 9.32227 13.6523 9.29883 13.8984 9.29883C14.3203 9.29883 14.707 9.3457 15.0586 9.43945C15.4102 9.5332 15.7129 9.66797 15.9668 9.84375C16.2207 10.0156 16.418 10.2266 16.5586 10.4766C16.6992 10.7266 16.7695 11.0078 16.7695 11.3203C16.7695 11.5898 16.7109 11.8438 16.5938 12.082C16.4766 12.3164 16.3262 12.5273 16.1426 12.7148C15.9629 12.8984 15.7617 13.0527 15.5391 13.1777C15.3164 13.3027 15.1016 13.3867 14.8945 13.4297C15.0312 13.4531 15.1797 13.4883 15.3398 13.5352C15.5039 13.5781 15.666 13.6387 15.8262 13.7168C15.9863 13.791 16.1406 13.8848 16.2891 13.998C16.4375 14.1074 16.5684 14.2402 16.6816 14.3965C16.7988 14.5488 16.8906 14.7266 16.957 14.9297C17.0273 15.1328 17.0625 15.3652 17.0625 15.627C17.0625 15.9707 16.9766 16.2969 16.8047 16.6055C16.6367 16.9102 16.4023 17.1777 16.1016 17.4082C15.8008 17.6348 15.4434 17.8145 15.0293 17.9473C14.6191 18.0801 14.1738 18.1465 13.6934 18.1465C13.1738 18.1465 12.6855 18.0684 12.2285 17.9121C11.7754 17.752 11.3945 17.5273 11.0859 17.2383L11.291 15.627C11.4512 15.8066 11.627 15.9688 11.8184 16.1133C12.0137 16.2539 12.2188 16.373 12.4336 16.4707C12.6523 16.5684 12.877 16.6426 13.1074 16.6934C13.3418 16.7441 13.5762 16.7695 13.8105 16.7695C14.0215 16.7695 14.2207 16.7422 14.4082 16.6875C14.5996 16.6289 14.7676 16.5449 14.9121 16.4355C15.0605 16.3262 15.1777 16.1934 15.2637 16.0371C15.3496 15.8809 15.3926 15.7051 15.3926 15.5098C15.3926 15.3301 15.3457 15.1621 15.252 15.0059C15.1621 14.8496 15.0273 14.7129 14.8477 14.5957C14.6719 14.4785 14.4551 14.3867 14.1973 14.3203C13.9395 14.2539 13.6445 14.2207 13.3125 14.2207H12.7852V12.8145H13.3125Z" fill="#5B43D6"/>
</svg>
