<svg width="20" height="23" viewBox="0 0 20 23" fill="none" xmlns="http://www.w3.org/2000/svg">
<path d="M4.66546 0H4.10299C4.03122 0 3.96316 0.0150809 3.89722 0.0365096C3.56775 0.14336 3.32422 0.4951 3.32422 0.917033V1.30422V2.29526V2.81087C3.32422 2.90668 3.34018 2.9972 3.36333 3.08387C3.46248 3.45616 3.75423 3.72791 4.10299 3.72791H4.66546C5.09565 3.72791 5.44423 3.31738 5.44423 2.81087V2.29526V1.30422V0.917033C5.44423 0.410522 5.09565 0 4.66546 0Z" fill="#5B43D6"/>
<path d="M15.7328 0H15.1704C14.7402 0 14.3916 0.410522 14.3916 0.917033V1.30422V2.29526V2.81087C14.3916 3.31738 14.7402 3.72791 15.1704 3.72791H15.7328C16.163 3.72791 16.5116 3.31738 16.5116 2.81087V2.29526V1.30422V0.917033C16.5114 0.410522 16.1628 0 15.7328 0Z" fill="#5B43D6"/>
<path d="M18.6004 2.29688H17.2077V2.81249C17.2077 3.70512 16.5435 4.43127 15.7272 4.43127H15.1647C14.3484 4.43127 13.6842 3.70512 13.6842 2.81249V2.29688H6.13684V2.81249C6.13684 3.70512 5.47263 4.43127 4.65631 4.43127H4.09385C3.2775 4.43127 2.61332 3.70512 2.61332 2.81249V2.29688H1.39984C0.626865 2.29688 0 2.88459 0 3.60917V21.0867C0 21.8127 0.626828 22.399 1.39984 22.399H18.6002C19.3739 22.399 20 21.8125 20 21.0867V3.60935C20.0002 2.88477 19.3741 2.29688 18.6004 2.29688ZM18.1663 20.4727L1.78281 20.4664V6.37582H18.1663V20.4727Z" fill="#5B43D6"/>
<path d="M9.35547 18H3.61328V16.7109C3.87891 16.5195 4.15625 16.3066 4.44531 16.0723C4.73438 15.8379 5.01953 15.5898 5.30078 15.3281C5.58203 15.0664 5.84961 14.7969 6.10352 14.5195C6.36133 14.2383 6.58594 13.957 6.77734 13.6758C6.97266 13.3945 7.12695 13.1172 7.24023 12.8438C7.35352 12.5664 7.41016 12.3027 7.41016 12.0527C7.41016 11.8809 7.38281 11.7168 7.32812 11.5605C7.27734 11.4043 7.19727 11.2676 7.08789 11.1504C6.98242 11.0332 6.84766 10.9395 6.68359 10.8691C6.51953 10.7988 6.32617 10.7637 6.10352 10.7637C5.92383 10.7637 5.73438 10.791 5.53516 10.8457C5.33984 10.8965 5.14648 10.9707 4.95508 11.0684C4.76758 11.166 4.58789 11.2812 4.41602 11.4141C4.24414 11.5469 4.09375 11.6914 3.96484 11.8477L3.58398 10.4414C3.7168 10.2773 3.88281 10.127 4.08203 9.99023C4.28516 9.84961 4.50586 9.72852 4.74414 9.62695C4.98242 9.52148 5.23047 9.44141 5.48828 9.38672C5.75 9.32812 6.00391 9.29883 6.25 9.29883C6.67578 9.29883 7.0625 9.35742 7.41016 9.47461C7.76172 9.58789 8.0625 9.75195 8.3125 9.9668C8.5625 10.1777 8.75586 10.4355 8.89258 10.7402C9.0293 11.041 9.09766 11.3809 9.09766 11.7598C9.09766 12.0801 9.04492 12.3965 8.93945 12.709C8.83789 13.0215 8.69922 13.3281 8.52344 13.6289C8.34766 13.9258 8.14648 14.2129 7.91992 14.4902C7.69336 14.7676 7.45703 15.0312 7.21094 15.2812C6.96484 15.5312 6.71875 15.7656 6.47266 15.9844C6.22656 16.1992 5.99609 16.3926 5.78125 16.5645H7.33398C7.62305 16.5645 7.86914 16.5645 8.07227 16.5645C8.27539 16.5605 8.45117 16.5566 8.59961 16.5527C8.75195 16.5449 8.88672 16.5352 9.00391 16.5234C9.12109 16.5117 9.23828 16.4961 9.35547 16.4766V18ZM13.3633 13.3711C13.6953 13.3711 14.0078 13.3105 14.3008 13.1895C14.5938 13.0645 14.8516 12.9004 15.0742 12.6973C15.0156 12.0254 14.8457 11.5215 14.5645 11.1855C14.2832 10.8457 13.8809 10.6758 13.3574 10.6758C13.1387 10.6758 12.9395 10.709 12.7598 10.7754C12.584 10.8418 12.4336 10.9316 12.3086 11.0449C12.1836 11.1582 12.0859 11.291 12.0156 11.4434C11.9453 11.5957 11.9102 11.7578 11.9102 11.9297C11.9102 12.1445 11.9453 12.3398 12.0156 12.5156C12.0859 12.6914 12.1836 12.8438 12.3086 12.9727C12.4375 13.0977 12.5898 13.1953 12.7656 13.2656C12.9453 13.3359 13.1445 13.3711 13.3633 13.3711ZM11.2188 16.125C11.3438 16.25 11.4766 16.3555 11.6172 16.4414C11.7617 16.5234 11.9082 16.5898 12.0566 16.6406C12.2051 16.6875 12.3535 16.7207 12.502 16.7402C12.6543 16.7598 12.8008 16.7695 12.9414 16.7695C13.2031 16.7695 13.4551 16.7285 13.6973 16.6465C13.9395 16.5605 14.1562 16.4102 14.3477 16.1953C14.5391 15.9805 14.6992 15.6875 14.8281 15.3164C14.957 14.9453 15.0391 14.4727 15.0742 13.8984C14.8086 14.1211 14.5195 14.2988 14.207 14.4316C13.8945 14.5605 13.5664 14.625 13.2227 14.625C12.8164 14.625 12.4414 14.5605 12.0977 14.4316C11.7539 14.3027 11.457 14.127 11.207 13.9043C10.957 13.6777 10.7617 13.4141 10.6211 13.1133C10.4805 12.8086 10.4102 12.4805 10.4102 12.1289C10.4102 11.6914 10.4922 11.2988 10.6562 10.9512C10.8203 10.5996 11.041 10.3027 11.3184 10.0605C11.5957 9.81445 11.918 9.62695 12.2852 9.49805C12.6523 9.36523 13.041 9.29883 13.4512 9.29883C13.8301 9.29883 14.1719 9.35156 14.4766 9.45703C14.7812 9.55859 15.0527 9.70312 15.291 9.89062C15.5293 10.0742 15.7324 10.2949 15.9004 10.5527C16.0723 10.8066 16.2129 11.0879 16.3223 11.3965C16.4355 11.7012 16.5176 12.0273 16.5684 12.375C16.623 12.7188 16.6504 13.0703 16.6504 13.4297C16.6504 13.7891 16.6211 14.1562 16.5625 14.5312C16.5078 14.9023 16.418 15.2637 16.293 15.6152C16.168 15.9629 16.0059 16.291 15.8066 16.5996C15.6113 16.9082 15.373 17.1777 15.0918 17.4082C14.8145 17.6348 14.4922 17.8145 14.125 17.9473C13.7617 18.0801 13.3477 18.1465 12.8828 18.1465C12.5039 18.1465 12.1484 18.1016 11.8164 18.0117C11.4844 17.9258 11.1797 17.7949 10.9023 17.6191L11.2188 16.125Z" fill="#5B43D6"/>
</svg>
