<svg width="20" height="23" viewBox="0 0 20 23" fill="none" xmlns="http://www.w3.org/2000/svg">
<path d="M4.66546 0H4.10299C4.03122 0 3.96316 0.0150809 3.89722 0.0365096C3.56775 0.14336 3.32422 0.4951 3.32422 0.917033V1.30422V2.29526V2.81087C3.32422 2.90668 3.34018 2.9972 3.36333 3.08387C3.46248 3.45616 3.75423 3.72791 4.10299 3.72791H4.66546C5.09565 3.72791 5.44423 3.31738 5.44423 2.81087V2.29526V1.30422V0.917033C5.44423 0.410522 5.09565 0 4.66546 0Z" fill="#5B43D6"/>
<path d="M15.7328 0H15.1704C14.7402 0 14.3916 0.410522 14.3916 0.917033V1.30422V2.29526V2.81087C14.3916 3.31738 14.7402 3.72791 15.1704 3.72791H15.7328C16.163 3.72791 16.5116 3.31738 16.5116 2.81087V2.29526V1.30422V0.917033C16.5114 0.410522 16.1628 0 15.7328 0Z" fill="#5B43D6"/>
<path d="M18.6004 2.29688H17.2077V2.81249C17.2077 3.70512 16.5435 4.43127 15.7272 4.43127H15.1647C14.3484 4.43127 13.6842 3.70512 13.6842 2.81249V2.29688H6.13684V2.81249C6.13684 3.70512 5.47263 4.43127 4.65631 4.43127H4.09385C3.2775 4.43127 2.61332 3.70512 2.61332 2.81249V2.29688H1.39984C0.626865 2.29688 0 2.88459 0 3.60917V21.0867C0 21.8127 0.626828 22.399 1.39984 22.399H18.6002C19.3739 22.399 20 21.8125 20 21.0867V3.60935C20.0002 2.88477 19.3741 2.29688 18.6004 2.29688ZM18.1663 20.4727L1.78281 20.4664V6.37582H18.1663V20.4727Z" fill="#5B43D6"/>
<path d="M9.85547 18H4.11328V16.7109C4.37891 16.5195 4.65625 16.3066 4.94531 16.0723C5.23438 15.8379 5.51953 15.5898 5.80078 15.3281C6.08203 15.0664 6.34961 14.7969 6.60352 14.5195C6.86133 14.2383 7.08594 13.957 7.27734 13.6758C7.47266 13.3945 7.62695 13.1172 7.74023 12.8438C7.85352 12.5664 7.91016 12.3027 7.91016 12.0527C7.91016 11.8809 7.88281 11.7168 7.82812 11.5605C7.77734 11.4043 7.69727 11.2676 7.58789 11.1504C7.48242 11.0332 7.34766 10.9395 7.18359 10.8691C7.01953 10.7988 6.82617 10.7637 6.60352 10.7637C6.42383 10.7637 6.23438 10.791 6.03516 10.8457C5.83984 10.8965 5.64648 10.9707 5.45508 11.0684C5.26758 11.166 5.08789 11.2812 4.91602 11.4141C4.74414 11.5469 4.59375 11.6914 4.46484 11.8477L4.08398 10.4414C4.2168 10.2773 4.38281 10.127 4.58203 9.99023C4.78516 9.84961 5.00586 9.72852 5.24414 9.62695C5.48242 9.52148 5.73047 9.44141 5.98828 9.38672C6.25 9.32812 6.50391 9.29883 6.75 9.29883C7.17578 9.29883 7.5625 9.35742 7.91016 9.47461C8.26172 9.58789 8.5625 9.75195 8.8125 9.9668C9.0625 10.1777 9.25586 10.4355 9.39258 10.7402C9.5293 11.041 9.59766 11.3809 9.59766 11.7598C9.59766 12.0801 9.54492 12.3965 9.43945 12.709C9.33789 13.0215 9.19922 13.3281 9.02344 13.6289C8.84766 13.9258 8.64648 14.2129 8.41992 14.4902C8.19336 14.7676 7.95703 15.0312 7.71094 15.2812C7.46484 15.5312 7.21875 15.7656 6.97266 15.9844C6.72656 16.1992 6.49609 16.3926 6.28125 16.5645H7.83398C8.12305 16.5645 8.36914 16.5645 8.57227 16.5645C8.77539 16.5605 8.95117 16.5566 9.09961 16.5527C9.25195 16.5449 9.38672 16.5352 9.50391 16.5234C9.62109 16.5117 9.73828 16.4961 9.85547 16.4766V18ZM11.584 18V16.623H13.3828V11.1445L11.7422 12.0352L11.5371 10.5117L13.3828 9.44531H14.9941V16.623H16.7988V18H11.584Z" fill="#5B43D6"/>
</svg>
