<svg width="20" height="23" viewBox="0 0 20 23" fill="none" xmlns="http://www.w3.org/2000/svg">
<path d="M4.66546 0H4.10299C4.03122 0 3.96316 0.0150809 3.89722 0.0365096C3.56775 0.14336 3.32422 0.4951 3.32422 0.917033V1.30422V2.29526V2.81087C3.32422 2.90668 3.34018 2.9972 3.36333 3.08387C3.46248 3.45616 3.75423 3.72791 4.10299 3.72791H4.66546C5.09565 3.72791 5.44423 3.31738 5.44423 2.81087V2.29526V1.30422V0.917033C5.44423 0.410522 5.09565 0 4.66546 0Z" fill="#5B43D6"/>
<path d="M15.7328 0H15.1704C14.7402 0 14.3916 0.410522 14.3916 0.917033V1.30422V2.29526V2.81087C14.3916 3.31738 14.7402 3.72791 15.1704 3.72791H15.7328C16.163 3.72791 16.5116 3.31738 16.5116 2.81087V2.29526V1.30422V0.917033C16.5114 0.410522 16.1628 0 15.7328 0Z" fill="#5B43D6"/>
<path d="M18.6004 2.29688H17.2077V2.81249C17.2077 3.70512 16.5435 4.43127 15.7272 4.43127H15.1647C14.3484 4.43127 13.6842 3.70512 13.6842 2.81249V2.29688H6.13684V2.81249C6.13684 3.70512 5.47263 4.43127 4.65631 4.43127H4.09385C3.2775 4.43127 2.61332 3.70512 2.61332 2.81249V2.29688H1.39984C0.626865 2.29688 0 2.88459 0 3.60917V21.0867C0 21.8127 0.626828 22.399 1.39984 22.399H18.6002C19.3739 22.399 20 21.8125 20 21.0867V3.60935C20.0002 2.88477 19.3741 2.29688 18.6004 2.29688ZM18.1663 20.4727L1.78281 20.4664V6.37582H18.1663V20.4727Z" fill="#5B43D6"/>
<path d="M10.1191 13.6641C10.1191 14.5117 10.041 15.2227 9.88477 15.7969C9.72852 16.3672 9.50977 16.8281 9.22852 17.1797C8.94727 17.5273 8.60938 17.7754 8.21484 17.9238C7.82422 18.0723 7.39453 18.1465 6.92578 18.1465C6.45703 18.1465 6.0332 18.0723 5.6543 17.9238C5.27539 17.7715 4.95117 17.5254 4.68164 17.1855C4.41602 16.8418 4.21094 16.3926 4.06641 15.8379C3.92188 15.2793 3.84961 14.5938 3.84961 13.7812C3.84961 12.957 3.92773 12.2598 4.08398 11.6895C4.24414 11.1191 4.46484 10.6582 4.74609 10.3066C5.02734 9.95117 5.36328 9.69531 5.75391 9.53906C6.14453 9.37891 6.57422 9.29883 7.04297 9.29883C7.53906 9.29883 7.97852 9.37695 8.36133 9.5332C8.74414 9.68555 9.06641 9.93555 9.32812 10.2832C9.58984 10.627 9.78711 11.0762 9.91992 11.6309C10.0527 12.1855 10.1191 12.8633 10.1191 13.6641ZM8.44922 13.8105C8.44922 12.7246 8.33008 11.9258 8.0918 11.4141C7.85742 10.9023 7.48828 10.6465 6.98438 10.6465C6.50781 10.6465 6.14453 10.8906 5.89453 11.3789C5.64453 11.8633 5.51953 12.6152 5.51953 13.6348C5.51953 14.7207 5.64062 15.5195 5.88281 16.0312C6.125 16.543 6.49219 16.7988 6.98438 16.7988C7.45703 16.7988 7.81836 16.5547 8.06836 16.0664C8.32227 15.5781 8.44922 14.8262 8.44922 13.8105ZM15.5684 15.4512C15.5684 15.2363 15.5273 15.041 15.4453 14.8652C15.3672 14.6895 15.2578 14.5391 15.1172 14.4141C14.9766 14.2852 14.8105 14.1875 14.6191 14.1211C14.4316 14.0508 14.2305 14.0156 14.0156 14.0156C13.7969 14.0156 13.5918 14.0508 13.4004 14.1211C13.2129 14.1875 13.0488 14.2852 12.9082 14.4141C12.7715 14.5391 12.6621 14.6895 12.5801 14.8652C12.502 15.041 12.4629 15.2363 12.4629 15.4512C12.4629 15.6504 12.5 15.8379 12.5742 16.0137C12.6484 16.1895 12.752 16.3457 12.8848 16.4824C13.0215 16.6152 13.1855 16.7207 13.377 16.7988C13.5684 16.877 13.7812 16.916 14.0156 16.916C14.2617 16.916 14.4805 16.877 14.6719 16.7988C14.8672 16.7207 15.0293 16.6152 15.1582 16.4824C15.291 16.3457 15.3926 16.1895 15.4629 16.0137C15.5332 15.8379 15.5684 15.6504 15.5684 15.4512ZM15.2461 11.5547C15.2461 11.3984 15.2207 11.252 15.1699 11.1152C15.123 10.9785 15.0488 10.8613 14.9473 10.7637C14.8457 10.6621 14.7168 10.584 14.5605 10.5293C14.4082 10.4707 14.2266 10.4414 14.0156 10.4414C13.8359 10.4414 13.6699 10.4668 13.5176 10.5176C13.3691 10.5684 13.2402 10.6426 13.1309 10.7402C13.0215 10.8379 12.9355 10.9551 12.873 11.0918C12.8145 11.2285 12.7852 11.3828 12.7852 11.5547C12.7852 11.9258 12.8926 12.2188 13.1074 12.4336C13.3223 12.6484 13.625 12.7559 14.0156 12.7559C14.4062 12.7559 14.709 12.6484 14.9238 12.4336C15.1387 12.2188 15.2461 11.9258 15.2461 11.5547ZM14.0156 18.1465C13.6094 18.1465 13.2188 18.0898 12.8438 17.9766C12.4727 17.8633 12.1426 17.6992 11.8535 17.4844C11.5684 17.2656 11.3398 17.002 11.168 16.6934C10.9961 16.3809 10.9102 16.0254 10.9102 15.627C10.9102 15.2949 10.9531 15.0098 11.0391 14.7715C11.1289 14.5293 11.2441 14.3203 11.3848 14.1445C11.5293 13.9648 11.6934 13.8125 11.877 13.6875C12.0605 13.5586 12.2461 13.4434 12.4336 13.3418C12.3203 13.2793 12.1973 13.1992 12.0645 13.1016C11.9355 13.0039 11.8145 12.8828 11.7012 12.7383C11.5918 12.5938 11.5 12.4219 11.4258 12.2227C11.3555 12.0234 11.3203 11.791 11.3203 11.5254C11.3203 11.166 11.3945 10.8477 11.543 10.5703C11.6953 10.293 11.8965 10.0605 12.1465 9.87305C12.4004 9.68555 12.6934 9.54297 13.0254 9.44531C13.3613 9.34766 13.7109 9.29883 14.0742 9.29883C14.4414 9.29883 14.7852 9.34766 15.1055 9.44531C15.4258 9.54297 15.7051 9.68555 15.9434 9.87305C16.1816 10.0605 16.3691 10.293 16.5059 10.5703C16.6426 10.8477 16.7109 11.166 16.7109 11.5254C16.7109 11.791 16.6758 12.0234 16.6055 12.2227C16.5352 12.418 16.4453 12.5879 16.3359 12.7324C16.2305 12.877 16.1133 12.998 15.9844 13.0957C15.8594 13.1934 15.7402 13.2754 15.627 13.3418C15.7871 13.4238 15.9551 13.5234 16.1309 13.6406C16.3066 13.7578 16.4668 13.9043 16.6113 14.0801C16.7598 14.2559 16.8809 14.4648 16.9746 14.707C17.0723 14.9492 17.1211 15.2363 17.1211 15.5684C17.1211 15.9668 17.0352 16.3262 16.8633 16.6465C16.6914 16.9629 16.4609 17.2324 16.1719 17.4551C15.8867 17.6777 15.5566 17.8496 15.1816 17.9707C14.8105 18.0879 14.4219 18.1465 14.0156 18.1465Z" fill="#5B43D6"/>
</svg>
