<svg width="20" height="23" viewBox="0 0 20 23" fill="none" xmlns="http://www.w3.org/2000/svg">
<path d="M4.66546 0H4.10299C4.03122 0 3.96316 0.0150809 3.89722 0.0365096C3.56775 0.14336 3.32422 0.4951 3.32422 0.917033V1.30422V2.29526V2.81087C3.32422 2.90668 3.34018 2.9972 3.36333 3.08387C3.46248 3.45616 3.75423 3.72791 4.10299 3.72791H4.66546C5.09565 3.72791 5.44423 3.31738 5.44423 2.81087V2.29526V1.30422V0.917033C5.44423 0.410522 5.09565 0 4.66546 0Z" fill="#5B43D6"/>
<path d="M15.7328 0H15.1704C14.7402 0 14.3916 0.410522 14.3916 0.917033V1.30422V2.29526V2.81087C14.3916 3.31738 14.7402 3.72791 15.1704 3.72791H15.7328C16.163 3.72791 16.5116 3.31738 16.5116 2.81087V2.29526V1.30422V0.917033C16.5114 0.410522 16.1628 0 15.7328 0Z" fill="#5B43D6"/>
<path d="M18.6004 2.29688H17.2077V2.81249C17.2077 3.70512 16.5435 4.43127 15.7272 4.43127H15.1647C14.3484 4.43127 13.6842 3.70512 13.6842 2.81249V2.29688H6.13684V2.81249C6.13684 3.70512 5.47263 4.43127 4.65631 4.43127H4.09385C3.2775 4.43127 2.61332 3.70512 2.61332 2.81249V2.29688H1.39984C0.626865 2.29688 0 2.88459 0 3.60917V21.0867C0 21.8127 0.626828 22.399 1.39984 22.399H18.6002C19.3739 22.399 20 21.8125 20 21.0867V3.60935C20.0002 2.88477 19.3741 2.29688 18.6004 2.29688ZM18.1663 20.4727L1.78281 20.4664V6.37582H18.1663V20.4727Z" fill="#5B43D6"/>
<path d="M10.1191 13.6641C10.1191 14.5117 10.041 15.2227 9.88477 15.7969C9.72852 16.3672 9.50977 16.8281 9.22852 17.1797C8.94727 17.5273 8.60938 17.7754 8.21484 17.9238C7.82422 18.0723 7.39453 18.1465 6.92578 18.1465C6.45703 18.1465 6.0332 18.0723 5.6543 17.9238C5.27539 17.7715 4.95117 17.5254 4.68164 17.1855C4.41602 16.8418 4.21094 16.3926 4.06641 15.8379C3.92188 15.2793 3.84961 14.5938 3.84961 13.7812C3.84961 12.957 3.92773 12.2598 4.08398 11.6895C4.24414 11.1191 4.46484 10.6582 4.74609 10.3066C5.02734 9.95117 5.36328 9.69531 5.75391 9.53906C6.14453 9.37891 6.57422 9.29883 7.04297 9.29883C7.53906 9.29883 7.97852 9.37695 8.36133 9.5332C8.74414 9.68555 9.06641 9.93555 9.32812 10.2832C9.58984 10.627 9.78711 11.0762 9.91992 11.6309C10.0527 12.1855 10.1191 12.8633 10.1191 13.6641ZM8.44922 13.8105C8.44922 12.7246 8.33008 11.9258 8.0918 11.4141C7.85742 10.9023 7.48828 10.6465 6.98438 10.6465C6.50781 10.6465 6.14453 10.8906 5.89453 11.3789C5.64453 11.8633 5.51953 12.6152 5.51953 13.6348C5.51953 14.7207 5.64062 15.5195 5.88281 16.0312C6.125 16.543 6.49219 16.7988 6.98438 16.7988C7.45703 16.7988 7.81836 16.5547 8.06836 16.0664C8.32227 15.5781 8.44922 14.8262 8.44922 13.8105ZM13.8633 13.3711C14.1953 13.3711 14.5078 13.3105 14.8008 13.1895C15.0938 13.0645 15.3516 12.9004 15.5742 12.6973C15.5156 12.0254 15.3457 11.5215 15.0645 11.1855C14.7832 10.8457 14.3809 10.6758 13.8574 10.6758C13.6387 10.6758 13.4395 10.709 13.2598 10.7754C13.084 10.8418 12.9336 10.9316 12.8086 11.0449C12.6836 11.1582 12.5859 11.291 12.5156 11.4434C12.4453 11.5957 12.4102 11.7578 12.4102 11.9297C12.4102 12.1445 12.4453 12.3398 12.5156 12.5156C12.5859 12.6914 12.6836 12.8438 12.8086 12.9727C12.9375 13.0977 13.0898 13.1953 13.2656 13.2656C13.4453 13.3359 13.6445 13.3711 13.8633 13.3711ZM11.7188 16.125C11.8438 16.25 11.9766 16.3555 12.1172 16.4414C12.2617 16.5234 12.4082 16.5898 12.5566 16.6406C12.7051 16.6875 12.8535 16.7207 13.002 16.7402C13.1543 16.7598 13.3008 16.7695 13.4414 16.7695C13.7031 16.7695 13.9551 16.7285 14.1973 16.6465C14.4395 16.5605 14.6562 16.4102 14.8477 16.1953C15.0391 15.9805 15.1992 15.6875 15.3281 15.3164C15.457 14.9453 15.5391 14.4727 15.5742 13.8984C15.3086 14.1211 15.0195 14.2988 14.707 14.4316C14.3945 14.5605 14.0664 14.625 13.7227 14.625C13.3164 14.625 12.9414 14.5605 12.5977 14.4316C12.2539 14.3027 11.957 14.127 11.707 13.9043C11.457 13.6777 11.2617 13.4141 11.1211 13.1133C10.9805 12.8086 10.9102 12.4805 10.9102 12.1289C10.9102 11.6914 10.9922 11.2988 11.1562 10.9512C11.3203 10.5996 11.541 10.3027 11.8184 10.0605C12.0957 9.81445 12.418 9.62695 12.7852 9.49805C13.1523 9.36523 13.541 9.29883 13.9512 9.29883C14.3301 9.29883 14.6719 9.35156 14.9766 9.45703C15.2812 9.55859 15.5527 9.70312 15.791 9.89062C16.0293 10.0742 16.2324 10.2949 16.4004 10.5527C16.5723 10.8066 16.7129 11.0879 16.8223 11.3965C16.9355 11.7012 17.0176 12.0273 17.0684 12.375C17.123 12.7188 17.1504 13.0703 17.1504 13.4297C17.1504 13.7891 17.1211 14.1562 17.0625 14.5312C17.0078 14.9023 16.918 15.2637 16.793 15.6152C16.668 15.9629 16.5059 16.291 16.3066 16.5996C16.1113 16.9082 15.873 17.1777 15.5918 17.4082C15.3145 17.6348 14.9922 17.8145 14.625 17.9473C14.2617 18.0801 13.8477 18.1465 13.3828 18.1465C13.0039 18.1465 12.6484 18.1016 12.3164 18.0117C11.9844 17.9258 11.6797 17.7949 11.4023 17.6191L11.7188 16.125Z" fill="#5B43D6"/>
</svg>
