<svg width="20" height="23" viewBox="0 0 20 23" fill="none" xmlns="http://www.w3.org/2000/svg">
<path d="M4.66546 0H4.10299C4.03122 0 3.96316 0.0150809 3.89722 0.0365096C3.56775 0.14336 3.32422 0.4951 3.32422 0.917033V1.30422V2.29526V2.81087C3.32422 2.90668 3.34018 2.9972 3.36333 3.08387C3.46248 3.45616 3.75423 3.72791 4.10299 3.72791H4.66546C5.09565 3.72791 5.44423 3.31738 5.44423 2.81087V2.29526V1.30422V0.917033C5.44423 0.410522 5.09565 0 4.66546 0Z" fill="#5B43D6"/>
<path d="M15.7328 0H15.1704C14.7402 0 14.3916 0.410522 14.3916 0.917033V1.30422V2.29526V2.81087C14.3916 3.31738 14.7402 3.72791 15.1704 3.72791H15.7328C16.163 3.72791 16.5116 3.31738 16.5116 2.81087V2.29526V1.30422V0.917033C16.5114 0.410522 16.1628 0 15.7328 0Z" fill="#5B43D6"/>
<path d="M18.6004 2.29688H17.2077V2.81249C17.2077 3.70512 16.5435 4.43127 15.7272 4.43127H15.1647C14.3484 4.43127 13.6842 3.70512 13.6842 2.81249V2.29688H6.13684V2.81249C6.13684 3.70512 5.47263 4.43127 4.65631 4.43127H4.09385C3.2775 4.43127 2.61332 3.70512 2.61332 2.81249V2.29688H1.39984C0.626865 2.29688 0 2.88459 0 3.60917V21.0867C0 21.8127 0.626828 22.399 1.39984 22.399H18.6002C19.3739 22.399 20 21.8125 20 21.0867V3.60935C20.0002 2.88477 19.3741 2.29688 18.6004 2.29688ZM18.1663 20.4727L1.78281 20.4664V6.37582H18.1663V20.4727Z" fill="#5B43D6"/>
<path d="M10.1191 13.6641C10.1191 14.5117 10.041 15.2227 9.88477 15.7969C9.72852 16.3672 9.50977 16.8281 9.22852 17.1797C8.94727 17.5273 8.60938 17.7754 8.21484 17.9238C7.82422 18.0723 7.39453 18.1465 6.92578 18.1465C6.45703 18.1465 6.0332 18.0723 5.6543 17.9238C5.27539 17.7715 4.95117 17.5254 4.68164 17.1855C4.41602 16.8418 4.21094 16.3926 4.06641 15.8379C3.92188 15.2793 3.84961 14.5938 3.84961 13.7812C3.84961 12.957 3.92773 12.2598 4.08398 11.6895C4.24414 11.1191 4.46484 10.6582 4.74609 10.3066C5.02734 9.95117 5.36328 9.69531 5.75391 9.53906C6.14453 9.37891 6.57422 9.29883 7.04297 9.29883C7.53906 9.29883 7.97852 9.37695 8.36133 9.5332C8.74414 9.68555 9.06641 9.93555 9.32812 10.2832C9.58984 10.627 9.78711 11.0762 9.91992 11.6309C10.0527 12.1855 10.1191 12.8633 10.1191 13.6641ZM8.44922 13.8105C8.44922 12.7246 8.33008 11.9258 8.0918 11.4141C7.85742 10.9023 7.48828 10.6465 6.98438 10.6465C6.50781 10.6465 6.14453 10.8906 5.89453 11.3789C5.64453 11.8633 5.51953 12.6152 5.51953 13.6348C5.51953 14.7207 5.64062 15.5195 5.88281 16.0312C6.125 16.543 6.49219 16.7988 6.98438 16.7988C7.45703 16.7988 7.81836 16.5547 8.06836 16.0664C8.32227 15.5781 8.44922 14.8262 8.44922 13.8105ZM16.8867 18H11.1445V16.7109C11.4102 16.5195 11.6875 16.3066 11.9766 16.0723C12.2656 15.8379 12.5508 15.5898 12.832 15.3281C13.1133 15.0664 13.3809 14.7969 13.6348 14.5195C13.8926 14.2383 14.1172 13.957 14.3086 13.6758C14.5039 13.3945 14.6582 13.1172 14.7715 12.8438C14.8848 12.5664 14.9414 12.3027 14.9414 12.0527C14.9414 11.8809 14.9141 11.7168 14.8594 11.5605C14.8086 11.4043 14.7285 11.2676 14.6191 11.1504C14.5137 11.0332 14.3789 10.9395 14.2148 10.8691C14.0508 10.7988 13.8574 10.7637 13.6348 10.7637C13.4551 10.7637 13.2656 10.791 13.0664 10.8457C12.8711 10.8965 12.6777 10.9707 12.4863 11.0684C12.2988 11.166 12.1191 11.2812 11.9473 11.4141C11.7754 11.5469 11.625 11.6914 11.4961 11.8477L11.1152 10.4414C11.248 10.2773 11.4141 10.127 11.6133 9.99023C11.8164 9.84961 12.0371 9.72852 12.2754 9.62695C12.5137 9.52148 12.7617 9.44141 13.0195 9.38672C13.2812 9.32812 13.5352 9.29883 13.7812 9.29883C14.207 9.29883 14.5938 9.35742 14.9414 9.47461C15.293 9.58789 15.5938 9.75195 15.8438 9.9668C16.0938 10.1777 16.2871 10.4355 16.4238 10.7402C16.5605 11.041 16.6289 11.3809 16.6289 11.7598C16.6289 12.0801 16.5762 12.3965 16.4707 12.709C16.3691 13.0215 16.2305 13.3281 16.0547 13.6289C15.8789 13.9258 15.6777 14.2129 15.4512 14.4902C15.2246 14.7676 14.9883 15.0312 14.7422 15.2812C14.4961 15.5312 14.25 15.7656 14.0039 15.9844C13.7578 16.1992 13.5273 16.3926 13.3125 16.5645H14.8652C15.1543 16.5645 15.4004 16.5645 15.6035 16.5645C15.8066 16.5605 15.9824 16.5566 16.1309 16.5527C16.2832 16.5449 16.418 16.5352 16.5352 16.5234C16.6523 16.5117 16.7695 16.4961 16.8867 16.4766V18Z" fill="#5B43D6"/>
</svg>
