<svg width="20" height="23" viewBox="0 0 20 23" fill="none" xmlns="http://www.w3.org/2000/svg">
<path d="M4.66546 0H4.10299C4.03122 0 3.96316 0.0150809 3.89722 0.0365096C3.56775 0.14336 3.32422 0.4951 3.32422 0.917033V1.30422V2.29526V2.81087C3.32422 2.90668 3.34018 2.9972 3.36333 3.08387C3.46248 3.45616 3.75423 3.72791 4.10299 3.72791H4.66546C5.09565 3.72791 5.44423 3.31738 5.44423 2.81087V2.29526V1.30422V0.917033C5.44423 0.410522 5.09565 0 4.66546 0Z" fill="#5B43D6"/>
<path d="M15.7328 0H15.1704C14.7402 0 14.3916 0.410522 14.3916 0.917033V1.30422V2.29526V2.81087C14.3916 3.31738 14.7402 3.72791 15.1704 3.72791H15.7328C16.163 3.72791 16.5116 3.31738 16.5116 2.81087V2.29526V1.30422V0.917033C16.5114 0.410522 16.1628 0 15.7328 0Z" fill="#5B43D6"/>
<path d="M18.6004 2.29688H17.2077V2.81249C17.2077 3.70512 16.5435 4.43127 15.7272 4.43127H15.1647C14.3484 4.43127 13.6842 3.70512 13.6842 2.81249V2.29688H6.13684V2.81249C6.13684 3.70512 5.47263 4.43127 4.65631 4.43127H4.09385C3.2775 4.43127 2.61332 3.70512 2.61332 2.81249V2.29688H1.39984C0.626865 2.29688 0 2.88459 0 3.60917V21.0867C0 21.8127 0.626828 22.399 1.39984 22.399H18.6002C19.3739 22.399 20 21.8125 20 21.0867V3.60935C20.0002 2.88477 19.3741 2.29688 18.6004 2.29688ZM18.1663 20.4727L1.78281 20.4664V6.37582H18.1663V20.4727Z" fill="#5B43D6"/>
<path d="M9.35547 18H3.61328V16.7109C3.87891 16.5195 4.15625 16.3066 4.44531 16.0723C4.73438 15.8379 5.01953 15.5898 5.30078 15.3281C5.58203 15.0664 5.84961 14.7969 6.10352 14.5195C6.36133 14.2383 6.58594 13.957 6.77734 13.6758C6.97266 13.3945 7.12695 13.1172 7.24023 12.8438C7.35352 12.5664 7.41016 12.3027 7.41016 12.0527C7.41016 11.8809 7.38281 11.7168 7.32812 11.5605C7.27734 11.4043 7.19727 11.2676 7.08789 11.1504C6.98242 11.0332 6.84766 10.9395 6.68359 10.8691C6.51953 10.7988 6.32617 10.7637 6.10352 10.7637C5.92383 10.7637 5.73438 10.791 5.53516 10.8457C5.33984 10.8965 5.14648 10.9707 4.95508 11.0684C4.76758 11.166 4.58789 11.2812 4.41602 11.4141C4.24414 11.5469 4.09375 11.6914 3.96484 11.8477L3.58398 10.4414C3.7168 10.2773 3.88281 10.127 4.08203 9.99023C4.28516 9.84961 4.50586 9.72852 4.74414 9.62695C4.98242 9.52148 5.23047 9.44141 5.48828 9.38672C5.75 9.32812 6.00391 9.29883 6.25 9.29883C6.67578 9.29883 7.0625 9.35742 7.41016 9.47461C7.76172 9.58789 8.0625 9.75195 8.3125 9.9668C8.5625 10.1777 8.75586 10.4355 8.89258 10.7402C9.0293 11.041 9.09766 11.3809 9.09766 11.7598C9.09766 12.0801 9.04492 12.3965 8.93945 12.709C8.83789 13.0215 8.69922 13.3281 8.52344 13.6289C8.34766 13.9258 8.14648 14.2129 7.91992 14.4902C7.69336 14.7676 7.45703 15.0312 7.21094 15.2812C6.96484 15.5312 6.71875 15.7656 6.47266 15.9844C6.22656 16.1992 5.99609 16.3926 5.78125 16.5645H7.33398C7.62305 16.5645 7.86914 16.5645 8.07227 16.5645C8.27539 16.5605 8.45117 16.5566 8.59961 16.5527C8.75195 16.5449 8.88672 16.5352 9.00391 16.5234C9.12109 16.5117 9.23828 16.4961 9.35547 16.4766V18ZM12.8125 12.8145C13.0781 12.8145 13.3223 12.7793 13.5449 12.709C13.7676 12.6348 13.959 12.5371 14.1191 12.416C14.2832 12.2949 14.4102 12.1602 14.5 12.0117C14.5898 11.8594 14.6348 11.7031 14.6348 11.543C14.6348 11.4102 14.5996 11.291 14.5293 11.1855C14.4629 11.0762 14.373 10.9844 14.2598 10.9102C14.1504 10.8359 14.0254 10.7793 13.8848 10.7402C13.7441 10.6973 13.6016 10.6758 13.457 10.6758C13.0039 10.6758 12.5879 10.7422 12.209 10.875C11.8301 11.0078 11.4746 11.2441 11.1426 11.584L10.9375 10.2363C11.0547 10.1035 11.2031 9.98047 11.3828 9.86719C11.5625 9.75 11.7598 9.65039 11.9746 9.56836C12.1934 9.48242 12.4238 9.41602 12.666 9.36914C12.9082 9.32227 13.1523 9.29883 13.3984 9.29883C13.8203 9.29883 14.207 9.3457 14.5586 9.43945C14.9102 9.5332 15.2129 9.66797 15.4668 9.84375C15.7207 10.0156 15.918 10.2266 16.0586 10.4766C16.1992 10.7266 16.2695 11.0078 16.2695 11.3203C16.2695 11.5898 16.2109 11.8438 16.0938 12.082C15.9766 12.3164 15.8262 12.5273 15.6426 12.7148C15.4629 12.8984 15.2617 13.0527 15.0391 13.1777C14.8164 13.3027 14.6016 13.3867 14.3945 13.4297C14.5312 13.4531 14.6797 13.4883 14.8398 13.5352C15.0039 13.5781 15.166 13.6387 15.3262 13.7168C15.4863 13.791 15.6406 13.8848 15.7891 13.998C15.9375 14.1074 16.0684 14.2402 16.1816 14.3965C16.2988 14.5488 16.3906 14.7266 16.457 14.9297C16.5273 15.1328 16.5625 15.3652 16.5625 15.627C16.5625 15.9707 16.4766 16.2969 16.3047 16.6055C16.1367 16.9102 15.9023 17.1777 15.6016 17.4082C15.3008 17.6348 14.9434 17.8145 14.5293 17.9473C14.1191 18.0801 13.6738 18.1465 13.1934 18.1465C12.6738 18.1465 12.1855 18.0684 11.7285 17.9121C11.2754 17.752 10.8945 17.5273 10.5859 17.2383L10.791 15.627C10.9512 15.8066 11.127 15.9688 11.3184 16.1133C11.5137 16.2539 11.7188 16.373 11.9336 16.4707C12.1523 16.5684 12.377 16.6426 12.6074 16.6934C12.8418 16.7441 13.0762 16.7695 13.3105 16.7695C13.5215 16.7695 13.7207 16.7422 13.9082 16.6875C14.0996 16.6289 14.2676 16.5449 14.4121 16.4355C14.5605 16.3262 14.6777 16.1934 14.7637 16.0371C14.8496 15.8809 14.8926 15.7051 14.8926 15.5098C14.8926 15.3301 14.8457 15.1621 14.752 15.0059C14.6621 14.8496 14.5273 14.7129 14.3477 14.5957C14.1719 14.4785 13.9551 14.3867 13.6973 14.3203C13.4395 14.2539 13.1445 14.2207 12.8125 14.2207H12.2852V12.8145H12.8125Z" fill="#5B43D6"/>
</svg>
