<svg width="20" height="23" viewBox="0 0 20 23" fill="none" xmlns="http://www.w3.org/2000/svg">
<path d="M4.66546 0H4.10299C4.03122 0 3.96316 0.0150809 3.89722 0.0365096C3.56775 0.14336 3.32422 0.4951 3.32422 0.917033V1.30422V2.29526V2.81087C3.32422 2.90668 3.34018 2.9972 3.36333 3.08387C3.46248 3.45616 3.75423 3.72791 4.10299 3.72791H4.66546C5.09565 3.72791 5.44423 3.31738 5.44423 2.81087V2.29526V1.30422V0.917033C5.44423 0.410522 5.09565 0 4.66546 0Z" fill="#5B43D6"/>
<path d="M15.7328 0H15.1704C14.7402 0 14.3916 0.410522 14.3916 0.917033V1.30422V2.29526V2.81087C14.3916 3.31738 14.7402 3.72791 15.1704 3.72791H15.7328C16.163 3.72791 16.5116 3.31738 16.5116 2.81087V2.29526V1.30422V0.917033C16.5114 0.410522 16.1628 0 15.7328 0Z" fill="#5B43D6"/>
<path d="M18.6004 2.29688H17.2077V2.81249C17.2077 3.70512 16.5435 4.43127 15.7272 4.43127H15.1647C14.3484 4.43127 13.6842 3.70512 13.6842 2.81249V2.29688H6.13684V2.81249C6.13684 3.70512 5.47263 4.43127 4.65631 4.43127H4.09385C3.2775 4.43127 2.61332 3.70512 2.61332 2.81249V2.29688H1.39984C0.626865 2.29688 0 2.88459 0 3.60917V21.0867C0 21.8127 0.626828 22.399 1.39984 22.399H18.6002C19.3739 22.399 20 21.8125 20 21.0867V3.60935C20.0002 2.88477 19.3741 2.29688 18.6004 2.29688ZM18.1663 20.4727L1.78281 20.4664V6.37582H18.1663V20.4727Z" fill="#5B43D6"/>
<path d="M10.1191 13.6641C10.1191 14.5117 10.041 15.2227 9.88477 15.7969C9.72852 16.3672 9.50977 16.8281 9.22852 17.1797C8.94727 17.5273 8.60938 17.7754 8.21484 17.9238C7.82422 18.0723 7.39453 18.1465 6.92578 18.1465C6.45703 18.1465 6.0332 18.0723 5.6543 17.9238C5.27539 17.7715 4.95117 17.5254 4.68164 17.1855C4.41602 16.8418 4.21094 16.3926 4.06641 15.8379C3.92188 15.2793 3.84961 14.5938 3.84961 13.7812C3.84961 12.957 3.92773 12.2598 4.08398 11.6895C4.24414 11.1191 4.46484 10.6582 4.74609 10.3066C5.02734 9.95117 5.36328 9.69531 5.75391 9.53906C6.14453 9.37891 6.57422 9.29883 7.04297 9.29883C7.53906 9.29883 7.97852 9.37695 8.36133 9.5332C8.74414 9.68555 9.06641 9.93555 9.32812 10.2832C9.58984 10.627 9.78711 11.0762 9.91992 11.6309C10.0527 12.1855 10.1191 12.8633 10.1191 13.6641ZM8.44922 13.8105C8.44922 12.7246 8.33008 11.9258 8.0918 11.4141C7.85742 10.9023 7.48828 10.6465 6.98438 10.6465C6.50781 10.6465 6.14453 10.8906 5.89453 11.3789C5.64453 11.8633 5.51953 12.6152 5.51953 13.6348C5.51953 14.7207 5.64062 15.5195 5.88281 16.0312C6.125 16.543 6.49219 16.7988 6.98438 16.7988C7.45703 16.7988 7.81836 16.5547 8.06836 16.0664C8.32227 15.5781 8.44922 14.8262 8.44922 13.8105ZM14.3379 13.8398C13.9902 13.8398 13.668 13.8945 13.3711 14.0039C13.0781 14.1133 12.8164 14.2617 12.5859 14.4492C12.6016 14.7969 12.6543 15.1133 12.7441 15.3984C12.834 15.6836 12.9551 15.9277 13.1074 16.1309C13.2598 16.334 13.4395 16.4922 13.6465 16.6055C13.8574 16.7148 14.0898 16.7695 14.3438 16.7695C14.5586 16.7695 14.7539 16.7305 14.9297 16.6523C15.1055 16.5703 15.2559 16.4629 15.3809 16.3301C15.5059 16.1973 15.6016 16.0449 15.668 15.873C15.7383 15.6973 15.7734 15.5176 15.7734 15.334C15.7734 15.1191 15.7422 14.9219 15.6797 14.7422C15.6172 14.5586 15.5254 14.4004 15.4043 14.2676C15.2832 14.1348 15.1328 14.0312 14.9531 13.957C14.7773 13.8789 14.5723 13.8398 14.3379 13.8398ZM16.4121 11.3203C16.2871 11.1953 16.1562 11.0918 16.0195 11.0098C15.8828 10.9238 15.7441 10.8574 15.6035 10.8105C15.4629 10.7598 15.3203 10.7246 15.1758 10.7051C15.0312 10.6855 14.8887 10.6758 14.748 10.6758C14.4941 10.6758 14.25 10.7148 14.0156 10.793C13.7812 10.8711 13.5684 11.0078 13.377 11.2031C13.1895 11.3984 13.0293 11.666 12.8965 12.0059C12.7637 12.3418 12.6719 12.7676 12.6211 13.2832C12.8789 13.0684 13.1582 12.8984 13.459 12.7734C13.7637 12.6445 14.0957 12.5801 14.4551 12.5801C14.877 12.5801 15.2598 12.6484 15.6035 12.7852C15.9512 12.918 16.248 13.1035 16.4941 13.3418C16.7402 13.5801 16.9297 13.8633 17.0625 14.1914C17.1992 14.5156 17.2676 14.8672 17.2676 15.2461C17.2676 15.6719 17.1973 16.0625 17.0566 16.418C16.916 16.7734 16.7168 17.0801 16.459 17.3379C16.2012 17.5918 15.8906 17.791 15.5273 17.9355C15.168 18.0762 14.7656 18.1465 14.3203 18.1465C13.8008 18.1465 13.3359 18.0566 12.9258 17.877C12.5195 17.6973 12.1758 17.4336 11.8945 17.0859C11.6133 16.7383 11.3984 16.3066 11.25 15.791C11.1016 15.2754 11.0273 14.6836 11.0273 14.0156C11.0273 13.6367 11.0566 13.2578 11.1152 12.8789C11.1738 12.4961 11.2656 12.1309 11.3906 11.7832C11.5156 11.4316 11.6758 11.1055 11.8711 10.8047C12.0703 10.5 12.3086 10.2363 12.5859 10.0137C12.8672 9.79102 13.1914 9.61719 13.5586 9.49219C13.9258 9.36328 14.3418 9.29883 14.8066 9.29883C15.0098 9.29883 15.1973 9.30664 15.3691 9.32227C15.5449 9.33789 15.7109 9.36719 15.8672 9.41016C16.0273 9.44922 16.1816 9.50391 16.3301 9.57422C16.4824 9.64062 16.6348 9.72461 16.7871 9.82617L16.4121 11.3203Z" fill="#5B43D6"/>
</svg>
