<svg width="20" height="23" viewBox="0 0 20 23" fill="none" xmlns="http://www.w3.org/2000/svg">
<path d="M4.66546 0H4.10299C4.03122 0 3.96316 0.0150809 3.89722 0.0365096C3.56775 0.14336 3.32422 0.4951 3.32422 0.917033V1.30422V2.29526V2.81087C3.32422 2.90668 3.34018 2.9972 3.36333 3.08387C3.46248 3.45616 3.75423 3.72791 4.10299 3.72791H4.66546C5.09565 3.72791 5.44423 3.31738 5.44423 2.81087V2.29526V1.30422V0.917033C5.44423 0.410522 5.09565 0 4.66546 0Z" fill="#5B43D6"/>
<path d="M15.7328 0H15.1704C14.7402 0 14.3916 0.410522 14.3916 0.917033V1.30422V2.29526V2.81087C14.3916 3.31738 14.7402 3.72791 15.1704 3.72791H15.7328C16.163 3.72791 16.5116 3.31738 16.5116 2.81087V2.29526V1.30422V0.917033C16.5114 0.410522 16.1628 0 15.7328 0Z" fill="#5B43D6"/>
<path d="M18.6004 2.29688H17.2077V2.81249C17.2077 3.70512 16.5435 4.43127 15.7272 4.43127H15.1647C14.3484 4.43127 13.6842 3.70512 13.6842 2.81249V2.29688H6.13684V2.81249C6.13684 3.70512 5.47263 4.43127 4.65631 4.43127H4.09385C3.2775 4.43127 2.61332 3.70512 2.61332 2.81249V2.29688H1.39984C0.626865 2.29688 0 2.88459 0 3.60917V21.0867C0 21.8127 0.626828 22.399 1.39984 22.399H18.6002C19.3739 22.399 20 21.8125 20 21.0867V3.60935C20.0002 2.88477 19.3741 2.29688 18.6004 2.29688ZM18.1663 20.4727L1.78281 20.4664V6.37582H18.1663V20.4727Z" fill="#5B43D6"/>
<path d="M3.55273 18V16.623H5.35156V11.1445L3.71094 12.0352L3.50586 10.5117L5.35156 9.44531H6.96289V16.623H8.76758V18H3.55273ZM10.5254 9.44531H15.5352V10.998C15.4258 10.9746 15.3066 10.9551 15.1777 10.9395C15.0488 10.9238 14.916 10.9121 14.7793 10.9043C14.6426 10.8965 14.5059 10.8906 14.3691 10.8867C14.2324 10.8828 14.1035 10.8809 13.9824 10.8809H12.0488V12.7559C12.0957 12.7324 12.1562 12.709 12.2305 12.6855C12.3086 12.6621 12.3926 12.6406 12.4824 12.6211C12.5723 12.5977 12.666 12.5801 12.7637 12.5684C12.8613 12.5566 12.9551 12.5508 13.0449 12.5508C13.4512 12.5508 13.8262 12.6133 14.1699 12.7383C14.5176 12.8633 14.8184 13.043 15.0723 13.2773C15.3262 13.5078 15.5254 13.7871 15.6699 14.1152C15.8145 14.4434 15.8867 14.8105 15.8867 15.2168C15.8867 15.6738 15.7988 16.084 15.623 16.4473C15.4473 16.8105 15.207 17.1191 14.9023 17.373C14.6016 17.623 14.248 17.8145 13.8418 17.9473C13.4355 18.0801 13.0039 18.1465 12.5469 18.1465C12.0898 18.1465 11.6562 18.1016 11.2461 18.0117C10.8398 17.9219 10.4531 17.7617 10.0859 17.5312L10.3203 15.8906C10.5156 16.0508 10.7051 16.1855 10.8887 16.2949C11.0762 16.4004 11.2617 16.4863 11.4453 16.5527C11.6328 16.6191 11.8203 16.668 12.0078 16.6992C12.1992 16.7266 12.3984 16.7402 12.6055 16.7402C12.8398 16.7402 13.0566 16.7051 13.2559 16.6348C13.4551 16.5605 13.627 16.459 13.7715 16.3301C13.9199 16.1973 14.0352 16.0391 14.1172 15.8555C14.2031 15.6719 14.2461 15.4688 14.2461 15.2461C14.2461 15.0078 14.1973 14.8008 14.0996 14.625C14.0059 14.4492 13.8789 14.3027 13.7188 14.1855C13.5586 14.0684 13.3711 13.9824 13.1562 13.9277C12.9453 13.8691 12.7227 13.8398 12.4883 13.8398C12.1758 13.8398 11.8613 13.8691 11.5449 13.9277C11.2324 13.9824 10.8926 14.0801 10.5254 14.2207V9.44531Z" fill="#5B43D6"/>
</svg>
