<svg width="20" height="23" viewBox="0 0 20 23" fill="none" xmlns="http://www.w3.org/2000/svg">
<path d="M4.66546 0H4.10299C4.03122 0 3.96316 0.0150809 3.89722 0.0365096C3.56775 0.14336 3.32422 0.4951 3.32422 0.917033V1.30422V2.29526V2.81087C3.32422 2.90668 3.34018 2.9972 3.36333 3.08387C3.46248 3.45616 3.75423 3.72791 4.10299 3.72791H4.66546C5.09565 3.72791 5.44423 3.31738 5.44423 2.81087V2.29526V1.30422V0.917033C5.44423 0.410522 5.09565 0 4.66546 0Z" fill="#5B43D6"/>
<path d="M15.7328 0H15.1704C14.7402 0 14.3916 0.410522 14.3916 0.917033V1.30422V2.29526V2.81087C14.3916 3.31738 14.7402 3.72791 15.1704 3.72791H15.7328C16.163 3.72791 16.5116 3.31738 16.5116 2.81087V2.29526V1.30422V0.917033C16.5114 0.410522 16.1628 0 15.7328 0Z" fill="#5B43D6"/>
<path d="M18.6004 2.29688H17.2077V2.81249C17.2077 3.70512 16.5435 4.43127 15.7272 4.43127H15.1647C14.3484 4.43127 13.6842 3.70512 13.6842 2.81249V2.29688H6.13684V2.81249C6.13684 3.70512 5.47263 4.43127 4.65631 4.43127H4.09385C3.2775 4.43127 2.61332 3.70512 2.61332 2.81249V2.29688H1.39984C0.626865 2.29688 0 2.88459 0 3.60917V21.0867C0 21.8127 0.626828 22.399 1.39984 22.399H18.6002C19.3739 22.399 20 21.8125 20 21.0867V3.60935C20.0002 2.88477 19.3741 2.29688 18.6004 2.29688ZM18.1663 20.4727L1.78281 20.4664V6.37582H18.1663V20.4727Z" fill="#5B43D6"/>
<path d="M5.78125 12.8145C6.04688 12.8145 6.29102 12.7793 6.51367 12.709C6.73633 12.6348 6.92773 12.5371 7.08789 12.416C7.25195 12.2949 7.37891 12.1602 7.46875 12.0117C7.55859 11.8594 7.60352 11.7031 7.60352 11.543C7.60352 11.4102 7.56836 11.291 7.49805 11.1855C7.43164 11.0762 7.3418 10.9844 7.22852 10.9102C7.11914 10.8359 6.99414 10.7793 6.85352 10.7402C6.71289 10.6973 6.57031 10.6758 6.42578 10.6758C5.97266 10.6758 5.55664 10.7422 5.17773 10.875C4.79883 11.0078 4.44336 11.2441 4.11133 11.584L3.90625 10.2363C4.02344 10.1035 4.17188 9.98047 4.35156 9.86719C4.53125 9.75 4.72852 9.65039 4.94336 9.56836C5.16211 9.48242 5.39258 9.41602 5.63477 9.36914C5.87695 9.32227 6.12109 9.29883 6.36719 9.29883C6.78906 9.29883 7.17578 9.3457 7.52734 9.43945C7.87891 9.5332 8.18164 9.66797 8.43555 9.84375C8.68945 10.0156 8.88672 10.2266 9.02734 10.4766C9.16797 10.7266 9.23828 11.0078 9.23828 11.3203C9.23828 11.5898 9.17969 11.8438 9.0625 12.082C8.94531 12.3164 8.79492 12.5273 8.61133 12.7148C8.43164 12.8984 8.23047 13.0527 8.00781 13.1777C7.78516 13.3027 7.57031 13.3867 7.36328 13.4297C7.5 13.4531 7.64844 13.4883 7.80859 13.5352C7.97266 13.5781 8.13477 13.6387 8.29492 13.7168C8.45508 13.791 8.60938 13.8848 8.75781 13.998C8.90625 14.1074 9.03711 14.2402 9.15039 14.3965C9.26758 14.5488 9.35938 14.7266 9.42578 14.9297C9.49609 15.1328 9.53125 15.3652 9.53125 15.627C9.53125 15.9707 9.44531 16.2969 9.27344 16.6055C9.10547 16.9102 8.87109 17.1777 8.57031 17.4082C8.26953 17.6348 7.91211 17.8145 7.49805 17.9473C7.08789 18.0801 6.64258 18.1465 6.16211 18.1465C5.64258 18.1465 5.1543 18.0684 4.69727 17.9121C4.24414 17.752 3.86328 17.5273 3.55469 17.2383L3.75977 15.627C3.91992 15.8066 4.0957 15.9688 4.28711 16.1133C4.48242 16.2539 4.6875 16.373 4.90234 16.4707C5.12109 16.5684 5.3457 16.6426 5.57617 16.6934C5.81055 16.7441 6.04492 16.7695 6.2793 16.7695C6.49023 16.7695 6.68945 16.7422 6.87695 16.6875C7.06836 16.6289 7.23633 16.5449 7.38086 16.4355C7.5293 16.3262 7.64648 16.1934 7.73242 16.0371C7.81836 15.8809 7.86133 15.7051 7.86133 15.5098C7.86133 15.3301 7.81445 15.1621 7.7207 15.0059C7.63086 14.8496 7.49609 14.7129 7.31641 14.5957C7.14062 14.4785 6.92383 14.3867 6.66602 14.3203C6.4082 14.2539 6.11328 14.2207 5.78125 14.2207H5.25391V12.8145H5.78125ZM16.6504 13.6641C16.6504 14.5117 16.5723 15.2227 16.416 15.7969C16.2598 16.3672 16.041 16.8281 15.7598 17.1797C15.4785 17.5273 15.1406 17.7754 14.7461 17.9238C14.3555 18.0723 13.9258 18.1465 13.457 18.1465C12.9883 18.1465 12.5645 18.0723 12.1855 17.9238C11.8066 17.7715 11.4824 17.5254 11.2129 17.1855C10.9473 16.8418 10.7422 16.3926 10.5977 15.8379C10.4531 15.2793 10.3809 14.5938 10.3809 13.7812C10.3809 12.957 10.459 12.2598 10.6152 11.6895C10.7754 11.1191 10.9961 10.6582 11.2773 10.3066C11.5586 9.95117 11.8945 9.69531 12.2852 9.53906C12.6758 9.37891 13.1055 9.29883 13.5742 9.29883C14.0703 9.29883 14.5098 9.37695 14.8926 9.5332C15.2754 9.68555 15.5977 9.93555 15.8594 10.2832C16.1211 10.627 16.3184 11.0762 16.4512 11.6309C16.584 12.1855 16.6504 12.8633 16.6504 13.6641ZM14.9805 13.8105C14.9805 12.7246 14.8613 11.9258 14.623 11.4141C14.3887 10.9023 14.0195 10.6465 13.5156 10.6465C13.0391 10.6465 12.6758 10.8906 12.4258 11.3789C12.1758 11.8633 12.0508 12.6152 12.0508 13.6348C12.0508 14.7207 12.1719 15.5195 12.4141 16.0312C12.6562 16.543 13.0234 16.7988 13.5156 16.7988C13.9883 16.7988 14.3496 16.5547 14.5996 16.0664C14.8535 15.5781 14.9805 14.8262 14.9805 13.8105Z" fill="#5B43D6"/>
</svg>
