<svg width="20" height="23" viewBox="0 0 20 23" fill="none" xmlns="http://www.w3.org/2000/svg">
<path d="M4.66546 0H4.10299C4.03122 0 3.96316 0.0150809 3.89722 0.0365096C3.56775 0.14336 3.32422 0.4951 3.32422 0.917033V1.30422V2.29526V2.81087C3.32422 2.90668 3.34018 2.9972 3.36333 3.08387C3.46248 3.45616 3.75423 3.72791 4.10299 3.72791H4.66546C5.09565 3.72791 5.44423 3.31738 5.44423 2.81087V2.29526V1.30422V0.917033C5.44423 0.410522 5.09565 0 4.66546 0Z" fill="#5B43D6"/>
<path d="M15.7328 0H15.1704C14.7402 0 14.3916 0.410522 14.3916 0.917033V1.30422V2.29526V2.81087C14.3916 3.31738 14.7402 3.72791 15.1704 3.72791H15.7328C16.163 3.72791 16.5116 3.31738 16.5116 2.81087V2.29526V1.30422V0.917033C16.5114 0.410522 16.1628 0 15.7328 0Z" fill="#5B43D6"/>
<path d="M18.6004 2.29688H17.2077V2.81249C17.2077 3.70512 16.5435 4.43127 15.7272 4.43127H15.1647C14.3484 4.43127 13.6842 3.70512 13.6842 2.81249V2.29688H6.13684V2.81249C6.13684 3.70512 5.47263 4.43127 4.65631 4.43127H4.09385C3.2775 4.43127 2.61332 3.70512 2.61332 2.81249V2.29688H1.39984C0.626865 2.29688 0 2.88459 0 3.60917V21.0867C0 21.8127 0.626828 22.399 1.39984 22.399H18.6002C19.3739 22.399 20 21.8125 20 21.0867V3.60935C20.0002 2.88477 19.3741 2.29688 18.6004 2.29688ZM18.1663 20.4727L1.78281 20.4664V6.37582H18.1663V20.4727Z" fill="#5B43D6"/>
<path d="M3.55273 18V16.623H5.35156V11.1445L3.71094 12.0352L3.50586 10.5117L5.35156 9.44531H6.96289V16.623H8.76758V18H3.55273ZM13.3379 13.8398C12.9902 13.8398 12.668 13.8945 12.3711 14.0039C12.0781 14.1133 11.8164 14.2617 11.5859 14.4492C11.6016 14.7969 11.6543 15.1133 11.7441 15.3984C11.834 15.6836 11.9551 15.9277 12.1074 16.1309C12.2598 16.334 12.4395 16.4922 12.6465 16.6055C12.8574 16.7148 13.0898 16.7695 13.3438 16.7695C13.5586 16.7695 13.7539 16.7305 13.9297 16.6523C14.1055 16.5703 14.2559 16.4629 14.3809 16.3301C14.5059 16.1973 14.6016 16.0449 14.668 15.873C14.7383 15.6973 14.7734 15.5176 14.7734 15.334C14.7734 15.1191 14.7422 14.9219 14.6797 14.7422C14.6172 14.5586 14.5254 14.4004 14.4043 14.2676C14.2832 14.1348 14.1328 14.0312 13.9531 13.957C13.7773 13.8789 13.5723 13.8398 13.3379 13.8398ZM15.4121 11.3203C15.2871 11.1953 15.1562 11.0918 15.0195 11.0098C14.8828 10.9238 14.7441 10.8574 14.6035 10.8105C14.4629 10.7598 14.3203 10.7246 14.1758 10.7051C14.0312 10.6855 13.8887 10.6758 13.748 10.6758C13.4941 10.6758 13.25 10.7148 13.0156 10.793C12.7812 10.8711 12.5684 11.0078 12.377 11.2031C12.1895 11.3984 12.0293 11.666 11.8965 12.0059C11.7637 12.3418 11.6719 12.7676 11.6211 13.2832C11.8789 13.0684 12.1582 12.8984 12.459 12.7734C12.7637 12.6445 13.0957 12.5801 13.4551 12.5801C13.877 12.5801 14.2598 12.6484 14.6035 12.7852C14.9512 12.918 15.248 13.1035 15.4941 13.3418C15.7402 13.5801 15.9297 13.8633 16.0625 14.1914C16.1992 14.5156 16.2676 14.8672 16.2676 15.2461C16.2676 15.6719 16.1973 16.0625 16.0566 16.418C15.916 16.7734 15.7168 17.0801 15.459 17.3379C15.2012 17.5918 14.8906 17.791 14.5273 17.9355C14.168 18.0762 13.7656 18.1465 13.3203 18.1465C12.8008 18.1465 12.3359 18.0566 11.9258 17.877C11.5195 17.6973 11.1758 17.4336 10.8945 17.0859C10.6133 16.7383 10.3984 16.3066 10.25 15.791C10.1016 15.2754 10.0273 14.6836 10.0273 14.0156C10.0273 13.6367 10.0566 13.2578 10.1152 12.8789C10.1738 12.4961 10.2656 12.1309 10.3906 11.7832C10.5156 11.4316 10.6758 11.1055 10.8711 10.8047C11.0703 10.5 11.3086 10.2363 11.5859 10.0137C11.8672 9.79102 12.1914 9.61719 12.5586 9.49219C12.9258 9.36328 13.3418 9.29883 13.8066 9.29883C14.0098 9.29883 14.1973 9.30664 14.3691 9.32227C14.5449 9.33789 14.7109 9.36719 14.8672 9.41016C15.0273 9.44922 15.1816 9.50391 15.3301 9.57422C15.4824 9.64062 15.6348 9.72461 15.7871 9.82617L15.4121 11.3203Z" fill="#5B43D6"/>
</svg>
