<svg width="20" height="23" viewBox="0 0 20 23" fill="none" xmlns="http://www.w3.org/2000/svg">
<path d="M4.66546 0H4.10299C4.03122 0 3.96316 0.0150809 3.89722 0.0365096C3.56775 0.14336 3.32422 0.4951 3.32422 0.917033V1.30422V2.29526V2.81087C3.32422 2.90668 3.34018 2.9972 3.36333 3.08387C3.46248 3.45616 3.75423 3.72791 4.10299 3.72791H4.66546C5.09565 3.72791 5.44423 3.31738 5.44423 2.81087V2.29526V1.30422V0.917033C5.44423 0.410522 5.09565 0 4.66546 0Z" fill="#5B43D6"/>
<path d="M15.7328 0H15.1704C14.7402 0 14.3916 0.410522 14.3916 0.917033V1.30422V2.29526V2.81087C14.3916 3.31738 14.7402 3.72791 15.1704 3.72791H15.7328C16.163 3.72791 16.5116 3.31738 16.5116 2.81087V2.29526V1.30422V0.917033C16.5114 0.410522 16.1628 0 15.7328 0Z" fill="#5B43D6"/>
<path d="M18.6004 2.29688H17.2077V2.81249C17.2077 3.70512 16.5435 4.43127 15.7272 4.43127H15.1647C14.3484 4.43127 13.6842 3.70512 13.6842 2.81249V2.29688H6.13684V2.81249C6.13684 3.70512 5.47263 4.43127 4.65631 4.43127H4.09385C3.2775 4.43127 2.61332 3.70512 2.61332 2.81249V2.29688H1.39984C0.626865 2.29688 0 2.88459 0 3.60917V21.0867C0 21.8127 0.626828 22.399 1.39984 22.399H18.6002C19.3739 22.399 20 21.8125 20 21.0867V3.60935C20.0002 2.88477 19.3741 2.29688 18.6004 2.29688ZM18.1663 20.4727L1.78281 20.4664V6.37582H18.1663V20.4727Z" fill="#5B43D6"/>
<path d="M3.55273 18V16.623H5.35156V11.1445L3.71094 12.0352L3.50586 10.5117L5.35156 9.44531H6.96289V16.623H8.76758V18H3.55273ZM12.8633 13.3711C13.1953 13.3711 13.5078 13.3105 13.8008 13.1895C14.0938 13.0645 14.3516 12.9004 14.5742 12.6973C14.5156 12.0254 14.3457 11.5215 14.0645 11.1855C13.7832 10.8457 13.3809 10.6758 12.8574 10.6758C12.6387 10.6758 12.4395 10.709 12.2598 10.7754C12.084 10.8418 11.9336 10.9316 11.8086 11.0449C11.6836 11.1582 11.5859 11.291 11.5156 11.4434C11.4453 11.5957 11.4102 11.7578 11.4102 11.9297C11.4102 12.1445 11.4453 12.3398 11.5156 12.5156C11.5859 12.6914 11.6836 12.8438 11.8086 12.9727C11.9375 13.0977 12.0898 13.1953 12.2656 13.2656C12.4453 13.3359 12.6445 13.3711 12.8633 13.3711ZM10.7188 16.125C10.8438 16.25 10.9766 16.3555 11.1172 16.4414C11.2617 16.5234 11.4082 16.5898 11.5566 16.6406C11.7051 16.6875 11.8535 16.7207 12.002 16.7402C12.1543 16.7598 12.3008 16.7695 12.4414 16.7695C12.7031 16.7695 12.9551 16.7285 13.1973 16.6465C13.4395 16.5605 13.6562 16.4102 13.8477 16.1953C14.0391 15.9805 14.1992 15.6875 14.3281 15.3164C14.457 14.9453 14.5391 14.4727 14.5742 13.8984C14.3086 14.1211 14.0195 14.2988 13.707 14.4316C13.3945 14.5605 13.0664 14.625 12.7227 14.625C12.3164 14.625 11.9414 14.5605 11.5977 14.4316C11.2539 14.3027 10.957 14.127 10.707 13.9043C10.457 13.6777 10.2617 13.4141 10.1211 13.1133C9.98047 12.8086 9.91016 12.4805 9.91016 12.1289C9.91016 11.6914 9.99219 11.2988 10.1562 10.9512C10.3203 10.5996 10.541 10.3027 10.8184 10.0605C11.0957 9.81445 11.418 9.62695 11.7852 9.49805C12.1523 9.36523 12.541 9.29883 12.9512 9.29883C13.3301 9.29883 13.6719 9.35156 13.9766 9.45703C14.2812 9.55859 14.5527 9.70312 14.791 9.89062C15.0293 10.0742 15.2324 10.2949 15.4004 10.5527C15.5723 10.8066 15.7129 11.0879 15.8223 11.3965C15.9355 11.7012 16.0176 12.0273 16.0684 12.375C16.123 12.7188 16.1504 13.0703 16.1504 13.4297C16.1504 13.7891 16.1211 14.1562 16.0625 14.5312C16.0078 14.9023 15.918 15.2637 15.793 15.6152C15.668 15.9629 15.5059 16.291 15.3066 16.5996C15.1113 16.9082 14.873 17.1777 14.5918 17.4082C14.3145 17.6348 13.9922 17.8145 13.625 17.9473C13.2617 18.0801 12.8477 18.1465 12.3828 18.1465C12.0039 18.1465 11.6484 18.1016 11.3164 18.0117C10.9844 17.9258 10.6797 17.7949 10.4023 17.6191L10.7188 16.125Z" fill="#5B43D6"/>
</svg>
