<svg width="20" height="23" viewBox="0 0 20 23" fill="none" xmlns="http://www.w3.org/2000/svg">
<path d="M4.66546 0H4.10299C4.03122 0 3.96316 0.0150809 3.89722 0.0365096C3.56775 0.14336 3.32422 0.4951 3.32422 0.917033V1.30422V2.29526V2.81087C3.32422 2.90668 3.34018 2.9972 3.36333 3.08387C3.46248 3.45616 3.75423 3.72791 4.10299 3.72791H4.66546C5.09565 3.72791 5.44423 3.31738 5.44423 2.81087V2.29526V1.30422V0.917033C5.44423 0.410522 5.09565 0 4.66546 0Z" fill="#5B43D6"/>
<path d="M15.7328 0H15.1704C14.7402 0 14.3916 0.410522 14.3916 0.917033V1.30422V2.29526V2.81087C14.3916 3.31738 14.7402 3.72791 15.1704 3.72791H15.7328C16.163 3.72791 16.5116 3.31738 16.5116 2.81087V2.29526V1.30422V0.917033C16.5114 0.410522 16.1628 0 15.7328 0Z" fill="#5B43D6"/>
<path d="M18.6004 2.29688H17.2077V2.81249C17.2077 3.70512 16.5435 4.43127 15.7272 4.43127H15.1647C14.3484 4.43127 13.6842 3.70512 13.6842 2.81249V2.29688H6.13684V2.81249C6.13684 3.70512 5.47263 4.43127 4.65631 4.43127H4.09385C3.2775 4.43127 2.61332 3.70512 2.61332 2.81249V2.29688H1.39984C0.626865 2.29688 0 2.88459 0 3.60917V21.0867C0 21.8127 0.626828 22.399 1.39984 22.399H18.6002C19.3739 22.399 20 21.8125 20 21.0867V3.60935C20.0002 2.88477 19.3741 2.29688 18.6004 2.29688ZM18.1663 20.4727L1.78281 20.4664V6.37582H18.1663V20.4727Z" fill="#5B43D6"/>
<path d="M4.55273 18V16.623H6.35156V11.1445L4.71094 12.0352L4.50586 10.5117L6.35156 9.44531H7.96289V16.623H9.76758V18H4.55273ZM17.1504 13.6641C17.1504 14.5117 17.0723 15.2227 16.916 15.7969C16.7598 16.3672 16.541 16.8281 16.2598 17.1797C15.9785 17.5273 15.6406 17.7754 15.2461 17.9238C14.8555 18.0723 14.4258 18.1465 13.957 18.1465C13.4883 18.1465 13.0645 18.0723 12.6855 17.9238C12.3066 17.7715 11.9824 17.5254 11.7129 17.1855C11.4473 16.8418 11.2422 16.3926 11.0977 15.8379C10.9531 15.2793 10.8809 14.5938 10.8809 13.7812C10.8809 12.957 10.959 12.2598 11.1152 11.6895C11.2754 11.1191 11.4961 10.6582 11.7773 10.3066C12.0586 9.95117 12.3945 9.69531 12.7852 9.53906C13.1758 9.37891 13.6055 9.29883 14.0742 9.29883C14.5703 9.29883 15.0098 9.37695 15.3926 9.5332C15.7754 9.68555 16.0977 9.93555 16.3594 10.2832C16.6211 10.627 16.8184 11.0762 16.9512 11.6309C17.084 12.1855 17.1504 12.8633 17.1504 13.6641ZM15.4805 13.8105C15.4805 12.7246 15.3613 11.9258 15.123 11.4141C14.8887 10.9023 14.5195 10.6465 14.0156 10.6465C13.5391 10.6465 13.1758 10.8906 12.9258 11.3789C12.6758 11.8633 12.5508 12.6152 12.5508 13.6348C12.5508 14.7207 12.6719 15.5195 12.9141 16.0312C13.1562 16.543 13.5234 16.7988 14.0156 16.7988C14.4883 16.7988 14.8496 16.5547 15.0996 16.0664C15.3535 15.5781 15.4805 14.8262 15.4805 13.8105Z" fill="#5B43D6"/>
</svg>
