<svg width="20" height="23" viewBox="0 0 20 23" fill="none" xmlns="http://www.w3.org/2000/svg">
<path d="M4.66546 0H4.10299C4.03122 0 3.96316 0.0150809 3.89722 0.0365096C3.56775 0.14336 3.32422 0.4951 3.32422 0.917033V1.30422V2.29526V2.81087C3.32422 2.90668 3.34018 2.9972 3.36333 3.08387C3.46248 3.45616 3.75423 3.72791 4.10299 3.72791H4.66546C5.09565 3.72791 5.44423 3.31738 5.44423 2.81087V2.29526V1.30422V0.917033C5.44423 0.410522 5.09565 0 4.66546 0Z" fill="#5B43D6"/>
<path d="M15.7328 0H15.1704C14.7402 0 14.3916 0.410522 14.3916 0.917033V1.30422V2.29526V2.81087C14.3916 3.31738 14.7402 3.72791 15.1704 3.72791H15.7328C16.163 3.72791 16.5116 3.31738 16.5116 2.81087V2.29526V1.30422V0.917033C16.5114 0.410522 16.1628 0 15.7328 0Z" fill="#5B43D6"/>
<path d="M18.6004 2.29688H17.2077V2.81249C17.2077 3.70512 16.5435 4.43127 15.7272 4.43127H15.1647C14.3484 4.43127 13.6842 3.70512 13.6842 2.81249V2.29688H6.13684V2.81249C6.13684 3.70512 5.47263 4.43127 4.65631 4.43127H4.09385C3.2775 4.43127 2.61332 3.70512 2.61332 2.81249V2.29688H1.39984C0.626865 2.29688 0 2.88459 0 3.60917V21.0867C0 21.8127 0.626828 22.399 1.39984 22.399H18.6002C19.3739 22.399 20 21.8125 20 21.0867V3.60935C20.0002 2.88477 19.3741 2.29688 18.6004 2.29688ZM18.1663 20.4727L1.78281 20.4664V6.37582H18.1663V20.4727Z" fill="#5B43D6"/>
<path d="M3.55273 18V16.623H5.35156V11.1445L3.71094 12.0352L3.50586 10.5117L5.35156 9.44531H6.96289V16.623H8.76758V18H3.55273ZM11.2871 14.6602H13.7773V11.291L11.2871 14.6602ZM15.3301 15.9785V18H13.7773V15.9785H9.85156V14.6602L13.5723 9.44531H15.3301V14.6602H16.2676V15.9785H15.3301Z" fill="#5B43D6"/>
</svg>
