<svg width="20" height="23" viewBox="0 0 20 23" fill="none" xmlns="http://www.w3.org/2000/svg">
<path d="M4.66546 0H4.10299C4.03122 0 3.96316 0.0150809 3.89722 0.0365096C3.56775 0.14336 3.32422 0.4951 3.32422 0.917033V1.30422V2.29526V2.81087C3.32422 2.90668 3.34018 2.9972 3.36333 3.08387C3.46248 3.45616 3.75423 3.72791 4.10299 3.72791H4.66546C5.09565 3.72791 5.44423 3.31738 5.44423 2.81087V2.29526V1.30422V0.917033C5.44423 0.410522 5.09565 0 4.66546 0Z" fill="#5B43D6"/>
<path d="M15.7328 0H15.1704C14.7402 0 14.3916 0.410522 14.3916 0.917033V1.30422V2.29526V2.81087C14.3916 3.31738 14.7402 3.72791 15.1704 3.72791H15.7328C16.163 3.72791 16.5116 3.31738 16.5116 2.81087V2.29526V1.30422V0.917033C16.5114 0.410522 16.1628 0 15.7328 0Z" fill="#5B43D6"/>
<path d="M18.6004 2.29688H17.2077V2.81249C17.2077 3.70512 16.5435 4.43127 15.7272 4.43127H15.1647C14.3484 4.43127 13.6842 3.70512 13.6842 2.81249V2.29688H6.13684V2.81249C6.13684 3.70512 5.47263 4.43127 4.65631 4.43127H4.09385C3.2775 4.43127 2.61332 3.70512 2.61332 2.81249V2.29688H1.39984C0.626865 2.29688 0 2.88459 0 3.60917V21.0867C0 21.8127 0.626828 22.399 1.39984 22.399H18.6002C19.3739 22.399 20 21.8125 20 21.0867V3.60935C20.0002 2.88477 19.3741 2.29688 18.6004 2.29688ZM18.1663 20.4727L1.78281 20.4664V6.37582H18.1663V20.4727Z" fill="#5B43D6"/>
<path d="M9.35547 18H3.61328V16.7109C3.87891 16.5195 4.15625 16.3066 4.44531 16.0723C4.73438 15.8379 5.01953 15.5898 5.30078 15.3281C5.58203 15.0664 5.84961 14.7969 6.10352 14.5195C6.36133 14.2383 6.58594 13.957 6.77734 13.6758C6.97266 13.3945 7.12695 13.1172 7.24023 12.8438C7.35352 12.5664 7.41016 12.3027 7.41016 12.0527C7.41016 11.8809 7.38281 11.7168 7.32812 11.5605C7.27734 11.4043 7.19727 11.2676 7.08789 11.1504C6.98242 11.0332 6.84766 10.9395 6.68359 10.8691C6.51953 10.7988 6.32617 10.7637 6.10352 10.7637C5.92383 10.7637 5.73438 10.791 5.53516 10.8457C5.33984 10.8965 5.14648 10.9707 4.95508 11.0684C4.76758 11.166 4.58789 11.2812 4.41602 11.4141C4.24414 11.5469 4.09375 11.6914 3.96484 11.8477L3.58398 10.4414C3.7168 10.2773 3.88281 10.127 4.08203 9.99023C4.28516 9.84961 4.50586 9.72852 4.74414 9.62695C4.98242 9.52148 5.23047 9.44141 5.48828 9.38672C5.75 9.32812 6.00391 9.29883 6.25 9.29883C6.67578 9.29883 7.0625 9.35742 7.41016 9.47461C7.76172 9.58789 8.0625 9.75195 8.3125 9.9668C8.5625 10.1777 8.75586 10.4355 8.89258 10.7402C9.0293 11.041 9.09766 11.3809 9.09766 11.7598C9.09766 12.0801 9.04492 12.3965 8.93945 12.709C8.83789 13.0215 8.69922 13.3281 8.52344 13.6289C8.34766 13.9258 8.14648 14.2129 7.91992 14.4902C7.69336 14.7676 7.45703 15.0312 7.21094 15.2812C6.96484 15.5312 6.71875 15.7656 6.47266 15.9844C6.22656 16.1992 5.99609 16.3926 5.78125 16.5645H7.33398C7.62305 16.5645 7.86914 16.5645 8.07227 16.5645C8.27539 16.5605 8.45117 16.5566 8.59961 16.5527C8.75195 16.5449 8.88672 16.5352 9.00391 16.5234C9.12109 16.5117 9.23828 16.4961 9.35547 16.4766V18ZM16.6504 13.6641C16.6504 14.5117 16.5723 15.2227 16.416 15.7969C16.2598 16.3672 16.041 16.8281 15.7598 17.1797C15.4785 17.5273 15.1406 17.7754 14.7461 17.9238C14.3555 18.0723 13.9258 18.1465 13.457 18.1465C12.9883 18.1465 12.5645 18.0723 12.1855 17.9238C11.8066 17.7715 11.4824 17.5254 11.2129 17.1855C10.9473 16.8418 10.7422 16.3926 10.5977 15.8379C10.4531 15.2793 10.3809 14.5938 10.3809 13.7812C10.3809 12.957 10.459 12.2598 10.6152 11.6895C10.7754 11.1191 10.9961 10.6582 11.2773 10.3066C11.5586 9.95117 11.8945 9.69531 12.2852 9.53906C12.6758 9.37891 13.1055 9.29883 13.5742 9.29883C14.0703 9.29883 14.5098 9.37695 14.8926 9.5332C15.2754 9.68555 15.5977 9.93555 15.8594 10.2832C16.1211 10.627 16.3184 11.0762 16.4512 11.6309C16.584 12.1855 16.6504 12.8633 16.6504 13.6641ZM14.9805 13.8105C14.9805 12.7246 14.8613 11.9258 14.623 11.4141C14.3887 10.9023 14.0195 10.6465 13.5156 10.6465C13.0391 10.6465 12.6758 10.8906 12.4258 11.3789C12.1758 11.8633 12.0508 12.6152 12.0508 13.6348C12.0508 14.7207 12.1719 15.5195 12.4141 16.0312C12.6562 16.543 13.0234 16.7988 13.5156 16.7988C13.9883 16.7988 14.3496 16.5547 14.5996 16.0664C14.8535 15.5781 14.9805 14.8262 14.9805 13.8105Z" fill="#5B43D6"/>
</svg>
