<svg width="20" height="23" viewBox="0 0 20 23" fill="none" xmlns="http://www.w3.org/2000/svg">
<path d="M4.66546 0H4.10299C4.03122 0 3.96316 0.0150809 3.89722 0.0365096C3.56775 0.14336 3.32422 0.4951 3.32422 0.917033V1.30422V2.29526V2.81087C3.32422 2.90668 3.34018 2.9972 3.36333 3.08387C3.46248 3.45616 3.75423 3.72791 4.10299 3.72791H4.66546C5.09565 3.72791 5.44423 3.31738 5.44423 2.81087V2.29526V1.30422V0.917033C5.44423 0.410522 5.09565 0 4.66546 0Z" fill="#5B43D6"/>
<path d="M15.7328 0H15.1704C14.7402 0 14.3916 0.410522 14.3916 0.917033V1.30422V2.29526V2.81087C14.3916 3.31738 14.7402 3.72791 15.1704 3.72791H15.7328C16.163 3.72791 16.5116 3.31738 16.5116 2.81087V2.29526V1.30422V0.917033C16.5114 0.410522 16.1628 0 15.7328 0Z" fill="#5B43D6"/>
<path d="M18.6004 2.29688H17.2077V2.81249C17.2077 3.70512 16.5435 4.43127 15.7272 4.43127H15.1647C14.3484 4.43127 13.6842 3.70512 13.6842 2.81249V2.29688H6.13684V2.81249C6.13684 3.70512 5.47263 4.43127 4.65631 4.43127H4.09385C3.2775 4.43127 2.61332 3.70512 2.61332 2.81249V2.29688H1.39984C0.626865 2.29688 0 2.88459 0 3.60917V21.0867C0 21.8127 0.626828 22.399 1.39984 22.399H18.6002C19.3739 22.399 20 21.8125 20 21.0867V3.60935C20.0002 2.88477 19.3741 2.29688 18.6004 2.29688ZM18.1663 20.4727L1.78281 20.4664V6.37582H18.1663V20.4727Z" fill="#5B43D6"/>
<path d="M3.55273 18V16.623H5.35156V11.1445L3.71094 12.0352L3.50586 10.5117L5.35156 9.44531H6.96289V16.623H8.76758V18H3.55273ZM12.3125 12.8145C12.5781 12.8145 12.8223 12.7793 13.0449 12.709C13.2676 12.6348 13.459 12.5371 13.6191 12.416C13.7832 12.2949 13.9102 12.1602 14 12.0117C14.0898 11.8594 14.1348 11.7031 14.1348 11.543C14.1348 11.4102 14.0996 11.291 14.0293 11.1855C13.9629 11.0762 13.873 10.9844 13.7598 10.9102C13.6504 10.8359 13.5254 10.7793 13.3848 10.7402C13.2441 10.6973 13.1016 10.6758 12.957 10.6758C12.5039 10.6758 12.0879 10.7422 11.709 10.875C11.3301 11.0078 10.9746 11.2441 10.6426 11.584L10.4375 10.2363C10.5547 10.1035 10.7031 9.98047 10.8828 9.86719C11.0625 9.75 11.2598 9.65039 11.4746 9.56836C11.6934 9.48242 11.9238 9.41602 12.166 9.36914C12.4082 9.32227 12.6523 9.29883 12.8984 9.29883C13.3203 9.29883 13.707 9.3457 14.0586 9.43945C14.4102 9.5332 14.7129 9.66797 14.9668 9.84375C15.2207 10.0156 15.418 10.2266 15.5586 10.4766C15.6992 10.7266 15.7695 11.0078 15.7695 11.3203C15.7695 11.5898 15.7109 11.8438 15.5938 12.082C15.4766 12.3164 15.3262 12.5273 15.1426 12.7148C14.9629 12.8984 14.7617 13.0527 14.5391 13.1777C14.3164 13.3027 14.1016 13.3867 13.8945 13.4297C14.0312 13.4531 14.1797 13.4883 14.3398 13.5352C14.5039 13.5781 14.666 13.6387 14.8262 13.7168C14.9863 13.791 15.1406 13.8848 15.2891 13.998C15.4375 14.1074 15.5684 14.2402 15.6816 14.3965C15.7988 14.5488 15.8906 14.7266 15.957 14.9297C16.0273 15.1328 16.0625 15.3652 16.0625 15.627C16.0625 15.9707 15.9766 16.2969 15.8047 16.6055C15.6367 16.9102 15.4023 17.1777 15.1016 17.4082C14.8008 17.6348 14.4434 17.8145 14.0293 17.9473C13.6191 18.0801 13.1738 18.1465 12.6934 18.1465C12.1738 18.1465 11.6855 18.0684 11.2285 17.9121C10.7754 17.752 10.3945 17.5273 10.0859 17.2383L10.291 15.627C10.4512 15.8066 10.627 15.9688 10.8184 16.1133C11.0137 16.2539 11.2188 16.373 11.4336 16.4707C11.6523 16.5684 11.877 16.6426 12.1074 16.6934C12.3418 16.7441 12.5762 16.7695 12.8105 16.7695C13.0215 16.7695 13.2207 16.7422 13.4082 16.6875C13.5996 16.6289 13.7676 16.5449 13.9121 16.4355C14.0605 16.3262 14.1777 16.1934 14.2637 16.0371C14.3496 15.8809 14.3926 15.7051 14.3926 15.5098C14.3926 15.3301 14.3457 15.1621 14.252 15.0059C14.1621 14.8496 14.0273 14.7129 13.8477 14.5957C13.6719 14.4785 13.4551 14.3867 13.1973 14.3203C12.9395 14.2539 12.6445 14.2207 12.3125 14.2207H11.7852V12.8145H12.3125Z" fill="#5B43D6"/>
</svg>
