<svg width="20" height="23" viewBox="0 0 20 23" fill="none" xmlns="http://www.w3.org/2000/svg">
<path d="M4.66546 0H4.10299C4.03122 0 3.96316 0.0150809 3.89722 0.0365096C3.56775 0.14336 3.32422 0.4951 3.32422 0.917033V1.30422V2.29526V2.81087C3.32422 2.90668 3.34018 2.9972 3.36333 3.08387C3.46248 3.45616 3.75423 3.72791 4.10299 3.72791H4.66546C5.09565 3.72791 5.44423 3.31738 5.44423 2.81087V2.29526V1.30422V0.917033C5.44423 0.410522 5.09565 0 4.66546 0Z" fill="#5B43D6"/>
<path d="M15.7328 0H15.1704C14.7402 0 14.3916 0.410522 14.3916 0.917033V1.30422V2.29526V2.81087C14.3916 3.31738 14.7402 3.72791 15.1704 3.72791H15.7328C16.163 3.72791 16.5116 3.31738 16.5116 2.81087V2.29526V1.30422V0.917033C16.5114 0.410522 16.1628 0 15.7328 0Z" fill="#5B43D6"/>
<path d="M18.6004 2.29688H17.2077V2.81249C17.2077 3.70512 16.5435 4.43127 15.7272 4.43127H15.1647C14.3484 4.43127 13.6842 3.70512 13.6842 2.81249V2.29688H6.13684V2.81249C6.13684 3.70512 5.47263 4.43127 4.65631 4.43127H4.09385C3.2775 4.43127 2.61332 3.70512 2.61332 2.81249V2.29688H1.39984C0.626865 2.29688 0 2.88459 0 3.60917V21.0867C0 21.8127 0.626828 22.399 1.39984 22.399H18.6002C19.3739 22.399 20 21.8125 20 21.0867V3.60935C20.0002 2.88477 19.3741 2.29688 18.6004 2.29688ZM18.1663 20.4727L1.78281 20.4664V6.37582H18.1663V20.4727Z" fill="#5B43D6"/>
<path d="M3.55273 18V16.623H5.35156V11.1445L3.71094 12.0352L3.50586 10.5117L5.35156 9.44531H6.96289V16.623H8.76758V18H3.55273ZM14.5684 15.4512C14.5684 15.2363 14.5273 15.041 14.4453 14.8652C14.3672 14.6895 14.2578 14.5391 14.1172 14.4141C13.9766 14.2852 13.8105 14.1875 13.6191 14.1211C13.4316 14.0508 13.2305 14.0156 13.0156 14.0156C12.7969 14.0156 12.5918 14.0508 12.4004 14.1211C12.2129 14.1875 12.0488 14.2852 11.9082 14.4141C11.7715 14.5391 11.6621 14.6895 11.5801 14.8652C11.502 15.041 11.4629 15.2363 11.4629 15.4512C11.4629 15.6504 11.5 15.8379 11.5742 16.0137C11.6484 16.1895 11.752 16.3457 11.8848 16.4824C12.0215 16.6152 12.1855 16.7207 12.377 16.7988C12.5684 16.877 12.7812 16.916 13.0156 16.916C13.2617 16.916 13.4805 16.877 13.6719 16.7988C13.8672 16.7207 14.0293 16.6152 14.1582 16.4824C14.291 16.3457 14.3926 16.1895 14.4629 16.0137C14.5332 15.8379 14.5684 15.6504 14.5684 15.4512ZM14.2461 11.5547C14.2461 11.3984 14.2207 11.252 14.1699 11.1152C14.123 10.9785 14.0488 10.8613 13.9473 10.7637C13.8457 10.6621 13.7168 10.584 13.5605 10.5293C13.4082 10.4707 13.2266 10.4414 13.0156 10.4414C12.8359 10.4414 12.6699 10.4668 12.5176 10.5176C12.3691 10.5684 12.2402 10.6426 12.1309 10.7402C12.0215 10.8379 11.9355 10.9551 11.873 11.0918C11.8145 11.2285 11.7852 11.3828 11.7852 11.5547C11.7852 11.9258 11.8926 12.2188 12.1074 12.4336C12.3223 12.6484 12.625 12.7559 13.0156 12.7559C13.4062 12.7559 13.709 12.6484 13.9238 12.4336C14.1387 12.2188 14.2461 11.9258 14.2461 11.5547ZM13.0156 18.1465C12.6094 18.1465 12.2188 18.0898 11.8438 17.9766C11.4727 17.8633 11.1426 17.6992 10.8535 17.4844C10.5684 17.2656 10.3398 17.002 10.168 16.6934C9.99609 16.3809 9.91016 16.0254 9.91016 15.627C9.91016 15.2949 9.95312 15.0098 10.0391 14.7715C10.1289 14.5293 10.2441 14.3203 10.3848 14.1445C10.5293 13.9648 10.6934 13.8125 10.877 13.6875C11.0605 13.5586 11.2461 13.4434 11.4336 13.3418C11.3203 13.2793 11.1973 13.1992 11.0645 13.1016C10.9355 13.0039 10.8145 12.8828 10.7012 12.7383C10.5918 12.5938 10.5 12.4219 10.4258 12.2227C10.3555 12.0234 10.3203 11.791 10.3203 11.5254C10.3203 11.166 10.3945 10.8477 10.543 10.5703C10.6953 10.293 10.8965 10.0605 11.1465 9.87305C11.4004 9.68555 11.6934 9.54297 12.0254 9.44531C12.3613 9.34766 12.7109 9.29883 13.0742 9.29883C13.4414 9.29883 13.7852 9.34766 14.1055 9.44531C14.4258 9.54297 14.7051 9.68555 14.9434 9.87305C15.1816 10.0605 15.3691 10.293 15.5059 10.5703C15.6426 10.8477 15.7109 11.166 15.7109 11.5254C15.7109 11.791 15.6758 12.0234 15.6055 12.2227C15.5352 12.418 15.4453 12.5879 15.3359 12.7324C15.2305 12.877 15.1133 12.998 14.9844 13.0957C14.8594 13.1934 14.7402 13.2754 14.627 13.3418C14.7871 13.4238 14.9551 13.5234 15.1309 13.6406C15.3066 13.7578 15.4668 13.9043 15.6113 14.0801C15.7598 14.2559 15.8809 14.4648 15.9746 14.707C16.0723 14.9492 16.1211 15.2363 16.1211 15.5684C16.1211 15.9668 16.0352 16.3262 15.8633 16.6465C15.6914 16.9629 15.4609 17.2324 15.1719 17.4551C14.8867 17.6777 14.5566 17.8496 14.1816 17.9707C13.8105 18.0879 13.4219 18.1465 13.0156 18.1465Z" fill="#5B43D6"/>
</svg>
