<svg width="20" height="23" viewBox="0 0 20 23" fill="none" xmlns="http://www.w3.org/2000/svg">
<path d="M4.66546 0H4.10299C4.03122 0 3.96316 0.0150809 3.89722 0.0365096C3.56775 0.14336 3.32422 0.4951 3.32422 0.917033V1.30422V2.29526V2.81087C3.32422 2.90668 3.34018 2.9972 3.36333 3.08387C3.46248 3.45616 3.75423 3.72791 4.10299 3.72791H4.66546C5.09565 3.72791 5.44423 3.31738 5.44423 2.81087V2.29526V1.30422V0.917033C5.44423 0.410522 5.09565 0 4.66546 0Z" fill="#5B43D6"/>
<path d="M15.7328 0H15.1704C14.7402 0 14.3916 0.410522 14.3916 0.917033V1.30422V2.29526V2.81087C14.3916 3.31738 14.7402 3.72791 15.1704 3.72791H15.7328C16.163 3.72791 16.5116 3.31738 16.5116 2.81087V2.29526V1.30422V0.917033C16.5114 0.410522 16.1628 0 15.7328 0Z" fill="#5B43D6"/>
<path d="M18.6004 2.29688H17.2077V2.81249C17.2077 3.70512 16.5435 4.43127 15.7272 4.43127H15.1647C14.3484 4.43127 13.6842 3.70512 13.6842 2.81249V2.29688H6.13684V2.81249C6.13684 3.70512 5.47263 4.43127 4.65631 4.43127H4.09385C3.2775 4.43127 2.61332 3.70512 2.61332 2.81249V2.29688H1.39984C0.626865 2.29688 0 2.88459 0 3.60917V21.0867C0 21.8127 0.626828 22.399 1.39984 22.399H18.6002C19.3739 22.399 20 21.8125 20 21.0867V3.60935C20.0002 2.88477 19.3741 2.29688 18.6004 2.29688ZM18.1663 20.4727L1.78281 20.4664V6.37582H18.1663V20.4727Z" fill="#5B43D6"/>
<path d="M9.35547 18H3.61328V16.7109C3.87891 16.5195 4.15625 16.3066 4.44531 16.0723C4.73438 15.8379 5.01953 15.5898 5.30078 15.3281C5.58203 15.0664 5.84961 14.7969 6.10352 14.5195C6.36133 14.2383 6.58594 13.957 6.77734 13.6758C6.97266 13.3945 7.12695 13.1172 7.24023 12.8438C7.35352 12.5664 7.41016 12.3027 7.41016 12.0527C7.41016 11.8809 7.38281 11.7168 7.32812 11.5605C7.27734 11.4043 7.19727 11.2676 7.08789 11.1504C6.98242 11.0332 6.84766 10.9395 6.68359 10.8691C6.51953 10.7988 6.32617 10.7637 6.10352 10.7637C5.92383 10.7637 5.73438 10.791 5.53516 10.8457C5.33984 10.8965 5.14648 10.9707 4.95508 11.0684C4.76758 11.166 4.58789 11.2812 4.41602 11.4141C4.24414 11.5469 4.09375 11.6914 3.96484 11.8477L3.58398 10.4414C3.7168 10.2773 3.88281 10.127 4.08203 9.99023C4.28516 9.84961 4.50586 9.72852 4.74414 9.62695C4.98242 9.52148 5.23047 9.44141 5.48828 9.38672C5.75 9.32812 6.00391 9.29883 6.25 9.29883C6.67578 9.29883 7.0625 9.35742 7.41016 9.47461C7.76172 9.58789 8.0625 9.75195 8.3125 9.9668C8.5625 10.1777 8.75586 10.4355 8.89258 10.7402C9.0293 11.041 9.09766 11.3809 9.09766 11.7598C9.09766 12.0801 9.04492 12.3965 8.93945 12.709C8.83789 13.0215 8.69922 13.3281 8.52344 13.6289C8.34766 13.9258 8.14648 14.2129 7.91992 14.4902C7.69336 14.7676 7.45703 15.0312 7.21094 15.2812C6.96484 15.5312 6.71875 15.7656 6.47266 15.9844C6.22656 16.1992 5.99609 16.3926 5.78125 16.5645H7.33398C7.62305 16.5645 7.86914 16.5645 8.07227 16.5645C8.27539 16.5605 8.45117 16.5566 8.59961 16.5527C8.75195 16.5449 8.88672 16.5352 9.00391 16.5234C9.12109 16.5117 9.23828 16.4961 9.35547 16.4766V18ZM13.8379 13.8398C13.4902 13.8398 13.168 13.8945 12.8711 14.0039C12.5781 14.1133 12.3164 14.2617 12.0859 14.4492C12.1016 14.7969 12.1543 15.1133 12.2441 15.3984C12.334 15.6836 12.4551 15.9277 12.6074 16.1309C12.7598 16.334 12.9395 16.4922 13.1465 16.6055C13.3574 16.7148 13.5898 16.7695 13.8438 16.7695C14.0586 16.7695 14.2539 16.7305 14.4297 16.6523C14.6055 16.5703 14.7559 16.4629 14.8809 16.3301C15.0059 16.1973 15.1016 16.0449 15.168 15.873C15.2383 15.6973 15.2734 15.5176 15.2734 15.334C15.2734 15.1191 15.2422 14.9219 15.1797 14.7422C15.1172 14.5586 15.0254 14.4004 14.9043 14.2676C14.7832 14.1348 14.6328 14.0312 14.4531 13.957C14.2773 13.8789 14.0723 13.8398 13.8379 13.8398ZM15.9121 11.3203C15.7871 11.1953 15.6562 11.0918 15.5195 11.0098C15.3828 10.9238 15.2441 10.8574 15.1035 10.8105C14.9629 10.7598 14.8203 10.7246 14.6758 10.7051C14.5312 10.6855 14.3887 10.6758 14.248 10.6758C13.9941 10.6758 13.75 10.7148 13.5156 10.793C13.2812 10.8711 13.0684 11.0078 12.877 11.2031C12.6895 11.3984 12.5293 11.666 12.3965 12.0059C12.2637 12.3418 12.1719 12.7676 12.1211 13.2832C12.3789 13.0684 12.6582 12.8984 12.959 12.7734C13.2637 12.6445 13.5957 12.5801 13.9551 12.5801C14.377 12.5801 14.7598 12.6484 15.1035 12.7852C15.4512 12.918 15.748 13.1035 15.9941 13.3418C16.2402 13.5801 16.4297 13.8633 16.5625 14.1914C16.6992 14.5156 16.7676 14.8672 16.7676 15.2461C16.7676 15.6719 16.6973 16.0625 16.5566 16.418C16.416 16.7734 16.2168 17.0801 15.959 17.3379C15.7012 17.5918 15.3906 17.791 15.0273 17.9355C14.668 18.0762 14.2656 18.1465 13.8203 18.1465C13.3008 18.1465 12.8359 18.0566 12.4258 17.877C12.0195 17.6973 11.6758 17.4336 11.3945 17.0859C11.1133 16.7383 10.8984 16.3066 10.75 15.791C10.6016 15.2754 10.5273 14.6836 10.5273 14.0156C10.5273 13.6367 10.5566 13.2578 10.6152 12.8789C10.6738 12.4961 10.7656 12.1309 10.8906 11.7832C11.0156 11.4316 11.1758 11.1055 11.3711 10.8047C11.5703 10.5 11.8086 10.2363 12.0859 10.0137C12.3672 9.79102 12.6914 9.61719 13.0586 9.49219C13.4258 9.36328 13.8418 9.29883 14.3066 9.29883C14.5098 9.29883 14.6973 9.30664 14.8691 9.32227C15.0449 9.33789 15.2109 9.36719 15.3672 9.41016C15.5273 9.44922 15.6816 9.50391 15.8301 9.57422C15.9824 9.64062 16.1348 9.72461 16.2871 9.82617L15.9121 11.3203Z" fill="#5B43D6"/>
</svg>
