<svg width="20" height="23" viewBox="0 0 20 23" fill="none" xmlns="http://www.w3.org/2000/svg">
<path d="M4.66546 0H4.10299C4.03122 0 3.96316 0.0150809 3.89722 0.0365096C3.56775 0.14336 3.32422 0.4951 3.32422 0.917033V1.30422V2.29526V2.81087C3.32422 2.90668 3.34018 2.9972 3.36333 3.08387C3.46248 3.45616 3.75423 3.72791 4.10299 3.72791H4.66546C5.09565 3.72791 5.44423 3.31738 5.44423 2.81087V2.29526V1.30422V0.917033C5.44423 0.410522 5.09565 0 4.66546 0Z" fill="#5B43D6"/>
<path d="M15.7328 0H15.1704C14.7402 0 14.3916 0.410522 14.3916 0.917033V1.30422V2.29526V2.81087C14.3916 3.31738 14.7402 3.72791 15.1704 3.72791H15.7328C16.163 3.72791 16.5116 3.31738 16.5116 2.81087V2.29526V1.30422V0.917033C16.5114 0.410522 16.1628 0 15.7328 0Z" fill="#5B43D6"/>
<path d="M18.6004 2.29688H17.2077V2.81249C17.2077 3.70512 16.5435 4.43127 15.7272 4.43127H15.1647C14.3484 4.43127 13.6842 3.70512 13.6842 2.81249V2.29688H6.13684V2.81249C6.13684 3.70512 5.47263 4.43127 4.65631 4.43127H4.09385C3.2775 4.43127 2.61332 3.70512 2.61332 2.81249V2.29688H1.39984C0.626865 2.29688 0 2.88459 0 3.60917V21.0867C0 21.8127 0.626828 22.399 1.39984 22.399H18.6002C19.3739 22.399 20 21.8125 20 21.0867V3.60935C20.0002 2.88477 19.3741 2.29688 18.6004 2.29688ZM18.1663 20.4727L1.78281 20.4664V6.37582H18.1663V20.4727Z" fill="#5B43D6"/>
<path d="M9.35547 18H3.61328V16.7109C3.87891 16.5195 4.15625 16.3066 4.44531 16.0723C4.73438 15.8379 5.01953 15.5898 5.30078 15.3281C5.58203 15.0664 5.84961 14.7969 6.10352 14.5195C6.36133 14.2383 6.58594 13.957 6.77734 13.6758C6.97266 13.3945 7.12695 13.1172 7.24023 12.8438C7.35352 12.5664 7.41016 12.3027 7.41016 12.0527C7.41016 11.8809 7.38281 11.7168 7.32812 11.5605C7.27734 11.4043 7.19727 11.2676 7.08789 11.1504C6.98242 11.0332 6.84766 10.9395 6.68359 10.8691C6.51953 10.7988 6.32617 10.7637 6.10352 10.7637C5.92383 10.7637 5.73438 10.791 5.53516 10.8457C5.33984 10.8965 5.14648 10.9707 4.95508 11.0684C4.76758 11.166 4.58789 11.2812 4.41602 11.4141C4.24414 11.5469 4.09375 11.6914 3.96484 11.8477L3.58398 10.4414C3.7168 10.2773 3.88281 10.127 4.08203 9.99023C4.28516 9.84961 4.50586 9.72852 4.74414 9.62695C4.98242 9.52148 5.23047 9.44141 5.48828 9.38672C5.75 9.32812 6.00391 9.29883 6.25 9.29883C6.67578 9.29883 7.0625 9.35742 7.41016 9.47461C7.76172 9.58789 8.0625 9.75195 8.3125 9.9668C8.5625 10.1777 8.75586 10.4355 8.89258 10.7402C9.0293 11.041 9.09766 11.3809 9.09766 11.7598C9.09766 12.0801 9.04492 12.3965 8.93945 12.709C8.83789 13.0215 8.69922 13.3281 8.52344 13.6289C8.34766 13.9258 8.14648 14.2129 7.91992 14.4902C7.69336 14.7676 7.45703 15.0312 7.21094 15.2812C6.96484 15.5312 6.71875 15.7656 6.47266 15.9844C6.22656 16.1992 5.99609 16.3926 5.78125 16.5645H7.33398C7.62305 16.5645 7.86914 16.5645 8.07227 16.5645C8.27539 16.5605 8.45117 16.5566 8.59961 16.5527C8.75195 16.5449 8.88672 16.5352 9.00391 16.5234C9.12109 16.5117 9.23828 16.4961 9.35547 16.4766V18ZM16.3867 18H10.6445V16.7109C10.9102 16.5195 11.1875 16.3066 11.4766 16.0723C11.7656 15.8379 12.0508 15.5898 12.332 15.3281C12.6133 15.0664 12.8809 14.7969 13.1348 14.5195C13.3926 14.2383 13.6172 13.957 13.8086 13.6758C14.0039 13.3945 14.1582 13.1172 14.2715 12.8438C14.3848 12.5664 14.4414 12.3027 14.4414 12.0527C14.4414 11.8809 14.4141 11.7168 14.3594 11.5605C14.3086 11.4043 14.2285 11.2676 14.1191 11.1504C14.0137 11.0332 13.8789 10.9395 13.7148 10.8691C13.5508 10.7988 13.3574 10.7637 13.1348 10.7637C12.9551 10.7637 12.7656 10.791 12.5664 10.8457C12.3711 10.8965 12.1777 10.9707 11.9863 11.0684C11.7988 11.166 11.6191 11.2812 11.4473 11.4141C11.2754 11.5469 11.125 11.6914 10.9961 11.8477L10.6152 10.4414C10.748 10.2773 10.9141 10.127 11.1133 9.99023C11.3164 9.84961 11.5371 9.72852 11.7754 9.62695C12.0137 9.52148 12.2617 9.44141 12.5195 9.38672C12.7812 9.32812 13.0352 9.29883 13.2812 9.29883C13.707 9.29883 14.0938 9.35742 14.4414 9.47461C14.793 9.58789 15.0938 9.75195 15.3438 9.9668C15.5938 10.1777 15.7871 10.4355 15.9238 10.7402C16.0605 11.041 16.1289 11.3809 16.1289 11.7598C16.1289 12.0801 16.0762 12.3965 15.9707 12.709C15.8691 13.0215 15.7305 13.3281 15.5547 13.6289C15.3789 13.9258 15.1777 14.2129 14.9512 14.4902C14.7246 14.7676 14.4883 15.0312 14.2422 15.2812C13.9961 15.5312 13.75 15.7656 13.5039 15.9844C13.2578 16.1992 13.0273 16.3926 12.8125 16.5645H14.3652C14.6543 16.5645 14.9004 16.5645 15.1035 16.5645C15.3066 16.5605 15.4824 16.5566 15.6309 16.5527C15.7832 16.5449 15.918 16.5352 16.0352 16.5234C16.1523 16.5117 16.2695 16.4961 16.3867 16.4766V18Z" fill="#5B43D6"/>
</svg>
