<svg width="20" height="23" viewBox="0 0 20 23" fill="none" xmlns="http://www.w3.org/2000/svg">
<path d="M4.66546 0H4.10299C4.03122 0 3.96316 0.0150809 3.89722 0.0365096C3.56775 0.14336 3.32422 0.4951 3.32422 0.917033V1.30422V2.29526V2.81087C3.32422 2.90668 3.34018 2.9972 3.36333 3.08387C3.46248 3.45616 3.75423 3.72791 4.10299 3.72791H4.66546C5.09565 3.72791 5.44423 3.31738 5.44423 2.81087V2.29526V1.30422V0.917033C5.44423 0.410522 5.09565 0 4.66546 0Z" fill="#5B43D6"/>
<path d="M15.7328 0H15.1704C14.7402 0 14.3916 0.410522 14.3916 0.917033V1.30422V2.29526V2.81087C14.3916 3.31738 14.7402 3.72791 15.1704 3.72791H15.7328C16.163 3.72791 16.5116 3.31738 16.5116 2.81087V2.29526V1.30422V0.917033C16.5114 0.410522 16.1628 0 15.7328 0Z" fill="#5B43D6"/>
<path d="M18.6004 2.29688H17.2077V2.81249C17.2077 3.70512 16.5435 4.43127 15.7272 4.43127H15.1647C14.3484 4.43127 13.6842 3.70512 13.6842 2.81249V2.29688H6.13684V2.81249C6.13684 3.70512 5.47263 4.43127 4.65631 4.43127H4.09385C3.2775 4.43127 2.61332 3.70512 2.61332 2.81249V2.29688H1.39984C0.626865 2.29688 0 2.88459 0 3.60917V21.0867C0 21.8127 0.626828 22.399 1.39984 22.399H18.6002C19.3739 22.399 20 21.8125 20 21.0867V3.60935C20.0002 2.88477 19.3741 2.29688 18.6004 2.29688ZM18.1663 20.4727L1.78281 20.4664V6.37582H18.1663V20.4727Z" fill="#5B43D6"/>
<path d="M9.35547 18H3.61328V16.7109C3.87891 16.5195 4.15625 16.3066 4.44531 16.0723C4.73438 15.8379 5.01953 15.5898 5.30078 15.3281C5.58203 15.0664 5.84961 14.7969 6.10352 14.5195C6.36133 14.2383 6.58594 13.957 6.77734 13.6758C6.97266 13.3945 7.12695 13.1172 7.24023 12.8438C7.35352 12.5664 7.41016 12.3027 7.41016 12.0527C7.41016 11.8809 7.38281 11.7168 7.32812 11.5605C7.27734 11.4043 7.19727 11.2676 7.08789 11.1504C6.98242 11.0332 6.84766 10.9395 6.68359 10.8691C6.51953 10.7988 6.32617 10.7637 6.10352 10.7637C5.92383 10.7637 5.73438 10.791 5.53516 10.8457C5.33984 10.8965 5.14648 10.9707 4.95508 11.0684C4.76758 11.166 4.58789 11.2812 4.41602 11.4141C4.24414 11.5469 4.09375 11.6914 3.96484 11.8477L3.58398 10.4414C3.7168 10.2773 3.88281 10.127 4.08203 9.99023C4.28516 9.84961 4.50586 9.72852 4.74414 9.62695C4.98242 9.52148 5.23047 9.44141 5.48828 9.38672C5.75 9.32812 6.00391 9.29883 6.25 9.29883C6.67578 9.29883 7.0625 9.35742 7.41016 9.47461C7.76172 9.58789 8.0625 9.75195 8.3125 9.9668C8.5625 10.1777 8.75586 10.4355 8.89258 10.7402C9.0293 11.041 9.09766 11.3809 9.09766 11.7598C9.09766 12.0801 9.04492 12.3965 8.93945 12.709C8.83789 13.0215 8.69922 13.3281 8.52344 13.6289C8.34766 13.9258 8.14648 14.2129 7.91992 14.4902C7.69336 14.7676 7.45703 15.0312 7.21094 15.2812C6.96484 15.5312 6.71875 15.7656 6.47266 15.9844C6.22656 16.1992 5.99609 16.3926 5.78125 16.5645H7.33398C7.62305 16.5645 7.86914 16.5645 8.07227 16.5645C8.27539 16.5605 8.45117 16.5566 8.59961 16.5527C8.75195 16.5449 8.88672 16.5352 9.00391 16.5234C9.12109 16.5117 9.23828 16.4961 9.35547 16.4766V18ZM15.0684 15.4512C15.0684 15.2363 15.0273 15.041 14.9453 14.8652C14.8672 14.6895 14.7578 14.5391 14.6172 14.4141C14.4766 14.2852 14.3105 14.1875 14.1191 14.1211C13.9316 14.0508 13.7305 14.0156 13.5156 14.0156C13.2969 14.0156 13.0918 14.0508 12.9004 14.1211C12.7129 14.1875 12.5488 14.2852 12.4082 14.4141C12.2715 14.5391 12.1621 14.6895 12.0801 14.8652C12.002 15.041 11.9629 15.2363 11.9629 15.4512C11.9629 15.6504 12 15.8379 12.0742 16.0137C12.1484 16.1895 12.252 16.3457 12.3848 16.4824C12.5215 16.6152 12.6855 16.7207 12.877 16.7988C13.0684 16.877 13.2812 16.916 13.5156 16.916C13.7617 16.916 13.9805 16.877 14.1719 16.7988C14.3672 16.7207 14.5293 16.6152 14.6582 16.4824C14.791 16.3457 14.8926 16.1895 14.9629 16.0137C15.0332 15.8379 15.0684 15.6504 15.0684 15.4512ZM14.7461 11.5547C14.7461 11.3984 14.7207 11.252 14.6699 11.1152C14.623 10.9785 14.5488 10.8613 14.4473 10.7637C14.3457 10.6621 14.2168 10.584 14.0605 10.5293C13.9082 10.4707 13.7266 10.4414 13.5156 10.4414C13.3359 10.4414 13.1699 10.4668 13.0176 10.5176C12.8691 10.5684 12.7402 10.6426 12.6309 10.7402C12.5215 10.8379 12.4355 10.9551 12.373 11.0918C12.3145 11.2285 12.2852 11.3828 12.2852 11.5547C12.2852 11.9258 12.3926 12.2188 12.6074 12.4336C12.8223 12.6484 13.125 12.7559 13.5156 12.7559C13.9062 12.7559 14.209 12.6484 14.4238 12.4336C14.6387 12.2188 14.7461 11.9258 14.7461 11.5547ZM13.5156 18.1465C13.1094 18.1465 12.7188 18.0898 12.3438 17.9766C11.9727 17.8633 11.6426 17.6992 11.3535 17.4844C11.0684 17.2656 10.8398 17.002 10.668 16.6934C10.4961 16.3809 10.4102 16.0254 10.4102 15.627C10.4102 15.2949 10.4531 15.0098 10.5391 14.7715C10.6289 14.5293 10.7441 14.3203 10.8848 14.1445C11.0293 13.9648 11.1934 13.8125 11.377 13.6875C11.5605 13.5586 11.7461 13.4434 11.9336 13.3418C11.8203 13.2793 11.6973 13.1992 11.5645 13.1016C11.4355 13.0039 11.3145 12.8828 11.2012 12.7383C11.0918 12.5938 11 12.4219 10.9258 12.2227C10.8555 12.0234 10.8203 11.791 10.8203 11.5254C10.8203 11.166 10.8945 10.8477 11.043 10.5703C11.1953 10.293 11.3965 10.0605 11.6465 9.87305C11.9004 9.68555 12.1934 9.54297 12.5254 9.44531C12.8613 9.34766 13.2109 9.29883 13.5742 9.29883C13.9414 9.29883 14.2852 9.34766 14.6055 9.44531C14.9258 9.54297 15.2051 9.68555 15.4434 9.87305C15.6816 10.0605 15.8691 10.293 16.0059 10.5703C16.1426 10.8477 16.2109 11.166 16.2109 11.5254C16.2109 11.791 16.1758 12.0234 16.1055 12.2227C16.0352 12.418 15.9453 12.5879 15.8359 12.7324C15.7305 12.877 15.6133 12.998 15.4844 13.0957C15.3594 13.1934 15.2402 13.2754 15.127 13.3418C15.2871 13.4238 15.4551 13.5234 15.6309 13.6406C15.8066 13.7578 15.9668 13.9043 16.1113 14.0801C16.2598 14.2559 16.3809 14.4648 16.4746 14.707C16.5723 14.9492 16.6211 15.2363 16.6211 15.5684C16.6211 15.9668 16.5352 16.3262 16.3633 16.6465C16.1914 16.9629 15.9609 17.2324 15.6719 17.4551C15.3867 17.6777 15.0566 17.8496 14.6816 17.9707C14.3105 18.0879 13.9219 18.1465 13.5156 18.1465Z" fill="#5B43D6"/>
</svg>
