<svg width="20" height="23" viewBox="0 0 20 23" fill="none" xmlns="http://www.w3.org/2000/svg">
<path d="M4.66546 0H4.10299C4.03122 0 3.96316 0.0150809 3.89722 0.0365096C3.56775 0.14336 3.32422 0.4951 3.32422 0.917033V1.30422V2.29526V2.81087C3.32422 2.90668 3.34018 2.9972 3.36333 3.08387C3.46248 3.45616 3.75423 3.72791 4.10299 3.72791H4.66546C5.09565 3.72791 5.44423 3.31738 5.44423 2.81087V2.29526V1.30422V0.917033C5.44423 0.410522 5.09565 0 4.66546 0Z" fill="#5B43D6"/>
<path d="M15.7328 0H15.1704C14.7402 0 14.3916 0.410522 14.3916 0.917033V1.30422V2.29526V2.81087C14.3916 3.31738 14.7402 3.72791 15.1704 3.72791H15.7328C16.163 3.72791 16.5116 3.31738 16.5116 2.81087V2.29526V1.30422V0.917033C16.5114 0.410522 16.1628 0 15.7328 0Z" fill="#5B43D6"/>
<path d="M18.6004 2.29688H17.2077V2.81249C17.2077 3.70512 16.5435 4.43127 15.7272 4.43127H15.1647C14.3484 4.43127 13.6842 3.70512 13.6842 2.81249V2.29688H6.13684V2.81249C6.13684 3.70512 5.47263 4.43127 4.65631 4.43127H4.09385C3.2775 4.43127 2.61332 3.70512 2.61332 2.81249V2.29688H1.39984C0.626865 2.29688 0 2.88459 0 3.60917V21.0867C0 21.8127 0.626828 22.399 1.39984 22.399H18.6002C19.3739 22.399 20 21.8125 20 21.0867V3.60935C20.0002 2.88477 19.3741 2.29688 18.6004 2.29688ZM18.1663 20.4727L1.78281 20.4664V6.37582H18.1663V20.4727Z" fill="#5B43D6"/>
<path d="M10.1191 13.6641C10.1191 14.5117 10.041 15.2227 9.88477 15.7969C9.72852 16.3672 9.50977 16.8281 9.22852 17.1797C8.94727 17.5273 8.60938 17.7754 8.21484 17.9238C7.82422 18.0723 7.39453 18.1465 6.92578 18.1465C6.45703 18.1465 6.0332 18.0723 5.6543 17.9238C5.27539 17.7715 4.95117 17.5254 4.68164 17.1855C4.41602 16.8418 4.21094 16.3926 4.06641 15.8379C3.92188 15.2793 3.84961 14.5938 3.84961 13.7812C3.84961 12.957 3.92773 12.2598 4.08398 11.6895C4.24414 11.1191 4.46484 10.6582 4.74609 10.3066C5.02734 9.95117 5.36328 9.69531 5.75391 9.53906C6.14453 9.37891 6.57422 9.29883 7.04297 9.29883C7.53906 9.29883 7.97852 9.37695 8.36133 9.5332C8.74414 9.68555 9.06641 9.93555 9.32812 10.2832C9.58984 10.627 9.78711 11.0762 9.91992 11.6309C10.0527 12.1855 10.1191 12.8633 10.1191 13.6641ZM8.44922 13.8105C8.44922 12.7246 8.33008 11.9258 8.0918 11.4141C7.85742 10.9023 7.48828 10.6465 6.98438 10.6465C6.50781 10.6465 6.14453 10.8906 5.89453 11.3789C5.64453 11.8633 5.51953 12.6152 5.51953 13.6348C5.51953 14.7207 5.64062 15.5195 5.88281 16.0312C6.125 16.543 6.49219 16.7988 6.98438 16.7988C7.45703 16.7988 7.81836 16.5547 8.06836 16.0664C8.32227 15.5781 8.44922 14.8262 8.44922 13.8105ZM11.5254 9.44531H16.5352V10.998C16.4258 10.9746 16.3066 10.9551 16.1777 10.9395C16.0488 10.9238 15.916 10.9121 15.7793 10.9043C15.6426 10.8965 15.5059 10.8906 15.3691 10.8867C15.2324 10.8828 15.1035 10.8809 14.9824 10.8809H13.0488V12.7559C13.0957 12.7324 13.1562 12.709 13.2305 12.6855C13.3086 12.6621 13.3926 12.6406 13.4824 12.6211C13.5723 12.5977 13.666 12.5801 13.7637 12.5684C13.8613 12.5566 13.9551 12.5508 14.0449 12.5508C14.4512 12.5508 14.8262 12.6133 15.1699 12.7383C15.5176 12.8633 15.8184 13.043 16.0723 13.2773C16.3262 13.5078 16.5254 13.7871 16.6699 14.1152C16.8145 14.4434 16.8867 14.8105 16.8867 15.2168C16.8867 15.6738 16.7988 16.084 16.623 16.4473C16.4473 16.8105 16.207 17.1191 15.9023 17.373C15.6016 17.623 15.248 17.8145 14.8418 17.9473C14.4355 18.0801 14.0039 18.1465 13.5469 18.1465C13.0898 18.1465 12.6562 18.1016 12.2461 18.0117C11.8398 17.9219 11.4531 17.7617 11.0859 17.5312L11.3203 15.8906C11.5156 16.0508 11.7051 16.1855 11.8887 16.2949C12.0762 16.4004 12.2617 16.4863 12.4453 16.5527C12.6328 16.6191 12.8203 16.668 13.0078 16.6992C13.1992 16.7266 13.3984 16.7402 13.6055 16.7402C13.8398 16.7402 14.0566 16.7051 14.2559 16.6348C14.4551 16.5605 14.627 16.459 14.7715 16.3301C14.9199 16.1973 15.0352 16.0391 15.1172 15.8555C15.2031 15.6719 15.2461 15.4688 15.2461 15.2461C15.2461 15.0078 15.1973 14.8008 15.0996 14.625C15.0059 14.4492 14.8789 14.3027 14.7188 14.1855C14.5586 14.0684 14.3711 13.9824 14.1562 13.9277C13.9453 13.8691 13.7227 13.8398 13.4883 13.8398C13.1758 13.8398 12.8613 13.8691 12.5449 13.9277C12.2324 13.9824 11.8926 14.0801 11.5254 14.2207V9.44531Z" fill="#5B43D6"/>
</svg>
