<svg width="52" height="14" viewBox="0 0 52 14" fill="none" xmlns="http://www.w3.org/2000/svg">
<g id="asusLogo">
<path id="Vector" d="M67.0285 1.75945C67.0285 0.964439 67.6671 0.312791 68.4491 0.312791C68.827 0.312791 69.1789 0.469186 69.4526 0.729845C69.7263 1.00354 69.8697 1.36846 69.8697 1.74642C69.8697 2.12437 69.7263 2.48929 69.4526 2.76299C69.1789 3.03668 68.827 3.19307 68.4491 3.19307C67.6671 3.19307 67.0285 2.55446 67.0285 1.75945ZM66.9112 1.75945C66.9112 2.61962 67.6019 3.3234 68.4621 3.3234C68.8792 3.3234 69.2571 3.16701 69.5438 2.86725C69.8306 2.56749 70 2.1765 70 1.75945C70 1.34239 69.8436 0.951406 69.5438 0.651648C69.2441 0.35189 68.8661 0.195494 68.4621 0.195494C67.6019 0.195494 66.9112 0.899274 66.9112 1.75945ZM67.8756 2.68479H68.0972V1.95494H68.5924C68.6706 1.95494 68.7358 1.95494 68.7879 1.98101C68.8531 2.02011 68.8922 2.09831 68.9052 2.20257L68.9313 2.48929C68.9313 2.55446 68.9313 2.59356 68.9313 2.61962C68.9443 2.64569 68.9443 2.65872 68.9574 2.67176H69.2311V2.63266C69.192 2.61962 69.1789 2.58052 69.1659 2.52839C69.1529 2.50233 69.1529 2.4502 69.1529 2.38503L69.1398 2.16347C69.1398 2.05921 69.1138 1.99404 69.0877 1.95494C69.0486 1.91584 68.9965 1.87675 68.9313 1.85068C69.0095 1.81158 69.0616 1.75945 69.1007 1.69428C69.1398 1.62912 69.1529 1.55092 69.1529 1.44666C69.1529 1.25116 69.0747 1.12083 68.9313 1.04264C68.8531 1.00354 68.7488 0.990505 68.6315 0.990505H67.8887L67.8756 2.68479ZM68.0842 1.75945V1.17297H68.6055C68.6837 1.17297 68.7488 1.186 68.7879 1.21206C68.8661 1.25116 68.9052 1.34239 68.9052 1.45969C68.9052 1.57699 68.8792 1.65519 68.814 1.69428C68.7619 1.73338 68.6837 1.75945 68.5794 1.75945H68.0842ZM6.33402 3.90989L0 13.8671H4.32694L10.4264 4.35301L6.33402 3.90989ZM32.413 3.68833V0H20.0968C18.4156 0.104264 17.6857 0.912307 17.1383 1.48576C16.5519 2.09831 16.226 3.38857 16.226 3.38857V0.0260659H9.67045C9.1752 0.0260659 8.70601 0.234593 8.35412 0.729845C7.9892 1.21206 6.49041 3.68833 6.49041 3.68833H32.413ZM65.9077 3.68833V0H52.7313C51.0631 0.104264 50.3202 0.912307 49.7729 1.48576C49.1864 2.09831 48.8605 3.38857 48.8605 3.38857V3.68833H65.9077ZM36.7399 0.013033H33.0516V3.68833H36.7399V0.013033ZM48.8214 0.013033H45.1462V3.68833H48.8214V0.013033ZM48.8214 5.01769L45.1983 4.79613V9.0579C45.1983 9.0579 45.1853 10.283 43.9993 10.283H37.7956C37.7956 10.283 36.7399 10.1918 36.7399 9.07094V4.22268L33.0907 3.96202V10.4915C33.6772 13.6194 36.5053 13.8671 36.5053 13.8671C36.5053 13.8671 36.792 13.8801 36.8442 13.8931H45.2504C45.2504 13.8931 48.8475 13.6064 48.8475 10.1396L48.8214 5.01769ZM12.4725 13.8671H29.7021C32.6997 13.2675 33.0125 10.5306 33.0125 10.5306C33.1558 9.72258 33.0776 9.0579 33.0776 9.0579C32.9864 8.51052 31.9438 6.08639 29.7021 5.87786C28.3597 5.74753 16.4085 4.79613 16.4085 4.79613C16.6431 5.99516 17.1774 6.60771 17.5424 6.94656C18.3765 7.74158 19.6928 7.97617 19.6928 7.97617C20.0056 8.00223 28.9071 8.74511 28.9071 8.74511C29.1938 8.75815 29.7282 8.83634 29.7151 9.54012C29.7151 9.63135 29.6369 10.2439 28.9592 10.2439H16.0696V4.77006L12.4856 4.5094C12.4725 4.5094 12.4725 13.8671 12.4725 13.8671ZM48.8475 13.8931H62.0369C65.3472 13.6976 65.8164 10.5567 65.8164 10.5567C65.9337 9.73562 65.8425 9.0579 65.8425 9.0579C65.7513 8.31503 64.6956 6.07336 62.4409 5.8518C61.1115 5.72147 49.0821 5.01769 49.0821 5.01769C49.434 6.25582 49.9162 6.63377 50.2811 6.97263C51.1152 7.78067 52.3534 7.96314 52.3534 7.96314C52.6662 7.9892 61.6589 8.74511 61.6589 8.74511C61.9456 8.75815 62.5321 8.78421 62.5321 9.48799C62.5321 9.69652 62.4279 9.91808 62.2975 10.0354C62.2975 10.0354 61.9847 10.2048 61.685 10.2048H48.8866L48.8475 13.8931Z" fill="white"/>
</g>
</svg>
