<svg width="76" height="10" viewBox="0 0 76 10" fill="none" xmlns="http://www.w3.org/2000/svg">
<g id="gigabyteLogo">
<path id="Vector" d="M14.7535 0.0907288H12.1664V9.77662H14.7535V0.0907288Z" fill="white"/>
<path id="Vector_2" d="M30.0259 0.115723H33.2004L36.9373 9.8391H34.1003L33.3754 7.76445H29.7385L28.9636 9.8391H26.3266L30.0259 0.115723ZM31.6007 2.12789H31.5757L30.3259 5.91475H32.763L31.6007 2.12789Z" fill="white"/>
<path id="Vector_3" d="M37.9996 0.115723H42.4614C44.2861 0.115723 45.6233 0.915591 45.6233 2.57781C45.6233 3.80261 44.9985 4.48999 43.9236 4.85243V4.88993C45.2234 5.15238 45.8858 5.85227 45.8858 7.03957C45.8858 9.36418 43.8486 9.8516 42.0989 9.8516H38.0121V0.115723M40.5867 8.00191H41.3491C42.2864 8.00191 43.2737 7.86443 43.2737 6.8771C43.2737 5.81477 42.2614 5.71479 41.3741 5.71479H40.5867V8.00191ZM40.5867 3.96508H41.3116C42.1614 3.96508 43.0238 3.75262 43.0238 2.92775C43.0238 2.0404 42.1989 1.95292 41.3366 1.95292H40.5867V3.96508Z" fill="white"/>
<path id="Vector_4" d="M49.4727 6.17721L45.8608 0.115723H48.8478L50.76 4.02757L52.6347 0.115723H55.6217L52.0598 6.17721V9.8391H49.4727V6.17721Z" fill="white"/>
<path id="Vector_5" d="M58.7462 2.0404H56.3466V0.115723H63.7328V2.0404H61.3332V9.8391H58.7462V2.0404Z" fill="white"/>
<path id="Vector_6" d="M64.8451 0.115723H71.7065V1.96542H67.4322V3.96508H71.469V5.80227H67.4322V8.00191H71.8565V9.8391H64.8451V0.115723Z" fill="white"/>
<path id="Vector_7" d="M6.39238 2.07788C4.68016 2.21536 3.73032 3.35267 3.73032 4.81492C3.73032 6.23969 5.0551 7.43949 6.31739 7.43949H6.59235H7.06727C7.06727 7.43949 7.37971 7.43949 7.37971 7.13954V4.09005H10.0418C10.0418 5.80226 10.0293 9.67661 10.0293 9.67661C10.0293 9.67661 7.41721 9.67661 5.89246 9.67661C3.03044 9.67661 0.980782 7.30201 0.980782 4.82742C0.980782 2.14037 3.20541 -0.0967566 5.97995 0.00322673L9.94179 0.0157254V2.09038H6.39238" fill="white"/>
<path id="Vector_8" d="M21.6024 2.07788C19.8776 2.21536 18.9403 3.35267 18.9403 4.81492C18.9403 6.23969 20.2526 7.43949 21.5399 7.43949H21.8148H22.2772C22.2772 7.43949 22.5897 7.43949 22.5897 7.13954V4.09005H25.2392C25.2392 5.80226 25.2392 9.67661 25.2392 9.67661C25.2392 9.67661 22.6147 9.67661 21.1024 9.67661C18.2404 9.67661 16.2033 7.30201 16.2033 4.82742C16.2033 2.14037 18.4154 -0.0967566 21.2024 0.00322673H25.1518V2.07788H21.6024Z" fill="white"/>
<path id="Vector_9" d="M73.4187 0.415679H72.9563V0.22821H74.1186V0.415679H73.6437V1.72796H73.4187V0.415679Z" fill="white"/>
<path id="Vector_10" d="M74.3311 0.22821H74.681L75.1559 1.478L75.6183 0.22821H75.9808V1.72796H75.7558V0.428178L75.2559 1.72796H75.0434L74.556 0.428178H74.5435V1.72796H74.3311V0.22821Z" fill="white"/>
</g>
</svg>
