<svg width="51" height="16" viewBox="0 0 51 16" fill="none" xmlns="http://www.w3.org/2000/svg">
<g id="logtechLogo">
<path id="path3008" d="M0.479492 10.7363V0.222382H2.32639V10.7363H0.479492Z" fill="white"/>
<path id="path3010" d="M7.05405 3.10886C4.68609 3.10886 3.04742 4.92951 3.04742 7.01344C3.04742 9.33922 4.8301 10.9414 7.07245 10.9414C9.20057 10.9414 11.0473 9.3687 11.0473 7.00841C11.0473 5.02364 9.51702 3.10886 7.05405 3.10886ZM7.0323 4.89051C8.27152 4.89051 9.18367 5.85513 9.18367 7.02013C9.18367 8.25534 8.178 9.15643 7.06576 9.15643C5.75152 9.15643 4.92443 8.11478 4.92443 7.02347C4.92443 5.82726 5.85823 4.89051 7.0323 4.89051Z" fill="white"/>
<path id="path3012" d="M15.6876 3.10886C13.3197 3.10886 11.681 4.92951 11.681 7.01344C11.681 9.33922 13.4637 10.9414 15.706 10.9414C17.8341 10.9414 19.6809 9.3687 19.6809 7.00841C19.6809 5.6185 19.0789 5.00179 19.0789 5.00179L19.5909 4.82625V3.32732H16.9677C16.9677 3.32732 16.3991 3.10886 15.6876 3.10886ZM15.6659 4.89051C16.9051 4.89051 17.8172 5.85513 17.8172 7.02013C17.8172 8.25534 16.8116 9.15643 15.6993 9.15643C14.3851 9.15643 13.558 8.11478 13.558 7.02347C13.558 5.82726 14.4918 4.89051 15.6659 4.89051Z" fill="white"/>
<path id="path3014" d="M17.8042 11.2502C17.8042 12.4854 16.7985 13.3932 15.6863 13.3932C14.372 13.3932 13.5416 12.3415 13.5416 11.2502H11.6679C11.6679 13.576 13.4506 15.1782 15.693 15.1782C17.8211 15.1782 19.6678 13.6105 19.6678 11.2502H17.8042Z" fill="white"/>
<path id="path3016" d="M20.4206 10.7363V3.3273H22.2675V10.7363H20.4206Z" fill="white"/>
<path id="path3018" d="M24.0609 10.7363V4.98684H23.0705V3.32731H24.0609V1.05215H25.9078V3.32731H26.9249V4.98684H25.9078V10.7363H24.0609Z" fill="white"/>
<path id="path3020" d="M22.5632 1.22301C22.5632 1.89846 22.0156 2.44602 21.3402 2.44602C20.6647 2.44602 20.1172 1.89846 20.1172 1.22301C20.1172 0.547559 20.6647 0 21.3402 0C22.0156 0 22.5632 0.547559 22.5632 1.22301Z" fill="white"/>
<path id="path3022" d="M31.0771 3.10382C28.6979 3.10382 27.1641 4.92543 27.1641 7.08034C27.1641 9.30719 28.703 10.9464 31.1155 10.9464C33.366 10.9464 34.4731 9.54119 34.4731 9.54119L33.2385 8.30491C33.2385 8.30491 32.3063 9.31033 31.139 9.31033C30.1659 9.31033 29.3879 8.76721 29.1164 7.77124H34.8712V7.26268C34.8712 5.23344 33.6967 3.10382 31.0771 3.10382ZM31.0185 4.72989C31.8693 4.72989 32.7394 5.18506 32.934 6.27232H29.0662C29.2194 5.50804 29.888 4.72989 31.0185 4.72989Z" fill="white"/>
<path id="path3024" d="M39.4909 10.9474C37.105 10.9474 35.4792 9.13019 35.4792 6.98761C35.4792 4.77645 37.3166 3.10242 39.4832 3.10242C41.5777 3.10242 42.6498 4.581 42.6498 4.581L41.3614 5.86353C41.3614 5.86353 40.6151 4.89927 39.4744 4.89927C38.2102 4.89927 37.3458 5.86638 37.3458 7.01596C37.3458 8.22979 38.2653 9.16107 39.4602 9.16107C40.6193 9.16107 41.3596 8.19836 41.3596 8.19836L42.6609 9.48021C42.6609 9.48021 41.5992 10.9474 39.4909 10.9474Z" fill="white"/>
<path id="path3026" d="M43.3328 10.7417V0.195618H45.1797V4.07028C45.1797 4.07028 45.8869 3.10243 47.4252 3.10243C49.3591 3.10243 50.4795 4.54004 50.4795 6.3787V10.7417H48.6326V6.65784C48.6326 5.42259 47.8636 4.91012 47.0116 4.91012C46.0409 4.91012 45.1797 5.46253 45.1797 6.75343V10.7417H43.3328Z" fill="white"/>
</g>
</svg>
